%TF.GenerationSoftware,KiCad,Pcbnew,10.0.6*%
%TF.CreationDate,2026-10-06T22:15:40-05:00*%
%TF.ProjectId,telemetry_GPS_transmitter,74656c65-6d65-4747-9279-5f4750535f74,rev?*%
%TF.SameCoordinates,Original*%
%TF.FileFunction,Legend,Bot*%
%TF.FilePolarity,Positive*%
%FSLAX46Y46*%
G04 Gerber Fmt 4.6, Leading zero omitted, Abs format (unit mm)*
G04 Created by KiCad (PCBNEW 10.0.6) date 2026-10-06 22:15:40*
%MOMM*%
%LPD*%
G01*
G04 APERTURE LIST*
%ADD10C,0.150000*%
%ADD11C,0.254000*%
%ADD12C,0.120000*%
%ADD13C,0.200000*%
G04 APERTURE END LIST*
D10*
X153266666Y-75034580D02*
X153314285Y-75082200D01*
X153314285Y-75082200D02*
X153457142Y-75129819D01*
X153457142Y-75129819D02*
X153552380Y-75129819D01*
X153552380Y-75129819D02*
X153695237Y-75082200D01*
X153695237Y-75082200D02*
X153790475Y-74986961D01*
X153790475Y-74986961D02*
X153838094Y-74891723D01*
X153838094Y-74891723D02*
X153885713Y-74701247D01*
X153885713Y-74701247D02*
X153885713Y-74558390D01*
X153885713Y-74558390D02*
X153838094Y-74367914D01*
X153838094Y-74367914D02*
X153790475Y-74272676D01*
X153790475Y-74272676D02*
X153695237Y-74177438D01*
X153695237Y-74177438D02*
X153552380Y-74129819D01*
X153552380Y-74129819D02*
X153457142Y-74129819D01*
X153457142Y-74129819D02*
X153314285Y-74177438D01*
X153314285Y-74177438D02*
X153266666Y-74225057D01*
X152790475Y-75129819D02*
X152599999Y-75129819D01*
X152599999Y-75129819D02*
X152504761Y-75082200D01*
X152504761Y-75082200D02*
X152457142Y-75034580D01*
X152457142Y-75034580D02*
X152361904Y-74891723D01*
X152361904Y-74891723D02*
X152314285Y-74701247D01*
X152314285Y-74701247D02*
X152314285Y-74320295D01*
X152314285Y-74320295D02*
X152361904Y-74225057D01*
X152361904Y-74225057D02*
X152409523Y-74177438D01*
X152409523Y-74177438D02*
X152504761Y-74129819D01*
X152504761Y-74129819D02*
X152695237Y-74129819D01*
X152695237Y-74129819D02*
X152790475Y-74177438D01*
X152790475Y-74177438D02*
X152838094Y-74225057D01*
X152838094Y-74225057D02*
X152885713Y-74320295D01*
X152885713Y-74320295D02*
X152885713Y-74558390D01*
X152885713Y-74558390D02*
X152838094Y-74653628D01*
X152838094Y-74653628D02*
X152790475Y-74701247D01*
X152790475Y-74701247D02*
X152695237Y-74748866D01*
X152695237Y-74748866D02*
X152504761Y-74748866D01*
X152504761Y-74748866D02*
X152409523Y-74701247D01*
X152409523Y-74701247D02*
X152361904Y-74653628D01*
X152361904Y-74653628D02*
X152314285Y-74558390D01*
X171404166Y-70564580D02*
X171451785Y-70612200D01*
X171451785Y-70612200D02*
X171594642Y-70659819D01*
X171594642Y-70659819D02*
X171689880Y-70659819D01*
X171689880Y-70659819D02*
X171832737Y-70612200D01*
X171832737Y-70612200D02*
X171927975Y-70516961D01*
X171927975Y-70516961D02*
X171975594Y-70421723D01*
X171975594Y-70421723D02*
X172023213Y-70231247D01*
X172023213Y-70231247D02*
X172023213Y-70088390D01*
X172023213Y-70088390D02*
X171975594Y-69897914D01*
X171975594Y-69897914D02*
X171927975Y-69802676D01*
X171927975Y-69802676D02*
X171832737Y-69707438D01*
X171832737Y-69707438D02*
X171689880Y-69659819D01*
X171689880Y-69659819D02*
X171594642Y-69659819D01*
X171594642Y-69659819D02*
X171451785Y-69707438D01*
X171451785Y-69707438D02*
X171404166Y-69755057D01*
X171070832Y-69659819D02*
X170451785Y-69659819D01*
X170451785Y-69659819D02*
X170785118Y-70040771D01*
X170785118Y-70040771D02*
X170642261Y-70040771D01*
X170642261Y-70040771D02*
X170547023Y-70088390D01*
X170547023Y-70088390D02*
X170499404Y-70136009D01*
X170499404Y-70136009D02*
X170451785Y-70231247D01*
X170451785Y-70231247D02*
X170451785Y-70469342D01*
X170451785Y-70469342D02*
X170499404Y-70564580D01*
X170499404Y-70564580D02*
X170547023Y-70612200D01*
X170547023Y-70612200D02*
X170642261Y-70659819D01*
X170642261Y-70659819D02*
X170927975Y-70659819D01*
X170927975Y-70659819D02*
X171023213Y-70612200D01*
X171023213Y-70612200D02*
X171070832Y-70564580D01*
X162291666Y-67804580D02*
X162339285Y-67852200D01*
X162339285Y-67852200D02*
X162482142Y-67899819D01*
X162482142Y-67899819D02*
X162577380Y-67899819D01*
X162577380Y-67899819D02*
X162720237Y-67852200D01*
X162720237Y-67852200D02*
X162815475Y-67756961D01*
X162815475Y-67756961D02*
X162863094Y-67661723D01*
X162863094Y-67661723D02*
X162910713Y-67471247D01*
X162910713Y-67471247D02*
X162910713Y-67328390D01*
X162910713Y-67328390D02*
X162863094Y-67137914D01*
X162863094Y-67137914D02*
X162815475Y-67042676D01*
X162815475Y-67042676D02*
X162720237Y-66947438D01*
X162720237Y-66947438D02*
X162577380Y-66899819D01*
X162577380Y-66899819D02*
X162482142Y-66899819D01*
X162482142Y-66899819D02*
X162339285Y-66947438D01*
X162339285Y-66947438D02*
X162291666Y-66995057D01*
X161386904Y-66899819D02*
X161863094Y-66899819D01*
X161863094Y-66899819D02*
X161910713Y-67376009D01*
X161910713Y-67376009D02*
X161863094Y-67328390D01*
X161863094Y-67328390D02*
X161767856Y-67280771D01*
X161767856Y-67280771D02*
X161529761Y-67280771D01*
X161529761Y-67280771D02*
X161434523Y-67328390D01*
X161434523Y-67328390D02*
X161386904Y-67376009D01*
X161386904Y-67376009D02*
X161339285Y-67471247D01*
X161339285Y-67471247D02*
X161339285Y-67709342D01*
X161339285Y-67709342D02*
X161386904Y-67804580D01*
X161386904Y-67804580D02*
X161434523Y-67852200D01*
X161434523Y-67852200D02*
X161529761Y-67899819D01*
X161529761Y-67899819D02*
X161767856Y-67899819D01*
X161767856Y-67899819D02*
X161863094Y-67852200D01*
X161863094Y-67852200D02*
X161910713Y-67804580D01*
D11*
X142437381Y-84049318D02*
X142437381Y-82779318D01*
X142437381Y-82779318D02*
X142135000Y-82779318D01*
X142135000Y-82779318D02*
X141953571Y-82839794D01*
X141953571Y-82839794D02*
X141832619Y-82960746D01*
X141832619Y-82960746D02*
X141772142Y-83081699D01*
X141772142Y-83081699D02*
X141711666Y-83323603D01*
X141711666Y-83323603D02*
X141711666Y-83505032D01*
X141711666Y-83505032D02*
X141772142Y-83746937D01*
X141772142Y-83746937D02*
X141832619Y-83867889D01*
X141832619Y-83867889D02*
X141953571Y-83988842D01*
X141953571Y-83988842D02*
X142135000Y-84049318D01*
X142135000Y-84049318D02*
X142437381Y-84049318D01*
X140623095Y-83202651D02*
X140623095Y-84049318D01*
X140925476Y-82718842D02*
X141227857Y-83625984D01*
X141227857Y-83625984D02*
X140441666Y-83625984D01*
D10*
X165779580Y-83882142D02*
X165827200Y-83834523D01*
X165827200Y-83834523D02*
X165874819Y-83691666D01*
X165874819Y-83691666D02*
X165874819Y-83596428D01*
X165874819Y-83596428D02*
X165827200Y-83453571D01*
X165827200Y-83453571D02*
X165731961Y-83358333D01*
X165731961Y-83358333D02*
X165636723Y-83310714D01*
X165636723Y-83310714D02*
X165446247Y-83263095D01*
X165446247Y-83263095D02*
X165303390Y-83263095D01*
X165303390Y-83263095D02*
X165112914Y-83310714D01*
X165112914Y-83310714D02*
X165017676Y-83358333D01*
X165017676Y-83358333D02*
X164922438Y-83453571D01*
X164922438Y-83453571D02*
X164874819Y-83596428D01*
X164874819Y-83596428D02*
X164874819Y-83691666D01*
X164874819Y-83691666D02*
X164922438Y-83834523D01*
X164922438Y-83834523D02*
X164970057Y-83882142D01*
X165874819Y-84834523D02*
X165874819Y-84263095D01*
X165874819Y-84548809D02*
X164874819Y-84548809D01*
X164874819Y-84548809D02*
X165017676Y-84453571D01*
X165017676Y-84453571D02*
X165112914Y-84358333D01*
X165112914Y-84358333D02*
X165160533Y-84263095D01*
X164874819Y-85453571D02*
X164874819Y-85548809D01*
X164874819Y-85548809D02*
X164922438Y-85644047D01*
X164922438Y-85644047D02*
X164970057Y-85691666D01*
X164970057Y-85691666D02*
X165065295Y-85739285D01*
X165065295Y-85739285D02*
X165255771Y-85786904D01*
X165255771Y-85786904D02*
X165493866Y-85786904D01*
X165493866Y-85786904D02*
X165684342Y-85739285D01*
X165684342Y-85739285D02*
X165779580Y-85691666D01*
X165779580Y-85691666D02*
X165827200Y-85644047D01*
X165827200Y-85644047D02*
X165874819Y-85548809D01*
X165874819Y-85548809D02*
X165874819Y-85453571D01*
X165874819Y-85453571D02*
X165827200Y-85358333D01*
X165827200Y-85358333D02*
X165779580Y-85310714D01*
X165779580Y-85310714D02*
X165684342Y-85263095D01*
X165684342Y-85263095D02*
X165493866Y-85215476D01*
X165493866Y-85215476D02*
X165255771Y-85215476D01*
X165255771Y-85215476D02*
X165065295Y-85263095D01*
X165065295Y-85263095D02*
X164970057Y-85310714D01*
X164970057Y-85310714D02*
X164922438Y-85358333D01*
X164922438Y-85358333D02*
X164874819Y-85453571D01*
X153742857Y-76634580D02*
X153790476Y-76682200D01*
X153790476Y-76682200D02*
X153933333Y-76729819D01*
X153933333Y-76729819D02*
X154028571Y-76729819D01*
X154028571Y-76729819D02*
X154171428Y-76682200D01*
X154171428Y-76682200D02*
X154266666Y-76586961D01*
X154266666Y-76586961D02*
X154314285Y-76491723D01*
X154314285Y-76491723D02*
X154361904Y-76301247D01*
X154361904Y-76301247D02*
X154361904Y-76158390D01*
X154361904Y-76158390D02*
X154314285Y-75967914D01*
X154314285Y-75967914D02*
X154266666Y-75872676D01*
X154266666Y-75872676D02*
X154171428Y-75777438D01*
X154171428Y-75777438D02*
X154028571Y-75729819D01*
X154028571Y-75729819D02*
X153933333Y-75729819D01*
X153933333Y-75729819D02*
X153790476Y-75777438D01*
X153790476Y-75777438D02*
X153742857Y-75825057D01*
X152790476Y-76729819D02*
X153361904Y-76729819D01*
X153076190Y-76729819D02*
X153076190Y-75729819D01*
X153076190Y-75729819D02*
X153171428Y-75872676D01*
X153171428Y-75872676D02*
X153266666Y-75967914D01*
X153266666Y-75967914D02*
X153361904Y-76015533D01*
X151838095Y-76729819D02*
X152409523Y-76729819D01*
X152123809Y-76729819D02*
X152123809Y-75729819D01*
X152123809Y-75729819D02*
X152219047Y-75872676D01*
X152219047Y-75872676D02*
X152314285Y-75967914D01*
X152314285Y-75967914D02*
X152409523Y-76015533D01*
X173804166Y-84004580D02*
X173851785Y-84052200D01*
X173851785Y-84052200D02*
X173994642Y-84099819D01*
X173994642Y-84099819D02*
X174089880Y-84099819D01*
X174089880Y-84099819D02*
X174232737Y-84052200D01*
X174232737Y-84052200D02*
X174327975Y-83956961D01*
X174327975Y-83956961D02*
X174375594Y-83861723D01*
X174375594Y-83861723D02*
X174423213Y-83671247D01*
X174423213Y-83671247D02*
X174423213Y-83528390D01*
X174423213Y-83528390D02*
X174375594Y-83337914D01*
X174375594Y-83337914D02*
X174327975Y-83242676D01*
X174327975Y-83242676D02*
X174232737Y-83147438D01*
X174232737Y-83147438D02*
X174089880Y-83099819D01*
X174089880Y-83099819D02*
X173994642Y-83099819D01*
X173994642Y-83099819D02*
X173851785Y-83147438D01*
X173851785Y-83147438D02*
X173804166Y-83195057D01*
X172947023Y-83433152D02*
X172947023Y-84099819D01*
X173185118Y-83052200D02*
X173423213Y-83766485D01*
X173423213Y-83766485D02*
X172804166Y-83766485D01*
X146817857Y-78384580D02*
X146865476Y-78432200D01*
X146865476Y-78432200D02*
X147008333Y-78479819D01*
X147008333Y-78479819D02*
X147103571Y-78479819D01*
X147103571Y-78479819D02*
X147246428Y-78432200D01*
X147246428Y-78432200D02*
X147341666Y-78336961D01*
X147341666Y-78336961D02*
X147389285Y-78241723D01*
X147389285Y-78241723D02*
X147436904Y-78051247D01*
X147436904Y-78051247D02*
X147436904Y-77908390D01*
X147436904Y-77908390D02*
X147389285Y-77717914D01*
X147389285Y-77717914D02*
X147341666Y-77622676D01*
X147341666Y-77622676D02*
X147246428Y-77527438D01*
X147246428Y-77527438D02*
X147103571Y-77479819D01*
X147103571Y-77479819D02*
X147008333Y-77479819D01*
X147008333Y-77479819D02*
X146865476Y-77527438D01*
X146865476Y-77527438D02*
X146817857Y-77575057D01*
X146436904Y-77575057D02*
X146389285Y-77527438D01*
X146389285Y-77527438D02*
X146294047Y-77479819D01*
X146294047Y-77479819D02*
X146055952Y-77479819D01*
X146055952Y-77479819D02*
X145960714Y-77527438D01*
X145960714Y-77527438D02*
X145913095Y-77575057D01*
X145913095Y-77575057D02*
X145865476Y-77670295D01*
X145865476Y-77670295D02*
X145865476Y-77765533D01*
X145865476Y-77765533D02*
X145913095Y-77908390D01*
X145913095Y-77908390D02*
X146484523Y-78479819D01*
X146484523Y-78479819D02*
X145865476Y-78479819D01*
X144913095Y-78479819D02*
X145484523Y-78479819D01*
X145198809Y-78479819D02*
X145198809Y-77479819D01*
X145198809Y-77479819D02*
X145294047Y-77622676D01*
X145294047Y-77622676D02*
X145389285Y-77717914D01*
X145389285Y-77717914D02*
X145484523Y-77765533D01*
X153066666Y-78234580D02*
X153114285Y-78282200D01*
X153114285Y-78282200D02*
X153257142Y-78329819D01*
X153257142Y-78329819D02*
X153352380Y-78329819D01*
X153352380Y-78329819D02*
X153495237Y-78282200D01*
X153495237Y-78282200D02*
X153590475Y-78186961D01*
X153590475Y-78186961D02*
X153638094Y-78091723D01*
X153638094Y-78091723D02*
X153685713Y-77901247D01*
X153685713Y-77901247D02*
X153685713Y-77758390D01*
X153685713Y-77758390D02*
X153638094Y-77567914D01*
X153638094Y-77567914D02*
X153590475Y-77472676D01*
X153590475Y-77472676D02*
X153495237Y-77377438D01*
X153495237Y-77377438D02*
X153352380Y-77329819D01*
X153352380Y-77329819D02*
X153257142Y-77329819D01*
X153257142Y-77329819D02*
X153114285Y-77377438D01*
X153114285Y-77377438D02*
X153066666Y-77425057D01*
X152495237Y-77758390D02*
X152590475Y-77710771D01*
X152590475Y-77710771D02*
X152638094Y-77663152D01*
X152638094Y-77663152D02*
X152685713Y-77567914D01*
X152685713Y-77567914D02*
X152685713Y-77520295D01*
X152685713Y-77520295D02*
X152638094Y-77425057D01*
X152638094Y-77425057D02*
X152590475Y-77377438D01*
X152590475Y-77377438D02*
X152495237Y-77329819D01*
X152495237Y-77329819D02*
X152304761Y-77329819D01*
X152304761Y-77329819D02*
X152209523Y-77377438D01*
X152209523Y-77377438D02*
X152161904Y-77425057D01*
X152161904Y-77425057D02*
X152114285Y-77520295D01*
X152114285Y-77520295D02*
X152114285Y-77567914D01*
X152114285Y-77567914D02*
X152161904Y-77663152D01*
X152161904Y-77663152D02*
X152209523Y-77710771D01*
X152209523Y-77710771D02*
X152304761Y-77758390D01*
X152304761Y-77758390D02*
X152495237Y-77758390D01*
X152495237Y-77758390D02*
X152590475Y-77806009D01*
X152590475Y-77806009D02*
X152638094Y-77853628D01*
X152638094Y-77853628D02*
X152685713Y-77948866D01*
X152685713Y-77948866D02*
X152685713Y-78139342D01*
X152685713Y-78139342D02*
X152638094Y-78234580D01*
X152638094Y-78234580D02*
X152590475Y-78282200D01*
X152590475Y-78282200D02*
X152495237Y-78329819D01*
X152495237Y-78329819D02*
X152304761Y-78329819D01*
X152304761Y-78329819D02*
X152209523Y-78282200D01*
X152209523Y-78282200D02*
X152161904Y-78234580D01*
X152161904Y-78234580D02*
X152114285Y-78139342D01*
X152114285Y-78139342D02*
X152114285Y-77948866D01*
X152114285Y-77948866D02*
X152161904Y-77853628D01*
X152161904Y-77853628D02*
X152209523Y-77806009D01*
X152209523Y-77806009D02*
X152304761Y-77758390D01*
X154766666Y-80134580D02*
X154814285Y-80182200D01*
X154814285Y-80182200D02*
X154957142Y-80229819D01*
X154957142Y-80229819D02*
X155052380Y-80229819D01*
X155052380Y-80229819D02*
X155195237Y-80182200D01*
X155195237Y-80182200D02*
X155290475Y-80086961D01*
X155290475Y-80086961D02*
X155338094Y-79991723D01*
X155338094Y-79991723D02*
X155385713Y-79801247D01*
X155385713Y-79801247D02*
X155385713Y-79658390D01*
X155385713Y-79658390D02*
X155338094Y-79467914D01*
X155338094Y-79467914D02*
X155290475Y-79372676D01*
X155290475Y-79372676D02*
X155195237Y-79277438D01*
X155195237Y-79277438D02*
X155052380Y-79229819D01*
X155052380Y-79229819D02*
X154957142Y-79229819D01*
X154957142Y-79229819D02*
X154814285Y-79277438D01*
X154814285Y-79277438D02*
X154766666Y-79325057D01*
X154433332Y-79229819D02*
X153766666Y-79229819D01*
X153766666Y-79229819D02*
X154195237Y-80229819D01*
X142280357Y-78849819D02*
X142613690Y-78373628D01*
X142851785Y-78849819D02*
X142851785Y-77849819D01*
X142851785Y-77849819D02*
X142470833Y-77849819D01*
X142470833Y-77849819D02*
X142375595Y-77897438D01*
X142375595Y-77897438D02*
X142327976Y-77945057D01*
X142327976Y-77945057D02*
X142280357Y-78040295D01*
X142280357Y-78040295D02*
X142280357Y-78183152D01*
X142280357Y-78183152D02*
X142327976Y-78278390D01*
X142327976Y-78278390D02*
X142375595Y-78326009D01*
X142375595Y-78326009D02*
X142470833Y-78373628D01*
X142470833Y-78373628D02*
X142851785Y-78373628D01*
X141327976Y-78849819D02*
X141899404Y-78849819D01*
X141613690Y-78849819D02*
X141613690Y-77849819D01*
X141613690Y-77849819D02*
X141708928Y-77992676D01*
X141708928Y-77992676D02*
X141804166Y-78087914D01*
X141804166Y-78087914D02*
X141899404Y-78135533D01*
X140470833Y-78183152D02*
X140470833Y-78849819D01*
X140708928Y-77802200D02*
X140947023Y-78516485D01*
X140947023Y-78516485D02*
X140327976Y-78516485D01*
X146855357Y-83509819D02*
X147188690Y-83033628D01*
X147426785Y-83509819D02*
X147426785Y-82509819D01*
X147426785Y-82509819D02*
X147045833Y-82509819D01*
X147045833Y-82509819D02*
X146950595Y-82557438D01*
X146950595Y-82557438D02*
X146902976Y-82605057D01*
X146902976Y-82605057D02*
X146855357Y-82700295D01*
X146855357Y-82700295D02*
X146855357Y-82843152D01*
X146855357Y-82843152D02*
X146902976Y-82938390D01*
X146902976Y-82938390D02*
X146950595Y-82986009D01*
X146950595Y-82986009D02*
X147045833Y-83033628D01*
X147045833Y-83033628D02*
X147426785Y-83033628D01*
X145902976Y-83509819D02*
X146474404Y-83509819D01*
X146188690Y-83509819D02*
X146188690Y-82509819D01*
X146188690Y-82509819D02*
X146283928Y-82652676D01*
X146283928Y-82652676D02*
X146379166Y-82747914D01*
X146379166Y-82747914D02*
X146474404Y-82795533D01*
X145569642Y-82509819D02*
X144950595Y-82509819D01*
X144950595Y-82509819D02*
X145283928Y-82890771D01*
X145283928Y-82890771D02*
X145141071Y-82890771D01*
X145141071Y-82890771D02*
X145045833Y-82938390D01*
X145045833Y-82938390D02*
X144998214Y-82986009D01*
X144998214Y-82986009D02*
X144950595Y-83081247D01*
X144950595Y-83081247D02*
X144950595Y-83319342D01*
X144950595Y-83319342D02*
X144998214Y-83414580D01*
X144998214Y-83414580D02*
X145045833Y-83462200D01*
X145045833Y-83462200D02*
X145141071Y-83509819D01*
X145141071Y-83509819D02*
X145426785Y-83509819D01*
X145426785Y-83509819D02*
X145522023Y-83462200D01*
X145522023Y-83462200D02*
X145569642Y-83414580D01*
X135980357Y-72304580D02*
X136027976Y-72352200D01*
X136027976Y-72352200D02*
X136170833Y-72399819D01*
X136170833Y-72399819D02*
X136266071Y-72399819D01*
X136266071Y-72399819D02*
X136408928Y-72352200D01*
X136408928Y-72352200D02*
X136504166Y-72256961D01*
X136504166Y-72256961D02*
X136551785Y-72161723D01*
X136551785Y-72161723D02*
X136599404Y-71971247D01*
X136599404Y-71971247D02*
X136599404Y-71828390D01*
X136599404Y-71828390D02*
X136551785Y-71637914D01*
X136551785Y-71637914D02*
X136504166Y-71542676D01*
X136504166Y-71542676D02*
X136408928Y-71447438D01*
X136408928Y-71447438D02*
X136266071Y-71399819D01*
X136266071Y-71399819D02*
X136170833Y-71399819D01*
X136170833Y-71399819D02*
X136027976Y-71447438D01*
X136027976Y-71447438D02*
X135980357Y-71495057D01*
X135027976Y-72399819D02*
X135599404Y-72399819D01*
X135313690Y-72399819D02*
X135313690Y-71399819D01*
X135313690Y-71399819D02*
X135408928Y-71542676D01*
X135408928Y-71542676D02*
X135504166Y-71637914D01*
X135504166Y-71637914D02*
X135599404Y-71685533D01*
X134170833Y-71733152D02*
X134170833Y-72399819D01*
X134408928Y-71352200D02*
X134647023Y-72066485D01*
X134647023Y-72066485D02*
X134027976Y-72066485D01*
X153742857Y-73434580D02*
X153790476Y-73482200D01*
X153790476Y-73482200D02*
X153933333Y-73529819D01*
X153933333Y-73529819D02*
X154028571Y-73529819D01*
X154028571Y-73529819D02*
X154171428Y-73482200D01*
X154171428Y-73482200D02*
X154266666Y-73386961D01*
X154266666Y-73386961D02*
X154314285Y-73291723D01*
X154314285Y-73291723D02*
X154361904Y-73101247D01*
X154361904Y-73101247D02*
X154361904Y-72958390D01*
X154361904Y-72958390D02*
X154314285Y-72767914D01*
X154314285Y-72767914D02*
X154266666Y-72672676D01*
X154266666Y-72672676D02*
X154171428Y-72577438D01*
X154171428Y-72577438D02*
X154028571Y-72529819D01*
X154028571Y-72529819D02*
X153933333Y-72529819D01*
X153933333Y-72529819D02*
X153790476Y-72577438D01*
X153790476Y-72577438D02*
X153742857Y-72625057D01*
X152790476Y-73529819D02*
X153361904Y-73529819D01*
X153076190Y-73529819D02*
X153076190Y-72529819D01*
X153076190Y-72529819D02*
X153171428Y-72672676D01*
X153171428Y-72672676D02*
X153266666Y-72767914D01*
X153266666Y-72767914D02*
X153361904Y-72815533D01*
X152409523Y-72625057D02*
X152361904Y-72577438D01*
X152361904Y-72577438D02*
X152266666Y-72529819D01*
X152266666Y-72529819D02*
X152028571Y-72529819D01*
X152028571Y-72529819D02*
X151933333Y-72577438D01*
X151933333Y-72577438D02*
X151885714Y-72625057D01*
X151885714Y-72625057D02*
X151838095Y-72720295D01*
X151838095Y-72720295D02*
X151838095Y-72815533D01*
X151838095Y-72815533D02*
X151885714Y-72958390D01*
X151885714Y-72958390D02*
X152457142Y-73529819D01*
X152457142Y-73529819D02*
X151838095Y-73529819D01*
%TO.C,C9*%
D12*
X156378080Y-74165000D02*
X156096920Y-74165000D01*
X156378080Y-75185000D02*
X156096920Y-75185000D01*
%TO.C,C3*%
X171096920Y-68265000D02*
X171378080Y-68265000D01*
X171096920Y-69285000D02*
X171378080Y-69285000D01*
%TO.C,C5*%
X162265580Y-68365000D02*
X161984420Y-68365000D01*
X162265580Y-69385000D02*
X161984420Y-69385000D01*
%TO.C,D4*%
D13*
X140090000Y-82200000D02*
X142500000Y-82200000D01*
X140800000Y-80950000D02*
X142500000Y-80950000D01*
%TO.C,C10*%
D12*
X166340000Y-84384420D02*
X166340000Y-84665580D01*
X167360000Y-84384420D02*
X167360000Y-84665580D01*
%TO.C,C11*%
X156378080Y-75765000D02*
X156096920Y-75765000D01*
X156378080Y-76785000D02*
X156096920Y-76785000D01*
%TO.C,C4*%
X173778080Y-84565000D02*
X173496920Y-84565000D01*
X173778080Y-85585000D02*
X173496920Y-85585000D01*
%TO.C,C21*%
X146091233Y-79365000D02*
X146383767Y-79365000D01*
X146091233Y-80385000D02*
X146383767Y-80385000D01*
%TO.C,C8*%
X155740580Y-77265000D02*
X155459420Y-77265000D01*
X155740580Y-78285000D02*
X155459420Y-78285000D01*
%TO.C,C7*%
X157340580Y-79265000D02*
X157059420Y-79265000D01*
X157340580Y-80285000D02*
X157059420Y-80285000D01*
%TO.C,R14*%
X141874758Y-79302500D02*
X141400242Y-79302500D01*
X141874758Y-80347500D02*
X141400242Y-80347500D01*
%TO.C,R13*%
X145975242Y-81102500D02*
X146449758Y-81102500D01*
X145975242Y-82147500D02*
X146449758Y-82147500D01*
%TO.C,C14*%
X135478080Y-72865000D02*
X135196920Y-72865000D01*
X135478080Y-73885000D02*
X135196920Y-73885000D01*
%TO.C,C12*%
X156378080Y-72565000D02*
X156096920Y-72565000D01*
X156378080Y-73585000D02*
X156096920Y-73585000D01*
%TD*%
M02*
