M48
; DRILL file KiCad 10.0.6 date 2026-10-05T11:01:22
; FORMAT={-:-/ absolute / metric / decimal}
; #@! TF.CreationDate,2026-10-05T11:01:22-05:00
; #@! TF.GenerationSoftware,Kicad,Pcbnew,10.0.6
; #@! TF.FileFunction,Plated,1,2,Blind
FMAT,2
METRIC
; #@! TA.AperFunction,Plated,Buried,ViaDrill
T1C0.300
%
G90
G05
T1
X119.01Y-100.71
X129.2Y-78.2
X134.0Y-83.9
X137.4Y-84.2
X139.5Y-91.1
X149.1Y-96.8
X149.2Y-75.8
X150.5Y-92.8
X155.6Y-79.8
X157.8Y-74.5
X157.8Y-75.4
X157.8Y-76.4
X157.8Y-77.2
X157.8Y-77.9
X157.8Y-78.7
X158.655Y-78.653
X158.661Y-77.932
X158.693Y-76.402
X158.699Y-75.403
X158.699Y-77.231
X158.7Y-74.5
X159.701Y-74.597
X159.701Y-75.497
X159.701Y-76.497
X159.701Y-77.297
X159.701Y-77.997
X159.701Y-78.797
X160.556Y-78.75
X160.562Y-78.029
X160.594Y-76.499
X160.6Y-75.5
X160.6Y-77.327
X160.601Y-74.597
X161.401Y-74.597
X161.401Y-75.497
X161.401Y-76.497
X161.401Y-77.297
X161.401Y-77.997
X161.401Y-78.797
X161.6Y-64.1
X161.8Y-71.45
X162.256Y-78.75
X162.262Y-78.029
X162.294Y-76.499
X162.3Y-75.5
X162.3Y-77.327
X162.301Y-74.597
X163.0Y-112.9
X163.1Y-98.9
X164.1Y-68.4
X165.7Y-65.8
X167.7Y-72.9
X168.4Y-77.3
X168.6Y-72.9
X169.6Y-72.9
X169.7Y-78.0
X170.0Y-75.9
X170.1Y-74.8
X172.8Y-68.6
X172.8Y-71.2
X173.0Y-75.4
X174.5Y-77.0
X174.6Y-73.9
X175.7Y-79.9
X178.8Y-104.8
X178.8Y-105.8
X178.8Y-106.5
X178.8Y-107.3
X178.8Y-108.0
X178.8Y-108.8
X178.8Y-109.6
X178.8Y-110.4
X178.8Y-113.2
X178.8Y-114.2
X178.8Y-115.1
X178.8Y-116.1
X178.8Y-117.1
X179.7Y-104.8
X180.4Y-98.7
X180.4Y-100.8
X180.648Y-104.842
X180.7Y-63.6
X181.3Y-100.8
X181.4Y-98.7
X181.6Y-104.8
X182.1Y-65.7
X182.1Y-66.5
X182.2Y-67.2
X182.4Y-68.0
X182.4Y-98.7
X182.4Y-100.8
X182.582Y-104.814
X182.6Y-68.9
X182.7Y-69.8
X183.3Y-100.8
X183.4Y-98.7
X183.6Y-104.8
X184.4Y-69.7
X184.4Y-98.7
X184.4Y-100.8
X184.5Y-68.9
X184.6Y-68.0
X184.7Y-67.2
X184.702Y-104.828
X184.8Y-66.4
X184.9Y-65.6
X186.4Y-63.7
X186.9Y-100.6
X186.9Y-102.0
X186.9Y-103.3
X187.4Y-104.9
X187.6Y-72.9
X188.4Y-104.9
X189.4Y-104.9
X189.7Y-98.4
X190.4Y-104.9
X191.4Y-104.9
X192.4Y-104.9
X193.4Y-104.9
X194.4Y-104.9
X195.4Y-104.9
X196.4Y-104.9
X197.4Y-104.9
X198.4Y-104.9
X199.4Y-104.9
X200.4Y-104.9
X201.4Y-104.9
X202.4Y-104.9
X203.4Y-104.9
X204.4Y-104.9
X205.4Y-104.9
X206.3Y-81.8
X206.4Y-104.9
X207.4Y-104.9
X208.4Y-104.9
M30
