M48
; DRILL file KiCad 10.0.6 date 2026-10-03T10:19:17
; FORMAT={-:-/ absolute / metric / decimal}
; #@! TF.CreationDate,2026-10-03T10:19:17-05:00
; #@! TF.GenerationSoftware,Kicad,Pcbnew,10.0.6
; #@! TF.FileFunction,Plated,1,2,Blind
FMAT,2
METRIC
; #@! TA.AperFunction,Plated,Buried,ViaDrill
T1C0.300
%
G90
G05
T1
X119.8Y-96.9
X129.2Y-78.2
X134.0Y-83.9
X137.4Y-84.2
X139.5Y-91.1
X149.1Y-96.8
X149.2Y-75.8
X150.5Y-92.8
X155.6Y-79.8
X161.7Y-62.8
X161.8Y-71.45
X163.0Y-112.9
X163.1Y-98.9
X164.1Y-68.4
X165.8Y-64.4
X167.7Y-72.9
X168.4Y-77.3
X168.6Y-72.9
X169.6Y-72.9
X169.7Y-78.0
X170.0Y-75.9
X170.1Y-74.8
X173.0Y-75.4
X174.1Y-69.7
X174.4Y-72.3
X174.5Y-77.0
X174.6Y-73.9
X175.7Y-79.9
X178.8Y-104.8
X178.8Y-105.8
X178.8Y-107.3
X178.8Y-108.8
X178.8Y-110.4
X178.8Y-113.2
X178.8Y-115.0
X178.8Y-117.0
X179.7Y-104.8
X180.4Y-98.7
X180.4Y-100.8
X181.6Y-104.8
X181.9Y-66.4
X182.1Y-67.2
X182.3Y-68.0
X182.4Y-68.9
X182.4Y-98.7
X182.4Y-100.8
X182.6Y-69.7
X183.6Y-104.8
X184.4Y-69.7
X184.4Y-98.7
X184.4Y-100.8
X184.6Y-68.9
X184.7Y-68.0
X184.9Y-67.2
X185.0Y-66.3
X186.9Y-100.6
X186.9Y-102.0
X186.9Y-103.3
X187.4Y-104.9
X187.6Y-72.9
X189.4Y-104.9
X189.7Y-98.4
X191.4Y-104.9
X193.4Y-104.9
X195.4Y-104.9
X197.4Y-104.9
X199.4Y-104.9
X201.4Y-104.9
X203.4Y-104.9
X205.4Y-104.9
X206.0Y-83.2
X207.4Y-104.9
M30
