%TF.GenerationSoftware,KiCad,Pcbnew,10.0.6*%
%TF.CreationDate,2026-10-03T10:19:07-05:00*%
%TF.ProjectId,telemetry_GPS_transmitter,74656c65-6d65-4747-9279-5f4750535f74,rev?*%
%TF.SameCoordinates,Original*%
%TF.FileFunction,Legend,Bot*%
%TF.FilePolarity,Positive*%
%FSLAX46Y46*%
G04 Gerber Fmt 4.6, Leading zero omitted, Abs format (unit mm)*
G04 Created by KiCad (PCBNEW 10.0.6) date 2026-10-03 10:19:07*
%MOMM*%
%LPD*%
G01*
G04 APERTURE LIST*
%ADD10C,0.150000*%
%ADD11C,0.120000*%
G04 APERTURE END LIST*
D10*
X149441666Y-75759580D02*
X149489285Y-75807200D01*
X149489285Y-75807200D02*
X149632142Y-75854819D01*
X149632142Y-75854819D02*
X149727380Y-75854819D01*
X149727380Y-75854819D02*
X149870237Y-75807200D01*
X149870237Y-75807200D02*
X149965475Y-75711961D01*
X149965475Y-75711961D02*
X150013094Y-75616723D01*
X150013094Y-75616723D02*
X150060713Y-75426247D01*
X150060713Y-75426247D02*
X150060713Y-75283390D01*
X150060713Y-75283390D02*
X150013094Y-75092914D01*
X150013094Y-75092914D02*
X149965475Y-74997676D01*
X149965475Y-74997676D02*
X149870237Y-74902438D01*
X149870237Y-74902438D02*
X149727380Y-74854819D01*
X149727380Y-74854819D02*
X149632142Y-74854819D01*
X149632142Y-74854819D02*
X149489285Y-74902438D01*
X149489285Y-74902438D02*
X149441666Y-74950057D01*
X148965475Y-75854819D02*
X148774999Y-75854819D01*
X148774999Y-75854819D02*
X148679761Y-75807200D01*
X148679761Y-75807200D02*
X148632142Y-75759580D01*
X148632142Y-75759580D02*
X148536904Y-75616723D01*
X148536904Y-75616723D02*
X148489285Y-75426247D01*
X148489285Y-75426247D02*
X148489285Y-75045295D01*
X148489285Y-75045295D02*
X148536904Y-74950057D01*
X148536904Y-74950057D02*
X148584523Y-74902438D01*
X148584523Y-74902438D02*
X148679761Y-74854819D01*
X148679761Y-74854819D02*
X148870237Y-74854819D01*
X148870237Y-74854819D02*
X148965475Y-74902438D01*
X148965475Y-74902438D02*
X149013094Y-74950057D01*
X149013094Y-74950057D02*
X149060713Y-75045295D01*
X149060713Y-75045295D02*
X149060713Y-75283390D01*
X149060713Y-75283390D02*
X149013094Y-75378628D01*
X149013094Y-75378628D02*
X148965475Y-75426247D01*
X148965475Y-75426247D02*
X148870237Y-75473866D01*
X148870237Y-75473866D02*
X148679761Y-75473866D01*
X148679761Y-75473866D02*
X148584523Y-75426247D01*
X148584523Y-75426247D02*
X148536904Y-75378628D01*
X148536904Y-75378628D02*
X148489285Y-75283390D01*
X167304166Y-71289580D02*
X167351785Y-71337200D01*
X167351785Y-71337200D02*
X167494642Y-71384819D01*
X167494642Y-71384819D02*
X167589880Y-71384819D01*
X167589880Y-71384819D02*
X167732737Y-71337200D01*
X167732737Y-71337200D02*
X167827975Y-71241961D01*
X167827975Y-71241961D02*
X167875594Y-71146723D01*
X167875594Y-71146723D02*
X167923213Y-70956247D01*
X167923213Y-70956247D02*
X167923213Y-70813390D01*
X167923213Y-70813390D02*
X167875594Y-70622914D01*
X167875594Y-70622914D02*
X167827975Y-70527676D01*
X167827975Y-70527676D02*
X167732737Y-70432438D01*
X167732737Y-70432438D02*
X167589880Y-70384819D01*
X167589880Y-70384819D02*
X167494642Y-70384819D01*
X167494642Y-70384819D02*
X167351785Y-70432438D01*
X167351785Y-70432438D02*
X167304166Y-70480057D01*
X166970832Y-70384819D02*
X166351785Y-70384819D01*
X166351785Y-70384819D02*
X166685118Y-70765771D01*
X166685118Y-70765771D02*
X166542261Y-70765771D01*
X166542261Y-70765771D02*
X166447023Y-70813390D01*
X166447023Y-70813390D02*
X166399404Y-70861009D01*
X166399404Y-70861009D02*
X166351785Y-70956247D01*
X166351785Y-70956247D02*
X166351785Y-71194342D01*
X166351785Y-71194342D02*
X166399404Y-71289580D01*
X166399404Y-71289580D02*
X166447023Y-71337200D01*
X166447023Y-71337200D02*
X166542261Y-71384819D01*
X166542261Y-71384819D02*
X166827975Y-71384819D01*
X166827975Y-71384819D02*
X166923213Y-71337200D01*
X166923213Y-71337200D02*
X166970832Y-71289580D01*
X156554166Y-68429580D02*
X156601785Y-68477200D01*
X156601785Y-68477200D02*
X156744642Y-68524819D01*
X156744642Y-68524819D02*
X156839880Y-68524819D01*
X156839880Y-68524819D02*
X156982737Y-68477200D01*
X156982737Y-68477200D02*
X157077975Y-68381961D01*
X157077975Y-68381961D02*
X157125594Y-68286723D01*
X157125594Y-68286723D02*
X157173213Y-68096247D01*
X157173213Y-68096247D02*
X157173213Y-67953390D01*
X157173213Y-67953390D02*
X157125594Y-67762914D01*
X157125594Y-67762914D02*
X157077975Y-67667676D01*
X157077975Y-67667676D02*
X156982737Y-67572438D01*
X156982737Y-67572438D02*
X156839880Y-67524819D01*
X156839880Y-67524819D02*
X156744642Y-67524819D01*
X156744642Y-67524819D02*
X156601785Y-67572438D01*
X156601785Y-67572438D02*
X156554166Y-67620057D01*
X155649404Y-67524819D02*
X156125594Y-67524819D01*
X156125594Y-67524819D02*
X156173213Y-68001009D01*
X156173213Y-68001009D02*
X156125594Y-67953390D01*
X156125594Y-67953390D02*
X156030356Y-67905771D01*
X156030356Y-67905771D02*
X155792261Y-67905771D01*
X155792261Y-67905771D02*
X155697023Y-67953390D01*
X155697023Y-67953390D02*
X155649404Y-68001009D01*
X155649404Y-68001009D02*
X155601785Y-68096247D01*
X155601785Y-68096247D02*
X155601785Y-68334342D01*
X155601785Y-68334342D02*
X155649404Y-68429580D01*
X155649404Y-68429580D02*
X155697023Y-68477200D01*
X155697023Y-68477200D02*
X155792261Y-68524819D01*
X155792261Y-68524819D02*
X156030356Y-68524819D01*
X156030356Y-68524819D02*
X156125594Y-68477200D01*
X156125594Y-68477200D02*
X156173213Y-68429580D01*
X138238094Y-84454819D02*
X138238094Y-83454819D01*
X138238094Y-83454819D02*
X137999999Y-83454819D01*
X137999999Y-83454819D02*
X137857142Y-83502438D01*
X137857142Y-83502438D02*
X137761904Y-83597676D01*
X137761904Y-83597676D02*
X137714285Y-83692914D01*
X137714285Y-83692914D02*
X137666666Y-83883390D01*
X137666666Y-83883390D02*
X137666666Y-84026247D01*
X137666666Y-84026247D02*
X137714285Y-84216723D01*
X137714285Y-84216723D02*
X137761904Y-84311961D01*
X137761904Y-84311961D02*
X137857142Y-84407200D01*
X137857142Y-84407200D02*
X137999999Y-84454819D01*
X137999999Y-84454819D02*
X138238094Y-84454819D01*
X136809523Y-83788152D02*
X136809523Y-84454819D01*
X137047618Y-83407200D02*
X137285713Y-84121485D01*
X137285713Y-84121485D02*
X136666666Y-84121485D01*
X161479580Y-84497142D02*
X161527200Y-84449523D01*
X161527200Y-84449523D02*
X161574819Y-84306666D01*
X161574819Y-84306666D02*
X161574819Y-84211428D01*
X161574819Y-84211428D02*
X161527200Y-84068571D01*
X161527200Y-84068571D02*
X161431961Y-83973333D01*
X161431961Y-83973333D02*
X161336723Y-83925714D01*
X161336723Y-83925714D02*
X161146247Y-83878095D01*
X161146247Y-83878095D02*
X161003390Y-83878095D01*
X161003390Y-83878095D02*
X160812914Y-83925714D01*
X160812914Y-83925714D02*
X160717676Y-83973333D01*
X160717676Y-83973333D02*
X160622438Y-84068571D01*
X160622438Y-84068571D02*
X160574819Y-84211428D01*
X160574819Y-84211428D02*
X160574819Y-84306666D01*
X160574819Y-84306666D02*
X160622438Y-84449523D01*
X160622438Y-84449523D02*
X160670057Y-84497142D01*
X161574819Y-85449523D02*
X161574819Y-84878095D01*
X161574819Y-85163809D02*
X160574819Y-85163809D01*
X160574819Y-85163809D02*
X160717676Y-85068571D01*
X160717676Y-85068571D02*
X160812914Y-84973333D01*
X160812914Y-84973333D02*
X160860533Y-84878095D01*
X160574819Y-86068571D02*
X160574819Y-86163809D01*
X160574819Y-86163809D02*
X160622438Y-86259047D01*
X160622438Y-86259047D02*
X160670057Y-86306666D01*
X160670057Y-86306666D02*
X160765295Y-86354285D01*
X160765295Y-86354285D02*
X160955771Y-86401904D01*
X160955771Y-86401904D02*
X161193866Y-86401904D01*
X161193866Y-86401904D02*
X161384342Y-86354285D01*
X161384342Y-86354285D02*
X161479580Y-86306666D01*
X161479580Y-86306666D02*
X161527200Y-86259047D01*
X161527200Y-86259047D02*
X161574819Y-86163809D01*
X161574819Y-86163809D02*
X161574819Y-86068571D01*
X161574819Y-86068571D02*
X161527200Y-85973333D01*
X161527200Y-85973333D02*
X161479580Y-85925714D01*
X161479580Y-85925714D02*
X161384342Y-85878095D01*
X161384342Y-85878095D02*
X161193866Y-85830476D01*
X161193866Y-85830476D02*
X160955771Y-85830476D01*
X160955771Y-85830476D02*
X160765295Y-85878095D01*
X160765295Y-85878095D02*
X160670057Y-85925714D01*
X160670057Y-85925714D02*
X160622438Y-85973333D01*
X160622438Y-85973333D02*
X160574819Y-86068571D01*
X149667857Y-77109580D02*
X149715476Y-77157200D01*
X149715476Y-77157200D02*
X149858333Y-77204819D01*
X149858333Y-77204819D02*
X149953571Y-77204819D01*
X149953571Y-77204819D02*
X150096428Y-77157200D01*
X150096428Y-77157200D02*
X150191666Y-77061961D01*
X150191666Y-77061961D02*
X150239285Y-76966723D01*
X150239285Y-76966723D02*
X150286904Y-76776247D01*
X150286904Y-76776247D02*
X150286904Y-76633390D01*
X150286904Y-76633390D02*
X150239285Y-76442914D01*
X150239285Y-76442914D02*
X150191666Y-76347676D01*
X150191666Y-76347676D02*
X150096428Y-76252438D01*
X150096428Y-76252438D02*
X149953571Y-76204819D01*
X149953571Y-76204819D02*
X149858333Y-76204819D01*
X149858333Y-76204819D02*
X149715476Y-76252438D01*
X149715476Y-76252438D02*
X149667857Y-76300057D01*
X148715476Y-77204819D02*
X149286904Y-77204819D01*
X149001190Y-77204819D02*
X149001190Y-76204819D01*
X149001190Y-76204819D02*
X149096428Y-76347676D01*
X149096428Y-76347676D02*
X149191666Y-76442914D01*
X149191666Y-76442914D02*
X149286904Y-76490533D01*
X147763095Y-77204819D02*
X148334523Y-77204819D01*
X148048809Y-77204819D02*
X148048809Y-76204819D01*
X148048809Y-76204819D02*
X148144047Y-76347676D01*
X148144047Y-76347676D02*
X148239285Y-76442914D01*
X148239285Y-76442914D02*
X148334523Y-76490533D01*
X169704166Y-84729580D02*
X169751785Y-84777200D01*
X169751785Y-84777200D02*
X169894642Y-84824819D01*
X169894642Y-84824819D02*
X169989880Y-84824819D01*
X169989880Y-84824819D02*
X170132737Y-84777200D01*
X170132737Y-84777200D02*
X170227975Y-84681961D01*
X170227975Y-84681961D02*
X170275594Y-84586723D01*
X170275594Y-84586723D02*
X170323213Y-84396247D01*
X170323213Y-84396247D02*
X170323213Y-84253390D01*
X170323213Y-84253390D02*
X170275594Y-84062914D01*
X170275594Y-84062914D02*
X170227975Y-83967676D01*
X170227975Y-83967676D02*
X170132737Y-83872438D01*
X170132737Y-83872438D02*
X169989880Y-83824819D01*
X169989880Y-83824819D02*
X169894642Y-83824819D01*
X169894642Y-83824819D02*
X169751785Y-83872438D01*
X169751785Y-83872438D02*
X169704166Y-83920057D01*
X168847023Y-84158152D02*
X168847023Y-84824819D01*
X169085118Y-83777200D02*
X169323213Y-84491485D01*
X169323213Y-84491485D02*
X168704166Y-84491485D01*
X142717857Y-79109580D02*
X142765476Y-79157200D01*
X142765476Y-79157200D02*
X142908333Y-79204819D01*
X142908333Y-79204819D02*
X143003571Y-79204819D01*
X143003571Y-79204819D02*
X143146428Y-79157200D01*
X143146428Y-79157200D02*
X143241666Y-79061961D01*
X143241666Y-79061961D02*
X143289285Y-78966723D01*
X143289285Y-78966723D02*
X143336904Y-78776247D01*
X143336904Y-78776247D02*
X143336904Y-78633390D01*
X143336904Y-78633390D02*
X143289285Y-78442914D01*
X143289285Y-78442914D02*
X143241666Y-78347676D01*
X143241666Y-78347676D02*
X143146428Y-78252438D01*
X143146428Y-78252438D02*
X143003571Y-78204819D01*
X143003571Y-78204819D02*
X142908333Y-78204819D01*
X142908333Y-78204819D02*
X142765476Y-78252438D01*
X142765476Y-78252438D02*
X142717857Y-78300057D01*
X142336904Y-78300057D02*
X142289285Y-78252438D01*
X142289285Y-78252438D02*
X142194047Y-78204819D01*
X142194047Y-78204819D02*
X141955952Y-78204819D01*
X141955952Y-78204819D02*
X141860714Y-78252438D01*
X141860714Y-78252438D02*
X141813095Y-78300057D01*
X141813095Y-78300057D02*
X141765476Y-78395295D01*
X141765476Y-78395295D02*
X141765476Y-78490533D01*
X141765476Y-78490533D02*
X141813095Y-78633390D01*
X141813095Y-78633390D02*
X142384523Y-79204819D01*
X142384523Y-79204819D02*
X141765476Y-79204819D01*
X140813095Y-79204819D02*
X141384523Y-79204819D01*
X141098809Y-79204819D02*
X141098809Y-78204819D01*
X141098809Y-78204819D02*
X141194047Y-78347676D01*
X141194047Y-78347676D02*
X141289285Y-78442914D01*
X141289285Y-78442914D02*
X141384523Y-78490533D01*
X148804166Y-78859580D02*
X148851785Y-78907200D01*
X148851785Y-78907200D02*
X148994642Y-78954819D01*
X148994642Y-78954819D02*
X149089880Y-78954819D01*
X149089880Y-78954819D02*
X149232737Y-78907200D01*
X149232737Y-78907200D02*
X149327975Y-78811961D01*
X149327975Y-78811961D02*
X149375594Y-78716723D01*
X149375594Y-78716723D02*
X149423213Y-78526247D01*
X149423213Y-78526247D02*
X149423213Y-78383390D01*
X149423213Y-78383390D02*
X149375594Y-78192914D01*
X149375594Y-78192914D02*
X149327975Y-78097676D01*
X149327975Y-78097676D02*
X149232737Y-78002438D01*
X149232737Y-78002438D02*
X149089880Y-77954819D01*
X149089880Y-77954819D02*
X148994642Y-77954819D01*
X148994642Y-77954819D02*
X148851785Y-78002438D01*
X148851785Y-78002438D02*
X148804166Y-78050057D01*
X148232737Y-78383390D02*
X148327975Y-78335771D01*
X148327975Y-78335771D02*
X148375594Y-78288152D01*
X148375594Y-78288152D02*
X148423213Y-78192914D01*
X148423213Y-78192914D02*
X148423213Y-78145295D01*
X148423213Y-78145295D02*
X148375594Y-78050057D01*
X148375594Y-78050057D02*
X148327975Y-78002438D01*
X148327975Y-78002438D02*
X148232737Y-77954819D01*
X148232737Y-77954819D02*
X148042261Y-77954819D01*
X148042261Y-77954819D02*
X147947023Y-78002438D01*
X147947023Y-78002438D02*
X147899404Y-78050057D01*
X147899404Y-78050057D02*
X147851785Y-78145295D01*
X147851785Y-78145295D02*
X147851785Y-78192914D01*
X147851785Y-78192914D02*
X147899404Y-78288152D01*
X147899404Y-78288152D02*
X147947023Y-78335771D01*
X147947023Y-78335771D02*
X148042261Y-78383390D01*
X148042261Y-78383390D02*
X148232737Y-78383390D01*
X148232737Y-78383390D02*
X148327975Y-78431009D01*
X148327975Y-78431009D02*
X148375594Y-78478628D01*
X148375594Y-78478628D02*
X148423213Y-78573866D01*
X148423213Y-78573866D02*
X148423213Y-78764342D01*
X148423213Y-78764342D02*
X148375594Y-78859580D01*
X148375594Y-78859580D02*
X148327975Y-78907200D01*
X148327975Y-78907200D02*
X148232737Y-78954819D01*
X148232737Y-78954819D02*
X148042261Y-78954819D01*
X148042261Y-78954819D02*
X147947023Y-78907200D01*
X147947023Y-78907200D02*
X147899404Y-78859580D01*
X147899404Y-78859580D02*
X147851785Y-78764342D01*
X147851785Y-78764342D02*
X147851785Y-78573866D01*
X147851785Y-78573866D02*
X147899404Y-78478628D01*
X147899404Y-78478628D02*
X147947023Y-78431009D01*
X147947023Y-78431009D02*
X148042261Y-78383390D01*
X150404166Y-80859580D02*
X150451785Y-80907200D01*
X150451785Y-80907200D02*
X150594642Y-80954819D01*
X150594642Y-80954819D02*
X150689880Y-80954819D01*
X150689880Y-80954819D02*
X150832737Y-80907200D01*
X150832737Y-80907200D02*
X150927975Y-80811961D01*
X150927975Y-80811961D02*
X150975594Y-80716723D01*
X150975594Y-80716723D02*
X151023213Y-80526247D01*
X151023213Y-80526247D02*
X151023213Y-80383390D01*
X151023213Y-80383390D02*
X150975594Y-80192914D01*
X150975594Y-80192914D02*
X150927975Y-80097676D01*
X150927975Y-80097676D02*
X150832737Y-80002438D01*
X150832737Y-80002438D02*
X150689880Y-79954819D01*
X150689880Y-79954819D02*
X150594642Y-79954819D01*
X150594642Y-79954819D02*
X150451785Y-80002438D01*
X150451785Y-80002438D02*
X150404166Y-80050057D01*
X150070832Y-79954819D02*
X149404166Y-79954819D01*
X149404166Y-79954819D02*
X149832737Y-80954819D01*
X138180357Y-79254819D02*
X138513690Y-78778628D01*
X138751785Y-79254819D02*
X138751785Y-78254819D01*
X138751785Y-78254819D02*
X138370833Y-78254819D01*
X138370833Y-78254819D02*
X138275595Y-78302438D01*
X138275595Y-78302438D02*
X138227976Y-78350057D01*
X138227976Y-78350057D02*
X138180357Y-78445295D01*
X138180357Y-78445295D02*
X138180357Y-78588152D01*
X138180357Y-78588152D02*
X138227976Y-78683390D01*
X138227976Y-78683390D02*
X138275595Y-78731009D01*
X138275595Y-78731009D02*
X138370833Y-78778628D01*
X138370833Y-78778628D02*
X138751785Y-78778628D01*
X137227976Y-79254819D02*
X137799404Y-79254819D01*
X137513690Y-79254819D02*
X137513690Y-78254819D01*
X137513690Y-78254819D02*
X137608928Y-78397676D01*
X137608928Y-78397676D02*
X137704166Y-78492914D01*
X137704166Y-78492914D02*
X137799404Y-78540533D01*
X136370833Y-78588152D02*
X136370833Y-79254819D01*
X136608928Y-78207200D02*
X136847023Y-78921485D01*
X136847023Y-78921485D02*
X136227976Y-78921485D01*
X142792857Y-84504819D02*
X143126190Y-84028628D01*
X143364285Y-84504819D02*
X143364285Y-83504819D01*
X143364285Y-83504819D02*
X142983333Y-83504819D01*
X142983333Y-83504819D02*
X142888095Y-83552438D01*
X142888095Y-83552438D02*
X142840476Y-83600057D01*
X142840476Y-83600057D02*
X142792857Y-83695295D01*
X142792857Y-83695295D02*
X142792857Y-83838152D01*
X142792857Y-83838152D02*
X142840476Y-83933390D01*
X142840476Y-83933390D02*
X142888095Y-83981009D01*
X142888095Y-83981009D02*
X142983333Y-84028628D01*
X142983333Y-84028628D02*
X143364285Y-84028628D01*
X141840476Y-84504819D02*
X142411904Y-84504819D01*
X142126190Y-84504819D02*
X142126190Y-83504819D01*
X142126190Y-83504819D02*
X142221428Y-83647676D01*
X142221428Y-83647676D02*
X142316666Y-83742914D01*
X142316666Y-83742914D02*
X142411904Y-83790533D01*
X141507142Y-83504819D02*
X140888095Y-83504819D01*
X140888095Y-83504819D02*
X141221428Y-83885771D01*
X141221428Y-83885771D02*
X141078571Y-83885771D01*
X141078571Y-83885771D02*
X140983333Y-83933390D01*
X140983333Y-83933390D02*
X140935714Y-83981009D01*
X140935714Y-83981009D02*
X140888095Y-84076247D01*
X140888095Y-84076247D02*
X140888095Y-84314342D01*
X140888095Y-84314342D02*
X140935714Y-84409580D01*
X140935714Y-84409580D02*
X140983333Y-84457200D01*
X140983333Y-84457200D02*
X141078571Y-84504819D01*
X141078571Y-84504819D02*
X141364285Y-84504819D01*
X141364285Y-84504819D02*
X141459523Y-84457200D01*
X141459523Y-84457200D02*
X141507142Y-84409580D01*
X131880357Y-73029580D02*
X131927976Y-73077200D01*
X131927976Y-73077200D02*
X132070833Y-73124819D01*
X132070833Y-73124819D02*
X132166071Y-73124819D01*
X132166071Y-73124819D02*
X132308928Y-73077200D01*
X132308928Y-73077200D02*
X132404166Y-72981961D01*
X132404166Y-72981961D02*
X132451785Y-72886723D01*
X132451785Y-72886723D02*
X132499404Y-72696247D01*
X132499404Y-72696247D02*
X132499404Y-72553390D01*
X132499404Y-72553390D02*
X132451785Y-72362914D01*
X132451785Y-72362914D02*
X132404166Y-72267676D01*
X132404166Y-72267676D02*
X132308928Y-72172438D01*
X132308928Y-72172438D02*
X132166071Y-72124819D01*
X132166071Y-72124819D02*
X132070833Y-72124819D01*
X132070833Y-72124819D02*
X131927976Y-72172438D01*
X131927976Y-72172438D02*
X131880357Y-72220057D01*
X130927976Y-73124819D02*
X131499404Y-73124819D01*
X131213690Y-73124819D02*
X131213690Y-72124819D01*
X131213690Y-72124819D02*
X131308928Y-72267676D01*
X131308928Y-72267676D02*
X131404166Y-72362914D01*
X131404166Y-72362914D02*
X131499404Y-72410533D01*
X130070833Y-72458152D02*
X130070833Y-73124819D01*
X130308928Y-72077200D02*
X130547023Y-72791485D01*
X130547023Y-72791485D02*
X129927976Y-72791485D01*
X149692857Y-74159580D02*
X149740476Y-74207200D01*
X149740476Y-74207200D02*
X149883333Y-74254819D01*
X149883333Y-74254819D02*
X149978571Y-74254819D01*
X149978571Y-74254819D02*
X150121428Y-74207200D01*
X150121428Y-74207200D02*
X150216666Y-74111961D01*
X150216666Y-74111961D02*
X150264285Y-74016723D01*
X150264285Y-74016723D02*
X150311904Y-73826247D01*
X150311904Y-73826247D02*
X150311904Y-73683390D01*
X150311904Y-73683390D02*
X150264285Y-73492914D01*
X150264285Y-73492914D02*
X150216666Y-73397676D01*
X150216666Y-73397676D02*
X150121428Y-73302438D01*
X150121428Y-73302438D02*
X149978571Y-73254819D01*
X149978571Y-73254819D02*
X149883333Y-73254819D01*
X149883333Y-73254819D02*
X149740476Y-73302438D01*
X149740476Y-73302438D02*
X149692857Y-73350057D01*
X148740476Y-74254819D02*
X149311904Y-74254819D01*
X149026190Y-74254819D02*
X149026190Y-73254819D01*
X149026190Y-73254819D02*
X149121428Y-73397676D01*
X149121428Y-73397676D02*
X149216666Y-73492914D01*
X149216666Y-73492914D02*
X149311904Y-73540533D01*
X148359523Y-73350057D02*
X148311904Y-73302438D01*
X148311904Y-73302438D02*
X148216666Y-73254819D01*
X148216666Y-73254819D02*
X147978571Y-73254819D01*
X147978571Y-73254819D02*
X147883333Y-73302438D01*
X147883333Y-73302438D02*
X147835714Y-73350057D01*
X147835714Y-73350057D02*
X147788095Y-73445295D01*
X147788095Y-73445295D02*
X147788095Y-73540533D01*
X147788095Y-73540533D02*
X147835714Y-73683390D01*
X147835714Y-73683390D02*
X148407142Y-74254819D01*
X148407142Y-74254819D02*
X147788095Y-74254819D01*
%TO.C,C9*%
D11*
X152283767Y-74890000D02*
X151991233Y-74890000D01*
X152283767Y-75910000D02*
X151991233Y-75910000D01*
%TO.C,C3*%
X166991233Y-68990000D02*
X167283767Y-68990000D01*
X166991233Y-70010000D02*
X167283767Y-70010000D01*
%TO.C,C5*%
X156533767Y-68990000D02*
X156241233Y-68990000D01*
X156533767Y-70010000D02*
X156241233Y-70010000D01*
%TO.C,D4*%
X135890000Y-81565000D02*
X138350000Y-81565000D01*
X135890000Y-83035000D02*
X135890000Y-81565000D01*
X138350000Y-83035000D02*
X135890000Y-83035000D01*
%TO.C,C10*%
X162240000Y-85103733D02*
X162240000Y-85396267D01*
X163260000Y-85103733D02*
X163260000Y-85396267D01*
%TO.C,C11*%
X152283767Y-76490000D02*
X151991233Y-76490000D01*
X152283767Y-77510000D02*
X151991233Y-77510000D01*
%TO.C,C4*%
X169683767Y-85290000D02*
X169391233Y-85290000D01*
X169683767Y-86310000D02*
X169391233Y-86310000D01*
%TO.C,C21*%
X141991233Y-80090000D02*
X142283767Y-80090000D01*
X141991233Y-81110000D02*
X142283767Y-81110000D01*
%TO.C,C8*%
X151646267Y-77990000D02*
X151353733Y-77990000D01*
X151646267Y-79010000D02*
X151353733Y-79010000D01*
%TO.C,C7*%
X153246267Y-79990000D02*
X152953733Y-79990000D01*
X153246267Y-81010000D02*
X152953733Y-81010000D01*
%TO.C,R14*%
X137792224Y-80027500D02*
X137282776Y-80027500D01*
X137792224Y-81072500D02*
X137282776Y-81072500D01*
%TO.C,R13*%
X141857776Y-81827500D02*
X142367224Y-81827500D01*
X141857776Y-82872500D02*
X142367224Y-82872500D01*
%TO.C,C14*%
X131383767Y-73590000D02*
X131091233Y-73590000D01*
X131383767Y-74610000D02*
X131091233Y-74610000D01*
%TO.C,C12*%
X152283767Y-74310000D02*
X151991233Y-74310000D01*
X152283767Y-73290000D02*
X151991233Y-73290000D01*
%TD*%
M02*
