%TF.GenerationSoftware,KiCad,Pcbnew,10.0.6*%
%TF.CreationDate,2026-10-06T22:15:40-05:00*%
%TF.ProjectId,telemetry_GPS_transmitter,74656c65-6d65-4747-9279-5f4750535f74,rev?*%
%TF.SameCoordinates,Original*%
%TF.FileFunction,Copper,L3,Inr*%
%TF.FilePolarity,Positive*%
%FSLAX46Y46*%
G04 Gerber Fmt 4.6, Leading zero omitted, Abs format (unit mm)*
G04 Created by KiCad (PCBNEW 10.0.6) date 2026-10-06 22:15:40*
%MOMM*%
%LPD*%
G01*
G04 APERTURE LIST*
%TA.AperFunction,ComponentPad*%
%ADD10R,1.700000X1.700000*%
%TD*%
%TA.AperFunction,ComponentPad*%
%ADD11C,1.700000*%
%TD*%
%TA.AperFunction,ComponentPad*%
%ADD12C,2.800000*%
%TD*%
%TA.AperFunction,ComponentPad*%
%ADD13R,1.303000X1.303000*%
%TD*%
%TA.AperFunction,ComponentPad*%
%ADD14C,1.303000*%
%TD*%
%TA.AperFunction,ViaPad*%
%ADD15C,0.600000*%
%TD*%
G04 APERTURE END LIST*
D10*
%TO.N,/Debug/I2C_SCL*%
%TO.C,J3*%
X126600000Y-76075000D03*
D11*
%TO.N,/Debug/I2C_SDA*%
X126600000Y-78615000D03*
%TO.N,GND*%
X126600000Y-81155000D03*
%TD*%
D12*
%TO.N,+1V5*%
%TO.C,TP1*%
X144000000Y-75000000D03*
%TD*%
D13*
%TO.N,/CAN/CANH*%
%TO.C,J5*%
X133300000Y-103375000D03*
D14*
%TO.N,/CAN/CANL*%
X134570000Y-100835000D03*
%TO.N,+5V*%
X135840000Y-103375000D03*
%TO.N,GND*%
X137110000Y-100835000D03*
%TO.N,+5V*%
X138380000Y-103375000D03*
%TO.N,GND*%
X139650000Y-100835000D03*
%TO.N,/CAN/5VCAN*%
X140920000Y-103375000D03*
%TO.N,/CAN/GNDCAN*%
X142190000Y-100835000D03*
%TD*%
D10*
%TO.N,/Debug/MCU_UART_TX*%
%TO.C,J2*%
X126600000Y-85675000D03*
D11*
%TO.N,/Debug/MCU_UART_RX*%
X126600000Y-88215000D03*
%TO.N,GND*%
X126600000Y-90755000D03*
%TD*%
D10*
%TO.N,+5V*%
%TO.C,J1*%
X132760000Y-68015000D03*
D11*
X132760000Y-65475000D03*
%TO.N,/Debug/SWCLK*%
X135300000Y-68015000D03*
%TO.N,+3V3*%
X135300000Y-65475000D03*
%TO.N,/Debug/SWO*%
X137840000Y-68015000D03*
%TO.N,+3V3*%
X137840000Y-65475000D03*
%TO.N,/Debug/SWDIO*%
X140380000Y-68015000D03*
%TO.N,unconnected-(J1-Pin_8-Pad8)*%
X140380000Y-65475000D03*
%TO.N,GND*%
X142920000Y-68015000D03*
X142920000Y-65475000D03*
%TD*%
D15*
%TO.N,+3V3*%
X163715403Y-70041874D03*
X159302943Y-77775000D03*
X139000000Y-80775000D03*
X194400000Y-88375000D03*
X148000000Y-95880000D03*
X159850000Y-76625000D03*
X166700000Y-109975000D03*
X182800000Y-111075000D03*
X194800000Y-73675000D03*
X166700000Y-110975000D03*
X159600000Y-73425000D03*
X166200000Y-81875000D03*
X158800000Y-74775000D03*
X138400000Y-73875000D03*
X123110000Y-92810000D03*
X147100000Y-83575000D03*
X174500000Y-85075000D03*
X167400000Y-71375000D03*
X166600000Y-81025000D03*
%TD*%
%TA.AperFunction,Conductor*%
%TO.N,+3V3*%
G36*
X186544688Y-61045185D02*
G01*
X186590443Y-61097989D01*
X186601638Y-61147847D01*
X186647077Y-64555787D01*
X186628288Y-64623083D01*
X186576099Y-64669538D01*
X186507079Y-64680402D01*
X186453209Y-64658135D01*
X186452951Y-64658584D01*
X186449566Y-64656629D01*
X186447607Y-64655820D01*
X186445914Y-64654521D01*
X186445913Y-64654520D01*
X186354587Y-64601793D01*
X186252727Y-64574500D01*
X186147273Y-64574500D01*
X186045413Y-64601793D01*
X186045410Y-64601794D01*
X185954085Y-64654521D01*
X185879521Y-64729085D01*
X185826794Y-64820410D01*
X185826793Y-64820413D01*
X185799500Y-64922273D01*
X185799500Y-65027727D01*
X185826295Y-65127726D01*
X185826793Y-65129586D01*
X185826794Y-65129589D01*
X185834021Y-65142107D01*
X185864836Y-65195480D01*
X185879521Y-65220914D01*
X185945926Y-65287319D01*
X185979411Y-65348642D01*
X185974427Y-65418334D01*
X185945926Y-65462681D01*
X185879521Y-65529085D01*
X185826794Y-65620410D01*
X185826793Y-65620413D01*
X185799500Y-65722273D01*
X185799500Y-65827727D01*
X185826793Y-65929587D01*
X185864836Y-65995480D01*
X185879521Y-66020914D01*
X185951834Y-66093227D01*
X185985319Y-66154550D01*
X185980335Y-66224242D01*
X185971540Y-66242908D01*
X185926794Y-66320410D01*
X185926793Y-66320413D01*
X185899500Y-66422273D01*
X185899500Y-66527727D01*
X185926793Y-66629587D01*
X185979520Y-66720913D01*
X186054087Y-66795480D01*
X186142781Y-66846687D01*
X186190997Y-66897254D01*
X186204220Y-66965861D01*
X186182386Y-67021357D01*
X186183584Y-67022049D01*
X186179521Y-67029085D01*
X186179520Y-67029087D01*
X186157638Y-67066987D01*
X186126794Y-67120410D01*
X186126793Y-67120413D01*
X186099500Y-67222273D01*
X186099500Y-67327727D01*
X186126793Y-67429587D01*
X186179520Y-67520913D01*
X186254087Y-67595480D01*
X186345413Y-67648207D01*
X186386379Y-67659183D01*
X186446039Y-67695547D01*
X186476569Y-67758394D01*
X186468275Y-67827770D01*
X186441968Y-67866639D01*
X186379520Y-67929087D01*
X186326794Y-68020410D01*
X186326793Y-68020413D01*
X186299500Y-68122273D01*
X186299500Y-68227727D01*
X186326793Y-68329587D01*
X186379520Y-68420913D01*
X186454087Y-68495480D01*
X186543077Y-68546858D01*
X186591292Y-68597426D01*
X186604514Y-68666033D01*
X186578546Y-68730897D01*
X186556563Y-68752620D01*
X186554087Y-68754519D01*
X186479521Y-68829085D01*
X186426794Y-68920410D01*
X186426793Y-68920413D01*
X186399500Y-69022273D01*
X186399500Y-69127727D01*
X186426793Y-69229587D01*
X186479520Y-69320913D01*
X186554087Y-69395480D01*
X186645413Y-69448207D01*
X186747273Y-69475500D01*
X186747275Y-69475500D01*
X186852725Y-69475500D01*
X186852727Y-69475500D01*
X186954587Y-69448207D01*
X187045913Y-69395480D01*
X187077753Y-69363639D01*
X187139073Y-69330155D01*
X187208765Y-69335139D01*
X187264699Y-69377009D01*
X187288286Y-69434492D01*
X187293904Y-69475500D01*
X187307534Y-69575000D01*
X187942466Y-69575000D01*
X187979786Y-69302560D01*
X188008386Y-69238817D01*
X188066911Y-69200651D01*
X188136779Y-69200186D01*
X188190319Y-69231712D01*
X188254087Y-69295480D01*
X188345413Y-69348207D01*
X188447273Y-69375500D01*
X188447275Y-69375500D01*
X188552725Y-69375500D01*
X188552727Y-69375500D01*
X188654587Y-69348207D01*
X188745913Y-69295480D01*
X188820480Y-69220913D01*
X188873207Y-69129587D01*
X188900500Y-69027727D01*
X188900500Y-68922273D01*
X188873207Y-68820413D01*
X188820480Y-68729087D01*
X188795956Y-68704563D01*
X188762471Y-68643240D01*
X188767455Y-68573548D01*
X188809327Y-68517615D01*
X188821628Y-68509500D01*
X188845913Y-68495480D01*
X188920480Y-68420913D01*
X188973207Y-68329587D01*
X189000500Y-68227727D01*
X189000500Y-68122273D01*
X188973207Y-68020413D01*
X188920480Y-67929087D01*
X188845913Y-67854520D01*
X188845910Y-67854518D01*
X188843441Y-67852624D01*
X188841881Y-67850488D01*
X188840166Y-67848773D01*
X188840433Y-67848505D01*
X188802236Y-67796198D01*
X188798078Y-67726452D01*
X188832287Y-67665530D01*
X188856921Y-67646859D01*
X188945913Y-67595480D01*
X189020480Y-67520913D01*
X189073207Y-67429587D01*
X189100500Y-67327727D01*
X189100500Y-67222273D01*
X189073207Y-67120413D01*
X189020480Y-67029087D01*
X188995956Y-67004563D01*
X188962471Y-66943240D01*
X188967455Y-66873548D01*
X189009327Y-66817615D01*
X189021628Y-66809500D01*
X189045913Y-66795480D01*
X189120480Y-66720913D01*
X189173207Y-66629587D01*
X189200500Y-66527727D01*
X189200500Y-66422273D01*
X189191902Y-66390186D01*
X205449500Y-66390186D01*
X205449500Y-66659813D01*
X205479686Y-66927719D01*
X205479688Y-66927731D01*
X205539684Y-67190594D01*
X205539687Y-67190602D01*
X205628734Y-67445082D01*
X205745714Y-67687994D01*
X205766084Y-67720413D01*
X205889162Y-67916289D01*
X205952313Y-67995478D01*
X206053428Y-68122273D01*
X206057266Y-68127085D01*
X206247915Y-68317734D01*
X206458711Y-68485838D01*
X206687003Y-68629284D01*
X206929921Y-68746267D01*
X207121049Y-68813145D01*
X207184397Y-68835312D01*
X207184405Y-68835315D01*
X207184408Y-68835315D01*
X207184409Y-68835316D01*
X207447268Y-68895312D01*
X207715187Y-68925499D01*
X207715188Y-68925500D01*
X207715191Y-68925500D01*
X207984812Y-68925500D01*
X207984812Y-68925499D01*
X208252732Y-68895312D01*
X208515591Y-68835316D01*
X208770079Y-68746267D01*
X209012997Y-68629284D01*
X209241289Y-68485838D01*
X209452085Y-68317734D01*
X209642734Y-68127085D01*
X209810838Y-67916289D01*
X209954284Y-67687997D01*
X210071267Y-67445079D01*
X210160316Y-67190591D01*
X210220312Y-66927732D01*
X210250500Y-66659809D01*
X210250500Y-66390191D01*
X210220312Y-66122268D01*
X210160316Y-65859409D01*
X210142289Y-65807892D01*
X210133232Y-65782007D01*
X210071267Y-65604921D01*
X209954284Y-65362003D01*
X209810838Y-65133711D01*
X209642734Y-64922915D01*
X209452085Y-64732266D01*
X209241289Y-64564162D01*
X209012997Y-64420716D01*
X209012994Y-64420714D01*
X208770082Y-64303734D01*
X208515602Y-64214687D01*
X208515594Y-64214684D01*
X208318446Y-64169687D01*
X208252732Y-64154688D01*
X208252728Y-64154687D01*
X208252719Y-64154686D01*
X207984813Y-64124500D01*
X207984809Y-64124500D01*
X207715191Y-64124500D01*
X207715186Y-64124500D01*
X207447280Y-64154686D01*
X207447268Y-64154688D01*
X207184405Y-64214684D01*
X207184397Y-64214687D01*
X206929917Y-64303734D01*
X206687005Y-64420714D01*
X206458712Y-64564161D01*
X206247915Y-64732265D01*
X206057265Y-64922915D01*
X205889161Y-65133712D01*
X205745714Y-65362005D01*
X205628734Y-65604917D01*
X205539687Y-65859397D01*
X205539684Y-65859405D01*
X205479688Y-66122268D01*
X205479686Y-66122280D01*
X205449500Y-66390186D01*
X189191902Y-66390186D01*
X189173207Y-66320413D01*
X189120480Y-66229087D01*
X189095956Y-66204563D01*
X189062471Y-66143240D01*
X189067455Y-66073548D01*
X189109327Y-66017615D01*
X189121628Y-66009500D01*
X189145913Y-65995480D01*
X189220480Y-65920913D01*
X189273207Y-65829587D01*
X189300500Y-65727727D01*
X189300500Y-65622273D01*
X189273207Y-65520413D01*
X189220480Y-65429087D01*
X189195956Y-65404563D01*
X189162471Y-65343240D01*
X189167455Y-65273548D01*
X189209327Y-65217615D01*
X189221628Y-65209500D01*
X189245913Y-65195480D01*
X189320480Y-65120913D01*
X189373207Y-65029587D01*
X189400500Y-64927727D01*
X189400500Y-64822273D01*
X189373207Y-64720413D01*
X189320480Y-64629087D01*
X189245913Y-64554520D01*
X189154587Y-64501793D01*
X189052727Y-64474500D01*
X188947273Y-64474500D01*
X188845413Y-64501793D01*
X188845412Y-64501793D01*
X188795422Y-64530655D01*
X188727522Y-64547126D01*
X188661495Y-64524274D01*
X188618305Y-64469352D01*
X188609467Y-64419965D01*
X188649406Y-62922273D01*
X190099500Y-62922273D01*
X190099500Y-63027727D01*
X190126793Y-63129587D01*
X190179520Y-63220913D01*
X190254087Y-63295480D01*
X190345413Y-63348207D01*
X190447273Y-63375500D01*
X190447275Y-63375500D01*
X190552725Y-63375500D01*
X190552727Y-63375500D01*
X190654587Y-63348207D01*
X190745913Y-63295480D01*
X190820480Y-63220913D01*
X190873207Y-63129587D01*
X190900500Y-63027727D01*
X190900500Y-62922273D01*
X190873207Y-62820413D01*
X190820480Y-62729087D01*
X190745913Y-62654520D01*
X190654587Y-62601793D01*
X190552727Y-62574500D01*
X190447273Y-62574500D01*
X190345413Y-62601793D01*
X190345410Y-62601794D01*
X190254085Y-62654521D01*
X190179521Y-62729085D01*
X190126794Y-62820410D01*
X190126793Y-62820413D01*
X190099500Y-62922273D01*
X188649406Y-62922273D01*
X188696768Y-61146192D01*
X188718233Y-61079704D01*
X188772238Y-61035373D01*
X188820724Y-61025500D01*
X207784108Y-61025500D01*
X207847439Y-61025500D01*
X207852562Y-61025605D01*
X208299036Y-61044072D01*
X208309209Y-61044915D01*
X208750114Y-61099873D01*
X208760194Y-61101555D01*
X209195043Y-61192733D01*
X209204951Y-61195242D01*
X209630786Y-61322019D01*
X209640454Y-61325338D01*
X209941114Y-61442656D01*
X210054349Y-61486841D01*
X210063734Y-61490958D01*
X210462854Y-61686076D01*
X210471868Y-61690953D01*
X210853545Y-61918383D01*
X210862124Y-61923989D01*
X211223693Y-62182143D01*
X211231770Y-62188430D01*
X211569531Y-62474500D01*
X211570796Y-62475571D01*
X211578336Y-62482512D01*
X211892487Y-62796663D01*
X211899428Y-62804203D01*
X211999430Y-62922275D01*
X212174591Y-63129087D01*
X212186565Y-63143224D01*
X212192860Y-63151312D01*
X212451010Y-63512875D01*
X212456616Y-63521454D01*
X212684046Y-63903131D01*
X212688923Y-63912145D01*
X212884041Y-64311265D01*
X212888158Y-64320650D01*
X213049656Y-64734533D01*
X213052984Y-64744226D01*
X213179753Y-65170035D01*
X213182269Y-65179970D01*
X213273441Y-65614791D01*
X213275128Y-65624900D01*
X213330082Y-66065769D01*
X213330928Y-66075983D01*
X213349394Y-66522437D01*
X213349500Y-66527561D01*
X213349500Y-104637717D01*
X213329815Y-104704756D01*
X213277011Y-104750511D01*
X213224371Y-104761712D01*
X212753838Y-104757429D01*
X212686981Y-104737135D01*
X212641708Y-104683917D01*
X212632395Y-104614671D01*
X212661997Y-104551382D01*
X212692960Y-104526051D01*
X212745913Y-104495480D01*
X212820480Y-104420913D01*
X212873207Y-104329587D01*
X212900500Y-104227727D01*
X212900500Y-104122273D01*
X212873207Y-104020413D01*
X212820480Y-103929087D01*
X212745913Y-103854520D01*
X212654587Y-103801793D01*
X212552727Y-103774500D01*
X212447273Y-103774500D01*
X212345413Y-103801793D01*
X212345410Y-103801794D01*
X212254085Y-103854521D01*
X212179521Y-103929085D01*
X212126794Y-104020410D01*
X212126793Y-104020413D01*
X212122406Y-104036788D01*
X212119775Y-104046606D01*
X212083410Y-104106267D01*
X212020563Y-104136796D01*
X211951188Y-104128501D01*
X211897310Y-104084016D01*
X211880225Y-104046606D01*
X211877595Y-104036791D01*
X211873207Y-104020413D01*
X211820480Y-103929087D01*
X211745913Y-103854520D01*
X211654587Y-103801793D01*
X211552727Y-103774500D01*
X211447273Y-103774500D01*
X211345413Y-103801793D01*
X211345410Y-103801794D01*
X211254085Y-103854521D01*
X211179521Y-103929085D01*
X211126794Y-104020410D01*
X211126793Y-104020413D01*
X211122406Y-104036788D01*
X211119775Y-104046606D01*
X211083410Y-104106267D01*
X211020563Y-104136796D01*
X210951188Y-104128501D01*
X210897310Y-104084016D01*
X210880225Y-104046606D01*
X210877595Y-104036791D01*
X210873207Y-104020413D01*
X210820480Y-103929087D01*
X210745913Y-103854520D01*
X210654587Y-103801793D01*
X210552727Y-103774500D01*
X210447273Y-103774500D01*
X210345413Y-103801793D01*
X210345410Y-103801794D01*
X210254085Y-103854521D01*
X210179521Y-103929085D01*
X210126794Y-104020410D01*
X210126793Y-104020413D01*
X210122406Y-104036788D01*
X210119775Y-104046606D01*
X210083410Y-104106267D01*
X210020563Y-104136796D01*
X209951188Y-104128501D01*
X209897310Y-104084016D01*
X209880225Y-104046606D01*
X209877595Y-104036791D01*
X209873207Y-104020413D01*
X209820480Y-103929087D01*
X209745913Y-103854520D01*
X209654587Y-103801793D01*
X209552727Y-103774500D01*
X209447273Y-103774500D01*
X209345413Y-103801793D01*
X209345410Y-103801794D01*
X209254085Y-103854521D01*
X209179521Y-103929085D01*
X209126794Y-104020410D01*
X209126793Y-104020413D01*
X209122406Y-104036788D01*
X209119775Y-104046606D01*
X209083410Y-104106267D01*
X209020563Y-104136796D01*
X208951188Y-104128501D01*
X208897310Y-104084016D01*
X208880225Y-104046606D01*
X208877595Y-104036791D01*
X208873207Y-104020413D01*
X208820480Y-103929087D01*
X208745913Y-103854520D01*
X208654587Y-103801793D01*
X208552727Y-103774500D01*
X208447273Y-103774500D01*
X208345413Y-103801793D01*
X208345410Y-103801794D01*
X208254085Y-103854521D01*
X208179521Y-103929085D01*
X208126794Y-104020410D01*
X208126793Y-104020413D01*
X208122406Y-104036788D01*
X208119775Y-104046606D01*
X208083410Y-104106267D01*
X208020563Y-104136796D01*
X207951188Y-104128501D01*
X207897310Y-104084016D01*
X207880225Y-104046606D01*
X207877595Y-104036791D01*
X207873207Y-104020413D01*
X207820480Y-103929087D01*
X207745913Y-103854520D01*
X207654587Y-103801793D01*
X207552727Y-103774500D01*
X207447273Y-103774500D01*
X207345413Y-103801793D01*
X207345410Y-103801794D01*
X207254085Y-103854521D01*
X207179521Y-103929085D01*
X207126794Y-104020410D01*
X207126793Y-104020413D01*
X207122406Y-104036788D01*
X207119775Y-104046606D01*
X207083410Y-104106267D01*
X207020563Y-104136796D01*
X206951188Y-104128501D01*
X206897310Y-104084016D01*
X206880225Y-104046606D01*
X206877595Y-104036791D01*
X206873207Y-104020413D01*
X206820480Y-103929087D01*
X206745913Y-103854520D01*
X206654587Y-103801793D01*
X206552727Y-103774500D01*
X206447273Y-103774500D01*
X206345413Y-103801793D01*
X206345410Y-103801794D01*
X206254085Y-103854521D01*
X206179521Y-103929085D01*
X206126794Y-104020410D01*
X206126793Y-104020413D01*
X206122406Y-104036788D01*
X206119775Y-104046606D01*
X206083410Y-104106267D01*
X206020563Y-104136796D01*
X205951188Y-104128501D01*
X205897310Y-104084016D01*
X205880225Y-104046606D01*
X205877595Y-104036791D01*
X205873207Y-104020413D01*
X205820480Y-103929087D01*
X205745913Y-103854520D01*
X205654587Y-103801793D01*
X205552727Y-103774500D01*
X205447273Y-103774500D01*
X205345413Y-103801793D01*
X205345410Y-103801794D01*
X205254085Y-103854521D01*
X205179521Y-103929085D01*
X205126794Y-104020410D01*
X205126793Y-104020413D01*
X205122406Y-104036788D01*
X205119775Y-104046606D01*
X205083410Y-104106267D01*
X205020563Y-104136796D01*
X204951188Y-104128501D01*
X204897310Y-104084016D01*
X204880225Y-104046606D01*
X204877595Y-104036791D01*
X204873207Y-104020413D01*
X204820480Y-103929087D01*
X204745913Y-103854520D01*
X204654587Y-103801793D01*
X204552727Y-103774500D01*
X204447273Y-103774500D01*
X204345413Y-103801793D01*
X204345410Y-103801794D01*
X204254085Y-103854521D01*
X204179521Y-103929085D01*
X204126794Y-104020410D01*
X204126793Y-104020413D01*
X204122406Y-104036788D01*
X204119775Y-104046606D01*
X204083410Y-104106267D01*
X204020563Y-104136796D01*
X203951188Y-104128501D01*
X203897310Y-104084016D01*
X203880225Y-104046606D01*
X203877595Y-104036791D01*
X203873207Y-104020413D01*
X203820480Y-103929087D01*
X203745913Y-103854520D01*
X203654587Y-103801793D01*
X203552727Y-103774500D01*
X203447273Y-103774500D01*
X203345413Y-103801793D01*
X203345410Y-103801794D01*
X203254085Y-103854521D01*
X203179521Y-103929085D01*
X203126794Y-104020410D01*
X203126793Y-104020413D01*
X203122406Y-104036788D01*
X203119775Y-104046606D01*
X203083410Y-104106267D01*
X203020563Y-104136796D01*
X202951188Y-104128501D01*
X202897310Y-104084016D01*
X202880225Y-104046606D01*
X202877595Y-104036791D01*
X202873207Y-104020413D01*
X202820480Y-103929087D01*
X202745913Y-103854520D01*
X202654587Y-103801793D01*
X202552727Y-103774500D01*
X202447273Y-103774500D01*
X202345413Y-103801793D01*
X202345410Y-103801794D01*
X202254085Y-103854521D01*
X202179521Y-103929085D01*
X202126794Y-104020410D01*
X202126793Y-104020413D01*
X202122406Y-104036788D01*
X202119775Y-104046606D01*
X202083410Y-104106267D01*
X202020563Y-104136796D01*
X201951188Y-104128501D01*
X201897310Y-104084016D01*
X201880225Y-104046606D01*
X201877595Y-104036791D01*
X201873207Y-104020413D01*
X201820480Y-103929087D01*
X201745913Y-103854520D01*
X201654587Y-103801793D01*
X201552727Y-103774500D01*
X201447273Y-103774500D01*
X201345413Y-103801793D01*
X201345410Y-103801794D01*
X201254085Y-103854521D01*
X201179521Y-103929085D01*
X201126794Y-104020410D01*
X201126793Y-104020413D01*
X201122406Y-104036788D01*
X201119775Y-104046606D01*
X201083410Y-104106267D01*
X201020563Y-104136796D01*
X200951188Y-104128501D01*
X200897310Y-104084016D01*
X200880225Y-104046606D01*
X200877595Y-104036791D01*
X200873207Y-104020413D01*
X200820480Y-103929087D01*
X200745913Y-103854520D01*
X200654587Y-103801793D01*
X200552727Y-103774500D01*
X200447273Y-103774500D01*
X200345413Y-103801793D01*
X200345410Y-103801794D01*
X200254085Y-103854521D01*
X200179521Y-103929085D01*
X200126794Y-104020410D01*
X200126793Y-104020413D01*
X200122406Y-104036788D01*
X200119775Y-104046606D01*
X200083410Y-104106267D01*
X200020563Y-104136796D01*
X199951188Y-104128501D01*
X199897310Y-104084016D01*
X199880225Y-104046606D01*
X199877595Y-104036791D01*
X199873207Y-104020413D01*
X199820480Y-103929087D01*
X199745913Y-103854520D01*
X199654587Y-103801793D01*
X199552727Y-103774500D01*
X199447273Y-103774500D01*
X199345413Y-103801793D01*
X199345410Y-103801794D01*
X199254085Y-103854521D01*
X199179521Y-103929085D01*
X199126794Y-104020410D01*
X199126793Y-104020413D01*
X199122406Y-104036788D01*
X199119775Y-104046606D01*
X199083410Y-104106267D01*
X199020563Y-104136796D01*
X198951188Y-104128501D01*
X198897310Y-104084016D01*
X198880225Y-104046606D01*
X198877595Y-104036791D01*
X198873207Y-104020413D01*
X198820480Y-103929087D01*
X198745913Y-103854520D01*
X198654587Y-103801793D01*
X198552727Y-103774500D01*
X198447273Y-103774500D01*
X198345413Y-103801793D01*
X198345410Y-103801794D01*
X198254085Y-103854521D01*
X198179521Y-103929085D01*
X198126794Y-104020410D01*
X198126793Y-104020413D01*
X198122406Y-104036788D01*
X198119775Y-104046606D01*
X198083410Y-104106267D01*
X198020563Y-104136796D01*
X197951188Y-104128501D01*
X197897310Y-104084016D01*
X197880225Y-104046606D01*
X197877595Y-104036791D01*
X197873207Y-104020413D01*
X197820480Y-103929087D01*
X197745913Y-103854520D01*
X197654587Y-103801793D01*
X197552727Y-103774500D01*
X197447273Y-103774500D01*
X197345413Y-103801793D01*
X197345410Y-103801794D01*
X197254085Y-103854521D01*
X197179521Y-103929085D01*
X197126794Y-104020410D01*
X197126793Y-104020413D01*
X197122406Y-104036788D01*
X197119775Y-104046606D01*
X197083410Y-104106267D01*
X197020563Y-104136796D01*
X196951188Y-104128501D01*
X196897310Y-104084016D01*
X196880225Y-104046606D01*
X196877595Y-104036791D01*
X196873207Y-104020413D01*
X196820480Y-103929087D01*
X196745913Y-103854520D01*
X196654587Y-103801793D01*
X196552727Y-103774500D01*
X196447273Y-103774500D01*
X196345413Y-103801793D01*
X196345410Y-103801794D01*
X196254085Y-103854521D01*
X196179521Y-103929085D01*
X196126794Y-104020410D01*
X196126793Y-104020413D01*
X196122406Y-104036788D01*
X196119775Y-104046606D01*
X196083410Y-104106267D01*
X196020563Y-104136796D01*
X195951188Y-104128501D01*
X195897310Y-104084016D01*
X195880225Y-104046606D01*
X195877595Y-104036791D01*
X195873207Y-104020413D01*
X195820480Y-103929087D01*
X195745913Y-103854520D01*
X195654587Y-103801793D01*
X195552727Y-103774500D01*
X195447273Y-103774500D01*
X195345413Y-103801793D01*
X195345410Y-103801794D01*
X195254085Y-103854521D01*
X195179521Y-103929085D01*
X195126794Y-104020410D01*
X195126793Y-104020413D01*
X195122406Y-104036788D01*
X195119775Y-104046606D01*
X195083410Y-104106267D01*
X195020563Y-104136796D01*
X194951188Y-104128501D01*
X194897310Y-104084016D01*
X194880225Y-104046606D01*
X194877595Y-104036791D01*
X194873207Y-104020413D01*
X194820480Y-103929087D01*
X194745913Y-103854520D01*
X194654587Y-103801793D01*
X194552727Y-103774500D01*
X194447273Y-103774500D01*
X194345413Y-103801793D01*
X194345410Y-103801794D01*
X194254085Y-103854521D01*
X194179521Y-103929085D01*
X194126794Y-104020410D01*
X194126793Y-104020413D01*
X194122406Y-104036788D01*
X194119775Y-104046606D01*
X194083410Y-104106267D01*
X194020563Y-104136796D01*
X193951188Y-104128501D01*
X193897310Y-104084016D01*
X193880225Y-104046606D01*
X193877595Y-104036791D01*
X193873207Y-104020413D01*
X193820480Y-103929087D01*
X193745913Y-103854520D01*
X193654587Y-103801793D01*
X193552727Y-103774500D01*
X193447273Y-103774500D01*
X193345413Y-103801793D01*
X193345410Y-103801794D01*
X193254085Y-103854521D01*
X193179521Y-103929085D01*
X193126794Y-104020410D01*
X193126793Y-104020413D01*
X193122406Y-104036788D01*
X193119775Y-104046606D01*
X193083410Y-104106267D01*
X193020563Y-104136796D01*
X192951188Y-104128501D01*
X192897310Y-104084016D01*
X192880225Y-104046606D01*
X192877595Y-104036791D01*
X192873207Y-104020413D01*
X192820480Y-103929087D01*
X192745913Y-103854520D01*
X192654587Y-103801793D01*
X192552727Y-103774500D01*
X192447273Y-103774500D01*
X192345413Y-103801793D01*
X192345410Y-103801794D01*
X192254085Y-103854521D01*
X192179521Y-103929085D01*
X192126794Y-104020410D01*
X192126793Y-104020413D01*
X192122406Y-104036788D01*
X192119775Y-104046606D01*
X192083410Y-104106267D01*
X192020563Y-104136796D01*
X191951188Y-104128501D01*
X191897310Y-104084016D01*
X191880225Y-104046606D01*
X191877595Y-104036791D01*
X191873207Y-104020413D01*
X191820480Y-103929087D01*
X191745913Y-103854520D01*
X191654587Y-103801793D01*
X191552727Y-103774500D01*
X191447273Y-103774500D01*
X191345413Y-103801793D01*
X191345410Y-103801794D01*
X191254085Y-103854521D01*
X191179521Y-103929085D01*
X191126794Y-104020410D01*
X191126793Y-104020413D01*
X191099500Y-104122273D01*
X191099500Y-104227727D01*
X191126793Y-104329585D01*
X191126793Y-104329586D01*
X191126794Y-104329589D01*
X191152322Y-104373805D01*
X191168795Y-104441706D01*
X191145942Y-104507732D01*
X191091021Y-104550923D01*
X191043806Y-104559800D01*
X189223407Y-104543228D01*
X189156550Y-104522934D01*
X189111277Y-104469716D01*
X189101964Y-104400469D01*
X189120399Y-104357295D01*
X189118115Y-104355976D01*
X189122177Y-104348939D01*
X189122179Y-104348938D01*
X189174906Y-104257612D01*
X189202199Y-104155752D01*
X189202199Y-104050298D01*
X189174906Y-103948438D01*
X189122179Y-103857112D01*
X189047612Y-103782545D01*
X188956286Y-103729818D01*
X188854426Y-103702525D01*
X188748972Y-103702525D01*
X188647112Y-103729818D01*
X188647109Y-103729819D01*
X188555784Y-103782546D01*
X188481220Y-103857110D01*
X188428493Y-103948435D01*
X188428492Y-103948438D01*
X188401199Y-104050298D01*
X188401199Y-104155752D01*
X188428230Y-104256632D01*
X188428492Y-104257611D01*
X188428493Y-104257614D01*
X188481539Y-104349492D01*
X188498012Y-104417392D01*
X188475159Y-104483419D01*
X188420238Y-104526610D01*
X188373023Y-104535487D01*
X188106559Y-104533061D01*
X188039702Y-104512767D01*
X187994429Y-104459548D01*
X187985116Y-104390302D01*
X188014718Y-104327013D01*
X188019998Y-104321394D01*
X188020480Y-104320913D01*
X188073207Y-104229587D01*
X188100500Y-104127727D01*
X188100500Y-104022273D01*
X188073207Y-103920413D01*
X188020480Y-103829087D01*
X187945913Y-103754520D01*
X187854587Y-103701793D01*
X187752727Y-103674500D01*
X187647273Y-103674500D01*
X187545413Y-103701793D01*
X187545410Y-103701794D01*
X187454085Y-103754521D01*
X187379521Y-103829085D01*
X187326794Y-103920410D01*
X187326793Y-103920413D01*
X187314688Y-103965592D01*
X187309012Y-103986774D01*
X187272647Y-104046435D01*
X187209800Y-104076964D01*
X187140424Y-104068669D01*
X187086547Y-104024184D01*
X187069463Y-103986776D01*
X187055379Y-103934213D01*
X187002652Y-103842887D01*
X186928085Y-103768320D01*
X186836759Y-103715593D01*
X186734899Y-103688300D01*
X186629445Y-103688300D01*
X186527585Y-103715593D01*
X186527582Y-103715594D01*
X186436257Y-103768321D01*
X186361693Y-103842885D01*
X186308964Y-103934214D01*
X186307845Y-103936916D01*
X186306291Y-103938843D01*
X186304901Y-103941252D01*
X186304525Y-103941035D01*
X186264001Y-103991317D01*
X186197706Y-104013379D01*
X186130008Y-103996097D01*
X186082400Y-103944958D01*
X186073512Y-103921553D01*
X186073207Y-103920413D01*
X186071881Y-103918117D01*
X186044872Y-103871335D01*
X186020480Y-103829087D01*
X185945913Y-103754520D01*
X185854587Y-103701793D01*
X185752727Y-103674500D01*
X185647273Y-103674500D01*
X185545413Y-103701793D01*
X185545410Y-103701794D01*
X185454085Y-103754521D01*
X185379521Y-103829085D01*
X185326792Y-103920414D01*
X185326765Y-103920480D01*
X185326727Y-103920526D01*
X185322729Y-103927452D01*
X185321648Y-103926828D01*
X185282921Y-103974881D01*
X185216626Y-103996943D01*
X185148928Y-103979661D01*
X185104819Y-103935022D01*
X185068051Y-103871337D01*
X184993484Y-103796770D01*
X184926630Y-103758172D01*
X184902160Y-103744044D01*
X184902159Y-103744043D01*
X184902158Y-103744043D01*
X184800298Y-103716750D01*
X184694844Y-103716750D01*
X184592984Y-103744043D01*
X184592981Y-103744044D01*
X184501656Y-103796771D01*
X184427091Y-103871336D01*
X184393150Y-103930123D01*
X184342583Y-103978338D01*
X184273976Y-103991560D01*
X184209111Y-103965592D01*
X184179311Y-103926273D01*
X184177271Y-103927452D01*
X184144872Y-103871336D01*
X184120480Y-103829087D01*
X184045913Y-103754520D01*
X183954587Y-103701793D01*
X183852727Y-103674500D01*
X183747273Y-103674500D01*
X183645413Y-103701793D01*
X183645410Y-103701794D01*
X183554085Y-103754521D01*
X183479522Y-103829084D01*
X183479520Y-103829086D01*
X183479520Y-103829087D01*
X183457385Y-103867425D01*
X183406820Y-103915639D01*
X183338212Y-103928861D01*
X183273348Y-103902893D01*
X183242615Y-103867426D01*
X183220480Y-103829087D01*
X183145913Y-103754520D01*
X183054587Y-103701793D01*
X182952727Y-103674500D01*
X182847273Y-103674500D01*
X182745413Y-103701793D01*
X182745410Y-103701794D01*
X182654085Y-103754521D01*
X182579521Y-103829085D01*
X182526794Y-103920410D01*
X182526793Y-103920413D01*
X182499500Y-104022273D01*
X182499500Y-104127727D01*
X182526793Y-104229587D01*
X182579520Y-104320913D01*
X182654087Y-104395480D01*
X182745413Y-104448207D01*
X182771606Y-104455225D01*
X182831267Y-104491590D01*
X182861796Y-104554437D01*
X182853501Y-104623812D01*
X182809016Y-104677690D01*
X182771607Y-104694774D01*
X182747316Y-104701283D01*
X182745413Y-104701793D01*
X182745410Y-104701794D01*
X182654085Y-104754521D01*
X182579521Y-104829085D01*
X182526794Y-104920410D01*
X182526793Y-104920413D01*
X182499500Y-105022273D01*
X182499500Y-105127726D01*
X182526793Y-105229586D01*
X182526794Y-105229589D01*
X182579521Y-105320914D01*
X182595926Y-105337319D01*
X182629411Y-105398642D01*
X182624427Y-105468334D01*
X182595926Y-105512681D01*
X182579521Y-105529085D01*
X182526794Y-105620410D01*
X182526793Y-105620413D01*
X182499500Y-105722273D01*
X182499500Y-105827726D01*
X182526793Y-105929586D01*
X182526794Y-105929589D01*
X182579521Y-106020914D01*
X182645926Y-106087319D01*
X182679411Y-106148642D01*
X182674427Y-106218334D01*
X182645926Y-106262681D01*
X182579521Y-106329085D01*
X182526794Y-106420410D01*
X182526793Y-106420413D01*
X182499500Y-106522273D01*
X182499500Y-106627727D01*
X182499865Y-106629087D01*
X182526793Y-106729586D01*
X182526794Y-106729589D01*
X182579521Y-106820914D01*
X182595926Y-106837319D01*
X182629411Y-106898642D01*
X182624427Y-106968334D01*
X182595926Y-107012681D01*
X182579521Y-107029085D01*
X182526794Y-107120410D01*
X182526793Y-107120413D01*
X182499500Y-107222273D01*
X182499500Y-107327726D01*
X182526793Y-107429586D01*
X182526794Y-107429589D01*
X182579521Y-107520914D01*
X182645926Y-107587319D01*
X182679411Y-107648642D01*
X182674427Y-107718334D01*
X182645926Y-107762681D01*
X182579521Y-107829085D01*
X182526794Y-107920410D01*
X182526793Y-107920413D01*
X182499500Y-108022273D01*
X182499500Y-108127727D01*
X182526793Y-108229587D01*
X182574675Y-108312522D01*
X182579521Y-108320914D01*
X182645926Y-108387319D01*
X182679411Y-108448642D01*
X182674427Y-108518334D01*
X182645926Y-108562681D01*
X182579521Y-108629085D01*
X182526794Y-108720410D01*
X182526793Y-108720413D01*
X182499500Y-108822273D01*
X182499500Y-108927726D01*
X182526793Y-109029586D01*
X182526794Y-109029589D01*
X182579521Y-109120914D01*
X182645926Y-109187319D01*
X182679411Y-109248642D01*
X182674427Y-109318334D01*
X182645926Y-109362681D01*
X182579521Y-109429085D01*
X182526794Y-109520410D01*
X182526793Y-109520413D01*
X182499500Y-109622273D01*
X182499500Y-109727727D01*
X182526793Y-109829587D01*
X182579520Y-109920913D01*
X182654087Y-109995480D01*
X182745413Y-110048207D01*
X182847273Y-110075500D01*
X182847275Y-110075500D01*
X182952725Y-110075500D01*
X182952727Y-110075500D01*
X183054587Y-110048207D01*
X183145913Y-109995480D01*
X183164422Y-109976971D01*
X183225745Y-109943486D01*
X183295437Y-109948470D01*
X183351370Y-109990342D01*
X183375787Y-110055806D01*
X183376103Y-110064652D01*
X183376103Y-112085348D01*
X183356418Y-112152387D01*
X183303614Y-112198142D01*
X183234456Y-112208086D01*
X183170900Y-112179061D01*
X183164422Y-112173029D01*
X183145914Y-112154521D01*
X183145913Y-112154520D01*
X183054587Y-112101793D01*
X182952727Y-112074500D01*
X182847273Y-112074500D01*
X182745413Y-112101793D01*
X182745410Y-112101794D01*
X182654085Y-112154521D01*
X182579521Y-112229085D01*
X182526794Y-112320410D01*
X182526793Y-112320413D01*
X182499500Y-112422273D01*
X182499500Y-112527727D01*
X182526793Y-112629587D01*
X182579520Y-112720913D01*
X182654087Y-112795480D01*
X182745413Y-112848207D01*
X182771606Y-112855225D01*
X182831267Y-112891590D01*
X182861796Y-112954437D01*
X182853501Y-113023812D01*
X182809016Y-113077690D01*
X182771607Y-113094774D01*
X182745413Y-113101793D01*
X182745410Y-113101794D01*
X182654085Y-113154521D01*
X182579521Y-113229085D01*
X182526794Y-113320410D01*
X182526793Y-113320413D01*
X182499500Y-113422273D01*
X182499500Y-113527727D01*
X182526793Y-113629587D01*
X182579520Y-113720913D01*
X182654087Y-113795480D01*
X182692425Y-113817614D01*
X182740639Y-113868180D01*
X182753861Y-113936788D01*
X182727893Y-114001652D01*
X182692426Y-114032384D01*
X182654087Y-114054520D01*
X182654084Y-114054522D01*
X182579521Y-114129085D01*
X182526794Y-114220410D01*
X182526793Y-114220413D01*
X182499500Y-114322273D01*
X182499500Y-114427727D01*
X182526793Y-114529587D01*
X182579520Y-114620913D01*
X182654087Y-114695480D01*
X182745413Y-114748207D01*
X182771606Y-114755225D01*
X182831267Y-114791590D01*
X182861796Y-114854437D01*
X182853501Y-114923812D01*
X182809016Y-114977690D01*
X182771607Y-114994774D01*
X182745413Y-115001793D01*
X182745410Y-115001794D01*
X182654085Y-115054521D01*
X182579521Y-115129085D01*
X182526794Y-115220410D01*
X182526793Y-115220413D01*
X182499500Y-115322273D01*
X182499500Y-115427727D01*
X182526793Y-115529587D01*
X182579520Y-115620913D01*
X182654087Y-115695480D01*
X182745413Y-115748207D01*
X182771606Y-115755225D01*
X182831267Y-115791590D01*
X182861796Y-115854437D01*
X182853501Y-115923812D01*
X182809016Y-115977690D01*
X182771607Y-115994774D01*
X182745413Y-116001793D01*
X182745410Y-116001794D01*
X182654085Y-116054521D01*
X182579521Y-116129085D01*
X182526794Y-116220410D01*
X182526793Y-116220413D01*
X182499500Y-116322273D01*
X182499500Y-116427727D01*
X182526793Y-116529587D01*
X182579520Y-116620913D01*
X182654087Y-116695480D01*
X182745413Y-116748207D01*
X182847273Y-116775500D01*
X182847275Y-116775500D01*
X182952725Y-116775500D01*
X182952727Y-116775500D01*
X183054587Y-116748207D01*
X183145913Y-116695480D01*
X183164422Y-116676971D01*
X183225745Y-116643486D01*
X183295437Y-116648470D01*
X183351370Y-116690342D01*
X183375787Y-116755806D01*
X183376103Y-116764652D01*
X183376103Y-117007652D01*
X183356418Y-117074691D01*
X183303614Y-117120446D01*
X183252139Y-117131652D01*
X121877573Y-117149498D01*
X121872413Y-117149392D01*
X121425983Y-117130928D01*
X121415769Y-117130082D01*
X120974900Y-117075128D01*
X120964791Y-117073441D01*
X120529970Y-116982269D01*
X120520035Y-116979753D01*
X120094226Y-116852984D01*
X120084533Y-116849656D01*
X119670650Y-116688158D01*
X119661265Y-116684041D01*
X119262145Y-116488923D01*
X119253131Y-116484046D01*
X118871454Y-116256616D01*
X118862875Y-116251010D01*
X118513825Y-116001794D01*
X118501310Y-115992858D01*
X118493224Y-115986565D01*
X118482745Y-115977690D01*
X118154203Y-115699428D01*
X118146663Y-115692487D01*
X117832512Y-115378336D01*
X117825571Y-115370796D01*
X117698200Y-115220410D01*
X117538430Y-115031770D01*
X117532139Y-115023687D01*
X117511496Y-114994775D01*
X117273989Y-114662124D01*
X117268383Y-114653545D01*
X117040953Y-114271868D01*
X117036076Y-114262854D01*
X116840958Y-113863734D01*
X116836841Y-113854349D01*
X116749139Y-113629589D01*
X116675338Y-113440454D01*
X116672019Y-113430786D01*
X116545242Y-113004951D01*
X116542733Y-112995043D01*
X116451555Y-112560194D01*
X116449873Y-112550114D01*
X116394915Y-112109209D01*
X116394072Y-112099036D01*
X116375606Y-111652562D01*
X116375500Y-111647508D01*
X116375500Y-111584108D01*
X116375463Y-111583972D01*
X116375459Y-111575747D01*
X116375458Y-111575728D01*
X116375425Y-111515186D01*
X119449500Y-111515186D01*
X119449500Y-111784813D01*
X119479686Y-112052719D01*
X119479687Y-112052727D01*
X119479688Y-112052732D01*
X119487407Y-112086552D01*
X119539684Y-112315594D01*
X119539687Y-112315602D01*
X119628734Y-112570082D01*
X119745714Y-112812994D01*
X119745716Y-112812997D01*
X119889162Y-113041289D01*
X120057266Y-113252085D01*
X120247915Y-113442734D01*
X120458711Y-113610838D01*
X120687003Y-113754284D01*
X120929921Y-113871267D01*
X121117170Y-113936788D01*
X121184397Y-113960312D01*
X121184405Y-113960315D01*
X121184408Y-113960315D01*
X121184409Y-113960316D01*
X121447268Y-114020312D01*
X121715187Y-114050499D01*
X121715188Y-114050500D01*
X121715191Y-114050500D01*
X121984812Y-114050500D01*
X121984812Y-114050499D01*
X122252732Y-114020312D01*
X122515591Y-113960316D01*
X122770079Y-113871267D01*
X123012997Y-113754284D01*
X123241289Y-113610838D01*
X123452085Y-113442734D01*
X123642734Y-113252085D01*
X123810838Y-113041289D01*
X123954284Y-112812997D01*
X124071267Y-112570079D01*
X124160316Y-112315591D01*
X124204440Y-112122273D01*
X166699500Y-112122273D01*
X166699500Y-112227727D01*
X166726793Y-112329587D01*
X166779520Y-112420913D01*
X166854087Y-112495480D01*
X166945413Y-112548207D01*
X167047273Y-112575500D01*
X167047275Y-112575500D01*
X167152725Y-112575500D01*
X167152727Y-112575500D01*
X167254587Y-112548207D01*
X167345913Y-112495480D01*
X167420480Y-112420913D01*
X167473207Y-112329587D01*
X167500500Y-112227727D01*
X167500500Y-112122273D01*
X167473207Y-112020413D01*
X167420480Y-111929087D01*
X167345913Y-111854520D01*
X167254587Y-111801793D01*
X167152727Y-111774500D01*
X167047273Y-111774500D01*
X166945413Y-111801793D01*
X166945410Y-111801794D01*
X166854085Y-111854521D01*
X166779521Y-111929085D01*
X166726794Y-112020410D01*
X166726793Y-112020413D01*
X166699500Y-112122273D01*
X124204440Y-112122273D01*
X124220312Y-112052732D01*
X124250500Y-111784809D01*
X124250500Y-111515191D01*
X124220312Y-111247268D01*
X124160316Y-110984409D01*
X124071267Y-110729921D01*
X123954284Y-110487003D01*
X123810838Y-110258711D01*
X123642734Y-110047915D01*
X123452085Y-109857266D01*
X123417375Y-109829586D01*
X123250616Y-109696600D01*
X123241286Y-109689160D01*
X123105295Y-109603711D01*
X130179500Y-109603711D01*
X130179500Y-109846288D01*
X130211161Y-110086785D01*
X130273947Y-110321104D01*
X130342665Y-110487003D01*
X130366776Y-110545212D01*
X130488064Y-110755289D01*
X130488066Y-110755292D01*
X130488067Y-110755293D01*
X130635733Y-110947736D01*
X130635739Y-110947743D01*
X130807256Y-111119260D01*
X130807262Y-111119265D01*
X130999711Y-111266936D01*
X131209788Y-111388224D01*
X131433900Y-111481054D01*
X131668211Y-111543838D01*
X131848586Y-111567584D01*
X131908711Y-111575500D01*
X131908712Y-111575500D01*
X132151289Y-111575500D01*
X132199388Y-111569167D01*
X132391789Y-111543838D01*
X132626100Y-111481054D01*
X132850212Y-111388224D01*
X133060289Y-111266936D01*
X133252738Y-111119265D01*
X133424265Y-110947738D01*
X133571936Y-110755289D01*
X133693224Y-110545212D01*
X133786054Y-110321100D01*
X133848838Y-110086789D01*
X133880500Y-109846288D01*
X133880500Y-109603712D01*
X133880500Y-109603711D01*
X141609500Y-109603711D01*
X141609500Y-109846288D01*
X141641161Y-110086785D01*
X141703947Y-110321104D01*
X141772665Y-110487003D01*
X141796776Y-110545212D01*
X141918064Y-110755289D01*
X141918066Y-110755292D01*
X141918067Y-110755293D01*
X142065733Y-110947736D01*
X142065739Y-110947743D01*
X142237256Y-111119260D01*
X142237262Y-111119265D01*
X142429711Y-111266936D01*
X142639788Y-111388224D01*
X142863900Y-111481054D01*
X143098211Y-111543838D01*
X143278586Y-111567584D01*
X143338711Y-111575500D01*
X143338712Y-111575500D01*
X143581289Y-111575500D01*
X143629388Y-111569167D01*
X143821789Y-111543838D01*
X144056100Y-111481054D01*
X144280212Y-111388224D01*
X144490289Y-111266936D01*
X144682738Y-111119265D01*
X144854265Y-110947738D01*
X145001936Y-110755289D01*
X145123224Y-110545212D01*
X145216054Y-110321100D01*
X145278838Y-110086789D01*
X145310500Y-109846288D01*
X145310500Y-109603712D01*
X145278838Y-109363211D01*
X145216054Y-109128900D01*
X145123224Y-108904788D01*
X145001936Y-108694711D01*
X144868577Y-108520914D01*
X144854266Y-108502263D01*
X144854260Y-108502256D01*
X144682743Y-108330739D01*
X144682736Y-108330733D01*
X144659003Y-108312522D01*
X144541388Y-108222273D01*
X165999500Y-108222273D01*
X165999500Y-108327727D01*
X166026793Y-108429587D01*
X166079520Y-108520913D01*
X166154087Y-108595480D01*
X166245413Y-108648207D01*
X166347273Y-108675500D01*
X166347275Y-108675500D01*
X166452725Y-108675500D01*
X166452727Y-108675500D01*
X166554587Y-108648207D01*
X166645913Y-108595480D01*
X166720480Y-108520913D01*
X166773207Y-108429587D01*
X166800500Y-108327727D01*
X166800500Y-108222273D01*
X166773207Y-108120413D01*
X166720480Y-108029087D01*
X166645913Y-107954520D01*
X166579059Y-107915922D01*
X166554589Y-107901794D01*
X166554588Y-107901793D01*
X166554587Y-107901793D01*
X166452727Y-107874500D01*
X166347273Y-107874500D01*
X166245413Y-107901793D01*
X166245410Y-107901794D01*
X166154085Y-107954521D01*
X166079521Y-108029085D01*
X166026794Y-108120410D01*
X166026793Y-108120413D01*
X165999500Y-108222273D01*
X144541388Y-108222273D01*
X144490293Y-108183067D01*
X144490292Y-108183066D01*
X144490289Y-108183064D01*
X144280212Y-108061776D01*
X144201289Y-108029085D01*
X144056104Y-107968947D01*
X143821785Y-107906161D01*
X143581289Y-107874500D01*
X143581288Y-107874500D01*
X143338712Y-107874500D01*
X143338711Y-107874500D01*
X143098214Y-107906161D01*
X142863895Y-107968947D01*
X142639794Y-108061773D01*
X142639785Y-108061777D01*
X142429706Y-108183067D01*
X142237263Y-108330733D01*
X142237256Y-108330739D01*
X142065739Y-108502256D01*
X142065733Y-108502263D01*
X141918067Y-108694706D01*
X141796777Y-108904785D01*
X141796773Y-108904794D01*
X141703947Y-109128895D01*
X141641161Y-109363214D01*
X141609500Y-109603711D01*
X133880500Y-109603711D01*
X133848838Y-109363211D01*
X133786054Y-109128900D01*
X133693224Y-108904788D01*
X133571936Y-108694711D01*
X133438577Y-108520914D01*
X133424266Y-108502263D01*
X133424260Y-108502256D01*
X133252743Y-108330739D01*
X133252736Y-108330733D01*
X133060293Y-108183067D01*
X133060292Y-108183066D01*
X133060289Y-108183064D01*
X132850212Y-108061776D01*
X132771289Y-108029085D01*
X132626104Y-107968947D01*
X132391785Y-107906161D01*
X132151289Y-107874500D01*
X132151288Y-107874500D01*
X131908712Y-107874500D01*
X131908711Y-107874500D01*
X131668214Y-107906161D01*
X131433895Y-107968947D01*
X131209794Y-108061773D01*
X131209785Y-108061777D01*
X130999706Y-108183067D01*
X130807263Y-108330733D01*
X130807256Y-108330739D01*
X130635739Y-108502256D01*
X130635733Y-108502263D01*
X130488067Y-108694706D01*
X130366777Y-108904785D01*
X130366773Y-108904794D01*
X130273947Y-109128895D01*
X130211161Y-109363214D01*
X130179500Y-109603711D01*
X123105295Y-109603711D01*
X123012994Y-109545714D01*
X122770082Y-109428734D01*
X122515602Y-109339687D01*
X122515594Y-109339684D01*
X122318446Y-109294687D01*
X122252732Y-109279688D01*
X122252728Y-109279687D01*
X122252719Y-109279686D01*
X121984813Y-109249500D01*
X121984809Y-109249500D01*
X121715191Y-109249500D01*
X121715186Y-109249500D01*
X121447280Y-109279686D01*
X121447268Y-109279688D01*
X121184405Y-109339684D01*
X121184397Y-109339687D01*
X120929917Y-109428734D01*
X120687005Y-109545714D01*
X120458712Y-109689161D01*
X120247915Y-109857265D01*
X120057265Y-110047915D01*
X119889161Y-110258712D01*
X119745714Y-110487005D01*
X119628734Y-110729917D01*
X119539687Y-110984397D01*
X119539684Y-110984405D01*
X119479688Y-111247268D01*
X119479686Y-111247280D01*
X119449500Y-111515186D01*
X116375425Y-111515186D01*
X116375423Y-111511780D01*
X116372825Y-106822273D01*
X165799500Y-106822273D01*
X165799500Y-106927727D01*
X165826793Y-107029587D01*
X165879520Y-107120913D01*
X165954087Y-107195480D01*
X166045413Y-107248207D01*
X166147273Y-107275500D01*
X166147275Y-107275500D01*
X166252725Y-107275500D01*
X166252727Y-107275500D01*
X166354587Y-107248207D01*
X166445913Y-107195480D01*
X166520480Y-107120913D01*
X166573207Y-107029587D01*
X166600500Y-106927727D01*
X166600500Y-106822273D01*
X166573207Y-106720413D01*
X166520480Y-106629087D01*
X166445913Y-106554520D01*
X166354587Y-106501793D01*
X166252727Y-106474500D01*
X166147273Y-106474500D01*
X166045413Y-106501793D01*
X166045410Y-106501794D01*
X165954085Y-106554521D01*
X165879521Y-106629085D01*
X165826794Y-106720410D01*
X165826793Y-106720413D01*
X165799500Y-106822273D01*
X116372825Y-106822273D01*
X116372821Y-106814215D01*
X116370543Y-102703747D01*
X132448000Y-102703747D01*
X132448000Y-104046252D01*
X132459631Y-104104729D01*
X132459632Y-104104730D01*
X132503947Y-104171052D01*
X132570269Y-104215367D01*
X132570270Y-104215368D01*
X132628747Y-104226999D01*
X132628750Y-104227000D01*
X132628752Y-104227000D01*
X133971250Y-104227000D01*
X133971251Y-104226999D01*
X133986068Y-104224052D01*
X134029729Y-104215368D01*
X134029729Y-104215367D01*
X134029731Y-104215367D01*
X134096052Y-104171052D01*
X134140367Y-104104731D01*
X134140367Y-104104729D01*
X134140368Y-104104729D01*
X134151999Y-104046252D01*
X134152000Y-104046250D01*
X134152000Y-103291080D01*
X134988000Y-103291080D01*
X134988000Y-103458919D01*
X135020740Y-103623511D01*
X135020742Y-103623519D01*
X135084966Y-103778569D01*
X135084971Y-103778579D01*
X135178208Y-103918117D01*
X135178211Y-103918121D01*
X135296878Y-104036788D01*
X135296882Y-104036791D01*
X135436420Y-104130028D01*
X135436424Y-104130030D01*
X135436427Y-104130032D01*
X135591481Y-104194258D01*
X135719401Y-104219703D01*
X135756080Y-104226999D01*
X135756083Y-104227000D01*
X135756085Y-104227000D01*
X135923917Y-104227000D01*
X135923918Y-104226999D01*
X136088519Y-104194258D01*
X136243573Y-104130032D01*
X136383118Y-104036791D01*
X136501791Y-103918118D01*
X136595032Y-103778573D01*
X136659258Y-103623519D01*
X136692000Y-103458915D01*
X136692000Y-103291085D01*
X136692000Y-103291082D01*
X136691999Y-103291080D01*
X137528000Y-103291080D01*
X137528000Y-103458919D01*
X137560740Y-103623511D01*
X137560742Y-103623519D01*
X137624966Y-103778569D01*
X137624971Y-103778579D01*
X137718208Y-103918117D01*
X137718211Y-103918121D01*
X137836878Y-104036788D01*
X137836882Y-104036791D01*
X137976420Y-104130028D01*
X137976424Y-104130030D01*
X137976427Y-104130032D01*
X138131481Y-104194258D01*
X138259401Y-104219703D01*
X138296080Y-104226999D01*
X138296083Y-104227000D01*
X138296085Y-104227000D01*
X138463917Y-104227000D01*
X138463918Y-104226999D01*
X138628519Y-104194258D01*
X138783573Y-104130032D01*
X138923118Y-104036791D01*
X139041791Y-103918118D01*
X139135032Y-103778573D01*
X139199258Y-103623519D01*
X139232000Y-103458915D01*
X139232000Y-103291085D01*
X139232000Y-103291082D01*
X139231999Y-103291080D01*
X140068000Y-103291080D01*
X140068000Y-103458919D01*
X140100740Y-103623511D01*
X140100742Y-103623519D01*
X140164966Y-103778569D01*
X140164971Y-103778579D01*
X140258208Y-103918117D01*
X140258211Y-103918121D01*
X140376878Y-104036788D01*
X140376882Y-104036791D01*
X140516420Y-104130028D01*
X140516424Y-104130030D01*
X140516427Y-104130032D01*
X140671481Y-104194258D01*
X140799401Y-104219703D01*
X140836080Y-104226999D01*
X140836083Y-104227000D01*
X140836085Y-104227000D01*
X141003917Y-104227000D01*
X141003918Y-104226999D01*
X141168519Y-104194258D01*
X141323573Y-104130032D01*
X141463118Y-104036791D01*
X141581791Y-103918118D01*
X141675032Y-103778573D01*
X141739258Y-103623519D01*
X141772000Y-103458915D01*
X141772000Y-103291085D01*
X141772000Y-103291082D01*
X141771999Y-103291080D01*
X141739259Y-103126488D01*
X141739258Y-103126481D01*
X141675032Y-102971427D01*
X141675030Y-102971424D01*
X141675028Y-102971420D01*
X141581791Y-102831882D01*
X141581788Y-102831878D01*
X141463121Y-102713211D01*
X141463117Y-102713208D01*
X141323578Y-102619970D01*
X141323569Y-102619966D01*
X141168519Y-102555742D01*
X141168511Y-102555740D01*
X141003918Y-102523000D01*
X141003915Y-102523000D01*
X140836085Y-102523000D01*
X140836082Y-102523000D01*
X140671488Y-102555740D01*
X140671480Y-102555742D01*
X140516430Y-102619966D01*
X140516420Y-102619971D01*
X140376882Y-102713208D01*
X140376878Y-102713211D01*
X140258211Y-102831878D01*
X140258208Y-102831882D01*
X140164971Y-102971420D01*
X140164966Y-102971430D01*
X140100742Y-103126480D01*
X140100740Y-103126488D01*
X140068000Y-103291080D01*
X139231999Y-103291080D01*
X139199259Y-103126488D01*
X139199258Y-103126481D01*
X139135032Y-102971427D01*
X139135030Y-102971424D01*
X139135028Y-102971420D01*
X139041791Y-102831882D01*
X139041788Y-102831878D01*
X138923121Y-102713211D01*
X138923117Y-102713208D01*
X138783579Y-102619971D01*
X138783569Y-102619966D01*
X138628519Y-102555742D01*
X138628511Y-102555740D01*
X138463918Y-102523000D01*
X138463915Y-102523000D01*
X138296085Y-102523000D01*
X138296082Y-102523000D01*
X138131488Y-102555740D01*
X138131480Y-102555742D01*
X137976430Y-102619966D01*
X137976420Y-102619971D01*
X137836882Y-102713208D01*
X137836878Y-102713211D01*
X137718211Y-102831878D01*
X137718208Y-102831882D01*
X137624971Y-102971420D01*
X137624966Y-102971430D01*
X137560742Y-103126480D01*
X137560740Y-103126488D01*
X137528000Y-103291080D01*
X136691999Y-103291080D01*
X136659259Y-103126488D01*
X136659258Y-103126481D01*
X136595032Y-102971427D01*
X136595030Y-102971424D01*
X136595028Y-102971420D01*
X136501791Y-102831882D01*
X136501788Y-102831878D01*
X136383121Y-102713211D01*
X136383117Y-102713208D01*
X136243579Y-102619971D01*
X136243569Y-102619966D01*
X136088519Y-102555742D01*
X136088511Y-102555740D01*
X135923918Y-102523000D01*
X135923915Y-102523000D01*
X135756085Y-102523000D01*
X135756082Y-102523000D01*
X135591488Y-102555740D01*
X135591480Y-102555742D01*
X135436430Y-102619966D01*
X135436420Y-102619971D01*
X135296882Y-102713208D01*
X135296878Y-102713211D01*
X135178211Y-102831878D01*
X135178208Y-102831882D01*
X135084971Y-102971420D01*
X135084966Y-102971430D01*
X135020742Y-103126480D01*
X135020740Y-103126488D01*
X134988000Y-103291080D01*
X134152000Y-103291080D01*
X134152000Y-102703749D01*
X134151999Y-102703747D01*
X134140368Y-102645270D01*
X134140367Y-102645269D01*
X134096052Y-102578947D01*
X134029730Y-102534632D01*
X134029729Y-102534631D01*
X133971252Y-102523000D01*
X133971248Y-102523000D01*
X132628752Y-102523000D01*
X132628747Y-102523000D01*
X132570270Y-102534631D01*
X132570269Y-102534632D01*
X132503947Y-102578947D01*
X132459632Y-102645269D01*
X132459631Y-102645270D01*
X132448000Y-102703747D01*
X116370543Y-102703747D01*
X116370540Y-102697729D01*
X116370443Y-102522273D01*
X190599500Y-102522273D01*
X190599500Y-102627727D01*
X190626793Y-102729587D01*
X190679520Y-102820913D01*
X190754087Y-102895480D01*
X190845413Y-102948207D01*
X190947273Y-102975500D01*
X190947275Y-102975500D01*
X191052725Y-102975500D01*
X191052727Y-102975500D01*
X191154587Y-102948207D01*
X191245913Y-102895480D01*
X191320480Y-102820913D01*
X191373207Y-102729587D01*
X191400500Y-102627727D01*
X191400500Y-102522273D01*
X191373207Y-102420413D01*
X191320480Y-102329087D01*
X191245913Y-102254520D01*
X191154587Y-102201793D01*
X191052727Y-102174500D01*
X190947273Y-102174500D01*
X190845413Y-102201793D01*
X190845410Y-102201794D01*
X190754085Y-102254521D01*
X190679521Y-102329085D01*
X190626794Y-102420410D01*
X190626793Y-102420413D01*
X190599500Y-102522273D01*
X116370443Y-102522273D01*
X116369962Y-101654257D01*
X116369462Y-100751080D01*
X133718000Y-100751080D01*
X133718000Y-100918919D01*
X133750740Y-101083511D01*
X133750742Y-101083519D01*
X133814966Y-101238569D01*
X133814971Y-101238579D01*
X133908208Y-101378117D01*
X133908211Y-101378121D01*
X134026878Y-101496788D01*
X134026882Y-101496791D01*
X134166420Y-101590028D01*
X134166424Y-101590030D01*
X134166427Y-101590032D01*
X134321481Y-101654258D01*
X134486080Y-101686999D01*
X134486083Y-101687000D01*
X134486085Y-101687000D01*
X134653917Y-101687000D01*
X134653918Y-101686999D01*
X134818519Y-101654258D01*
X134973573Y-101590032D01*
X135113118Y-101496791D01*
X135231791Y-101378118D01*
X135325032Y-101238573D01*
X135389258Y-101083519D01*
X135422000Y-100918915D01*
X135422000Y-100751085D01*
X135422000Y-100751082D01*
X135421999Y-100751080D01*
X136258000Y-100751080D01*
X136258000Y-100918919D01*
X136290740Y-101083511D01*
X136290742Y-101083519D01*
X136354966Y-101238569D01*
X136354971Y-101238579D01*
X136448208Y-101378117D01*
X136448211Y-101378121D01*
X136566878Y-101496788D01*
X136566882Y-101496791D01*
X136706420Y-101590028D01*
X136706424Y-101590030D01*
X136706427Y-101590032D01*
X136861481Y-101654258D01*
X137026080Y-101686999D01*
X137026083Y-101687000D01*
X137026085Y-101687000D01*
X137193917Y-101687000D01*
X137193918Y-101686999D01*
X137358519Y-101654258D01*
X137513573Y-101590032D01*
X137653118Y-101496791D01*
X137771791Y-101378118D01*
X137865032Y-101238573D01*
X137929258Y-101083519D01*
X137962000Y-100918915D01*
X137962000Y-100751085D01*
X137962000Y-100751082D01*
X137961999Y-100751080D01*
X138798000Y-100751080D01*
X138798000Y-100918919D01*
X138830740Y-101083511D01*
X138830742Y-101083519D01*
X138894966Y-101238569D01*
X138894971Y-101238579D01*
X138988208Y-101378117D01*
X138988211Y-101378121D01*
X139106878Y-101496788D01*
X139106882Y-101496791D01*
X139246420Y-101590028D01*
X139246424Y-101590030D01*
X139246427Y-101590032D01*
X139401481Y-101654258D01*
X139566080Y-101686999D01*
X139566083Y-101687000D01*
X139566085Y-101687000D01*
X139733917Y-101687000D01*
X139733918Y-101686999D01*
X139898519Y-101654258D01*
X140053573Y-101590032D01*
X140193118Y-101496791D01*
X140311791Y-101378118D01*
X140405032Y-101238573D01*
X140469258Y-101083519D01*
X140502000Y-100918915D01*
X140502000Y-100751085D01*
X140502000Y-100751082D01*
X140501999Y-100751080D01*
X141338000Y-100751080D01*
X141338000Y-100918919D01*
X141370740Y-101083511D01*
X141370742Y-101083519D01*
X141434966Y-101238569D01*
X141434971Y-101238579D01*
X141528208Y-101378117D01*
X141528211Y-101378121D01*
X141646878Y-101496788D01*
X141646882Y-101496791D01*
X141786420Y-101590028D01*
X141786424Y-101590030D01*
X141786427Y-101590032D01*
X141941481Y-101654258D01*
X142106080Y-101686999D01*
X142106083Y-101687000D01*
X142106085Y-101687000D01*
X142273917Y-101687000D01*
X142273918Y-101686999D01*
X142438519Y-101654258D01*
X142593573Y-101590032D01*
X142733118Y-101496791D01*
X142851791Y-101378118D01*
X142945032Y-101238573D01*
X142951784Y-101222273D01*
X190599500Y-101222273D01*
X190599500Y-101327727D01*
X190626793Y-101429587D01*
X190679520Y-101520913D01*
X190754087Y-101595480D01*
X190845413Y-101648207D01*
X190947273Y-101675500D01*
X190947275Y-101675500D01*
X191052725Y-101675500D01*
X191052727Y-101675500D01*
X191154587Y-101648207D01*
X191245913Y-101595480D01*
X191320480Y-101520913D01*
X191373207Y-101429587D01*
X191400500Y-101327727D01*
X191400500Y-101222273D01*
X191373207Y-101120413D01*
X191320480Y-101029087D01*
X191245913Y-100954520D01*
X191154587Y-100901793D01*
X191052727Y-100874500D01*
X190947273Y-100874500D01*
X190845413Y-100901793D01*
X190845410Y-100901794D01*
X190754085Y-100954521D01*
X190679521Y-101029085D01*
X190626794Y-101120410D01*
X190626793Y-101120413D01*
X190599500Y-101222273D01*
X142951784Y-101222273D01*
X143009258Y-101083519D01*
X143042000Y-100918915D01*
X143042000Y-100751085D01*
X143042000Y-100751082D01*
X143041999Y-100751080D01*
X143009259Y-100586488D01*
X143009258Y-100586481D01*
X142945032Y-100431427D01*
X142945030Y-100431424D01*
X142945028Y-100431420D01*
X142851791Y-100291882D01*
X142851788Y-100291878D01*
X142733121Y-100173211D01*
X142733117Y-100173208D01*
X142649367Y-100117248D01*
X142593579Y-100079971D01*
X142593569Y-100079966D01*
X142454286Y-100022273D01*
X184099500Y-100022273D01*
X184099500Y-100127727D01*
X184111688Y-100173211D01*
X184126793Y-100229586D01*
X184126794Y-100229589D01*
X184127559Y-100230914D01*
X184179520Y-100320913D01*
X184254087Y-100395480D01*
X184345413Y-100448207D01*
X184447273Y-100475500D01*
X184447275Y-100475500D01*
X184552725Y-100475500D01*
X184552727Y-100475500D01*
X184654587Y-100448207D01*
X184745913Y-100395480D01*
X184820480Y-100320913D01*
X184842614Y-100282574D01*
X184893179Y-100234361D01*
X184961786Y-100221137D01*
X185026651Y-100247105D01*
X185057384Y-100282573D01*
X185079520Y-100320913D01*
X185154087Y-100395480D01*
X185245413Y-100448207D01*
X185347273Y-100475500D01*
X185347275Y-100475500D01*
X185452725Y-100475500D01*
X185452727Y-100475500D01*
X185554587Y-100448207D01*
X185645913Y-100395480D01*
X185720480Y-100320913D01*
X185773207Y-100229587D01*
X185800500Y-100127727D01*
X185800500Y-100022273D01*
X186099500Y-100022273D01*
X186099500Y-100127727D01*
X186111688Y-100173211D01*
X186126793Y-100229586D01*
X186126794Y-100229589D01*
X186127559Y-100230914D01*
X186179520Y-100320913D01*
X186254087Y-100395480D01*
X186345413Y-100448207D01*
X186447273Y-100475500D01*
X186447275Y-100475500D01*
X186552725Y-100475500D01*
X186552727Y-100475500D01*
X186654587Y-100448207D01*
X186745913Y-100395480D01*
X186820480Y-100320913D01*
X186842614Y-100282574D01*
X186893179Y-100234361D01*
X186961786Y-100221137D01*
X187026651Y-100247105D01*
X187057384Y-100282573D01*
X187079520Y-100320913D01*
X187154087Y-100395480D01*
X187245413Y-100448207D01*
X187347273Y-100475500D01*
X187347275Y-100475500D01*
X187452725Y-100475500D01*
X187452727Y-100475500D01*
X187554587Y-100448207D01*
X187645913Y-100395480D01*
X187720480Y-100320913D01*
X187773207Y-100229587D01*
X187800500Y-100127727D01*
X187800500Y-100022273D01*
X188099500Y-100022273D01*
X188099500Y-100127727D01*
X188111688Y-100173211D01*
X188126793Y-100229586D01*
X188126794Y-100229589D01*
X188127559Y-100230914D01*
X188179520Y-100320913D01*
X188254087Y-100395480D01*
X188345413Y-100448207D01*
X188447273Y-100475500D01*
X188447275Y-100475500D01*
X188552725Y-100475500D01*
X188552727Y-100475500D01*
X188654587Y-100448207D01*
X188745913Y-100395480D01*
X188820480Y-100320913D01*
X188873207Y-100229587D01*
X188900500Y-100127727D01*
X188900500Y-100022273D01*
X188873207Y-99920413D01*
X188820480Y-99829087D01*
X188813666Y-99822273D01*
X190599500Y-99822273D01*
X190599500Y-99927727D01*
X190626793Y-100029587D01*
X190679520Y-100120913D01*
X190754087Y-100195480D01*
X190845413Y-100248207D01*
X190947273Y-100275500D01*
X190947275Y-100275500D01*
X191052725Y-100275500D01*
X191052727Y-100275500D01*
X191154587Y-100248207D01*
X191245913Y-100195480D01*
X191320480Y-100120913D01*
X191373207Y-100029587D01*
X191400500Y-99927727D01*
X191400500Y-99822273D01*
X191373207Y-99720413D01*
X191320480Y-99629087D01*
X191245913Y-99554520D01*
X191154587Y-99501793D01*
X191052727Y-99474500D01*
X190947273Y-99474500D01*
X190845413Y-99501793D01*
X190845410Y-99501794D01*
X190754085Y-99554521D01*
X190679521Y-99629085D01*
X190626794Y-99720410D01*
X190626793Y-99720413D01*
X190599500Y-99822273D01*
X188813666Y-99822273D01*
X188745913Y-99754520D01*
X188654587Y-99701793D01*
X188552727Y-99674500D01*
X188447273Y-99674500D01*
X188345413Y-99701793D01*
X188345410Y-99701794D01*
X188254085Y-99754521D01*
X188179521Y-99829085D01*
X188126794Y-99920410D01*
X188126793Y-99920413D01*
X188099500Y-100022273D01*
X187800500Y-100022273D01*
X187773207Y-99920413D01*
X187720480Y-99829087D01*
X187645913Y-99754520D01*
X187554587Y-99701793D01*
X187452727Y-99674500D01*
X187347273Y-99674500D01*
X187245413Y-99701793D01*
X187245410Y-99701794D01*
X187154085Y-99754521D01*
X187079522Y-99829084D01*
X187079520Y-99829086D01*
X187079520Y-99829087D01*
X187057385Y-99867425D01*
X187006820Y-99915639D01*
X186938212Y-99928861D01*
X186873348Y-99902893D01*
X186842615Y-99867426D01*
X186820480Y-99829087D01*
X186745913Y-99754520D01*
X186654587Y-99701793D01*
X186552727Y-99674500D01*
X186447273Y-99674500D01*
X186345413Y-99701793D01*
X186345410Y-99701794D01*
X186254085Y-99754521D01*
X186179521Y-99829085D01*
X186126794Y-99920410D01*
X186126793Y-99920413D01*
X186099500Y-100022273D01*
X185800500Y-100022273D01*
X185773207Y-99920413D01*
X185720480Y-99829087D01*
X185645913Y-99754520D01*
X185554587Y-99701793D01*
X185452727Y-99674500D01*
X185347273Y-99674500D01*
X185245413Y-99701793D01*
X185245410Y-99701794D01*
X185154085Y-99754521D01*
X185079522Y-99829084D01*
X185079520Y-99829086D01*
X185079520Y-99829087D01*
X185057385Y-99867425D01*
X185006820Y-99915639D01*
X184938212Y-99928861D01*
X184873348Y-99902893D01*
X184842615Y-99867426D01*
X184820480Y-99829087D01*
X184745913Y-99754520D01*
X184654587Y-99701793D01*
X184552727Y-99674500D01*
X184447273Y-99674500D01*
X184345413Y-99701793D01*
X184345410Y-99701794D01*
X184254085Y-99754521D01*
X184179521Y-99829085D01*
X184126794Y-99920410D01*
X184126793Y-99920413D01*
X184099500Y-100022273D01*
X142454286Y-100022273D01*
X142438519Y-100015742D01*
X142438511Y-100015740D01*
X142273918Y-99983000D01*
X142273915Y-99983000D01*
X142106085Y-99983000D01*
X142106082Y-99983000D01*
X141941488Y-100015740D01*
X141941480Y-100015742D01*
X141786430Y-100079966D01*
X141786420Y-100079971D01*
X141646882Y-100173208D01*
X141646878Y-100173211D01*
X141528211Y-100291878D01*
X141528208Y-100291882D01*
X141434971Y-100431420D01*
X141434966Y-100431430D01*
X141370742Y-100586480D01*
X141370740Y-100586488D01*
X141338000Y-100751080D01*
X140501999Y-100751080D01*
X140469259Y-100586488D01*
X140469258Y-100586481D01*
X140405032Y-100431427D01*
X140405030Y-100431424D01*
X140405028Y-100431420D01*
X140311791Y-100291882D01*
X140311788Y-100291878D01*
X140193121Y-100173211D01*
X140193117Y-100173208D01*
X140053579Y-100079971D01*
X140053569Y-100079966D01*
X139898519Y-100015742D01*
X139898511Y-100015740D01*
X139733918Y-99983000D01*
X139733915Y-99983000D01*
X139566085Y-99983000D01*
X139566082Y-99983000D01*
X139401488Y-100015740D01*
X139401480Y-100015742D01*
X139246430Y-100079966D01*
X139246420Y-100079971D01*
X139106882Y-100173208D01*
X139106878Y-100173211D01*
X138988211Y-100291878D01*
X138988208Y-100291882D01*
X138894971Y-100431420D01*
X138894966Y-100431430D01*
X138830742Y-100586480D01*
X138830740Y-100586488D01*
X138798000Y-100751080D01*
X137961999Y-100751080D01*
X137929259Y-100586488D01*
X137929258Y-100586481D01*
X137865032Y-100431427D01*
X137865030Y-100431424D01*
X137865028Y-100431420D01*
X137771791Y-100291882D01*
X137771788Y-100291878D01*
X137653121Y-100173211D01*
X137653117Y-100173208D01*
X137513579Y-100079971D01*
X137513569Y-100079966D01*
X137358519Y-100015742D01*
X137358511Y-100015740D01*
X137193918Y-99983000D01*
X137193915Y-99983000D01*
X137026085Y-99983000D01*
X137026082Y-99983000D01*
X136861488Y-100015740D01*
X136861480Y-100015742D01*
X136706430Y-100079966D01*
X136706420Y-100079971D01*
X136566882Y-100173208D01*
X136566878Y-100173211D01*
X136448211Y-100291878D01*
X136448208Y-100291882D01*
X136354971Y-100431420D01*
X136354966Y-100431430D01*
X136290742Y-100586480D01*
X136290740Y-100586488D01*
X136258000Y-100751080D01*
X135421999Y-100751080D01*
X135389259Y-100586488D01*
X135389258Y-100586481D01*
X135325032Y-100431427D01*
X135325030Y-100431424D01*
X135325028Y-100431420D01*
X135231791Y-100291882D01*
X135231788Y-100291878D01*
X135113121Y-100173211D01*
X135113117Y-100173208D01*
X134973579Y-100079971D01*
X134973569Y-100079966D01*
X134818519Y-100015742D01*
X134818511Y-100015740D01*
X134653918Y-99983000D01*
X134653915Y-99983000D01*
X134486085Y-99983000D01*
X134486082Y-99983000D01*
X134321488Y-100015740D01*
X134321480Y-100015742D01*
X134166430Y-100079966D01*
X134166420Y-100079971D01*
X134026882Y-100173208D01*
X134026878Y-100173211D01*
X133908211Y-100291878D01*
X133908208Y-100291882D01*
X133814971Y-100431420D01*
X133814966Y-100431430D01*
X133750742Y-100586480D01*
X133750740Y-100586488D01*
X133718000Y-100751080D01*
X116369462Y-100751080D01*
X116369008Y-99932273D01*
X122709500Y-99932273D01*
X122709500Y-100037727D01*
X122736793Y-100139587D01*
X122789520Y-100230913D01*
X122864087Y-100305480D01*
X122955413Y-100358207D01*
X123057273Y-100385500D01*
X123057275Y-100385500D01*
X123162725Y-100385500D01*
X123162727Y-100385500D01*
X123264587Y-100358207D01*
X123355913Y-100305480D01*
X123430480Y-100230913D01*
X123483207Y-100139587D01*
X123510500Y-100037727D01*
X123510500Y-99932273D01*
X123483207Y-99830413D01*
X123430480Y-99739087D01*
X123355913Y-99664520D01*
X123264587Y-99611793D01*
X123162727Y-99584500D01*
X123057273Y-99584500D01*
X122955413Y-99611793D01*
X122955410Y-99611794D01*
X122864085Y-99664521D01*
X122789521Y-99739085D01*
X122736794Y-99830410D01*
X122736793Y-99830413D01*
X122709500Y-99932273D01*
X116369008Y-99932273D01*
X116368005Y-98122273D01*
X166799500Y-98122273D01*
X166799500Y-98227727D01*
X166826793Y-98329587D01*
X166879520Y-98420913D01*
X166954087Y-98495480D01*
X167045413Y-98548207D01*
X167147273Y-98575500D01*
X167147275Y-98575500D01*
X167252725Y-98575500D01*
X167252727Y-98575500D01*
X167354587Y-98548207D01*
X167445913Y-98495480D01*
X167520480Y-98420913D01*
X167573207Y-98329587D01*
X167600500Y-98227727D01*
X167600500Y-98122273D01*
X167573207Y-98020413D01*
X167520480Y-97929087D01*
X167513666Y-97922273D01*
X184099500Y-97922273D01*
X184099500Y-98027727D01*
X184126793Y-98129587D01*
X184179520Y-98220913D01*
X184254087Y-98295480D01*
X184345413Y-98348207D01*
X184447273Y-98375500D01*
X184447275Y-98375500D01*
X184552725Y-98375500D01*
X184552727Y-98375500D01*
X184654587Y-98348207D01*
X184745913Y-98295480D01*
X184820480Y-98220913D01*
X184873207Y-98129587D01*
X184880225Y-98103393D01*
X184916589Y-98043733D01*
X184979436Y-98013203D01*
X185048812Y-98021497D01*
X185102690Y-98065982D01*
X185119775Y-98103394D01*
X185126792Y-98129585D01*
X185126793Y-98129587D01*
X185179520Y-98220913D01*
X185254087Y-98295480D01*
X185345413Y-98348207D01*
X185447273Y-98375500D01*
X185447275Y-98375500D01*
X185552725Y-98375500D01*
X185552727Y-98375500D01*
X185654587Y-98348207D01*
X185745913Y-98295480D01*
X185820480Y-98220913D01*
X185873207Y-98129587D01*
X185880225Y-98103393D01*
X185916589Y-98043733D01*
X185979436Y-98013203D01*
X186048812Y-98021497D01*
X186102690Y-98065982D01*
X186119775Y-98103394D01*
X186126792Y-98129585D01*
X186126793Y-98129587D01*
X186179520Y-98220913D01*
X186254087Y-98295480D01*
X186345413Y-98348207D01*
X186447273Y-98375500D01*
X186447275Y-98375500D01*
X186552725Y-98375500D01*
X186552727Y-98375500D01*
X186654587Y-98348207D01*
X186745913Y-98295480D01*
X186820480Y-98220913D01*
X186873207Y-98129587D01*
X186880225Y-98103393D01*
X186916589Y-98043733D01*
X186979436Y-98013203D01*
X187048812Y-98021497D01*
X187102690Y-98065982D01*
X187119775Y-98103394D01*
X187126792Y-98129585D01*
X187126793Y-98129587D01*
X187179520Y-98220913D01*
X187254087Y-98295480D01*
X187345413Y-98348207D01*
X187447273Y-98375500D01*
X187447275Y-98375500D01*
X187552725Y-98375500D01*
X187552727Y-98375500D01*
X187654587Y-98348207D01*
X187745913Y-98295480D01*
X187820480Y-98220913D01*
X187873207Y-98129587D01*
X187880225Y-98103393D01*
X187916589Y-98043733D01*
X187979436Y-98013203D01*
X188048812Y-98021497D01*
X188102690Y-98065982D01*
X188119775Y-98103394D01*
X188126792Y-98129585D01*
X188126793Y-98129587D01*
X188179520Y-98220913D01*
X188254087Y-98295480D01*
X188345413Y-98348207D01*
X188447273Y-98375500D01*
X188447275Y-98375500D01*
X188552725Y-98375500D01*
X188552727Y-98375500D01*
X188654587Y-98348207D01*
X188745913Y-98295480D01*
X188820480Y-98220913D01*
X188873207Y-98129587D01*
X188900500Y-98027727D01*
X188900500Y-97922273D01*
X188873207Y-97820413D01*
X188820480Y-97729087D01*
X188745913Y-97654520D01*
X188690059Y-97622273D01*
X193399500Y-97622273D01*
X193399500Y-97727727D01*
X193426793Y-97829587D01*
X193479520Y-97920913D01*
X193554087Y-97995480D01*
X193645413Y-98048207D01*
X193747273Y-98075500D01*
X193747275Y-98075500D01*
X193852725Y-98075500D01*
X193852727Y-98075500D01*
X193954587Y-98048207D01*
X194045913Y-97995480D01*
X194120480Y-97920913D01*
X194173207Y-97829587D01*
X194200500Y-97727727D01*
X194200500Y-97622273D01*
X194173207Y-97520413D01*
X194120480Y-97429087D01*
X194045913Y-97354520D01*
X193954587Y-97301793D01*
X193852727Y-97274500D01*
X193747273Y-97274500D01*
X193645413Y-97301793D01*
X193645410Y-97301794D01*
X193554085Y-97354521D01*
X193479521Y-97429085D01*
X193426794Y-97520410D01*
X193426793Y-97520413D01*
X193399500Y-97622273D01*
X188690059Y-97622273D01*
X188654587Y-97601793D01*
X188552727Y-97574500D01*
X188447273Y-97574500D01*
X188345413Y-97601793D01*
X188345410Y-97601794D01*
X188254085Y-97654521D01*
X188179521Y-97729085D01*
X188126794Y-97820410D01*
X188126793Y-97820413D01*
X188119775Y-97846606D01*
X188083410Y-97906267D01*
X188020563Y-97936796D01*
X187951188Y-97928501D01*
X187897310Y-97884016D01*
X187880225Y-97846606D01*
X187873207Y-97820413D01*
X187820480Y-97729087D01*
X187745913Y-97654520D01*
X187654587Y-97601793D01*
X187552727Y-97574500D01*
X187447273Y-97574500D01*
X187345413Y-97601793D01*
X187345410Y-97601794D01*
X187254085Y-97654521D01*
X187179521Y-97729085D01*
X187126794Y-97820410D01*
X187126793Y-97820413D01*
X187119775Y-97846606D01*
X187083410Y-97906267D01*
X187020563Y-97936796D01*
X186951188Y-97928501D01*
X186897310Y-97884016D01*
X186880225Y-97846606D01*
X186873207Y-97820413D01*
X186820480Y-97729087D01*
X186745913Y-97654520D01*
X186654587Y-97601793D01*
X186552727Y-97574500D01*
X186447273Y-97574500D01*
X186345413Y-97601793D01*
X186345410Y-97601794D01*
X186254085Y-97654521D01*
X186179521Y-97729085D01*
X186126794Y-97820410D01*
X186126793Y-97820413D01*
X186119775Y-97846606D01*
X186083410Y-97906267D01*
X186020563Y-97936796D01*
X185951188Y-97928501D01*
X185897310Y-97884016D01*
X185880225Y-97846606D01*
X185873207Y-97820413D01*
X185820480Y-97729087D01*
X185745913Y-97654520D01*
X185654587Y-97601793D01*
X185552727Y-97574500D01*
X185447273Y-97574500D01*
X185345413Y-97601793D01*
X185345410Y-97601794D01*
X185254085Y-97654521D01*
X185179521Y-97729085D01*
X185126794Y-97820410D01*
X185126793Y-97820413D01*
X185119775Y-97846606D01*
X185083410Y-97906267D01*
X185020563Y-97936796D01*
X184951188Y-97928501D01*
X184897310Y-97884016D01*
X184880225Y-97846606D01*
X184873207Y-97820413D01*
X184820480Y-97729087D01*
X184745913Y-97654520D01*
X184654587Y-97601793D01*
X184552727Y-97574500D01*
X184447273Y-97574500D01*
X184345413Y-97601793D01*
X184345410Y-97601794D01*
X184254085Y-97654521D01*
X184179521Y-97729085D01*
X184126794Y-97820410D01*
X184126793Y-97820413D01*
X184099500Y-97922273D01*
X167513666Y-97922273D01*
X167445913Y-97854520D01*
X167354587Y-97801793D01*
X167252727Y-97774500D01*
X167147273Y-97774500D01*
X167045413Y-97801793D01*
X167045410Y-97801794D01*
X166954085Y-97854521D01*
X166879521Y-97929085D01*
X166826794Y-98020410D01*
X166826793Y-98020413D01*
X166799500Y-98122273D01*
X116368005Y-98122273D01*
X116367174Y-96622273D01*
X150599500Y-96622273D01*
X150599500Y-96727727D01*
X150626793Y-96829587D01*
X150679520Y-96920913D01*
X150754087Y-96995480D01*
X150845413Y-97048207D01*
X150947273Y-97075500D01*
X150947275Y-97075500D01*
X151052725Y-97075500D01*
X151052727Y-97075500D01*
X151154587Y-97048207D01*
X151245913Y-96995480D01*
X151320480Y-96920913D01*
X151373207Y-96829587D01*
X151400500Y-96727727D01*
X151400500Y-96622273D01*
X151373207Y-96520413D01*
X151320480Y-96429087D01*
X151245913Y-96354520D01*
X151154587Y-96301793D01*
X151052727Y-96274500D01*
X150947273Y-96274500D01*
X150845413Y-96301793D01*
X150845410Y-96301794D01*
X150754085Y-96354521D01*
X150679521Y-96429085D01*
X150626794Y-96520410D01*
X150626793Y-96520413D01*
X150599500Y-96622273D01*
X116367174Y-96622273D01*
X116366842Y-96022273D01*
X171599500Y-96022273D01*
X171599500Y-96127727D01*
X171626793Y-96229587D01*
X171679520Y-96320913D01*
X171754087Y-96395480D01*
X171845413Y-96448207D01*
X171947273Y-96475500D01*
X171947275Y-96475500D01*
X172052725Y-96475500D01*
X172052727Y-96475500D01*
X172154587Y-96448207D01*
X172245913Y-96395480D01*
X172320480Y-96320913D01*
X172373207Y-96229587D01*
X172400500Y-96127727D01*
X172400500Y-96022273D01*
X172373207Y-95920413D01*
X172320480Y-95829087D01*
X172245913Y-95754520D01*
X172154587Y-95701793D01*
X172052727Y-95674500D01*
X171947273Y-95674500D01*
X171845413Y-95701793D01*
X171845410Y-95701794D01*
X171754085Y-95754521D01*
X171679521Y-95829085D01*
X171626794Y-95920410D01*
X171626793Y-95920413D01*
X171599500Y-96022273D01*
X116366842Y-96022273D01*
X116366509Y-95422273D01*
X172699500Y-95422273D01*
X172699500Y-95527727D01*
X172726793Y-95629587D01*
X172779520Y-95720913D01*
X172854087Y-95795480D01*
X172945413Y-95848207D01*
X173047273Y-95875500D01*
X173047275Y-95875500D01*
X173152725Y-95875500D01*
X173152727Y-95875500D01*
X173254587Y-95848207D01*
X173345913Y-95795480D01*
X173420480Y-95720913D01*
X173473207Y-95629587D01*
X173500500Y-95527727D01*
X173500500Y-95422273D01*
X173473207Y-95320413D01*
X173420480Y-95229087D01*
X173345913Y-95154520D01*
X173254587Y-95101793D01*
X173152727Y-95074500D01*
X173047273Y-95074500D01*
X172945413Y-95101793D01*
X172945410Y-95101794D01*
X172854085Y-95154521D01*
X172779521Y-95229085D01*
X172726794Y-95320410D01*
X172726793Y-95320413D01*
X172699500Y-95422273D01*
X116366509Y-95422273D01*
X116366177Y-94822273D01*
X152799500Y-94822273D01*
X152799500Y-94927727D01*
X152826793Y-95029587D01*
X152879520Y-95120913D01*
X152954087Y-95195480D01*
X153045413Y-95248207D01*
X153147273Y-95275500D01*
X153147275Y-95275500D01*
X153252725Y-95275500D01*
X153252727Y-95275500D01*
X153354587Y-95248207D01*
X153445913Y-95195480D01*
X153520480Y-95120913D01*
X153573207Y-95029587D01*
X153600500Y-94927727D01*
X153600500Y-94822273D01*
X153573207Y-94720413D01*
X153520480Y-94629087D01*
X153445913Y-94554520D01*
X153354587Y-94501793D01*
X153252727Y-94474500D01*
X153147273Y-94474500D01*
X153045413Y-94501793D01*
X153045410Y-94501794D01*
X152954085Y-94554521D01*
X152879521Y-94629085D01*
X152826794Y-94720410D01*
X152826793Y-94720413D01*
X152799500Y-94822273D01*
X116366177Y-94822273D01*
X116364626Y-92022273D01*
X154199500Y-92022273D01*
X154199500Y-92127727D01*
X154226793Y-92229587D01*
X154279520Y-92320913D01*
X154354087Y-92395480D01*
X154445413Y-92448207D01*
X154547273Y-92475500D01*
X154547275Y-92475500D01*
X154652725Y-92475500D01*
X154652727Y-92475500D01*
X154754587Y-92448207D01*
X154845913Y-92395480D01*
X154920480Y-92320913D01*
X154973207Y-92229587D01*
X155000500Y-92127727D01*
X155000500Y-92022273D01*
X154973207Y-91920413D01*
X154920480Y-91829087D01*
X154845913Y-91754520D01*
X154754587Y-91701793D01*
X154652727Y-91674500D01*
X154547273Y-91674500D01*
X154445413Y-91701793D01*
X154445410Y-91701794D01*
X154354085Y-91754521D01*
X154279521Y-91829085D01*
X154226794Y-91920410D01*
X154226793Y-91920413D01*
X154199500Y-92022273D01*
X116364626Y-92022273D01*
X116363866Y-90651530D01*
X125549500Y-90651530D01*
X125549500Y-90858469D01*
X125589868Y-91061412D01*
X125589870Y-91061420D01*
X125669058Y-91252596D01*
X125784024Y-91424657D01*
X125930342Y-91570975D01*
X125930345Y-91570977D01*
X126102402Y-91685941D01*
X126293580Y-91765130D01*
X126496530Y-91805499D01*
X126496534Y-91805500D01*
X126496535Y-91805500D01*
X126703466Y-91805500D01*
X126703467Y-91805499D01*
X126906420Y-91765130D01*
X127097598Y-91685941D01*
X127269655Y-91570977D01*
X127415977Y-91424655D01*
X127530941Y-91252598D01*
X127610130Y-91061420D01*
X127650500Y-90858465D01*
X127650500Y-90651535D01*
X127610130Y-90448580D01*
X127557812Y-90322273D01*
X143199500Y-90322273D01*
X143199500Y-90427727D01*
X143226793Y-90529587D01*
X143279520Y-90620913D01*
X143354087Y-90695480D01*
X143445413Y-90748207D01*
X143547273Y-90775500D01*
X143547275Y-90775500D01*
X143652725Y-90775500D01*
X143652727Y-90775500D01*
X143754587Y-90748207D01*
X143845913Y-90695480D01*
X143920480Y-90620913D01*
X143973207Y-90529587D01*
X144000500Y-90427727D01*
X144000500Y-90322273D01*
X143973207Y-90220413D01*
X143920480Y-90129087D01*
X143845913Y-90054520D01*
X143754587Y-90001793D01*
X143652727Y-89974500D01*
X143547273Y-89974500D01*
X143445413Y-90001793D01*
X143445410Y-90001794D01*
X143354085Y-90054521D01*
X143279521Y-90129085D01*
X143226794Y-90220410D01*
X143226793Y-90220413D01*
X143199500Y-90322273D01*
X127557812Y-90322273D01*
X127530941Y-90257402D01*
X127415977Y-90085345D01*
X127415975Y-90085342D01*
X127269657Y-89939024D01*
X127183626Y-89881541D01*
X127097598Y-89824059D01*
X126906420Y-89744870D01*
X126906412Y-89744868D01*
X126703469Y-89704500D01*
X126703465Y-89704500D01*
X126496535Y-89704500D01*
X126496530Y-89704500D01*
X126293587Y-89744868D01*
X126293579Y-89744870D01*
X126102403Y-89824058D01*
X125930342Y-89939024D01*
X125784024Y-90085342D01*
X125669058Y-90257403D01*
X125589870Y-90448579D01*
X125589868Y-90448587D01*
X125549500Y-90651530D01*
X116363866Y-90651530D01*
X116363648Y-90257402D01*
X116362459Y-88111530D01*
X125549500Y-88111530D01*
X125549500Y-88318469D01*
X125589868Y-88521412D01*
X125589870Y-88521420D01*
X125669058Y-88712596D01*
X125784024Y-88884657D01*
X125930342Y-89030975D01*
X125930345Y-89030977D01*
X126102402Y-89145941D01*
X126293580Y-89225130D01*
X126496530Y-89265499D01*
X126496534Y-89265500D01*
X126496535Y-89265500D01*
X126703466Y-89265500D01*
X126703467Y-89265499D01*
X126906420Y-89225130D01*
X127097598Y-89145941D01*
X127269655Y-89030977D01*
X127415977Y-88884655D01*
X127530941Y-88712598D01*
X127610130Y-88521420D01*
X127650500Y-88318465D01*
X127650500Y-88111535D01*
X127610130Y-87908580D01*
X127530941Y-87717402D01*
X127415977Y-87545345D01*
X127415975Y-87545342D01*
X127269657Y-87399024D01*
X127183626Y-87341541D01*
X127097598Y-87284059D01*
X126906420Y-87204870D01*
X126906412Y-87204868D01*
X126703469Y-87164500D01*
X126703465Y-87164500D01*
X126496535Y-87164500D01*
X126496530Y-87164500D01*
X126293587Y-87204868D01*
X126293579Y-87204870D01*
X126102403Y-87284058D01*
X125930342Y-87399024D01*
X125784024Y-87545342D01*
X125669058Y-87717403D01*
X125589870Y-87908579D01*
X125589868Y-87908587D01*
X125549500Y-88111530D01*
X116362459Y-88111530D01*
X116362456Y-88105512D01*
X116360627Y-84805247D01*
X125549500Y-84805247D01*
X125549500Y-86544752D01*
X125561131Y-86603229D01*
X125561132Y-86603230D01*
X125605447Y-86669552D01*
X125671769Y-86713867D01*
X125671770Y-86713868D01*
X125730247Y-86725499D01*
X125730250Y-86725500D01*
X125730252Y-86725500D01*
X127469750Y-86725500D01*
X127469751Y-86725499D01*
X127484568Y-86722552D01*
X127528229Y-86713868D01*
X127528229Y-86713867D01*
X127528231Y-86713867D01*
X127594552Y-86669552D01*
X127638867Y-86603231D01*
X127638867Y-86603229D01*
X127638868Y-86603229D01*
X127650499Y-86544752D01*
X127650500Y-86544750D01*
X127650500Y-85422273D01*
X166399500Y-85422273D01*
X166399500Y-85527727D01*
X166426793Y-85629587D01*
X166479520Y-85720913D01*
X166554087Y-85795480D01*
X166645413Y-85848207D01*
X166747273Y-85875500D01*
X166747275Y-85875500D01*
X166852725Y-85875500D01*
X166852727Y-85875500D01*
X166954587Y-85848207D01*
X167045913Y-85795480D01*
X167120480Y-85720913D01*
X167173207Y-85629587D01*
X167200500Y-85527727D01*
X167200500Y-85422273D01*
X167173207Y-85320413D01*
X167120480Y-85229087D01*
X167045913Y-85154520D01*
X166954587Y-85101793D01*
X166852727Y-85074500D01*
X166747273Y-85074500D01*
X166645413Y-85101793D01*
X166645410Y-85101794D01*
X166554085Y-85154521D01*
X166479521Y-85229085D01*
X166426794Y-85320410D01*
X166426793Y-85320413D01*
X166399500Y-85422273D01*
X127650500Y-85422273D01*
X127650500Y-85022273D01*
X172299500Y-85022273D01*
X172299500Y-85127727D01*
X172326793Y-85229587D01*
X172379520Y-85320913D01*
X172454087Y-85395480D01*
X172545413Y-85448207D01*
X172647273Y-85475500D01*
X172647275Y-85475500D01*
X172752725Y-85475500D01*
X172752727Y-85475500D01*
X172854587Y-85448207D01*
X172945913Y-85395480D01*
X173020480Y-85320913D01*
X173073207Y-85229587D01*
X173100500Y-85127727D01*
X173100500Y-85022273D01*
X173073207Y-84920413D01*
X173020480Y-84829087D01*
X172945913Y-84754520D01*
X172854587Y-84701793D01*
X172752727Y-84674500D01*
X172647273Y-84674500D01*
X172545413Y-84701793D01*
X172545410Y-84701794D01*
X172454085Y-84754521D01*
X172379521Y-84829085D01*
X172326794Y-84920410D01*
X172326793Y-84920413D01*
X172299500Y-85022273D01*
X127650500Y-85022273D01*
X127650500Y-84805249D01*
X127650499Y-84805247D01*
X127638868Y-84746770D01*
X127638867Y-84746769D01*
X127594552Y-84680447D01*
X127528230Y-84636132D01*
X127528229Y-84636131D01*
X127469752Y-84624500D01*
X127469748Y-84624500D01*
X125730252Y-84624500D01*
X125730247Y-84624500D01*
X125671770Y-84636131D01*
X125671769Y-84636132D01*
X125605447Y-84680447D01*
X125561132Y-84746769D01*
X125561131Y-84746770D01*
X125549500Y-84805247D01*
X116360627Y-84805247D01*
X116360624Y-84799229D01*
X116360208Y-84048205D01*
X116359695Y-83122273D01*
X136199500Y-83122273D01*
X136199500Y-83227727D01*
X136226793Y-83329587D01*
X136279520Y-83420913D01*
X136354087Y-83495480D01*
X136445413Y-83548207D01*
X136547273Y-83575500D01*
X136547275Y-83575500D01*
X136652725Y-83575500D01*
X136652727Y-83575500D01*
X136754587Y-83548207D01*
X136845913Y-83495480D01*
X136919120Y-83422273D01*
X141099500Y-83422273D01*
X141099500Y-83527727D01*
X141126793Y-83629587D01*
X141179520Y-83720913D01*
X141254087Y-83795480D01*
X141345413Y-83848207D01*
X141447273Y-83875500D01*
X141447275Y-83875500D01*
X141552725Y-83875500D01*
X141552727Y-83875500D01*
X141654587Y-83848207D01*
X141745913Y-83795480D01*
X141820480Y-83720913D01*
X141873207Y-83629587D01*
X141875167Y-83622273D01*
X162699500Y-83622273D01*
X162699500Y-83727727D01*
X162726793Y-83829587D01*
X162779520Y-83920913D01*
X162854087Y-83995480D01*
X162945413Y-84048207D01*
X163047273Y-84075500D01*
X163047275Y-84075500D01*
X163152725Y-84075500D01*
X163152727Y-84075500D01*
X163254587Y-84048207D01*
X163345913Y-83995480D01*
X163420480Y-83920913D01*
X163473207Y-83829587D01*
X163500500Y-83727727D01*
X163500500Y-83622273D01*
X163473207Y-83520413D01*
X163420480Y-83429087D01*
X163413666Y-83422273D01*
X181099500Y-83422273D01*
X181099500Y-83527727D01*
X181126793Y-83629587D01*
X181179520Y-83720913D01*
X181254087Y-83795480D01*
X181345413Y-83848207D01*
X181447273Y-83875500D01*
X181447275Y-83875500D01*
X181552725Y-83875500D01*
X181552727Y-83875500D01*
X181654587Y-83848207D01*
X181745913Y-83795480D01*
X181820480Y-83720913D01*
X181873207Y-83629587D01*
X181900500Y-83527727D01*
X181900500Y-83422273D01*
X181873207Y-83320413D01*
X181820480Y-83229087D01*
X181745913Y-83154520D01*
X181654587Y-83101793D01*
X181552727Y-83074500D01*
X181447273Y-83074500D01*
X181345413Y-83101793D01*
X181345410Y-83101794D01*
X181254085Y-83154521D01*
X181179521Y-83229085D01*
X181126794Y-83320410D01*
X181126793Y-83320413D01*
X181099500Y-83422273D01*
X163413666Y-83422273D01*
X163345913Y-83354520D01*
X163254587Y-83301793D01*
X163152727Y-83274500D01*
X163047273Y-83274500D01*
X162945413Y-83301793D01*
X162945410Y-83301794D01*
X162854085Y-83354521D01*
X162779521Y-83429085D01*
X162726794Y-83520410D01*
X162726793Y-83520413D01*
X162699500Y-83622273D01*
X141875167Y-83622273D01*
X141900500Y-83527727D01*
X141900500Y-83422273D01*
X141873207Y-83320413D01*
X141820480Y-83229087D01*
X141745913Y-83154520D01*
X141654587Y-83101793D01*
X141552727Y-83074500D01*
X141447273Y-83074500D01*
X141345413Y-83101793D01*
X141345410Y-83101794D01*
X141254085Y-83154521D01*
X141179521Y-83229085D01*
X141126794Y-83320410D01*
X141126793Y-83320413D01*
X141099500Y-83422273D01*
X136919120Y-83422273D01*
X136920480Y-83420913D01*
X136973207Y-83329587D01*
X137000500Y-83227727D01*
X137000500Y-83122273D01*
X136973207Y-83020413D01*
X136920480Y-82929087D01*
X136845913Y-82854520D01*
X136754587Y-82801793D01*
X136652727Y-82774500D01*
X136547273Y-82774500D01*
X136445413Y-82801793D01*
X136445410Y-82801794D01*
X136354085Y-82854521D01*
X136279521Y-82929085D01*
X136226794Y-83020410D01*
X136226793Y-83020413D01*
X136199500Y-83122273D01*
X116359695Y-83122273D01*
X116359196Y-82222273D01*
X148699500Y-82222273D01*
X148699500Y-82327727D01*
X148726793Y-82429587D01*
X148779520Y-82520913D01*
X148854087Y-82595480D01*
X148945413Y-82648207D01*
X149047273Y-82675500D01*
X149047275Y-82675500D01*
X149152725Y-82675500D01*
X149152727Y-82675500D01*
X149254587Y-82648207D01*
X149345913Y-82595480D01*
X149420480Y-82520913D01*
X149473207Y-82429587D01*
X149475167Y-82422273D01*
X150799500Y-82422273D01*
X150799500Y-82527727D01*
X150826793Y-82629587D01*
X150879520Y-82720913D01*
X150954087Y-82795480D01*
X151045413Y-82848207D01*
X151147273Y-82875500D01*
X151147275Y-82875500D01*
X151252725Y-82875500D01*
X151252727Y-82875500D01*
X151354587Y-82848207D01*
X151445913Y-82795480D01*
X151520480Y-82720913D01*
X151573207Y-82629587D01*
X151600500Y-82527727D01*
X151600500Y-82422273D01*
X153499500Y-82422273D01*
X153499500Y-82527727D01*
X153526793Y-82629587D01*
X153579520Y-82720913D01*
X153654087Y-82795480D01*
X153745413Y-82848207D01*
X153847273Y-82875500D01*
X153847275Y-82875500D01*
X153952725Y-82875500D01*
X153952727Y-82875500D01*
X154054587Y-82848207D01*
X154145913Y-82795480D01*
X154220480Y-82720913D01*
X154273207Y-82629587D01*
X154300500Y-82527727D01*
X154300500Y-82422273D01*
X163799494Y-82422273D01*
X163799494Y-82527727D01*
X163826787Y-82629587D01*
X163879514Y-82720913D01*
X163954081Y-82795480D01*
X164045407Y-82848207D01*
X164147267Y-82875500D01*
X164147269Y-82875500D01*
X164252719Y-82875500D01*
X164252721Y-82875500D01*
X164354581Y-82848207D01*
X164445907Y-82795480D01*
X164520474Y-82720913D01*
X164573201Y-82629587D01*
X164600494Y-82527727D01*
X164600494Y-82422273D01*
X164573201Y-82320413D01*
X164520474Y-82229087D01*
X164445907Y-82154520D01*
X164354581Y-82101793D01*
X164252721Y-82074500D01*
X164147267Y-82074500D01*
X164045407Y-82101793D01*
X164045404Y-82101794D01*
X163954079Y-82154521D01*
X163879515Y-82229085D01*
X163826788Y-82320410D01*
X163826787Y-82320413D01*
X163799494Y-82422273D01*
X154300500Y-82422273D01*
X154273207Y-82320413D01*
X154220480Y-82229087D01*
X154145913Y-82154520D01*
X154054587Y-82101793D01*
X153952727Y-82074500D01*
X153847273Y-82074500D01*
X153745413Y-82101793D01*
X153745410Y-82101794D01*
X153654085Y-82154521D01*
X153579521Y-82229085D01*
X153526794Y-82320410D01*
X153526793Y-82320413D01*
X153499500Y-82422273D01*
X151600500Y-82422273D01*
X151573207Y-82320413D01*
X151520480Y-82229087D01*
X151445913Y-82154520D01*
X151354587Y-82101793D01*
X151252727Y-82074500D01*
X151147273Y-82074500D01*
X151045413Y-82101793D01*
X151045410Y-82101794D01*
X150954085Y-82154521D01*
X150879521Y-82229085D01*
X150826794Y-82320410D01*
X150826793Y-82320413D01*
X150799500Y-82422273D01*
X149475167Y-82422273D01*
X149500500Y-82327727D01*
X149500500Y-82222273D01*
X149473207Y-82120413D01*
X149420480Y-82029087D01*
X149345913Y-81954520D01*
X149254587Y-81901793D01*
X149152727Y-81874500D01*
X149047273Y-81874500D01*
X148945413Y-81901793D01*
X148945410Y-81901794D01*
X148854085Y-81954521D01*
X148779521Y-82029085D01*
X148726794Y-82120410D01*
X148726793Y-82120413D01*
X148699500Y-82222273D01*
X116359196Y-82222273D01*
X116358548Y-81051530D01*
X125549500Y-81051530D01*
X125549500Y-81258469D01*
X125589868Y-81461412D01*
X125589870Y-81461420D01*
X125669058Y-81652596D01*
X125784024Y-81824657D01*
X125930342Y-81970975D01*
X125930345Y-81970977D01*
X126102402Y-82085941D01*
X126293580Y-82165130D01*
X126446151Y-82195478D01*
X126496530Y-82205499D01*
X126496534Y-82205500D01*
X126496535Y-82205500D01*
X126703466Y-82205500D01*
X126703467Y-82205499D01*
X126906420Y-82165130D01*
X127097598Y-82085941D01*
X127269655Y-81970977D01*
X127415977Y-81824655D01*
X127417569Y-81822273D01*
X161548027Y-81822273D01*
X161548027Y-81927727D01*
X161575320Y-82029587D01*
X161628047Y-82120913D01*
X161702614Y-82195480D01*
X161793940Y-82248207D01*
X161895800Y-82275500D01*
X161895802Y-82275500D01*
X162001252Y-82275500D01*
X162001254Y-82275500D01*
X162103114Y-82248207D01*
X162194440Y-82195480D01*
X162269007Y-82120913D01*
X162269009Y-82120908D01*
X162273953Y-82114467D01*
X162276598Y-82116496D01*
X162315895Y-82078976D01*
X162384493Y-82065706D01*
X162449375Y-82091630D01*
X162470159Y-82115593D01*
X162471628Y-82114467D01*
X162476573Y-82120912D01*
X162476574Y-82120913D01*
X162551141Y-82195480D01*
X162642467Y-82248207D01*
X162744327Y-82275500D01*
X162744329Y-82275500D01*
X162849779Y-82275500D01*
X162849781Y-82275500D01*
X162951641Y-82248207D01*
X163042967Y-82195480D01*
X163117534Y-82120913D01*
X163170261Y-82029587D01*
X163197554Y-81927727D01*
X163197554Y-81822273D01*
X163170261Y-81720413D01*
X163117534Y-81629087D01*
X163042967Y-81554520D01*
X162951641Y-81501793D01*
X162849781Y-81474500D01*
X162744327Y-81474500D01*
X162642467Y-81501793D01*
X162642464Y-81501794D01*
X162551139Y-81554521D01*
X162476573Y-81629087D01*
X162471628Y-81635533D01*
X162469004Y-81633520D01*
X162429522Y-81671107D01*
X162360904Y-81684275D01*
X162296060Y-81658255D01*
X162275417Y-81634409D01*
X162273953Y-81635533D01*
X162269007Y-81629087D01*
X162194441Y-81554521D01*
X162194440Y-81554520D01*
X162103114Y-81501793D01*
X162001254Y-81474500D01*
X161895800Y-81474500D01*
X161793940Y-81501793D01*
X161793937Y-81501794D01*
X161702612Y-81554521D01*
X161628048Y-81629085D01*
X161575321Y-81720410D01*
X161575320Y-81720413D01*
X161548027Y-81822273D01*
X127417569Y-81822273D01*
X127530941Y-81652598D01*
X127610130Y-81461420D01*
X127650500Y-81258465D01*
X127650500Y-81051535D01*
X127610130Y-80848580D01*
X127549329Y-80701794D01*
X127532680Y-80661599D01*
X127530941Y-80657403D01*
X127530941Y-80657402D01*
X127507469Y-80622273D01*
X164749500Y-80622273D01*
X164749500Y-80727727D01*
X164776793Y-80829587D01*
X164829520Y-80920913D01*
X164904087Y-80995480D01*
X164995413Y-81048207D01*
X165089202Y-81073337D01*
X165148861Y-81109700D01*
X165179391Y-81172547D01*
X165171097Y-81241922D01*
X165164495Y-81255111D01*
X165126794Y-81320410D01*
X165126793Y-81320413D01*
X165099500Y-81422273D01*
X165099500Y-81527727D01*
X165126793Y-81629587D01*
X165179520Y-81720913D01*
X165254087Y-81795480D01*
X165345413Y-81848207D01*
X165447273Y-81875500D01*
X165447275Y-81875500D01*
X165552725Y-81875500D01*
X165552727Y-81875500D01*
X165654587Y-81848207D01*
X165745913Y-81795480D01*
X165820480Y-81720913D01*
X165873207Y-81629587D01*
X165900500Y-81527727D01*
X165900500Y-81422273D01*
X165873207Y-81320413D01*
X165820480Y-81229087D01*
X165745913Y-81154520D01*
X165654587Y-81101793D01*
X165560796Y-81076662D01*
X165545882Y-81067571D01*
X165528983Y-81063151D01*
X165516668Y-81049764D01*
X165501137Y-81040298D01*
X165493504Y-81024585D01*
X165481678Y-81011730D01*
X165478555Y-80993811D01*
X165470608Y-80977451D01*
X165472650Y-80959926D01*
X165469683Y-80942898D01*
X165477345Y-80919646D01*
X165478615Y-80908753D01*
X165481621Y-80901615D01*
X165523207Y-80829587D01*
X165529889Y-80804649D01*
X166981744Y-80804649D01*
X166981744Y-80910103D01*
X167009037Y-81011963D01*
X167061764Y-81103289D01*
X167136331Y-81177856D01*
X167227657Y-81230583D01*
X167329517Y-81257876D01*
X167329519Y-81257876D01*
X167434969Y-81257876D01*
X167434971Y-81257876D01*
X167536831Y-81230583D01*
X167628157Y-81177856D01*
X167702724Y-81103289D01*
X167749499Y-81022273D01*
X209999500Y-81022273D01*
X209999500Y-81127727D01*
X210026793Y-81229587D01*
X210079520Y-81320913D01*
X210154087Y-81395480D01*
X210245413Y-81448207D01*
X210347273Y-81475500D01*
X210347275Y-81475500D01*
X210452725Y-81475500D01*
X210452727Y-81475500D01*
X210554587Y-81448207D01*
X210645913Y-81395480D01*
X210720480Y-81320913D01*
X210773207Y-81229587D01*
X210800500Y-81127727D01*
X210800500Y-81022273D01*
X210773207Y-80920413D01*
X210720480Y-80829087D01*
X210645913Y-80754520D01*
X210554587Y-80701793D01*
X210452727Y-80674500D01*
X210347273Y-80674500D01*
X210245413Y-80701793D01*
X210245410Y-80701794D01*
X210154085Y-80754521D01*
X210079521Y-80829085D01*
X210026794Y-80920410D01*
X210026793Y-80920413D01*
X209999500Y-81022273D01*
X167749499Y-81022273D01*
X167755451Y-81011963D01*
X167782744Y-80910103D01*
X167782744Y-80804649D01*
X167755451Y-80702789D01*
X167702724Y-80611463D01*
X167628157Y-80536896D01*
X167536831Y-80484169D01*
X167434971Y-80456876D01*
X167329517Y-80456876D01*
X167227657Y-80484169D01*
X167227654Y-80484170D01*
X167136329Y-80536897D01*
X167061765Y-80611461D01*
X167009038Y-80702786D01*
X167009037Y-80702789D01*
X166981744Y-80804649D01*
X165529889Y-80804649D01*
X165550500Y-80727727D01*
X165550500Y-80622273D01*
X165523207Y-80520413D01*
X165470480Y-80429087D01*
X165395913Y-80354520D01*
X165304587Y-80301793D01*
X165202727Y-80274500D01*
X165097273Y-80274500D01*
X164995413Y-80301793D01*
X164995410Y-80301794D01*
X164904085Y-80354521D01*
X164829521Y-80429085D01*
X164776794Y-80520410D01*
X164776793Y-80520413D01*
X164749500Y-80622273D01*
X127507469Y-80622273D01*
X127415977Y-80485345D01*
X127415975Y-80485342D01*
X127269657Y-80339024D01*
X127133735Y-80248205D01*
X127097598Y-80224059D01*
X126980364Y-80175499D01*
X126906420Y-80144870D01*
X126906412Y-80144868D01*
X126703469Y-80104500D01*
X126703465Y-80104500D01*
X126496535Y-80104500D01*
X126496530Y-80104500D01*
X126293587Y-80144868D01*
X126293579Y-80144870D01*
X126102403Y-80224058D01*
X125930342Y-80339024D01*
X125784024Y-80485342D01*
X125669058Y-80657403D01*
X125589870Y-80848579D01*
X125589868Y-80848587D01*
X125549500Y-81051530D01*
X116358548Y-81051530D01*
X116357867Y-79822273D01*
X146699500Y-79822273D01*
X146699500Y-79927727D01*
X146726793Y-80029587D01*
X146779520Y-80120913D01*
X146854087Y-80195480D01*
X146945413Y-80248207D01*
X147047273Y-80275500D01*
X147047275Y-80275500D01*
X147152725Y-80275500D01*
X147152727Y-80275500D01*
X147254587Y-80248207D01*
X147345913Y-80195480D01*
X147420480Y-80120913D01*
X147473207Y-80029587D01*
X147500500Y-79927727D01*
X147500500Y-79822273D01*
X147473705Y-79722273D01*
X155899500Y-79722273D01*
X155899500Y-79827727D01*
X155926793Y-79929587D01*
X155979520Y-80020913D01*
X156054087Y-80095480D01*
X156145413Y-80148207D01*
X156247273Y-80175500D01*
X156247275Y-80175500D01*
X156352725Y-80175500D01*
X156352727Y-80175500D01*
X156454587Y-80148207D01*
X156545913Y-80095480D01*
X156620480Y-80020913D01*
X156673207Y-79929587D01*
X156700500Y-79827727D01*
X156700500Y-79722273D01*
X156700303Y-79721538D01*
X170748765Y-79721538D01*
X170748765Y-79826992D01*
X170775757Y-79927726D01*
X170776058Y-79928851D01*
X170776059Y-79928854D01*
X170790187Y-79953324D01*
X170828785Y-80020178D01*
X170903352Y-80094745D01*
X170994678Y-80147472D01*
X171096538Y-80174765D01*
X171096540Y-80174765D01*
X171201990Y-80174765D01*
X171201992Y-80174765D01*
X171303852Y-80147472D01*
X171395178Y-80094745D01*
X171469745Y-80020178D01*
X171522472Y-79928852D01*
X171549765Y-79826992D01*
X171549765Y-79721538D01*
X171522472Y-79619678D01*
X171506174Y-79591450D01*
X171489702Y-79523551D01*
X171512554Y-79457524D01*
X171567475Y-79414334D01*
X171613562Y-79405451D01*
X171652774Y-79405451D01*
X171652776Y-79405451D01*
X171754636Y-79378158D01*
X171845962Y-79325431D01*
X171920529Y-79250864D01*
X171937036Y-79222273D01*
X177799500Y-79222273D01*
X177799500Y-79327727D01*
X177813013Y-79378156D01*
X177826793Y-79429586D01*
X177826794Y-79429589D01*
X177837542Y-79448205D01*
X177879520Y-79520913D01*
X177954087Y-79595480D01*
X178045413Y-79648207D01*
X178147273Y-79675500D01*
X178147275Y-79675500D01*
X178252725Y-79675500D01*
X178252727Y-79675500D01*
X178354587Y-79648207D01*
X178445913Y-79595480D01*
X178520480Y-79520913D01*
X178573207Y-79429587D01*
X178600500Y-79327727D01*
X178600500Y-79222273D01*
X178573207Y-79120413D01*
X178520480Y-79029087D01*
X178445913Y-78954520D01*
X178354587Y-78901793D01*
X178252727Y-78874500D01*
X178147273Y-78874500D01*
X178045413Y-78901793D01*
X178045410Y-78901794D01*
X177954085Y-78954521D01*
X177879521Y-79029085D01*
X177826794Y-79120410D01*
X177826793Y-79120413D01*
X177799500Y-79222273D01*
X171937036Y-79222273D01*
X171973256Y-79159538D01*
X172000549Y-79057678D01*
X172000549Y-78952224D01*
X171973256Y-78850364D01*
X171920529Y-78759038D01*
X171845962Y-78684471D01*
X171754636Y-78631744D01*
X171652776Y-78604451D01*
X171547322Y-78604451D01*
X171445462Y-78631744D01*
X171445459Y-78631745D01*
X171354134Y-78684472D01*
X171279570Y-78759036D01*
X171226843Y-78850361D01*
X171226842Y-78850364D01*
X171199549Y-78952224D01*
X171199549Y-79057678D01*
X171218319Y-79127727D01*
X171226842Y-79159537D01*
X171226843Y-79159540D01*
X171243139Y-79187765D01*
X171259612Y-79255665D01*
X171236760Y-79321692D01*
X171181839Y-79364882D01*
X171135752Y-79373765D01*
X171096538Y-79373765D01*
X170994678Y-79401058D01*
X170994675Y-79401059D01*
X170903350Y-79453786D01*
X170828786Y-79528350D01*
X170776059Y-79619675D01*
X170776058Y-79619678D01*
X170748765Y-79721538D01*
X156700303Y-79721538D01*
X156673207Y-79620413D01*
X156620480Y-79529087D01*
X156545913Y-79454520D01*
X156454587Y-79401793D01*
X156352727Y-79374500D01*
X156247273Y-79374500D01*
X156145413Y-79401793D01*
X156145410Y-79401794D01*
X156054085Y-79454521D01*
X155979521Y-79529085D01*
X155926794Y-79620410D01*
X155926793Y-79620413D01*
X155899500Y-79722273D01*
X147473705Y-79722273D01*
X147473207Y-79720413D01*
X147420480Y-79629087D01*
X147345913Y-79554520D01*
X147254587Y-79501793D01*
X147152727Y-79474500D01*
X147047273Y-79474500D01*
X146945413Y-79501793D01*
X146945410Y-79501794D01*
X146854085Y-79554521D01*
X146779521Y-79629085D01*
X146726794Y-79720410D01*
X146726794Y-79720411D01*
X146726793Y-79720413D01*
X146699500Y-79822273D01*
X116357867Y-79822273D01*
X116357141Y-78511530D01*
X125549500Y-78511530D01*
X125549500Y-78718469D01*
X125589868Y-78921412D01*
X125589870Y-78921420D01*
X125634466Y-79029085D01*
X125669059Y-79112598D01*
X125719284Y-79187765D01*
X125784024Y-79284657D01*
X125930342Y-79430975D01*
X125930345Y-79430977D01*
X126102402Y-79545941D01*
X126293580Y-79625130D01*
X126496530Y-79665499D01*
X126496534Y-79665500D01*
X126496535Y-79665500D01*
X126703466Y-79665500D01*
X126703467Y-79665499D01*
X126906420Y-79625130D01*
X127097598Y-79545941D01*
X127269655Y-79430977D01*
X127415977Y-79284655D01*
X127530941Y-79112598D01*
X127568355Y-79022273D01*
X159299500Y-79022273D01*
X159299500Y-79127727D01*
X159326793Y-79229587D01*
X159379520Y-79320913D01*
X159454087Y-79395480D01*
X159545413Y-79448207D01*
X159647273Y-79475500D01*
X159647275Y-79475500D01*
X159752725Y-79475500D01*
X159752727Y-79475500D01*
X159854587Y-79448207D01*
X159945913Y-79395480D01*
X160020480Y-79320913D01*
X160073207Y-79229587D01*
X160100500Y-79127727D01*
X160100500Y-79022273D01*
X160073207Y-78920413D01*
X160028434Y-78842864D01*
X169371492Y-78842864D01*
X169371492Y-78948318D01*
X169391309Y-79022275D01*
X169398785Y-79050177D01*
X169398786Y-79050180D01*
X169403115Y-79057678D01*
X169451512Y-79141504D01*
X169526079Y-79216071D01*
X169617405Y-79268798D01*
X169719265Y-79296091D01*
X169719267Y-79296091D01*
X169824717Y-79296091D01*
X169824719Y-79296091D01*
X169926579Y-79268798D01*
X170017905Y-79216071D01*
X170092472Y-79141504D01*
X170145199Y-79050178D01*
X170172492Y-78948318D01*
X170172492Y-78915267D01*
X170192177Y-78848228D01*
X170244981Y-78802473D01*
X170314139Y-78792529D01*
X170328571Y-78795489D01*
X170347273Y-78800500D01*
X170347276Y-78800500D01*
X170452725Y-78800500D01*
X170452727Y-78800500D01*
X170554587Y-78773207D01*
X170645913Y-78720480D01*
X170720480Y-78645913D01*
X170773207Y-78554587D01*
X170800500Y-78452727D01*
X170800500Y-78347273D01*
X170773207Y-78245413D01*
X170720480Y-78154087D01*
X170645913Y-78079520D01*
X170554587Y-78026793D01*
X170452727Y-77999500D01*
X170347273Y-77999500D01*
X170245413Y-78026793D01*
X170245410Y-78026794D01*
X170154085Y-78079521D01*
X170079521Y-78154085D01*
X170026794Y-78245410D01*
X170026793Y-78245413D01*
X169999500Y-78347273D01*
X169999500Y-78380323D01*
X169979815Y-78447362D01*
X169927011Y-78493117D01*
X169857853Y-78503061D01*
X169843410Y-78500099D01*
X169835838Y-78498070D01*
X169824719Y-78495091D01*
X169719265Y-78495091D01*
X169617405Y-78522384D01*
X169617402Y-78522385D01*
X169526077Y-78575112D01*
X169451513Y-78649676D01*
X169398786Y-78741001D01*
X169398785Y-78741004D01*
X169371492Y-78842864D01*
X160028434Y-78842864D01*
X160020480Y-78829087D01*
X159945913Y-78754520D01*
X159854587Y-78701793D01*
X159752727Y-78674500D01*
X159647273Y-78674500D01*
X159545413Y-78701793D01*
X159545410Y-78701794D01*
X159454085Y-78754521D01*
X159379521Y-78829085D01*
X159326794Y-78920410D01*
X159326793Y-78920413D01*
X159299500Y-79022273D01*
X127568355Y-79022273D01*
X127610130Y-78921420D01*
X127650500Y-78718465D01*
X127650500Y-78511535D01*
X127610130Y-78308580D01*
X127530941Y-78117402D01*
X127415977Y-77945345D01*
X127415975Y-77945342D01*
X127269657Y-77799024D01*
X127152754Y-77720913D01*
X127097598Y-77684059D01*
X127092895Y-77682111D01*
X126906420Y-77604870D01*
X126906412Y-77604868D01*
X126703469Y-77564500D01*
X126703465Y-77564500D01*
X126496535Y-77564500D01*
X126496530Y-77564500D01*
X126293587Y-77604868D01*
X126293579Y-77604870D01*
X126102403Y-77684058D01*
X125930342Y-77799024D01*
X125784024Y-77945342D01*
X125669058Y-78117403D01*
X125589870Y-78308579D01*
X125589868Y-78308587D01*
X125549500Y-78511530D01*
X116357141Y-78511530D01*
X116356537Y-77422273D01*
X132899500Y-77422273D01*
X132899500Y-77527727D01*
X132926793Y-77629587D01*
X132979520Y-77720913D01*
X133054087Y-77795480D01*
X133145413Y-77848207D01*
X133247273Y-77875500D01*
X133247275Y-77875500D01*
X133352725Y-77875500D01*
X133352727Y-77875500D01*
X133454587Y-77848207D01*
X133545913Y-77795480D01*
X133619120Y-77722273D01*
X154299500Y-77722273D01*
X154299500Y-77827727D01*
X154326793Y-77929587D01*
X154379520Y-78020913D01*
X154454087Y-78095480D01*
X154545413Y-78148207D01*
X154647273Y-78175500D01*
X154647275Y-78175500D01*
X154752725Y-78175500D01*
X154752727Y-78175500D01*
X154854587Y-78148207D01*
X154945913Y-78095480D01*
X155020480Y-78020913D01*
X155073207Y-77929587D01*
X155100500Y-77827727D01*
X155100500Y-77722273D01*
X155073207Y-77620413D01*
X155020480Y-77529087D01*
X154945913Y-77454520D01*
X154854587Y-77401793D01*
X154752727Y-77374500D01*
X154647273Y-77374500D01*
X154545413Y-77401793D01*
X154545410Y-77401794D01*
X154454085Y-77454521D01*
X154379521Y-77529085D01*
X154326794Y-77620410D01*
X154326793Y-77620413D01*
X154299500Y-77722273D01*
X133619120Y-77722273D01*
X133620480Y-77720913D01*
X133673207Y-77629587D01*
X133700500Y-77527727D01*
X133700500Y-77422273D01*
X133673207Y-77320413D01*
X133620480Y-77229087D01*
X133545913Y-77154520D01*
X133454587Y-77101793D01*
X133352727Y-77074500D01*
X133247273Y-77074500D01*
X133145413Y-77101793D01*
X133145410Y-77101794D01*
X133054085Y-77154521D01*
X132979521Y-77229085D01*
X132926794Y-77320410D01*
X132926793Y-77320413D01*
X132899500Y-77422273D01*
X116356537Y-77422273D01*
X116355309Y-75205247D01*
X125549500Y-75205247D01*
X125549500Y-76944752D01*
X125561131Y-77003229D01*
X125561132Y-77003230D01*
X125605447Y-77069552D01*
X125671769Y-77113867D01*
X125671770Y-77113868D01*
X125730247Y-77125499D01*
X125730250Y-77125500D01*
X125730252Y-77125500D01*
X127469750Y-77125500D01*
X127469751Y-77125499D01*
X127485971Y-77122273D01*
X127528229Y-77113868D01*
X127528229Y-77113867D01*
X127528231Y-77113867D01*
X127594552Y-77069552D01*
X127638867Y-77003231D01*
X127638867Y-77003229D01*
X127638868Y-77003229D01*
X127650499Y-76944752D01*
X127650500Y-76944750D01*
X127650500Y-75205249D01*
X127650499Y-75205247D01*
X127638868Y-75146770D01*
X127638867Y-75146769D01*
X127594552Y-75080447D01*
X127528230Y-75036132D01*
X127528229Y-75036131D01*
X127469752Y-75024500D01*
X127469748Y-75024500D01*
X125730252Y-75024500D01*
X125730247Y-75024500D01*
X125671770Y-75036131D01*
X125671769Y-75036132D01*
X125605447Y-75080447D01*
X125561132Y-75146769D01*
X125561131Y-75146770D01*
X125549500Y-75205247D01*
X116355309Y-75205247D01*
X116355126Y-74874038D01*
X142399500Y-74874038D01*
X142399500Y-75125962D01*
X142420478Y-75258411D01*
X142438910Y-75374785D01*
X142516760Y-75614383D01*
X142575690Y-75730038D01*
X142631090Y-75838767D01*
X142631132Y-75838848D01*
X142779201Y-76042649D01*
X142779205Y-76042654D01*
X142957345Y-76220794D01*
X142957350Y-76220798D01*
X143126363Y-76343592D01*
X143161155Y-76368870D01*
X143275187Y-76426972D01*
X143385616Y-76483239D01*
X143385618Y-76483239D01*
X143385621Y-76483241D01*
X143625215Y-76561090D01*
X143874038Y-76600500D01*
X143874039Y-76600500D01*
X144125961Y-76600500D01*
X144125962Y-76600500D01*
X144374785Y-76561090D01*
X144614379Y-76483241D01*
X144838845Y-76368870D01*
X145040619Y-76222273D01*
X154999500Y-76222273D01*
X154999500Y-76327727D01*
X155026793Y-76429587D01*
X155079520Y-76520913D01*
X155154087Y-76595480D01*
X155245413Y-76648207D01*
X155347273Y-76675500D01*
X155347275Y-76675500D01*
X155452725Y-76675500D01*
X155452727Y-76675500D01*
X155554587Y-76648207D01*
X155645913Y-76595480D01*
X155720480Y-76520913D01*
X155773207Y-76429587D01*
X155800500Y-76327727D01*
X155800500Y-76222273D01*
X155773207Y-76120413D01*
X155720480Y-76029087D01*
X155645913Y-75954520D01*
X155554587Y-75901793D01*
X155452727Y-75874500D01*
X155347273Y-75874500D01*
X155245413Y-75901793D01*
X155245410Y-75901794D01*
X155154085Y-75954521D01*
X155079521Y-76029085D01*
X155026794Y-76120410D01*
X155026793Y-76120413D01*
X154999500Y-76222273D01*
X145040619Y-76222273D01*
X145042656Y-76220793D01*
X145220793Y-76042656D01*
X145368870Y-75838845D01*
X145483241Y-75614379D01*
X145561090Y-75374785D01*
X145600500Y-75125962D01*
X145600500Y-75022273D01*
X152899500Y-75022273D01*
X152899500Y-75127727D01*
X152926793Y-75229587D01*
X152979520Y-75320913D01*
X153054087Y-75395480D01*
X153145413Y-75448207D01*
X153247273Y-75475500D01*
X153247275Y-75475500D01*
X153352725Y-75475500D01*
X153352727Y-75475500D01*
X153454587Y-75448207D01*
X153545913Y-75395480D01*
X153620480Y-75320913D01*
X153673207Y-75229587D01*
X153700500Y-75127727D01*
X153700500Y-75022273D01*
X153673207Y-74920413D01*
X153620480Y-74829087D01*
X153545913Y-74754520D01*
X153454587Y-74701793D01*
X153352727Y-74674500D01*
X153247273Y-74674500D01*
X153145413Y-74701793D01*
X153145410Y-74701794D01*
X153054085Y-74754521D01*
X152979521Y-74829085D01*
X152926794Y-74920410D01*
X152926793Y-74920413D01*
X152899500Y-75022273D01*
X145600500Y-75022273D01*
X145600500Y-74874038D01*
X145561090Y-74625215D01*
X145560134Y-74622273D01*
X154999500Y-74622273D01*
X154999500Y-74727727D01*
X155026793Y-74829587D01*
X155079520Y-74920913D01*
X155154087Y-74995480D01*
X155245413Y-75048207D01*
X155347273Y-75075500D01*
X155347275Y-75075500D01*
X155452725Y-75075500D01*
X155452727Y-75075500D01*
X155554587Y-75048207D01*
X155645913Y-74995480D01*
X155720480Y-74920913D01*
X155773207Y-74829587D01*
X155800500Y-74727727D01*
X155800500Y-74622273D01*
X155773207Y-74520413D01*
X155720480Y-74429087D01*
X155645913Y-74354520D01*
X155554587Y-74301793D01*
X155452727Y-74274500D01*
X155347273Y-74274500D01*
X155245413Y-74301793D01*
X155245410Y-74301794D01*
X155154085Y-74354521D01*
X155079521Y-74429085D01*
X155026794Y-74520410D01*
X155026793Y-74520413D01*
X154999500Y-74622273D01*
X145560134Y-74622273D01*
X145483241Y-74385621D01*
X145483239Y-74385618D01*
X145483239Y-74385616D01*
X145428354Y-74277899D01*
X145368870Y-74161155D01*
X145336006Y-74115922D01*
X145220798Y-73957350D01*
X145220794Y-73957345D01*
X145042654Y-73779205D01*
X145042649Y-73779201D01*
X144838848Y-73631132D01*
X144838847Y-73631131D01*
X144838845Y-73631130D01*
X144676095Y-73548205D01*
X144629829Y-73524631D01*
X144614383Y-73516760D01*
X144374785Y-73438910D01*
X144304179Y-73427727D01*
X144269744Y-73422273D01*
X153799500Y-73422273D01*
X153799500Y-73527727D01*
X153826793Y-73629587D01*
X153879520Y-73720913D01*
X153954087Y-73795480D01*
X154045413Y-73848207D01*
X154147273Y-73875500D01*
X154147275Y-73875500D01*
X154252725Y-73875500D01*
X154252727Y-73875500D01*
X154354587Y-73848207D01*
X154445913Y-73795480D01*
X154519120Y-73722273D01*
X161499500Y-73722273D01*
X161499500Y-73827727D01*
X161526793Y-73929587D01*
X161579520Y-74020913D01*
X161654087Y-74095480D01*
X161692425Y-74117614D01*
X161740639Y-74168180D01*
X161753861Y-74236788D01*
X161727893Y-74301652D01*
X161692426Y-74332384D01*
X161654087Y-74354520D01*
X161654084Y-74354522D01*
X161579521Y-74429085D01*
X161526794Y-74520410D01*
X161526793Y-74520413D01*
X161499500Y-74622273D01*
X161499500Y-74727727D01*
X161526793Y-74829587D01*
X161579520Y-74920913D01*
X161654087Y-74995480D01*
X161745413Y-75048207D01*
X161771606Y-75055225D01*
X161831267Y-75091590D01*
X161861796Y-75154437D01*
X161853501Y-75223812D01*
X161809016Y-75277690D01*
X161771607Y-75294774D01*
X161745417Y-75301792D01*
X161745413Y-75301793D01*
X161745410Y-75301794D01*
X161654085Y-75354521D01*
X161579521Y-75429085D01*
X161526794Y-75520410D01*
X161526793Y-75520413D01*
X161499500Y-75622273D01*
X161499500Y-75727727D01*
X161526793Y-75829587D01*
X161561519Y-75889735D01*
X161579521Y-75920914D01*
X161645926Y-75987319D01*
X161679411Y-76048642D01*
X161674427Y-76118334D01*
X161645926Y-76162681D01*
X161579521Y-76229085D01*
X161526794Y-76320410D01*
X161526793Y-76320413D01*
X161499500Y-76422273D01*
X161499500Y-76527727D01*
X161526295Y-76627726D01*
X161526793Y-76629586D01*
X161526794Y-76629589D01*
X161579521Y-76720914D01*
X161595926Y-76737319D01*
X161629411Y-76798642D01*
X161624427Y-76868334D01*
X161595926Y-76912681D01*
X161579521Y-76929085D01*
X161526794Y-77020410D01*
X161526793Y-77020413D01*
X161499500Y-77122273D01*
X161499500Y-77227727D01*
X161526793Y-77329587D01*
X161552723Y-77374500D01*
X161579521Y-77420914D01*
X161645926Y-77487319D01*
X161679411Y-77548642D01*
X161674427Y-77618334D01*
X161645926Y-77662681D01*
X161579521Y-77729085D01*
X161526794Y-77820410D01*
X161526793Y-77820413D01*
X161499500Y-77922273D01*
X161499500Y-78027727D01*
X161523529Y-78117403D01*
X161526793Y-78129586D01*
X161526794Y-78129589D01*
X161536896Y-78147086D01*
X161579520Y-78220913D01*
X161654087Y-78295480D01*
X161745413Y-78348207D01*
X161847273Y-78375500D01*
X161847275Y-78375500D01*
X161952725Y-78375500D01*
X161952727Y-78375500D01*
X162054587Y-78348207D01*
X162145913Y-78295480D01*
X162220480Y-78220913D01*
X162235268Y-78195298D01*
X162285830Y-78147086D01*
X162354437Y-78133861D01*
X162419302Y-78159828D01*
X162430334Y-78169619D01*
X162434652Y-78173937D01*
X162509219Y-78248504D01*
X162600545Y-78301231D01*
X162702405Y-78328524D01*
X162702407Y-78328524D01*
X162807857Y-78328524D01*
X162807859Y-78328524D01*
X162909719Y-78301231D01*
X163001045Y-78248504D01*
X163075612Y-78173937D01*
X163128339Y-78082611D01*
X163155632Y-77980751D01*
X163155632Y-77875297D01*
X163128339Y-77773437D01*
X163075612Y-77682111D01*
X163052000Y-77658499D01*
X163018515Y-77597176D01*
X163023499Y-77527484D01*
X163051999Y-77483138D01*
X163081935Y-77453203D01*
X163134662Y-77361877D01*
X163156337Y-77280980D01*
X163183867Y-77235815D01*
X163183265Y-77235318D01*
X163161990Y-77168766D01*
X163161955Y-77165815D01*
X163161955Y-77154565D01*
X163161955Y-77154563D01*
X163134662Y-77052703D01*
X163081935Y-76961377D01*
X163081933Y-76961375D01*
X163081932Y-76961373D01*
X163076986Y-76954927D01*
X163078526Y-76953745D01*
X163075804Y-76948758D01*
X163064008Y-76937548D01*
X163059408Y-76918723D01*
X163050124Y-76901715D01*
X163051286Y-76885484D01*
X163047424Y-76869675D01*
X163053732Y-76851350D01*
X163055117Y-76832024D01*
X163066461Y-76814373D01*
X163070167Y-76803611D01*
X163080091Y-76793168D01*
X163083611Y-76787692D01*
X163119868Y-76751436D01*
X163172595Y-76660110D01*
X163172597Y-76660101D01*
X163175704Y-76652603D01*
X163178121Y-76653604D01*
X163207723Y-76605023D01*
X163270565Y-76574484D01*
X163339942Y-76582768D01*
X163393827Y-76627245D01*
X163410921Y-76664669D01*
X163413823Y-76675500D01*
X163427405Y-76726187D01*
X163427406Y-76726190D01*
X163433831Y-76737319D01*
X163469236Y-76798642D01*
X163480133Y-76817515D01*
X163496538Y-76833920D01*
X163530023Y-76895243D01*
X163525039Y-76964935D01*
X163496538Y-77009282D01*
X163480133Y-77025686D01*
X163427406Y-77117011D01*
X163427405Y-77117014D01*
X163417356Y-77154520D01*
X163405730Y-77197908D01*
X163378199Y-77243074D01*
X163378802Y-77243572D01*
X163400077Y-77310124D01*
X163400112Y-77313075D01*
X163400112Y-77324328D01*
X163420869Y-77401793D01*
X163427405Y-77426187D01*
X163427406Y-77426190D01*
X163480133Y-77517515D01*
X163546538Y-77583920D01*
X163580023Y-77645243D01*
X163575039Y-77714935D01*
X163546538Y-77759282D01*
X163480133Y-77825686D01*
X163427406Y-77917011D01*
X163427405Y-77917012D01*
X163400860Y-78016080D01*
X163400858Y-78016086D01*
X163400112Y-78018874D01*
X163400112Y-78124328D01*
X163419130Y-78195303D01*
X163427405Y-78226187D01*
X163427406Y-78226190D01*
X163434942Y-78239242D01*
X163480132Y-78317514D01*
X163554699Y-78392081D01*
X163646025Y-78444808D01*
X163747885Y-78472101D01*
X163747887Y-78472101D01*
X163853337Y-78472101D01*
X163853339Y-78472101D01*
X163955199Y-78444808D01*
X164046525Y-78392081D01*
X164121092Y-78317514D01*
X164135880Y-78291899D01*
X164186442Y-78243687D01*
X164255049Y-78230462D01*
X164319914Y-78256429D01*
X164330946Y-78266220D01*
X164335264Y-78270538D01*
X164409831Y-78345105D01*
X164501157Y-78397832D01*
X164603017Y-78425125D01*
X164603019Y-78425125D01*
X164708469Y-78425125D01*
X164708471Y-78425125D01*
X164810331Y-78397832D01*
X164901657Y-78345105D01*
X164974037Y-78272724D01*
X165035356Y-78239242D01*
X165105048Y-78244226D01*
X165160982Y-78286097D01*
X165169092Y-78298393D01*
X165180132Y-78317514D01*
X165254699Y-78392081D01*
X165346025Y-78444808D01*
X165447885Y-78472101D01*
X165447887Y-78472101D01*
X165553337Y-78472101D01*
X165553339Y-78472101D01*
X165655199Y-78444808D01*
X165746525Y-78392081D01*
X165821092Y-78317514D01*
X165835880Y-78291899D01*
X165886442Y-78243687D01*
X165955049Y-78230462D01*
X166019914Y-78256429D01*
X166030946Y-78266220D01*
X166035264Y-78270538D01*
X166109831Y-78345105D01*
X166201157Y-78397832D01*
X166303017Y-78425125D01*
X166303019Y-78425125D01*
X166408469Y-78425125D01*
X166408471Y-78425125D01*
X166510331Y-78397832D01*
X166601657Y-78345105D01*
X166676224Y-78270538D01*
X166728951Y-78179212D01*
X166756244Y-78077352D01*
X166756244Y-77972273D01*
X185999500Y-77972273D01*
X185999500Y-78077727D01*
X186026793Y-78179587D01*
X186079520Y-78270913D01*
X186154087Y-78345480D01*
X186245413Y-78398207D01*
X186347273Y-78425500D01*
X186347275Y-78425500D01*
X186452725Y-78425500D01*
X186452727Y-78425500D01*
X186554587Y-78398207D01*
X186645913Y-78345480D01*
X186720480Y-78270913D01*
X186773207Y-78179587D01*
X186800500Y-78077727D01*
X186800500Y-77972273D01*
X186773207Y-77870413D01*
X186720480Y-77779087D01*
X186645913Y-77704520D01*
X186566202Y-77658499D01*
X186554589Y-77651794D01*
X186554588Y-77651793D01*
X186554587Y-77651793D01*
X186452727Y-77624500D01*
X186347273Y-77624500D01*
X186245413Y-77651793D01*
X186245410Y-77651794D01*
X186154085Y-77704521D01*
X186079521Y-77779085D01*
X186026794Y-77870410D01*
X186026793Y-77870413D01*
X185999500Y-77972273D01*
X166756244Y-77972273D01*
X166756244Y-77971898D01*
X166728951Y-77870038D01*
X166676224Y-77778712D01*
X166652612Y-77755100D01*
X166619127Y-77693777D01*
X166624111Y-77624085D01*
X166652611Y-77579739D01*
X166682547Y-77549804D01*
X166735274Y-77458478D01*
X166762567Y-77356618D01*
X166762567Y-77251164D01*
X166754826Y-77222273D01*
X173399500Y-77222273D01*
X173399500Y-77327727D01*
X173426793Y-77429587D01*
X173479520Y-77520913D01*
X173554087Y-77595480D01*
X173645413Y-77648207D01*
X173747273Y-77675500D01*
X173747275Y-77675500D01*
X173852725Y-77675500D01*
X173852727Y-77675500D01*
X173954587Y-77648207D01*
X174045913Y-77595480D01*
X174120480Y-77520913D01*
X174173207Y-77429587D01*
X174200500Y-77327727D01*
X174200500Y-77222273D01*
X174173207Y-77120413D01*
X174120480Y-77029087D01*
X174045913Y-76954520D01*
X173954587Y-76901793D01*
X173852727Y-76874500D01*
X173747273Y-76874500D01*
X173645413Y-76901793D01*
X173645410Y-76901794D01*
X173554085Y-76954521D01*
X173479521Y-77029085D01*
X173426794Y-77120410D01*
X173426793Y-77120413D01*
X173399500Y-77222273D01*
X166754826Y-77222273D01*
X166735274Y-77149304D01*
X166682547Y-77057978D01*
X166682545Y-77057976D01*
X166682544Y-77057974D01*
X166677598Y-77051528D01*
X166679138Y-77050346D01*
X166650736Y-76998316D01*
X166655729Y-76928625D01*
X166684223Y-76884293D01*
X166720480Y-76848037D01*
X166773207Y-76756711D01*
X166800500Y-76654851D01*
X166800500Y-76549397D01*
X166793232Y-76522273D01*
X172099500Y-76522273D01*
X172099500Y-76627727D01*
X172125883Y-76726188D01*
X172126793Y-76729586D01*
X172126794Y-76729589D01*
X172139408Y-76751437D01*
X172179520Y-76820913D01*
X172254087Y-76895480D01*
X172345413Y-76948207D01*
X172447273Y-76975500D01*
X172447275Y-76975500D01*
X172552725Y-76975500D01*
X172552727Y-76975500D01*
X172654587Y-76948207D01*
X172745913Y-76895480D01*
X172820480Y-76820913D01*
X172873207Y-76729587D01*
X172900500Y-76627727D01*
X172900500Y-76522273D01*
X172873207Y-76420413D01*
X172820480Y-76329087D01*
X172745913Y-76254520D01*
X172690059Y-76222273D01*
X178199500Y-76222273D01*
X178199500Y-76327727D01*
X178226793Y-76429587D01*
X178279520Y-76520913D01*
X178354087Y-76595480D01*
X178445413Y-76648207D01*
X178547273Y-76675500D01*
X178547275Y-76675500D01*
X178652725Y-76675500D01*
X178652727Y-76675500D01*
X178754587Y-76648207D01*
X178845913Y-76595480D01*
X178920480Y-76520913D01*
X178973207Y-76429587D01*
X179000500Y-76327727D01*
X179000500Y-76222273D01*
X178973207Y-76120413D01*
X178920480Y-76029087D01*
X178845913Y-75954520D01*
X178754587Y-75901793D01*
X178652727Y-75874500D01*
X178547273Y-75874500D01*
X178445413Y-75901793D01*
X178445410Y-75901794D01*
X178354085Y-75954521D01*
X178279521Y-76029085D01*
X178226794Y-76120410D01*
X178226793Y-76120413D01*
X178199500Y-76222273D01*
X172690059Y-76222273D01*
X172654587Y-76201793D01*
X172552727Y-76174500D01*
X172447273Y-76174500D01*
X172345413Y-76201793D01*
X172345410Y-76201794D01*
X172254085Y-76254521D01*
X172179521Y-76329085D01*
X172126794Y-76420410D01*
X172126793Y-76420413D01*
X172099500Y-76522273D01*
X166793232Y-76522273D01*
X166773207Y-76447537D01*
X166720480Y-76356211D01*
X166645913Y-76281644D01*
X166640166Y-76275897D01*
X166641735Y-76274327D01*
X166607358Y-76227254D01*
X166603199Y-76157508D01*
X166636364Y-76097617D01*
X166639586Y-76094394D01*
X166639591Y-76094392D01*
X166714158Y-76019825D01*
X166766885Y-75928499D01*
X166794178Y-75826639D01*
X166794178Y-75721185D01*
X166766885Y-75619325D01*
X166714158Y-75527999D01*
X166639591Y-75453432D01*
X166548265Y-75400705D01*
X166548263Y-75400704D01*
X166527259Y-75395076D01*
X166467600Y-75358709D01*
X166437072Y-75295862D01*
X166445369Y-75226486D01*
X166489856Y-75172610D01*
X166527257Y-75155529D01*
X166554587Y-75148207D01*
X166599506Y-75122273D01*
X173699500Y-75122273D01*
X173699500Y-75227727D01*
X173726793Y-75329587D01*
X173779520Y-75420913D01*
X173854087Y-75495480D01*
X173945413Y-75548207D01*
X174047273Y-75575500D01*
X174047275Y-75575500D01*
X174152725Y-75575500D01*
X174152727Y-75575500D01*
X174254587Y-75548207D01*
X174345913Y-75495480D01*
X174420480Y-75420913D01*
X174473207Y-75329587D01*
X174500500Y-75227727D01*
X174500500Y-75122273D01*
X174473207Y-75020413D01*
X174420480Y-74929087D01*
X174345913Y-74854520D01*
X174254587Y-74801793D01*
X174152727Y-74774500D01*
X174047273Y-74774500D01*
X173945413Y-74801793D01*
X173945410Y-74801794D01*
X173854085Y-74854521D01*
X173779521Y-74929085D01*
X173726794Y-75020410D01*
X173726793Y-75020413D01*
X173699500Y-75122273D01*
X166599506Y-75122273D01*
X166645913Y-75095480D01*
X166720480Y-75020913D01*
X166773207Y-74929587D01*
X166800500Y-74827727D01*
X166800500Y-74722273D01*
X166773705Y-74622273D01*
X176699500Y-74622273D01*
X176699500Y-74727727D01*
X176726793Y-74829587D01*
X176779520Y-74920913D01*
X176854087Y-74995480D01*
X176945413Y-75048207D01*
X177047273Y-75075500D01*
X177047275Y-75075500D01*
X177152725Y-75075500D01*
X177152727Y-75075500D01*
X177254587Y-75048207D01*
X177345913Y-74995480D01*
X177420480Y-74920913D01*
X177473207Y-74829587D01*
X177500500Y-74727727D01*
X177500500Y-74622273D01*
X177473207Y-74520413D01*
X177420480Y-74429087D01*
X177345913Y-74354520D01*
X177254587Y-74301793D01*
X177152727Y-74274500D01*
X177047273Y-74274500D01*
X176945413Y-74301793D01*
X176945410Y-74301794D01*
X176854085Y-74354521D01*
X176779521Y-74429085D01*
X176726794Y-74520410D01*
X176726793Y-74520413D01*
X176699500Y-74622273D01*
X166773705Y-74622273D01*
X166773207Y-74620413D01*
X166720480Y-74529087D01*
X166645913Y-74454520D01*
X166604938Y-74430863D01*
X166556723Y-74380297D01*
X166543501Y-74311690D01*
X166569469Y-74246825D01*
X166604936Y-74216091D01*
X166646525Y-74192081D01*
X166721092Y-74117514D01*
X166773819Y-74026188D01*
X166774868Y-74022273D01*
X173799500Y-74022273D01*
X173799500Y-74127727D01*
X173826793Y-74229587D01*
X173879520Y-74320913D01*
X173954087Y-74395480D01*
X174045413Y-74448207D01*
X174147273Y-74475500D01*
X174147275Y-74475500D01*
X174252725Y-74475500D01*
X174252727Y-74475500D01*
X174354587Y-74448207D01*
X174445913Y-74395480D01*
X174520480Y-74320913D01*
X174573207Y-74229587D01*
X174600500Y-74127727D01*
X174600500Y-74022273D01*
X174573207Y-73920413D01*
X174520480Y-73829087D01*
X174445913Y-73754520D01*
X174354587Y-73701793D01*
X174252727Y-73674500D01*
X174147273Y-73674500D01*
X174045413Y-73701793D01*
X174045410Y-73701794D01*
X173954085Y-73754521D01*
X173879521Y-73829085D01*
X173826794Y-73920410D01*
X173826793Y-73920413D01*
X173799500Y-74022273D01*
X166774868Y-74022273D01*
X166801112Y-73924328D01*
X166801112Y-73818874D01*
X166773819Y-73717014D01*
X166721092Y-73625688D01*
X166646525Y-73551121D01*
X166555199Y-73498394D01*
X166453339Y-73471101D01*
X166347885Y-73471101D01*
X166246025Y-73498394D01*
X166246022Y-73498395D01*
X166154697Y-73551122D01*
X166080134Y-73625685D01*
X166080132Y-73625687D01*
X166080132Y-73625688D01*
X166057997Y-73664026D01*
X166007432Y-73712240D01*
X165938824Y-73725462D01*
X165873960Y-73699494D01*
X165843227Y-73664027D01*
X165821092Y-73625688D01*
X165746525Y-73551121D01*
X165655199Y-73498394D01*
X165553339Y-73471101D01*
X165447885Y-73471101D01*
X165346025Y-73498394D01*
X165346022Y-73498395D01*
X165254697Y-73551122D01*
X165188293Y-73617527D01*
X165126970Y-73651012D01*
X165057278Y-73646028D01*
X165012931Y-73617527D01*
X164946526Y-73551122D01*
X164946525Y-73551121D01*
X164855199Y-73498394D01*
X164753339Y-73471101D01*
X164647885Y-73471101D01*
X164546025Y-73498394D01*
X164546022Y-73498395D01*
X164454697Y-73551122D01*
X164380134Y-73625685D01*
X164380132Y-73625687D01*
X164380132Y-73625688D01*
X164357997Y-73664026D01*
X164307432Y-73712240D01*
X164238824Y-73725462D01*
X164173960Y-73699494D01*
X164143227Y-73664027D01*
X164121092Y-73625688D01*
X164046525Y-73551121D01*
X163955199Y-73498394D01*
X163853339Y-73471101D01*
X163747885Y-73471101D01*
X163646025Y-73498394D01*
X163646022Y-73498395D01*
X163554697Y-73551122D01*
X163480133Y-73625686D01*
X163423341Y-73724053D01*
X163421497Y-73722988D01*
X163384714Y-73768628D01*
X163318418Y-73790688D01*
X163250720Y-73773404D01*
X163203113Y-73722264D01*
X163194227Y-73698865D01*
X163173207Y-73620413D01*
X163120480Y-73529087D01*
X163045913Y-73454520D01*
X162954587Y-73401793D01*
X162852727Y-73374500D01*
X162747273Y-73374500D01*
X162645413Y-73401793D01*
X162645410Y-73401794D01*
X162554085Y-73454521D01*
X162479522Y-73529084D01*
X162479520Y-73529086D01*
X162479520Y-73529087D01*
X162457385Y-73567425D01*
X162406820Y-73615639D01*
X162338212Y-73628861D01*
X162273348Y-73602893D01*
X162242615Y-73567426D01*
X162220480Y-73529087D01*
X162145913Y-73454520D01*
X162054587Y-73401793D01*
X161952727Y-73374500D01*
X161847273Y-73374500D01*
X161745413Y-73401793D01*
X161745410Y-73401794D01*
X161654085Y-73454521D01*
X161579521Y-73529085D01*
X161526794Y-73620410D01*
X161526793Y-73620413D01*
X161499500Y-73722273D01*
X154519120Y-73722273D01*
X154520480Y-73720913D01*
X154573207Y-73629587D01*
X154600500Y-73527727D01*
X154600500Y-73422273D01*
X154573207Y-73320413D01*
X154520480Y-73229087D01*
X154445913Y-73154520D01*
X154390059Y-73122273D01*
X178299500Y-73122273D01*
X178299500Y-73227727D01*
X178326793Y-73329587D01*
X178379520Y-73420913D01*
X178454087Y-73495480D01*
X178545413Y-73548207D01*
X178647273Y-73575500D01*
X178647275Y-73575500D01*
X178752725Y-73575500D01*
X178752727Y-73575500D01*
X178854587Y-73548207D01*
X178945913Y-73495480D01*
X179020480Y-73420913D01*
X179073207Y-73329587D01*
X179100500Y-73227727D01*
X179100500Y-73122273D01*
X179073207Y-73020413D01*
X179020480Y-72929087D01*
X178945913Y-72854520D01*
X178854587Y-72801793D01*
X178752727Y-72774500D01*
X178647273Y-72774500D01*
X178545413Y-72801793D01*
X178545410Y-72801794D01*
X178454085Y-72854521D01*
X178379521Y-72929085D01*
X178326794Y-73020410D01*
X178326793Y-73020413D01*
X178299500Y-73122273D01*
X154390059Y-73122273D01*
X154354587Y-73101793D01*
X154252727Y-73074500D01*
X154147273Y-73074500D01*
X154045413Y-73101793D01*
X154045410Y-73101794D01*
X153954085Y-73154521D01*
X153879521Y-73229085D01*
X153826794Y-73320410D01*
X153826793Y-73320413D01*
X153799500Y-73422273D01*
X144269744Y-73422273D01*
X144125962Y-73399500D01*
X143874038Y-73399500D01*
X143749626Y-73419205D01*
X143625214Y-73438910D01*
X143385616Y-73516760D01*
X143161151Y-73631132D01*
X142957350Y-73779201D01*
X142957345Y-73779205D01*
X142779205Y-73957345D01*
X142779201Y-73957350D01*
X142631132Y-74161151D01*
X142516760Y-74385616D01*
X142438910Y-74625214D01*
X142415265Y-74774500D01*
X142399500Y-74874038D01*
X116355126Y-74874038D01*
X116354266Y-73322273D01*
X134099500Y-73322273D01*
X134099500Y-73427727D01*
X134126793Y-73529587D01*
X134179520Y-73620913D01*
X134254087Y-73695480D01*
X134345413Y-73748207D01*
X134447273Y-73775500D01*
X134447275Y-73775500D01*
X134552725Y-73775500D01*
X134552727Y-73775500D01*
X134654587Y-73748207D01*
X134745913Y-73695480D01*
X134820480Y-73620913D01*
X134873207Y-73529587D01*
X134900500Y-73427727D01*
X134900500Y-73322273D01*
X134873207Y-73220413D01*
X134820480Y-73129087D01*
X134745913Y-73054520D01*
X134654587Y-73001793D01*
X134552727Y-72974500D01*
X134447273Y-72974500D01*
X134345413Y-73001793D01*
X134345410Y-73001794D01*
X134254085Y-73054521D01*
X134179521Y-73129085D01*
X134126794Y-73220410D01*
X134126793Y-73220413D01*
X134099500Y-73322273D01*
X116354266Y-73322273D01*
X116353435Y-71822273D01*
X152874999Y-71822273D01*
X152874999Y-71927727D01*
X152902292Y-72029587D01*
X152955019Y-72120913D01*
X153029586Y-72195480D01*
X153120912Y-72248207D01*
X153222772Y-72275500D01*
X153222774Y-72275500D01*
X153328224Y-72275500D01*
X153328226Y-72275500D01*
X153430086Y-72248207D01*
X153521412Y-72195480D01*
X153595979Y-72120913D01*
X153648706Y-72029587D01*
X153664063Y-71972273D01*
X157699500Y-71972273D01*
X157699500Y-72077727D01*
X157726793Y-72179587D01*
X157779520Y-72270913D01*
X157854087Y-72345480D01*
X157945413Y-72398207D01*
X158047273Y-72425500D01*
X158047275Y-72425500D01*
X158152725Y-72425500D01*
X158152727Y-72425500D01*
X158254587Y-72398207D01*
X158345913Y-72345480D01*
X158420480Y-72270913D01*
X158473207Y-72179587D01*
X158488564Y-72122273D01*
X171399500Y-72122273D01*
X171399500Y-72227727D01*
X171426793Y-72329587D01*
X171479520Y-72420913D01*
X171554087Y-72495480D01*
X171645413Y-72548207D01*
X171747273Y-72575500D01*
X171747275Y-72575500D01*
X171852725Y-72575500D01*
X171852727Y-72575500D01*
X171954587Y-72548207D01*
X172045913Y-72495480D01*
X172120480Y-72420913D01*
X172142614Y-72382574D01*
X172193179Y-72334361D01*
X172261786Y-72321137D01*
X172326651Y-72347105D01*
X172357384Y-72382573D01*
X172379520Y-72420913D01*
X172454087Y-72495480D01*
X172545413Y-72548207D01*
X172647273Y-72575500D01*
X172647275Y-72575500D01*
X172752725Y-72575500D01*
X172752727Y-72575500D01*
X172854587Y-72548207D01*
X172945913Y-72495480D01*
X173020480Y-72420913D01*
X173073207Y-72329587D01*
X173080225Y-72303393D01*
X173116589Y-72243733D01*
X173179436Y-72213203D01*
X173248812Y-72221497D01*
X173302690Y-72265982D01*
X173319775Y-72303394D01*
X173326792Y-72329585D01*
X173326793Y-72329587D01*
X173379520Y-72420913D01*
X173454087Y-72495480D01*
X173545413Y-72548207D01*
X173647273Y-72575500D01*
X173647275Y-72575500D01*
X173752725Y-72575500D01*
X173752727Y-72575500D01*
X173854587Y-72548207D01*
X173945913Y-72495480D01*
X174020480Y-72420913D01*
X174073207Y-72329587D01*
X174100500Y-72227727D01*
X174100500Y-72122273D01*
X191299500Y-72122273D01*
X191299500Y-72227727D01*
X191326793Y-72329587D01*
X191379520Y-72420913D01*
X191454087Y-72495480D01*
X191545413Y-72548207D01*
X191647273Y-72575500D01*
X191647275Y-72575500D01*
X191752725Y-72575500D01*
X191752727Y-72575500D01*
X191854587Y-72548207D01*
X191945913Y-72495480D01*
X192020480Y-72420913D01*
X192073207Y-72329587D01*
X192100500Y-72227727D01*
X192100500Y-72122273D01*
X192073207Y-72020413D01*
X192020480Y-71929087D01*
X191945913Y-71854520D01*
X191854587Y-71801793D01*
X191752727Y-71774500D01*
X191647273Y-71774500D01*
X191545413Y-71801793D01*
X191545410Y-71801794D01*
X191454085Y-71854521D01*
X191379521Y-71929085D01*
X191326794Y-72020410D01*
X191326793Y-72020413D01*
X191299500Y-72122273D01*
X174100500Y-72122273D01*
X174073207Y-72020413D01*
X174020480Y-71929087D01*
X173945913Y-71854520D01*
X173854587Y-71801793D01*
X173752727Y-71774500D01*
X173647273Y-71774500D01*
X173545413Y-71801793D01*
X173545410Y-71801794D01*
X173454085Y-71854521D01*
X173379521Y-71929085D01*
X173326794Y-72020410D01*
X173326793Y-72020413D01*
X173319775Y-72046606D01*
X173283410Y-72106267D01*
X173220563Y-72136796D01*
X173151188Y-72128501D01*
X173097310Y-72084016D01*
X173080225Y-72046606D01*
X173073207Y-72020413D01*
X173020480Y-71929087D01*
X172945913Y-71854520D01*
X172854587Y-71801793D01*
X172752727Y-71774500D01*
X172647273Y-71774500D01*
X172545413Y-71801793D01*
X172545410Y-71801794D01*
X172454085Y-71854521D01*
X172379522Y-71929084D01*
X172379520Y-71929086D01*
X172379520Y-71929087D01*
X172357385Y-71967425D01*
X172306820Y-72015639D01*
X172238212Y-72028861D01*
X172173348Y-72002893D01*
X172142615Y-71967426D01*
X172120480Y-71929087D01*
X172045913Y-71854520D01*
X171954587Y-71801793D01*
X171852727Y-71774500D01*
X171747273Y-71774500D01*
X171645413Y-71801793D01*
X171645410Y-71801794D01*
X171554085Y-71854521D01*
X171479521Y-71929085D01*
X171426794Y-72020410D01*
X171426793Y-72020413D01*
X171399500Y-72122273D01*
X158488564Y-72122273D01*
X158500500Y-72077727D01*
X158500500Y-71972273D01*
X158473207Y-71870413D01*
X158420480Y-71779087D01*
X158345913Y-71704520D01*
X158254587Y-71651793D01*
X158152727Y-71624500D01*
X158047273Y-71624500D01*
X157945413Y-71651793D01*
X157945410Y-71651794D01*
X157854085Y-71704521D01*
X157779521Y-71779085D01*
X157726794Y-71870410D01*
X157726793Y-71870413D01*
X157699500Y-71972273D01*
X153664063Y-71972273D01*
X153675999Y-71927727D01*
X153675999Y-71886640D01*
X153676336Y-71882076D01*
X153687077Y-71853478D01*
X153695684Y-71824167D01*
X153699245Y-71821080D01*
X153700903Y-71816668D01*
X153725406Y-71798412D01*
X153748488Y-71778412D01*
X153753151Y-71777741D01*
X153756932Y-71774925D01*
X153787408Y-71772815D01*
X153817646Y-71768468D01*
X153825866Y-71770154D01*
X153826635Y-71770101D01*
X153827247Y-71770437D01*
X153832070Y-71771426D01*
X153847273Y-71775500D01*
X153847277Y-71775500D01*
X153952725Y-71775500D01*
X153952727Y-71775500D01*
X154054587Y-71748207D01*
X154145913Y-71695480D01*
X154220480Y-71620913D01*
X154273207Y-71529587D01*
X154282062Y-71496538D01*
X163125235Y-71496538D01*
X163125235Y-71601992D01*
X163152528Y-71703852D01*
X163205255Y-71795178D01*
X163279822Y-71869745D01*
X163371148Y-71922472D01*
X163473008Y-71949765D01*
X163473010Y-71949765D01*
X163578460Y-71949765D01*
X163578462Y-71949765D01*
X163680322Y-71922472D01*
X163771648Y-71869745D01*
X163846215Y-71795178D01*
X163898942Y-71703852D01*
X163926235Y-71601992D01*
X163926235Y-71496538D01*
X163898942Y-71394678D01*
X163846215Y-71303352D01*
X163771648Y-71228785D01*
X163680322Y-71176058D01*
X163578462Y-71148765D01*
X163473008Y-71148765D01*
X163371148Y-71176058D01*
X163371145Y-71176059D01*
X163279820Y-71228786D01*
X163205256Y-71303350D01*
X163152529Y-71394675D01*
X163152528Y-71394678D01*
X163125235Y-71496538D01*
X154282062Y-71496538D01*
X154300500Y-71427727D01*
X154300500Y-71322273D01*
X154273207Y-71220413D01*
X154220480Y-71129087D01*
X154145913Y-71054520D01*
X154054587Y-71001793D01*
X153952727Y-70974500D01*
X153847273Y-70974500D01*
X153745413Y-71001793D01*
X153745410Y-71001794D01*
X153654085Y-71054521D01*
X153579521Y-71129085D01*
X153526794Y-71220410D01*
X153526793Y-71220413D01*
X153499500Y-71322273D01*
X153499500Y-71358793D01*
X153479815Y-71425832D01*
X153427011Y-71471587D01*
X153357853Y-71481531D01*
X153343411Y-71478569D01*
X153328226Y-71474500D01*
X153222772Y-71474500D01*
X153120912Y-71501793D01*
X153120909Y-71501794D01*
X153029584Y-71554521D01*
X152955020Y-71629085D01*
X152902293Y-71720410D01*
X152902292Y-71720413D01*
X152874999Y-71822273D01*
X116353435Y-71822273D01*
X116352940Y-70929586D01*
X116352825Y-70722273D01*
X154399500Y-70722273D01*
X154399500Y-70827727D01*
X154426793Y-70929587D01*
X154479520Y-71020913D01*
X154554087Y-71095480D01*
X154645413Y-71148207D01*
X154747273Y-71175500D01*
X154747275Y-71175500D01*
X154852725Y-71175500D01*
X154852727Y-71175500D01*
X154954587Y-71148207D01*
X155045913Y-71095480D01*
X155120480Y-71020913D01*
X155173207Y-70929587D01*
X155200500Y-70827727D01*
X155200500Y-70722273D01*
X155197287Y-70710281D01*
X155198192Y-70672273D01*
X165499500Y-70672273D01*
X165499500Y-70777727D01*
X165526793Y-70879587D01*
X165579520Y-70970913D01*
X165654087Y-71045480D01*
X165745413Y-71098207D01*
X165847273Y-71125500D01*
X165847275Y-71125500D01*
X165952725Y-71125500D01*
X165952727Y-71125500D01*
X166054587Y-71098207D01*
X166145913Y-71045480D01*
X166220480Y-70970913D01*
X166273207Y-70879587D01*
X166300500Y-70777727D01*
X166300500Y-70672273D01*
X166273207Y-70570413D01*
X166220480Y-70479087D01*
X166163666Y-70422273D01*
X176499500Y-70422273D01*
X176499500Y-70527727D01*
X176526793Y-70629587D01*
X176579520Y-70720913D01*
X176654087Y-70795480D01*
X176745413Y-70848207D01*
X176847273Y-70875500D01*
X176847275Y-70875500D01*
X176952725Y-70875500D01*
X176952727Y-70875500D01*
X177054587Y-70848207D01*
X177145913Y-70795480D01*
X177220480Y-70720913D01*
X177273207Y-70629587D01*
X177300500Y-70527727D01*
X177300500Y-70422273D01*
X177273207Y-70320413D01*
X177220480Y-70229087D01*
X177145913Y-70154520D01*
X177054587Y-70101793D01*
X176952727Y-70074500D01*
X176847273Y-70074500D01*
X176745413Y-70101793D01*
X176745410Y-70101794D01*
X176654085Y-70154521D01*
X176579521Y-70229085D01*
X176526794Y-70320410D01*
X176526793Y-70320413D01*
X176499500Y-70422273D01*
X166163666Y-70422273D01*
X166145913Y-70404520D01*
X166054587Y-70351793D01*
X165952727Y-70324500D01*
X165847273Y-70324500D01*
X165745413Y-70351793D01*
X165745410Y-70351794D01*
X165654085Y-70404521D01*
X165579521Y-70479085D01*
X165526794Y-70570410D01*
X165526793Y-70570413D01*
X165499500Y-70672273D01*
X155198192Y-70672273D01*
X155198950Y-70640433D01*
X155238113Y-70582571D01*
X155302341Y-70555067D01*
X155349150Y-70558414D01*
X155412915Y-70575500D01*
X155412918Y-70575500D01*
X155518367Y-70575500D01*
X155518369Y-70575500D01*
X155620229Y-70548207D01*
X155711555Y-70495480D01*
X155786122Y-70420913D01*
X155838849Y-70329587D01*
X155866142Y-70227727D01*
X155866142Y-70122273D01*
X155838849Y-70020413D01*
X155786122Y-69929087D01*
X155711555Y-69854520D01*
X155620229Y-69801793D01*
X155518369Y-69774500D01*
X155412915Y-69774500D01*
X155311055Y-69801793D01*
X155311052Y-69801794D01*
X155219727Y-69854521D01*
X155145163Y-69929085D01*
X155092436Y-70020410D01*
X155092435Y-70020413D01*
X155065142Y-70122273D01*
X155065142Y-70227728D01*
X155068355Y-70239720D01*
X155066690Y-70309570D01*
X155027525Y-70367431D01*
X154963295Y-70394933D01*
X154916486Y-70391584D01*
X154852727Y-70374500D01*
X154747273Y-70374500D01*
X154645413Y-70401793D01*
X154645410Y-70401794D01*
X154554085Y-70454521D01*
X154479521Y-70529085D01*
X154426794Y-70620410D01*
X154426793Y-70620413D01*
X154399500Y-70722273D01*
X116352825Y-70722273D01*
X116352821Y-70714215D01*
X116352003Y-69238817D01*
X116350501Y-66527574D01*
X116350607Y-66522402D01*
X116356076Y-66390186D01*
X119449500Y-66390186D01*
X119449500Y-66659813D01*
X119479686Y-66927719D01*
X119479688Y-66927731D01*
X119539684Y-67190594D01*
X119539687Y-67190602D01*
X119628734Y-67445082D01*
X119745714Y-67687994D01*
X119766084Y-67720413D01*
X119889162Y-67916289D01*
X119952313Y-67995478D01*
X120053428Y-68122273D01*
X120057266Y-68127085D01*
X120247915Y-68317734D01*
X120458711Y-68485838D01*
X120687003Y-68629284D01*
X120929921Y-68746267D01*
X121121049Y-68813145D01*
X121184397Y-68835312D01*
X121184405Y-68835315D01*
X121184408Y-68835315D01*
X121184409Y-68835316D01*
X121447268Y-68895312D01*
X121715187Y-68925499D01*
X121715188Y-68925500D01*
X121715191Y-68925500D01*
X121984812Y-68925500D01*
X121984812Y-68925499D01*
X122252732Y-68895312D01*
X122515591Y-68835316D01*
X122770079Y-68746267D01*
X123012997Y-68629284D01*
X123241289Y-68485838D01*
X123452085Y-68317734D01*
X123642734Y-68127085D01*
X123810838Y-67916289D01*
X123954284Y-67687997D01*
X124071267Y-67445079D01*
X124160316Y-67190591D01*
X124170666Y-67145247D01*
X131709500Y-67145247D01*
X131709500Y-68884752D01*
X131721131Y-68943229D01*
X131721132Y-68943230D01*
X131765447Y-69009552D01*
X131831769Y-69053867D01*
X131831770Y-69053868D01*
X131890247Y-69065499D01*
X131890250Y-69065500D01*
X131890252Y-69065500D01*
X133629750Y-69065500D01*
X133629751Y-69065499D01*
X133644568Y-69062552D01*
X133688229Y-69053868D01*
X133688229Y-69053867D01*
X133688231Y-69053867D01*
X133754552Y-69009552D01*
X133798867Y-68943231D01*
X133798867Y-68943229D01*
X133798868Y-68943229D01*
X133810499Y-68884752D01*
X133810500Y-68884750D01*
X133810500Y-67145249D01*
X133810499Y-67145247D01*
X133798868Y-67086770D01*
X133798867Y-67086769D01*
X133754552Y-67020447D01*
X133688230Y-66976132D01*
X133688229Y-66976131D01*
X133629752Y-66964500D01*
X133629748Y-66964500D01*
X131890252Y-66964500D01*
X131890247Y-66964500D01*
X131831770Y-66976131D01*
X131831769Y-66976132D01*
X131765447Y-67020447D01*
X131721132Y-67086769D01*
X131721131Y-67086770D01*
X131709500Y-67145247D01*
X124170666Y-67145247D01*
X124176334Y-67120413D01*
X124178353Y-67111567D01*
X124178353Y-67111566D01*
X124180230Y-67103337D01*
X124220312Y-66927732D01*
X124250500Y-66659809D01*
X124250500Y-66390191D01*
X124220312Y-66122268D01*
X124160316Y-65859409D01*
X124142289Y-65807892D01*
X124133232Y-65782007D01*
X124071267Y-65604921D01*
X124071264Y-65604916D01*
X124071262Y-65604909D01*
X123981851Y-65419244D01*
X123958872Y-65371530D01*
X131709500Y-65371530D01*
X131709500Y-65578469D01*
X131749868Y-65781412D01*
X131749870Y-65781420D01*
X131815939Y-65940925D01*
X131829059Y-65972598D01*
X131879579Y-66048207D01*
X131944024Y-66144657D01*
X132090342Y-66290975D01*
X132090345Y-66290977D01*
X132262402Y-66405941D01*
X132453580Y-66485130D01*
X132640312Y-66522273D01*
X132656530Y-66525499D01*
X132656534Y-66525500D01*
X132656535Y-66525500D01*
X132863466Y-66525500D01*
X132863467Y-66525499D01*
X133066420Y-66485130D01*
X133257598Y-66405941D01*
X133429655Y-66290977D01*
X133575977Y-66144655D01*
X133690941Y-65972598D01*
X133759165Y-65807889D01*
X133803004Y-65753488D01*
X133869298Y-65731423D01*
X133936998Y-65748702D01*
X133984609Y-65799839D01*
X133991656Y-65817026D01*
X134048904Y-65993216D01*
X134145375Y-66182550D01*
X134184728Y-66236716D01*
X134817037Y-65604408D01*
X134834075Y-65667993D01*
X134899901Y-65782007D01*
X134992993Y-65875099D01*
X135107007Y-65940925D01*
X135170590Y-65957962D01*
X134538282Y-66590269D01*
X134538282Y-66590270D01*
X134592449Y-66629624D01*
X134781782Y-66726095D01*
X134957973Y-66783343D01*
X135015648Y-66822780D01*
X135042847Y-66887139D01*
X135030932Y-66955985D01*
X134983688Y-67007461D01*
X134967108Y-67015835D01*
X134802403Y-67084057D01*
X134630342Y-67199024D01*
X134484024Y-67345342D01*
X134369058Y-67517403D01*
X134289870Y-67708579D01*
X134289868Y-67708587D01*
X134249500Y-67911530D01*
X134249500Y-68118469D01*
X134289868Y-68321412D01*
X134289870Y-68321420D01*
X134361967Y-68495478D01*
X134369059Y-68512598D01*
X134425739Y-68597426D01*
X134484024Y-68684657D01*
X134630342Y-68830975D01*
X134630345Y-68830977D01*
X134802402Y-68945941D01*
X134993580Y-69025130D01*
X135138052Y-69053867D01*
X135196530Y-69065499D01*
X135196534Y-69065500D01*
X135196535Y-69065500D01*
X135403466Y-69065500D01*
X135403467Y-69065499D01*
X135606420Y-69025130D01*
X135797598Y-68945941D01*
X135969655Y-68830977D01*
X136115977Y-68684655D01*
X136230941Y-68512598D01*
X136310130Y-68321420D01*
X136350500Y-68118465D01*
X136350500Y-67911535D01*
X136310130Y-67708580D01*
X136230941Y-67517402D01*
X136115977Y-67345345D01*
X136115975Y-67345342D01*
X135969657Y-67199024D01*
X135852006Y-67120413D01*
X135797598Y-67084059D01*
X135797593Y-67084057D01*
X135735891Y-67058499D01*
X135632890Y-67015834D01*
X135578488Y-66971994D01*
X135556423Y-66905700D01*
X135573702Y-66838001D01*
X135624839Y-66790390D01*
X135642026Y-66783343D01*
X135818217Y-66726095D01*
X136007554Y-66629622D01*
X136061716Y-66590270D01*
X136061717Y-66590270D01*
X135429408Y-65957962D01*
X135492993Y-65940925D01*
X135607007Y-65875099D01*
X135700099Y-65782007D01*
X135765925Y-65667993D01*
X135782962Y-65604408D01*
X136415270Y-66236717D01*
X136415270Y-66236716D01*
X136454622Y-66182554D01*
X136459514Y-66172954D01*
X136507488Y-66122157D01*
X136575308Y-66105361D01*
X136641444Y-66127897D01*
X136680486Y-66172954D01*
X136685375Y-66182550D01*
X136724728Y-66236716D01*
X137357037Y-65604408D01*
X137374075Y-65667993D01*
X137439901Y-65782007D01*
X137532993Y-65875099D01*
X137647007Y-65940925D01*
X137710590Y-65957962D01*
X137078282Y-66590269D01*
X137078282Y-66590270D01*
X137132449Y-66629624D01*
X137321782Y-66726095D01*
X137497973Y-66783343D01*
X137555648Y-66822780D01*
X137582847Y-66887139D01*
X137570932Y-66955985D01*
X137523688Y-67007461D01*
X137507108Y-67015835D01*
X137342403Y-67084057D01*
X137170342Y-67199024D01*
X137024024Y-67345342D01*
X136909058Y-67517403D01*
X136829870Y-67708579D01*
X136829868Y-67708587D01*
X136789500Y-67911530D01*
X136789500Y-68118469D01*
X136829868Y-68321412D01*
X136829870Y-68321420D01*
X136901967Y-68495478D01*
X136909059Y-68512598D01*
X136965739Y-68597426D01*
X137024024Y-68684657D01*
X137170342Y-68830975D01*
X137170345Y-68830977D01*
X137342402Y-68945941D01*
X137533580Y-69025130D01*
X137678052Y-69053867D01*
X137736530Y-69065499D01*
X137736534Y-69065500D01*
X137736535Y-69065500D01*
X137943466Y-69065500D01*
X137943467Y-69065499D01*
X138146420Y-69025130D01*
X138337598Y-68945941D01*
X138509655Y-68830977D01*
X138655977Y-68684655D01*
X138770941Y-68512598D01*
X138850130Y-68321420D01*
X138890500Y-68118465D01*
X138890500Y-67911535D01*
X138890499Y-67911530D01*
X139329500Y-67911530D01*
X139329500Y-68118469D01*
X139369868Y-68321412D01*
X139369870Y-68321420D01*
X139441967Y-68495478D01*
X139449059Y-68512598D01*
X139505739Y-68597426D01*
X139564024Y-68684657D01*
X139710342Y-68830975D01*
X139710345Y-68830977D01*
X139882402Y-68945941D01*
X140073580Y-69025130D01*
X140218052Y-69053867D01*
X140276530Y-69065499D01*
X140276534Y-69065500D01*
X140276535Y-69065500D01*
X140483466Y-69065500D01*
X140483467Y-69065499D01*
X140686420Y-69025130D01*
X140877598Y-68945941D01*
X141049655Y-68830977D01*
X141195977Y-68684655D01*
X141310941Y-68512598D01*
X141390130Y-68321420D01*
X141430500Y-68118465D01*
X141430500Y-67911535D01*
X141430499Y-67911530D01*
X141869500Y-67911530D01*
X141869500Y-68118469D01*
X141909868Y-68321412D01*
X141909870Y-68321420D01*
X141981967Y-68495478D01*
X141989059Y-68512598D01*
X142045739Y-68597426D01*
X142104024Y-68684657D01*
X142250342Y-68830975D01*
X142250345Y-68830977D01*
X142422402Y-68945941D01*
X142613580Y-69025130D01*
X142758052Y-69053867D01*
X142816530Y-69065499D01*
X142816534Y-69065500D01*
X142816535Y-69065500D01*
X143023466Y-69065500D01*
X143023467Y-69065499D01*
X143226420Y-69025130D01*
X143417598Y-68945941D01*
X143589655Y-68830977D01*
X143598359Y-68822273D01*
X160949500Y-68822273D01*
X160949500Y-68927727D01*
X160976793Y-69029587D01*
X161029520Y-69120913D01*
X161104087Y-69195480D01*
X161195413Y-69248207D01*
X161297273Y-69275500D01*
X161297275Y-69275500D01*
X161402725Y-69275500D01*
X161402727Y-69275500D01*
X161504587Y-69248207D01*
X161595913Y-69195480D01*
X161670480Y-69120913D01*
X161723207Y-69029587D01*
X161750500Y-68927727D01*
X161750500Y-68822273D01*
X161730554Y-68747833D01*
X161730127Y-68746239D01*
X161725531Y-68729087D01*
X161723705Y-68722273D01*
X171699500Y-68722273D01*
X171699500Y-68827727D01*
X171726793Y-68929587D01*
X171779520Y-69020913D01*
X171854087Y-69095480D01*
X171945413Y-69148207D01*
X172047273Y-69175500D01*
X172047275Y-69175500D01*
X172152725Y-69175500D01*
X172152727Y-69175500D01*
X172254587Y-69148207D01*
X172345913Y-69095480D01*
X172420480Y-69020913D01*
X172473207Y-68929587D01*
X172500500Y-68827727D01*
X172500500Y-68722273D01*
X172473207Y-68620413D01*
X172420480Y-68529087D01*
X172345913Y-68454520D01*
X172254587Y-68401793D01*
X172152727Y-68374500D01*
X172047273Y-68374500D01*
X171945413Y-68401793D01*
X171945410Y-68401794D01*
X171854085Y-68454521D01*
X171779521Y-68529085D01*
X171726794Y-68620410D01*
X171726793Y-68620413D01*
X171699500Y-68722273D01*
X161723705Y-68722273D01*
X161723207Y-68720413D01*
X161670480Y-68629087D01*
X161595913Y-68554520D01*
X161504587Y-68501793D01*
X161402727Y-68474500D01*
X161297273Y-68474500D01*
X161195413Y-68501793D01*
X161195410Y-68501794D01*
X161104085Y-68554521D01*
X161029521Y-68629085D01*
X160976794Y-68720410D01*
X160976794Y-68720411D01*
X160976793Y-68720413D01*
X160949500Y-68822273D01*
X143598359Y-68822273D01*
X143600222Y-68820410D01*
X143694168Y-68726465D01*
X143735974Y-68684658D01*
X143735975Y-68684657D01*
X143735977Y-68684655D01*
X143850941Y-68512598D01*
X143930130Y-68321420D01*
X143970500Y-68118465D01*
X143970500Y-67911535D01*
X143930130Y-67708580D01*
X143924732Y-67695547D01*
X143910670Y-67661598D01*
X143894381Y-67622273D01*
X167799500Y-67622273D01*
X167799500Y-67727727D01*
X167826793Y-67829587D01*
X167879520Y-67920913D01*
X167954087Y-67995480D01*
X168045413Y-68048207D01*
X168147273Y-68075500D01*
X168147275Y-68075500D01*
X168252725Y-68075500D01*
X168252727Y-68075500D01*
X168354587Y-68048207D01*
X168445913Y-67995480D01*
X168520480Y-67920913D01*
X168573207Y-67829587D01*
X168575167Y-67822273D01*
X176499500Y-67822273D01*
X176499500Y-67927727D01*
X176526793Y-68029587D01*
X176579520Y-68120913D01*
X176654087Y-68195480D01*
X176745413Y-68248207D01*
X176847273Y-68275500D01*
X176847275Y-68275500D01*
X176952725Y-68275500D01*
X176952727Y-68275500D01*
X177054587Y-68248207D01*
X177145913Y-68195480D01*
X177220480Y-68120913D01*
X177273207Y-68029587D01*
X177300500Y-67927727D01*
X177300500Y-67822273D01*
X177273207Y-67720413D01*
X177220480Y-67629087D01*
X177145913Y-67554520D01*
X177054587Y-67501793D01*
X176952727Y-67474500D01*
X176847273Y-67474500D01*
X176745413Y-67501793D01*
X176745410Y-67501794D01*
X176654085Y-67554521D01*
X176579521Y-67629085D01*
X176526794Y-67720410D01*
X176526793Y-67720413D01*
X176499500Y-67822273D01*
X168575167Y-67822273D01*
X168600500Y-67727727D01*
X168600500Y-67622273D01*
X168573207Y-67520413D01*
X168520480Y-67429087D01*
X168445913Y-67354520D01*
X168354587Y-67301793D01*
X168252727Y-67274500D01*
X168147273Y-67274500D01*
X168045413Y-67301793D01*
X168045410Y-67301794D01*
X167954085Y-67354521D01*
X167879521Y-67429085D01*
X167826794Y-67520410D01*
X167826793Y-67520413D01*
X167799500Y-67622273D01*
X143894381Y-67622273D01*
X143850942Y-67517403D01*
X143735975Y-67345342D01*
X143589657Y-67199024D01*
X143472006Y-67120413D01*
X143417598Y-67084059D01*
X143417593Y-67084057D01*
X143226420Y-67004870D01*
X143226412Y-67004868D01*
X143023469Y-66964500D01*
X143023465Y-66964500D01*
X142816535Y-66964500D01*
X142816530Y-66964500D01*
X142613587Y-67004868D01*
X142613579Y-67004870D01*
X142422403Y-67084058D01*
X142250342Y-67199024D01*
X142104024Y-67345342D01*
X141989058Y-67517403D01*
X141909870Y-67708579D01*
X141909868Y-67708587D01*
X141869500Y-67911530D01*
X141430499Y-67911530D01*
X141390130Y-67708580D01*
X141310941Y-67517402D01*
X141195977Y-67345345D01*
X141195975Y-67345342D01*
X141049657Y-67199024D01*
X140932006Y-67120413D01*
X140877598Y-67084059D01*
X140877593Y-67084057D01*
X140686420Y-67004870D01*
X140686412Y-67004868D01*
X140483469Y-66964500D01*
X140483465Y-66964500D01*
X140276535Y-66964500D01*
X140276530Y-66964500D01*
X140073587Y-67004868D01*
X140073579Y-67004870D01*
X139882403Y-67084058D01*
X139710342Y-67199024D01*
X139564024Y-67345342D01*
X139449058Y-67517403D01*
X139369870Y-67708579D01*
X139369868Y-67708587D01*
X139329500Y-67911530D01*
X138890499Y-67911530D01*
X138850130Y-67708580D01*
X138770941Y-67517402D01*
X138655977Y-67345345D01*
X138655975Y-67345342D01*
X138509657Y-67199024D01*
X138392006Y-67120413D01*
X138337598Y-67084059D01*
X138337593Y-67084057D01*
X138275891Y-67058499D01*
X138172890Y-67015834D01*
X138118488Y-66971994D01*
X138096423Y-66905700D01*
X138113702Y-66838001D01*
X138164839Y-66790390D01*
X138182026Y-66783343D01*
X138358217Y-66726095D01*
X138547554Y-66629622D01*
X138601716Y-66590270D01*
X138601717Y-66590270D01*
X137969408Y-65957962D01*
X138032993Y-65940925D01*
X138147007Y-65875099D01*
X138240099Y-65782007D01*
X138305925Y-65667993D01*
X138322962Y-65604408D01*
X138955270Y-66236717D01*
X138955270Y-66236716D01*
X138994622Y-66182554D01*
X139091095Y-65993217D01*
X139148343Y-65817026D01*
X139187780Y-65759351D01*
X139252139Y-65732152D01*
X139320985Y-65744066D01*
X139372461Y-65791310D01*
X139380833Y-65807887D01*
X139402169Y-65859397D01*
X139435939Y-65940925D01*
X139449059Y-65972598D01*
X139499579Y-66048207D01*
X139564024Y-66144657D01*
X139710342Y-66290975D01*
X139710345Y-66290977D01*
X139882402Y-66405941D01*
X140073580Y-66485130D01*
X140260312Y-66522273D01*
X140276530Y-66525499D01*
X140276534Y-66525500D01*
X140276535Y-66525500D01*
X140483466Y-66525500D01*
X140483467Y-66525499D01*
X140686420Y-66485130D01*
X140877598Y-66405941D01*
X141049655Y-66290977D01*
X141195977Y-66144655D01*
X141310941Y-65972598D01*
X141390130Y-65781420D01*
X141430500Y-65578465D01*
X141430500Y-65371535D01*
X141430499Y-65371530D01*
X141869500Y-65371530D01*
X141869500Y-65578469D01*
X141909868Y-65781412D01*
X141909870Y-65781420D01*
X141975939Y-65940925D01*
X141989059Y-65972598D01*
X142039579Y-66048207D01*
X142104024Y-66144657D01*
X142250342Y-66290975D01*
X142250345Y-66290977D01*
X142422402Y-66405941D01*
X142613580Y-66485130D01*
X142800312Y-66522273D01*
X142816530Y-66525499D01*
X142816534Y-66525500D01*
X142816535Y-66525500D01*
X143023466Y-66525500D01*
X143023467Y-66525499D01*
X143039686Y-66522273D01*
X176449500Y-66522273D01*
X176449500Y-66627727D01*
X176476793Y-66729587D01*
X176529520Y-66820913D01*
X176604087Y-66895480D01*
X176695413Y-66948207D01*
X176797273Y-66975500D01*
X176797275Y-66975500D01*
X176902725Y-66975500D01*
X176902727Y-66975500D01*
X177004587Y-66948207D01*
X177095913Y-66895480D01*
X177170480Y-66820913D01*
X177223207Y-66729587D01*
X177250500Y-66627727D01*
X177250500Y-66522273D01*
X177223207Y-66420413D01*
X177170480Y-66329087D01*
X177095913Y-66254520D01*
X177004587Y-66201793D01*
X176902727Y-66174500D01*
X176797273Y-66174500D01*
X176695413Y-66201793D01*
X176695410Y-66201794D01*
X176604085Y-66254521D01*
X176529521Y-66329085D01*
X176476794Y-66420410D01*
X176476793Y-66420413D01*
X176449500Y-66522273D01*
X143039686Y-66522273D01*
X143226420Y-66485130D01*
X143417598Y-66405941D01*
X143589655Y-66290977D01*
X143735977Y-66144655D01*
X143850941Y-65972598D01*
X143930130Y-65781420D01*
X143970500Y-65578465D01*
X143970500Y-65371535D01*
X143930130Y-65168580D01*
X143872557Y-65029587D01*
X143869527Y-65022273D01*
X169399500Y-65022273D01*
X169399500Y-65127727D01*
X169426793Y-65229587D01*
X169479520Y-65320913D01*
X169554087Y-65395480D01*
X169645413Y-65448207D01*
X169747273Y-65475500D01*
X169747275Y-65475500D01*
X169852725Y-65475500D01*
X169852727Y-65475500D01*
X169954587Y-65448207D01*
X170045913Y-65395480D01*
X170120480Y-65320913D01*
X170173207Y-65229587D01*
X170200500Y-65127727D01*
X170200500Y-65022273D01*
X170173207Y-64920413D01*
X170120480Y-64829087D01*
X170045913Y-64754520D01*
X169954587Y-64701793D01*
X169852727Y-64674500D01*
X169747273Y-64674500D01*
X169645413Y-64701793D01*
X169645410Y-64701794D01*
X169554085Y-64754521D01*
X169479521Y-64829085D01*
X169426794Y-64920410D01*
X169426793Y-64920413D01*
X169399500Y-65022273D01*
X143869527Y-65022273D01*
X143850942Y-64977403D01*
X143735975Y-64805342D01*
X143589657Y-64659024D01*
X143435150Y-64555787D01*
X143417598Y-64544059D01*
X143315559Y-64501793D01*
X143226420Y-64464870D01*
X143226412Y-64464868D01*
X143023469Y-64424500D01*
X143023465Y-64424500D01*
X142816535Y-64424500D01*
X142816530Y-64424500D01*
X142613587Y-64464868D01*
X142613579Y-64464870D01*
X142422403Y-64544058D01*
X142250342Y-64659024D01*
X142104024Y-64805342D01*
X141989058Y-64977403D01*
X141909870Y-65168579D01*
X141909868Y-65168587D01*
X141869500Y-65371530D01*
X141430499Y-65371530D01*
X141390130Y-65168580D01*
X141310941Y-64977402D01*
X141195977Y-64805345D01*
X141195975Y-64805342D01*
X141049657Y-64659024D01*
X140895150Y-64555787D01*
X140877598Y-64544059D01*
X140775559Y-64501793D01*
X140686420Y-64464870D01*
X140686412Y-64464868D01*
X140483469Y-64424500D01*
X140483465Y-64424500D01*
X140276535Y-64424500D01*
X140276530Y-64424500D01*
X140073587Y-64464868D01*
X140073579Y-64464870D01*
X139882403Y-64544058D01*
X139710342Y-64659024D01*
X139564024Y-64805342D01*
X139449057Y-64977403D01*
X139380835Y-65142108D01*
X139336994Y-65196511D01*
X139270700Y-65218576D01*
X139203000Y-65201297D01*
X139155390Y-65150159D01*
X139148343Y-65132973D01*
X139091095Y-64956782D01*
X138994624Y-64767449D01*
X138955270Y-64713282D01*
X138955269Y-64713282D01*
X138322962Y-65345590D01*
X138305925Y-65282007D01*
X138240099Y-65167993D01*
X138147007Y-65074901D01*
X138032993Y-65009075D01*
X137969409Y-64992037D01*
X138601716Y-64359728D01*
X138547550Y-64320375D01*
X138358217Y-64223904D01*
X138156129Y-64158242D01*
X137946246Y-64125000D01*
X137733754Y-64125000D01*
X137523872Y-64158242D01*
X137523869Y-64158242D01*
X137321782Y-64223904D01*
X137132439Y-64320380D01*
X137078282Y-64359727D01*
X137078282Y-64359728D01*
X137710591Y-64992037D01*
X137647007Y-65009075D01*
X137532993Y-65074901D01*
X137439901Y-65167993D01*
X137374075Y-65282007D01*
X137357037Y-65345591D01*
X136724728Y-64713282D01*
X136724727Y-64713282D01*
X136685380Y-64767440D01*
X136680483Y-64777051D01*
X136632506Y-64827845D01*
X136564684Y-64844638D01*
X136498550Y-64822098D01*
X136459516Y-64777048D01*
X136454626Y-64767452D01*
X136415270Y-64713282D01*
X136415269Y-64713282D01*
X135782962Y-65345590D01*
X135765925Y-65282007D01*
X135700099Y-65167993D01*
X135607007Y-65074901D01*
X135492993Y-65009075D01*
X135429409Y-64992037D01*
X136061716Y-64359728D01*
X136007550Y-64320375D01*
X135818217Y-64223904D01*
X135616129Y-64158242D01*
X135406246Y-64125000D01*
X135193754Y-64125000D01*
X134983872Y-64158242D01*
X134983869Y-64158242D01*
X134781782Y-64223904D01*
X134592439Y-64320380D01*
X134538282Y-64359727D01*
X134538282Y-64359728D01*
X135170591Y-64992037D01*
X135107007Y-65009075D01*
X134992993Y-65074901D01*
X134899901Y-65167993D01*
X134834075Y-65282007D01*
X134817037Y-65345591D01*
X134184728Y-64713282D01*
X134184727Y-64713282D01*
X134145380Y-64767439D01*
X134048905Y-64956781D01*
X133991656Y-65132974D01*
X133952218Y-65190649D01*
X133887859Y-65217847D01*
X133819013Y-65205932D01*
X133767537Y-65158688D01*
X133759164Y-65142107D01*
X133755686Y-65133711D01*
X133712557Y-65029587D01*
X133690943Y-64977405D01*
X133575975Y-64805342D01*
X133429657Y-64659024D01*
X133275150Y-64555787D01*
X133257598Y-64544059D01*
X133066420Y-64464870D01*
X133066412Y-64464868D01*
X132863469Y-64424500D01*
X132863465Y-64424500D01*
X132656535Y-64424500D01*
X132656530Y-64424500D01*
X132453587Y-64464868D01*
X132453579Y-64464870D01*
X132262403Y-64544058D01*
X132090342Y-64659024D01*
X131944024Y-64805342D01*
X131829058Y-64977403D01*
X131749870Y-65168579D01*
X131749868Y-65168587D01*
X131709500Y-65371530D01*
X123958872Y-65371530D01*
X123954285Y-65362005D01*
X123949582Y-65354520D01*
X123810838Y-65133711D01*
X123642734Y-64922915D01*
X123452085Y-64732266D01*
X123241289Y-64564162D01*
X123012997Y-64420716D01*
X123012994Y-64420714D01*
X122770082Y-64303734D01*
X122515602Y-64214687D01*
X122515594Y-64214684D01*
X122318446Y-64169687D01*
X122252732Y-64154688D01*
X122252728Y-64154687D01*
X122252719Y-64154686D01*
X121984813Y-64124500D01*
X121984809Y-64124500D01*
X121715191Y-64124500D01*
X121715186Y-64124500D01*
X121447280Y-64154686D01*
X121447268Y-64154688D01*
X121184405Y-64214684D01*
X121184397Y-64214687D01*
X120929917Y-64303734D01*
X120687005Y-64420714D01*
X120458712Y-64564161D01*
X120247915Y-64732265D01*
X120057265Y-64922915D01*
X119889161Y-65133712D01*
X119745714Y-65362005D01*
X119628734Y-65604917D01*
X119539687Y-65859397D01*
X119539684Y-65859405D01*
X119479688Y-66122268D01*
X119479686Y-66122280D01*
X119449500Y-66390186D01*
X116356076Y-66390186D01*
X116369072Y-66075961D01*
X116369915Y-66065792D01*
X116424874Y-65624881D01*
X116426554Y-65614809D01*
X116517734Y-65179950D01*
X116520241Y-65170054D01*
X116647021Y-64744205D01*
X116650336Y-64734553D01*
X116811842Y-64320646D01*
X116815958Y-64311265D01*
X116863174Y-64214684D01*
X117011080Y-63912137D01*
X117015953Y-63903131D01*
X117092005Y-63775500D01*
X117243389Y-63521444D01*
X117248982Y-63512884D01*
X117385075Y-63322273D01*
X165299500Y-63322273D01*
X165299500Y-63427727D01*
X165326793Y-63529587D01*
X165379520Y-63620913D01*
X165454087Y-63695480D01*
X165545413Y-63748207D01*
X165647273Y-63775500D01*
X165647275Y-63775500D01*
X165752725Y-63775500D01*
X165752727Y-63775500D01*
X165854587Y-63748207D01*
X165945913Y-63695480D01*
X166020480Y-63620913D01*
X166073207Y-63529587D01*
X166100500Y-63427727D01*
X166100500Y-63322273D01*
X166073207Y-63220413D01*
X166020480Y-63129087D01*
X165945913Y-63054520D01*
X165854587Y-63001793D01*
X165752727Y-62974500D01*
X165647273Y-62974500D01*
X165545413Y-63001793D01*
X165545410Y-63001794D01*
X165454085Y-63054521D01*
X165379521Y-63129085D01*
X165326794Y-63220410D01*
X165326793Y-63220413D01*
X165299500Y-63322273D01*
X117385075Y-63322273D01*
X117507152Y-63151294D01*
X117513420Y-63143240D01*
X117785266Y-62822273D01*
X184399500Y-62822273D01*
X184399500Y-62927727D01*
X184426793Y-63029587D01*
X184479520Y-63120913D01*
X184554087Y-63195480D01*
X184645413Y-63248207D01*
X184747273Y-63275500D01*
X184747275Y-63275500D01*
X184852725Y-63275500D01*
X184852727Y-63275500D01*
X184954587Y-63248207D01*
X185045913Y-63195480D01*
X185120480Y-63120913D01*
X185173207Y-63029587D01*
X185200500Y-62927727D01*
X185200500Y-62822273D01*
X185173207Y-62720413D01*
X185120480Y-62629087D01*
X185045913Y-62554520D01*
X184954587Y-62501793D01*
X184852727Y-62474500D01*
X184747273Y-62474500D01*
X184645413Y-62501793D01*
X184645410Y-62501794D01*
X184554085Y-62554521D01*
X184479521Y-62629085D01*
X184426794Y-62720410D01*
X184426793Y-62720413D01*
X184399500Y-62822273D01*
X117785266Y-62822273D01*
X117800581Y-62804191D01*
X117807500Y-62796675D01*
X118121675Y-62482500D01*
X118129191Y-62475581D01*
X118468240Y-62188420D01*
X118476294Y-62182152D01*
X118837884Y-61923982D01*
X118846444Y-61918389D01*
X119228139Y-61690948D01*
X119237137Y-61686080D01*
X119636268Y-61490956D01*
X119645650Y-61486841D01*
X120059553Y-61325336D01*
X120069205Y-61322021D01*
X120495054Y-61195241D01*
X120504950Y-61192734D01*
X120939809Y-61101554D01*
X120949881Y-61099874D01*
X121390792Y-61044915D01*
X121400961Y-61044072D01*
X121847437Y-61025605D01*
X121852561Y-61025500D01*
X121915892Y-61025500D01*
X186477649Y-61025500D01*
X186544688Y-61045185D01*
G37*
%TD.AperFunction*%
%TD*%
M02*
