%TF.GenerationSoftware,KiCad,Pcbnew,10.0.6*%
%TF.CreationDate,2026-10-03T10:19:07-05:00*%
%TF.ProjectId,telemetry_GPS_transmitter,74656c65-6d65-4747-9279-5f4750535f74,rev?*%
%TF.SameCoordinates,Original*%
%TF.FileFunction,Soldermask,Bot*%
%TF.FilePolarity,Negative*%
%FSLAX46Y46*%
G04 Gerber Fmt 4.6, Leading zero omitted, Abs format (unit mm)*
G04 Created by KiCad (PCBNEW 10.0.6) date 2026-10-03 10:19:07*
%MOMM*%
%LPD*%
G01*
G04 APERTURE LIST*
G04 Aperture macros list*
%AMRoundRect*
0 Rectangle with rounded corners*
0 $1 Rounding radius*
0 $2 $3 $4 $5 $6 $7 $8 $9 X,Y pos of 4 corners*
0 Add a 4 corners polygon primitive as box body*
4,1,4,$2,$3,$4,$5,$6,$7,$8,$9,$2,$3,0*
0 Add four circle primitives for the rounded corners*
1,1,$1+$1,$2,$3*
1,1,$1+$1,$4,$5*
1,1,$1+$1,$6,$7*
1,1,$1+$1,$8,$9*
0 Add four rect primitives between the rounded corners*
20,1,$1+$1,$2,$3,$4,$5,0*
20,1,$1+$1,$4,$5,$6,$7,0*
20,1,$1+$1,$6,$7,$8,$9,0*
20,1,$1+$1,$8,$9,$2,$3,0*%
G04 Aperture macros list end*
%ADD10R,1.700000X1.700000*%
%ADD11C,1.700000*%
%ADD12RoundRect,0.250000X0.425000X1.600000X-0.425000X1.600000X-0.425000X-1.600000X0.425000X-1.600000X0*%
%ADD13C,4.300000*%
%ADD14C,2.800000*%
%ADD15C,3.200000*%
%ADD16R,1.303000X1.303000*%
%ADD17C,1.303000*%
%ADD18RoundRect,0.237500X0.300000X0.237500X-0.300000X0.237500X-0.300000X-0.237500X0.300000X-0.237500X0*%
%ADD19RoundRect,0.237500X-0.300000X-0.237500X0.300000X-0.237500X0.300000X0.237500X-0.300000X0.237500X0*%
%ADD20RoundRect,0.237500X-0.287500X-0.237500X0.287500X-0.237500X0.287500X0.237500X-0.287500X0.237500X0*%
%ADD21RoundRect,0.237500X-0.237500X0.300000X-0.237500X-0.300000X0.237500X-0.300000X0.237500X0.300000X0*%
%ADD22RoundRect,0.237500X0.250000X0.237500X-0.250000X0.237500X-0.250000X-0.237500X0.250000X-0.237500X0*%
%ADD23RoundRect,0.237500X-0.250000X-0.237500X0.250000X-0.237500X0.250000X0.237500X-0.250000X0.237500X0*%
G04 APERTURE END LIST*
D10*
%TO.C,J3*%
X122500000Y-76800000D03*
D11*
X122500000Y-79340000D03*
X122500000Y-81880000D03*
%TD*%
D12*
%TO.C,J4*%
X180675000Y-63600000D03*
X186325000Y-63600000D03*
%TD*%
D13*
%TO.C,H4*%
X117750000Y-67250000D03*
%TD*%
%TO.C,H2*%
X117700000Y-111750000D03*
%TD*%
%TO.C,H1*%
X203000000Y-111725000D03*
%TD*%
D14*
%TO.C,TP1*%
X139900000Y-75725000D03*
%TD*%
D15*
%TO.C,J5*%
X127930000Y-110450000D03*
X139360000Y-110450000D03*
D16*
X129200000Y-104100000D03*
D17*
X130470000Y-101560000D03*
X131740000Y-104100000D03*
X133010000Y-101560000D03*
X134280000Y-104100000D03*
X135550000Y-101560000D03*
X136820000Y-104100000D03*
X138090000Y-101560000D03*
%TD*%
D10*
%TO.C,J2*%
X155200000Y-99300000D03*
D11*
X152660000Y-99300000D03*
X150120000Y-99300000D03*
%TD*%
D10*
%TO.C,J1*%
X128660000Y-68740000D03*
D11*
X128660000Y-66200000D03*
X131200000Y-68740000D03*
X131200000Y-66200000D03*
X133740000Y-68740000D03*
X133740000Y-66200000D03*
X136280000Y-68740000D03*
X136280000Y-66200000D03*
X138820000Y-68740000D03*
X138820000Y-66200000D03*
%TD*%
D13*
%TO.C,H3*%
X203750000Y-67250000D03*
%TD*%
D18*
%TO.C,C9*%
X153000000Y-75400000D03*
X151275000Y-75400000D03*
%TD*%
D19*
%TO.C,C3*%
X166275000Y-69500000D03*
X168000000Y-69500000D03*
%TD*%
D18*
%TO.C,C5*%
X157250000Y-69500000D03*
X155525000Y-69500000D03*
%TD*%
D20*
%TO.C,D4*%
X136675000Y-82300000D03*
X138425000Y-82300000D03*
%TD*%
D21*
%TO.C,C10*%
X162750000Y-84387500D03*
X162750000Y-86112500D03*
%TD*%
D18*
%TO.C,C11*%
X153000000Y-77000000D03*
X151275000Y-77000000D03*
%TD*%
%TO.C,C4*%
X170400000Y-85800000D03*
X168675000Y-85800000D03*
%TD*%
D19*
%TO.C,C21*%
X141275000Y-80600000D03*
X143000000Y-80600000D03*
%TD*%
D18*
%TO.C,C8*%
X152362500Y-78500000D03*
X150637500Y-78500000D03*
%TD*%
%TO.C,C7*%
X153962500Y-80500000D03*
X152237500Y-80500000D03*
%TD*%
D22*
%TO.C,R14*%
X138450000Y-80550000D03*
X136625000Y-80550000D03*
%TD*%
D23*
%TO.C,R13*%
X141200000Y-82350000D03*
X143025000Y-82350000D03*
%TD*%
D18*
%TO.C,C14*%
X132100000Y-74100000D03*
X130375000Y-74100000D03*
%TD*%
%TO.C,C12*%
X151275000Y-73800000D03*
X153000000Y-73800000D03*
%TD*%
M02*
