%TF.GenerationSoftware,KiCad,Pcbnew,10.0.6*%
%TF.CreationDate,2026-10-06T22:15:40-05:00*%
%TF.ProjectId,telemetry_GPS_transmitter,74656c65-6d65-4747-9279-5f4750535f74,rev?*%
%TF.SameCoordinates,Original*%
%TF.FileFunction,Soldermask,Bot*%
%TF.FilePolarity,Negative*%
%FSLAX46Y46*%
G04 Gerber Fmt 4.6, Leading zero omitted, Abs format (unit mm)*
G04 Created by KiCad (PCBNEW 10.0.6) date 2026-10-06 22:15:40*
%MOMM*%
%LPD*%
G01*
G04 APERTURE LIST*
G04 Aperture macros list*
%AMRoundRect*
0 Rectangle with rounded corners*
0 $1 Rounding radius*
0 $2 $3 $4 $5 $6 $7 $8 $9 X,Y pos of 4 corners*
0 Add a 4 corners polygon primitive as box body*
4,1,4,$2,$3,$4,$5,$6,$7,$8,$9,$2,$3,0*
0 Add four circle primitives for the rounded corners*
1,1,$1+$1,$2,$3*
1,1,$1+$1,$4,$5*
1,1,$1+$1,$6,$7*
1,1,$1+$1,$8,$9*
0 Add four rect primitives between the rounded corners*
20,1,$1+$1,$2,$3,$4,$5,0*
20,1,$1+$1,$4,$5,$6,$7,0*
20,1,$1+$1,$6,$7,$8,$9,0*
20,1,$1+$1,$8,$9,$2,$3,0*%
G04 Aperture macros list end*
%ADD10C,4.450000*%
%ADD11RoundRect,0.075000X-0.850000X-0.850000X0.850000X-0.850000X0.850000X0.850000X-0.850000X0.850000X0*%
%ADD12C,1.850000*%
%ADD13RoundRect,0.325000X0.425000X1.600000X-0.425000X1.600000X-0.425000X-1.600000X0.425000X-1.600000X0*%
%ADD14C,2.950000*%
%ADD15C,3.350000*%
%ADD16RoundRect,0.075000X-0.651500X-0.651500X0.651500X-0.651500X0.651500X0.651500X-0.651500X0.651500X0*%
%ADD17C,1.453000*%
%ADD18RoundRect,0.075000X0.850000X-0.850000X0.850000X0.850000X-0.850000X0.850000X-0.850000X-0.850000X0*%
%ADD19RoundRect,0.300000X0.225000X0.250000X-0.225000X0.250000X-0.225000X-0.250000X0.225000X-0.250000X0*%
%ADD20RoundRect,0.300000X-0.225000X-0.250000X0.225000X-0.250000X0.225000X0.250000X-0.225000X0.250000X0*%
%ADD21RoundRect,0.075000X-0.410000X0.210000X-0.410000X-0.210000X0.410000X-0.210000X0.410000X0.210000X0*%
%ADD22RoundRect,0.300000X-0.250000X0.225000X-0.250000X-0.225000X0.250000X-0.225000X0.250000X0.225000X0*%
%ADD23RoundRect,0.312500X-0.300000X-0.237500X0.300000X-0.237500X0.300000X0.237500X-0.300000X0.237500X0*%
%ADD24RoundRect,0.275000X0.200000X0.275000X-0.200000X0.275000X-0.200000X-0.275000X0.200000X-0.275000X0*%
%ADD25RoundRect,0.275000X-0.200000X-0.275000X0.200000X-0.275000X0.200000X0.275000X-0.200000X0.275000X0*%
G04 APERTURE END LIST*
D10*
%TO.C,H2*%
X121850000Y-111650000D03*
%TD*%
D11*
%TO.C,J3*%
X126600000Y-76075000D03*
D12*
X126600000Y-78615000D03*
X126600000Y-81155000D03*
%TD*%
D13*
%TO.C,J4*%
X184775000Y-62875000D03*
X190425000Y-62875000D03*
%TD*%
D10*
%TO.C,H4*%
X121850000Y-66525000D03*
%TD*%
%TO.C,H1*%
X207850000Y-111625000D03*
%TD*%
D14*
%TO.C,TP1*%
X144000000Y-75000000D03*
%TD*%
D15*
%TO.C,J5*%
X132030000Y-109725000D03*
X143460000Y-109725000D03*
D16*
X133300000Y-103375000D03*
D17*
X134570000Y-100835000D03*
X135840000Y-103375000D03*
X137110000Y-100835000D03*
X138380000Y-103375000D03*
X139650000Y-100835000D03*
X140920000Y-103375000D03*
X142190000Y-100835000D03*
%TD*%
D11*
%TO.C,J2*%
X126600000Y-85675000D03*
D12*
X126600000Y-88215000D03*
X126600000Y-90755000D03*
%TD*%
D18*
%TO.C,J1*%
X132760000Y-68015000D03*
D12*
X132760000Y-65475000D03*
X135300000Y-68015000D03*
X135300000Y-65475000D03*
X137840000Y-68015000D03*
X137840000Y-65475000D03*
X140380000Y-68015000D03*
X140380000Y-65475000D03*
X142920000Y-68015000D03*
X142920000Y-65475000D03*
%TD*%
D10*
%TO.C,H3*%
X207850000Y-66525000D03*
%TD*%
D19*
%TO.C,C9*%
X157012500Y-74675000D03*
X155462500Y-74675000D03*
%TD*%
D20*
%TO.C,C3*%
X170462500Y-68775000D03*
X172012500Y-68775000D03*
%TD*%
D19*
%TO.C,C5*%
X162900000Y-68875000D03*
X161350000Y-68875000D03*
%TD*%
D21*
%TO.C,D4*%
X140500000Y-81575000D03*
X142800000Y-81575000D03*
%TD*%
D22*
%TO.C,C10*%
X166850000Y-83750000D03*
X166850000Y-85300000D03*
%TD*%
D19*
%TO.C,C11*%
X157012500Y-76275000D03*
X155462500Y-76275000D03*
%TD*%
%TO.C,C4*%
X174412500Y-85075000D03*
X172862500Y-85075000D03*
%TD*%
D23*
%TO.C,C21*%
X145375000Y-79875000D03*
X147100000Y-79875000D03*
%TD*%
D19*
%TO.C,C8*%
X156375000Y-77775000D03*
X154825000Y-77775000D03*
%TD*%
%TO.C,C7*%
X157975000Y-79775000D03*
X156425000Y-79775000D03*
%TD*%
D24*
%TO.C,R14*%
X142462500Y-79825000D03*
X140812500Y-79825000D03*
%TD*%
D25*
%TO.C,R13*%
X145387500Y-81625000D03*
X147037500Y-81625000D03*
%TD*%
D19*
%TO.C,C14*%
X136112500Y-73375000D03*
X134562500Y-73375000D03*
%TD*%
%TO.C,C12*%
X157012500Y-73075000D03*
X155462500Y-73075000D03*
%TD*%
M02*
