%TF.GenerationSoftware,KiCad,Pcbnew,10.0.6*%
%TF.CreationDate,2026-10-06T22:15:40-05:00*%
%TF.ProjectId,telemetry_GPS_transmitter,74656c65-6d65-4747-9279-5f4750535f74,rev?*%
%TF.SameCoordinates,Original*%
%TF.FileFunction,Copper,L4,Bot*%
%TF.FilePolarity,Positive*%
%FSLAX46Y46*%
G04 Gerber Fmt 4.6, Leading zero omitted, Abs format (unit mm)*
G04 Created by KiCad (PCBNEW 10.0.6) date 2026-10-06 22:15:40*
%MOMM*%
%LPD*%
G01*
G04 APERTURE LIST*
G04 Aperture macros list*
%AMRoundRect*
0 Rectangle with rounded corners*
0 $1 Rounding radius*
0 $2 $3 $4 $5 $6 $7 $8 $9 X,Y pos of 4 corners*
0 Add a 4 corners polygon primitive as box body*
4,1,4,$2,$3,$4,$5,$6,$7,$8,$9,$2,$3,0*
0 Add four circle primitives for the rounded corners*
1,1,$1+$1,$2,$3*
1,1,$1+$1,$4,$5*
1,1,$1+$1,$6,$7*
1,1,$1+$1,$8,$9*
0 Add four rect primitives between the rounded corners*
20,1,$1+$1,$2,$3,$4,$5,0*
20,1,$1+$1,$4,$5,$6,$7,0*
20,1,$1+$1,$6,$7,$8,$9,0*
20,1,$1+$1,$8,$9,$2,$3,0*%
G04 Aperture macros list end*
%TA.AperFunction,ComponentPad*%
%ADD10R,1.700000X1.700000*%
%TD*%
%TA.AperFunction,ComponentPad*%
%ADD11C,1.700000*%
%TD*%
%TA.AperFunction,SMDPad,CuDef*%
%ADD12RoundRect,0.250000X0.425000X1.600000X-0.425000X1.600000X-0.425000X-1.600000X0.425000X-1.600000X0*%
%TD*%
%TA.AperFunction,ComponentPad*%
%ADD13C,2.800000*%
%TD*%
%TA.AperFunction,ComponentPad*%
%ADD14R,1.303000X1.303000*%
%TD*%
%TA.AperFunction,ComponentPad*%
%ADD15C,1.303000*%
%TD*%
%TA.AperFunction,SMDPad,CuDef*%
%ADD16RoundRect,0.225000X0.225000X0.250000X-0.225000X0.250000X-0.225000X-0.250000X0.225000X-0.250000X0*%
%TD*%
%TA.AperFunction,SMDPad,CuDef*%
%ADD17RoundRect,0.225000X-0.225000X-0.250000X0.225000X-0.250000X0.225000X0.250000X-0.225000X0.250000X0*%
%TD*%
%TA.AperFunction,SMDPad,CuDef*%
%ADD18R,0.820000X0.420000*%
%TD*%
%TA.AperFunction,SMDPad,CuDef*%
%ADD19RoundRect,0.225000X-0.250000X0.225000X-0.250000X-0.225000X0.250000X-0.225000X0.250000X0.225000X0*%
%TD*%
%TA.AperFunction,SMDPad,CuDef*%
%ADD20RoundRect,0.237500X-0.300000X-0.237500X0.300000X-0.237500X0.300000X0.237500X-0.300000X0.237500X0*%
%TD*%
%TA.AperFunction,SMDPad,CuDef*%
%ADD21RoundRect,0.200000X0.200000X0.275000X-0.200000X0.275000X-0.200000X-0.275000X0.200000X-0.275000X0*%
%TD*%
%TA.AperFunction,SMDPad,CuDef*%
%ADD22RoundRect,0.200000X-0.200000X-0.275000X0.200000X-0.275000X0.200000X0.275000X-0.200000X0.275000X0*%
%TD*%
%TA.AperFunction,ViaPad*%
%ADD23C,0.600000*%
%TD*%
%TA.AperFunction,Conductor*%
%ADD24C,0.200000*%
%TD*%
G04 APERTURE END LIST*
D10*
%TO.P,J3,1,Pin_1_1*%
%TO.N,/Debug/I2C_SCL*%
X126600000Y-76075000D03*
D11*
%TO.P,J3,2,Pin_2_2*%
%TO.N,/Debug/I2C_SDA*%
X126600000Y-78615000D03*
%TO.P,J3,3,Pin_3_3*%
%TO.N,GND*%
X126600000Y-81155000D03*
%TD*%
D12*
%TO.P,J4,2,Ext_2*%
%TO.N,GND*%
X184775000Y-62875000D03*
X190425000Y-62875000D03*
%TD*%
D13*
%TO.P,TP1,1,1_1*%
%TO.N,+1V5*%
X144000000Y-75000000D03*
%TD*%
D14*
%TO.P,J5,1,1_1*%
%TO.N,/CAN/CANH*%
X133300000Y-103375000D03*
D15*
%TO.P,J5,2,2_2*%
%TO.N,/CAN/CANL*%
X134570000Y-100835000D03*
%TO.P,J5,3,3_3*%
%TO.N,+5V*%
X135840000Y-103375000D03*
%TO.P,J5,4,4_4*%
%TO.N,GND*%
X137110000Y-100835000D03*
%TO.P,J5,5,5_5*%
%TO.N,+5V*%
X138380000Y-103375000D03*
%TO.P,J5,6,6_6*%
%TO.N,GND*%
X139650000Y-100835000D03*
%TO.P,J5,7,7_7*%
%TO.N,/CAN/5VCAN*%
X140920000Y-103375000D03*
%TO.P,J5,8,8_8*%
%TO.N,/CAN/GNDCAN*%
X142190000Y-100835000D03*
%TD*%
D10*
%TO.P,J2,1,Pin_1_1*%
%TO.N,/Debug/MCU_UART_TX*%
X126600000Y-85675000D03*
D11*
%TO.P,J2,2,Pin_2_2*%
%TO.N,/Debug/MCU_UART_RX*%
X126600000Y-88215000D03*
%TO.P,J2,3,Pin_3_3*%
%TO.N,GND*%
X126600000Y-90755000D03*
%TD*%
D10*
%TO.P,J1,1,Pin_1_1*%
%TO.N,+5V*%
X132760000Y-68015000D03*
D11*
%TO.P,J1,2,Pin_2_2*%
X132760000Y-65475000D03*
%TO.P,J1,3,Pin_3_3*%
%TO.N,/Debug/SWCLK*%
X135300000Y-68015000D03*
%TO.P,J1,4,Pin_4_4*%
%TO.N,+3V3*%
X135300000Y-65475000D03*
%TO.P,J1,5,Pin_5_5*%
%TO.N,/Debug/SWO*%
X137840000Y-68015000D03*
%TO.P,J1,6,Pin_6_6*%
%TO.N,+3V3*%
X137840000Y-65475000D03*
%TO.P,J1,7,Pin_7_7*%
%TO.N,/Debug/SWDIO*%
X140380000Y-68015000D03*
%TO.P,J1,8,Pin_8_8*%
%TO.N,unconnected-(J1-Pin_8-Pad8)*%
X140380000Y-65475000D03*
%TO.P,J1,9,Pin_9_9*%
%TO.N,GND*%
X142920000Y-68015000D03*
%TO.P,J1,10,Pin_10_10*%
X142920000Y-65475000D03*
%TD*%
D16*
%TO.P,C9,1*%
%TO.N,+3V3*%
X157012500Y-74675000D03*
%TO.P,C9,2*%
%TO.N,GND*%
X155462500Y-74675000D03*
%TD*%
D17*
%TO.P,C3,1*%
%TO.N,+3V3*%
X170462500Y-68775000D03*
%TO.P,C3,2*%
%TO.N,GND*%
X172012500Y-68775000D03*
%TD*%
D16*
%TO.P,C5,1*%
%TO.N,+3V3*%
X162900000Y-68875000D03*
%TO.P,C5,2*%
%TO.N,GND*%
X161350000Y-68875000D03*
%TD*%
D18*
%TO.P,D4,1,K_1*%
%TO.N,+3V3*%
X140500000Y-81575000D03*
%TO.P,D4,2,A_2*%
%TO.N,Net-(D4-A)*%
X142800000Y-81575000D03*
%TD*%
D19*
%TO.P,C10,1*%
%TO.N,+3V3*%
X166850000Y-83750000D03*
%TO.P,C10,2*%
%TO.N,GND*%
X166850000Y-85300000D03*
%TD*%
D16*
%TO.P,C11,1*%
%TO.N,+3V3*%
X157012500Y-76275000D03*
%TO.P,C11,2*%
%TO.N,GND*%
X155462500Y-76275000D03*
%TD*%
%TO.P,C4,1*%
%TO.N,+3V3*%
X174412500Y-85075000D03*
%TO.P,C4,2*%
%TO.N,GND*%
X172862500Y-85075000D03*
%TD*%
D20*
%TO.P,C21,1*%
%TO.N,Net-(D4-A)*%
X145375000Y-79875000D03*
%TO.P,C21,2*%
%TO.N,GND*%
X147100000Y-79875000D03*
%TD*%
D16*
%TO.P,C8,1*%
%TO.N,+3V3*%
X156375000Y-77775000D03*
%TO.P,C8,2*%
%TO.N,GND*%
X154825000Y-77775000D03*
%TD*%
%TO.P,C7,1*%
%TO.N,+3V3*%
X157975000Y-79775000D03*
%TO.P,C7,2*%
%TO.N,GND*%
X156425000Y-79775000D03*
%TD*%
D21*
%TO.P,R14,1*%
%TO.N,Net-(D4-A)*%
X142462500Y-79825000D03*
%TO.P,R14,2*%
%TO.N,+3V3*%
X140812500Y-79825000D03*
%TD*%
D22*
%TO.P,R13,1*%
%TO.N,Net-(D4-A)*%
X145387500Y-81625000D03*
%TO.P,R13,2*%
%TO.N,Net-(U8-~{RESET})*%
X147037500Y-81625000D03*
%TD*%
D16*
%TO.P,C14,1*%
%TO.N,+3V3*%
X136112500Y-73375000D03*
%TO.P,C14,2*%
%TO.N,GND*%
X134562500Y-73375000D03*
%TD*%
%TO.P,C12,1*%
%TO.N,+3V3*%
X157012500Y-73075000D03*
%TO.P,C12,2*%
%TO.N,GND*%
X155462500Y-73075000D03*
%TD*%
D23*
%TO.N,GND*%
X189000000Y-64875000D03*
X187500000Y-97975000D03*
X196500000Y-104175000D03*
X161350000Y-68875000D03*
X197500000Y-104175000D03*
X166800000Y-85475000D03*
X204500000Y-104175000D03*
X183800000Y-104075000D03*
X184500000Y-97975000D03*
X191000000Y-102575000D03*
X156300000Y-79775000D03*
X207500000Y-104175000D03*
X194500000Y-104175000D03*
X193500000Y-104175000D03*
X188801699Y-104103025D03*
X172100000Y-68775000D03*
X188900000Y-65675000D03*
X173700000Y-72175000D03*
X191500000Y-104175000D03*
X173800000Y-77275000D03*
X186682172Y-104088800D03*
X186300000Y-66475000D03*
X182900000Y-104075000D03*
X155400000Y-74675000D03*
X203500000Y-104175000D03*
X147100000Y-79875000D03*
X184747571Y-104117250D03*
X190500000Y-62975000D03*
X188700000Y-67275000D03*
X188500000Y-100075000D03*
X182900000Y-107275000D03*
X195500000Y-104175000D03*
X185700000Y-104075000D03*
X182900000Y-105075000D03*
X186700000Y-68175000D03*
X212500000Y-104175000D03*
X184500000Y-100075000D03*
X182900000Y-108875000D03*
X172700000Y-72175000D03*
X182900000Y-105775000D03*
X182900000Y-108075000D03*
X155400000Y-76275000D03*
X186500000Y-100075000D03*
X185400000Y-100075000D03*
X210500000Y-104175000D03*
X186500000Y-67275000D03*
X182900000Y-106575000D03*
X188500000Y-68975000D03*
X205500000Y-104175000D03*
X182900000Y-112475000D03*
X209500000Y-104175000D03*
X185500000Y-97975000D03*
X191000000Y-99875000D03*
X188800000Y-66475000D03*
X192500000Y-104175000D03*
X188500000Y-97975000D03*
X211500000Y-104175000D03*
X200500000Y-104175000D03*
X186800000Y-69075000D03*
X188600000Y-68175000D03*
X174100000Y-75175000D03*
X182900000Y-116375000D03*
X172700000Y-85075000D03*
X187700000Y-104075000D03*
X201500000Y-104175000D03*
X154700000Y-77775000D03*
X182900000Y-115375000D03*
X154200000Y-73475000D03*
X134500000Y-73375000D03*
X178700000Y-73175000D03*
X182900000Y-114375000D03*
X191000000Y-101275000D03*
X206500000Y-104175000D03*
X184800000Y-62875000D03*
X199500000Y-104175000D03*
X208500000Y-104175000D03*
X198500000Y-104175000D03*
X202500000Y-104175000D03*
X182900000Y-113475000D03*
X186500000Y-97975000D03*
X187400000Y-100075000D03*
X178600000Y-76275000D03*
X186200000Y-65775000D03*
X186200000Y-64975000D03*
X182900000Y-109675000D03*
%TO.N,/Debug/DBG_LED_1*%
X171149265Y-79774265D03*
X169771992Y-78895591D03*
%TO.N,/CAN/INT_N*%
X163100000Y-83675000D03*
X164199994Y-82475000D03*
%TO.N,/CAN/CS_N*%
X151200000Y-82475000D03*
X153900000Y-82475000D03*
%TO.N,Net-(U8-~{RESET})*%
X149100000Y-82275000D03*
%TO.N,+3V3*%
X163715403Y-70041874D03*
X159302943Y-77775000D03*
X139000000Y-80775000D03*
X159850000Y-76625000D03*
X159600000Y-73425000D03*
X158800000Y-74775000D03*
X138400000Y-73875000D03*
X174500000Y-85075000D03*
X167400000Y-71375000D03*
X166600000Y-81025000D03*
%TO.N,/Debug/I2C_SCL*%
X154800000Y-70775000D03*
%TO.N,/Debug/I2C_SDA*%
X155465642Y-70175000D03*
%TO.N,/GPS/RTC_IN*%
X172000000Y-96075000D03*
X167382244Y-80857376D03*
%TO.N,/GPS/RESET_N*%
X163525735Y-71549265D03*
X173100000Y-95475000D03*
%TO.N,/GPS/TXD*%
X166200000Y-106875000D03*
X162797054Y-81875000D03*
%TO.N,/GPS/RXD*%
X166400000Y-108275000D03*
X161948527Y-81875000D03*
%TO.N,/Debug/DBG_LED_2*%
X170400000Y-78400000D03*
X171600049Y-79004951D03*
%TO.N,/Debug/MCU_UART_TX*%
X165150000Y-80675000D03*
%TO.N,/Debug/MCU_UART_RX*%
X165500000Y-81475000D03*
%TO.N,/Debug/SWCLK*%
X153275499Y-71875000D03*
%TO.N,/Debug/SWDIO*%
X153900000Y-71375000D03*
%TO.N,/RF/RF_TX_EN_N*%
X181500000Y-83475000D03*
X186400000Y-78025000D03*
%TO.N,/RF/RF_TX_EN*%
X158100000Y-72025000D03*
X176850000Y-66575000D03*
%TD*%
%TO.N,GND*%
D24*
X142920000Y-65475000D02*
X142920000Y-68015000D01*
X154600000Y-73075000D02*
X154200000Y-73475000D01*
X155462500Y-73075000D02*
X154600000Y-73075000D01*
X155375000Y-76275000D02*
X155375000Y-76150000D01*
%TO.N,/Debug/DBG_LED_1*%
X170650666Y-79774265D02*
X171149265Y-79774265D01*
X169771992Y-78895591D02*
X170650666Y-79774265D01*
%TO.N,/CAN/INT_N*%
X163100000Y-83675000D02*
X164199994Y-82475006D01*
X164199994Y-82475006D02*
X164199994Y-82475000D01*
%TO.N,/CAN/CS_N*%
X153900000Y-82475000D02*
X151200000Y-82475000D01*
%TO.N,Net-(U8-~{RESET})*%
X148450000Y-81625000D02*
X149100000Y-82275000D01*
X147125000Y-81625000D02*
X148450000Y-81625000D01*
%TO.N,+3V3*%
X166850000Y-83662500D02*
X166850000Y-81275000D01*
X140775000Y-81575000D02*
X139800000Y-81575000D01*
X159250000Y-73075000D02*
X159600000Y-73425000D01*
X159850000Y-76625000D02*
X158700000Y-77775000D01*
X157100000Y-73075000D02*
X159250000Y-73075000D01*
X167400000Y-71375000D02*
X170000000Y-68775000D01*
X158062500Y-79387500D02*
X158062500Y-79775000D01*
X159302943Y-78147057D02*
X158062500Y-79387500D01*
X159302943Y-77775000D02*
X159302943Y-78147057D01*
X170000000Y-68775000D02*
X170375000Y-68775000D01*
X137900000Y-73375000D02*
X138400000Y-73875000D01*
X166850000Y-81275000D02*
X166600000Y-81025000D01*
X163715403Y-70041874D02*
X163715403Y-69690403D01*
X157200000Y-74775000D02*
X157100000Y-74675000D01*
X139950000Y-79825000D02*
X139000000Y-80775000D01*
X158700000Y-77775000D02*
X157900000Y-77775000D01*
X157100000Y-74675000D02*
X157100000Y-76275000D01*
X136200000Y-73375000D02*
X137900000Y-73375000D01*
X139800000Y-81575000D02*
X139000000Y-80775000D01*
X163715403Y-69690403D02*
X162900000Y-68875000D01*
X158800000Y-74775000D02*
X157200000Y-74775000D01*
X140725000Y-79825000D02*
X139950000Y-79825000D01*
X157900000Y-77775000D02*
X156462500Y-77775000D01*
%TO.N,/Debug/I2C_SCL*%
X136780000Y-76395000D02*
X126920000Y-76395000D01*
X153648529Y-72475000D02*
X140700000Y-72475000D01*
X154800000Y-71323529D02*
X153648529Y-72475000D01*
X126920000Y-76395000D02*
X126600000Y-76075000D01*
X154800000Y-70775000D02*
X154800000Y-71323529D01*
X140700000Y-72475000D02*
X136780000Y-76395000D01*
%TO.N,/Debug/I2C_SDA*%
X155465642Y-71223572D02*
X148604214Y-78085000D01*
X148604214Y-78085000D02*
X129250000Y-78085000D01*
X128720000Y-78615000D02*
X126600000Y-78615000D01*
X155465642Y-70175000D02*
X155465642Y-71223572D01*
X129250000Y-78085000D02*
X128720000Y-78615000D01*
%TO.N,/GPS/RTC_IN*%
X169599868Y-83075000D02*
X169600000Y-83075000D01*
X169600000Y-93675000D02*
X172000000Y-96075000D01*
X167382244Y-80857376D02*
X169599868Y-83075000D01*
X169600000Y-83075000D02*
X169600000Y-93675000D01*
%TO.N,/GPS/RESET_N*%
X167982244Y-74746126D02*
X167982244Y-80891690D01*
X164785383Y-71549265D02*
X167982244Y-74746126D01*
X171300000Y-84209446D02*
X171300000Y-93675000D01*
X167982244Y-80891690D02*
X171300000Y-84209446D01*
X163525735Y-71549265D02*
X164785383Y-71549265D01*
X171300000Y-93675000D02*
X173100000Y-95475000D01*
%TO.N,/GPS/TXD*%
X162797054Y-81875000D02*
X162400000Y-82272054D01*
X162400000Y-103075000D02*
X166200000Y-106875000D01*
X162400000Y-82272054D02*
X162400000Y-103075000D01*
%TO.N,/GPS/RXD*%
X161948527Y-103823527D02*
X166400000Y-108275000D01*
X161948527Y-81875000D02*
X161948527Y-103823527D01*
%TO.N,/Debug/DBG_LED_2*%
X170995098Y-78400000D02*
X171600049Y-79004951D01*
X170400000Y-78400000D02*
X170995098Y-78400000D01*
%TO.N,/Debug/MCU_UART_TX*%
X154500000Y-85675000D02*
X126600000Y-85675000D01*
X159500000Y-80675000D02*
X154500000Y-85675000D01*
X165150000Y-80675000D02*
X159500000Y-80675000D01*
%TO.N,/Debug/MCU_UART_RX*%
X165300000Y-81275000D02*
X161699998Y-81275000D01*
X154759998Y-88215000D02*
X126600000Y-88215000D01*
X165500000Y-81475000D02*
X165300000Y-81275000D01*
X161699998Y-81275000D02*
X154759998Y-88215000D01*
%TO.N,/Debug/SWCLK*%
X139160000Y-71875000D02*
X135300000Y-68015000D01*
X153275499Y-71875000D02*
X139160000Y-71875000D01*
%TO.N,/Debug/SWDIO*%
X153900000Y-71375000D02*
X153300000Y-70775000D01*
X143140000Y-70775000D02*
X140380000Y-68015000D01*
X153300000Y-70775000D02*
X143140000Y-70775000D01*
%TO.N,/RF/RF_TX_EN_N*%
X181500000Y-83475000D02*
X181500000Y-82925000D01*
X181500000Y-82925000D02*
X186400000Y-78025000D01*
%TO.N,/RF/RF_TX_EN*%
X158100000Y-68175000D02*
X159700000Y-66575000D01*
X158100000Y-72025000D02*
X158100000Y-68175000D01*
X159700000Y-66575000D02*
X176850000Y-66575000D01*
%TO.N,Net-(D4-A)*%
X142462500Y-79825000D02*
X142462500Y-81237500D01*
X145375000Y-79875000D02*
X145375000Y-81612500D01*
X145337500Y-81575000D02*
X145387500Y-81625000D01*
X142462500Y-81237500D02*
X142800000Y-81575000D01*
X142462500Y-79825000D02*
X145325000Y-79825000D01*
X145325000Y-79825000D02*
X145375000Y-79875000D01*
X142800000Y-81575000D02*
X145337500Y-81575000D01*
X145375000Y-81612500D02*
X145387500Y-81625000D01*
%TD*%
M02*
