M48
; DRILL file KiCad 10.0.6 date 2026-10-03T10:19:17
; FORMAT={-:-/ absolute / metric / decimal}
; #@! TF.CreationDate,2026-10-03T10:19:17-05:00
; #@! TF.GenerationSoftware,Kicad,Pcbnew,10.0.6
; #@! TF.FileFunction,Plated,1,4,PTH
FMAT,2
METRIC
; #@! TA.AperFunction,Plated,PTH,ViaDrill
T1C0.300
; #@! TA.AperFunction,Plated,PTH,ComponentDrill
T2C0.760
; #@! TA.AperFunction,Plated,PTH,ComponentDrill
T3C1.000
; #@! TA.AperFunction,Plated,PTH,ComponentDrill
T4C1.600
%
G90
G05
T1
X134.3Y-74.6
X145.0Y-83.0
X147.1Y-83.2
X149.175Y-72.6
X149.8Y-72.1
X149.8Y-83.2
X150.7Y-71.5
X151.366Y-70.9
X154.0Y-72.75
X154.7Y-75.5
X155.203Y-78.5
X155.5Y-74.15
X155.75Y-77.35
X157.849Y-82.6
X158.697Y-82.6
X159.0Y-84.4
X159.024Y-70.176
X159.426Y-72.274
X160.1Y-83.2
X161.05Y-81.4
X161.4Y-82.2
X162.1Y-107.6
X162.3Y-109.0
X162.5Y-81.75
X163.282Y-81.582
X163.3Y-72.1
X165.672Y-79.621
X166.3Y-79.125
X167.049Y-80.499
X167.5Y-79.73
X167.9Y-96.8
X169.0Y-96.2
X172.75Y-67.3
X179.6Y-81.6
X182.3Y-78.75
T2
X129.2Y-104.1
X130.47Y-101.56
X131.74Y-104.1
X133.01Y-101.56
X134.28Y-104.1
X135.55Y-101.56
X136.82Y-104.1
X138.09Y-101.56
T3
X122.5Y-76.8
X122.5Y-79.34
X122.5Y-81.88
X128.66Y-66.2
X128.66Y-68.74
X131.2Y-66.2
X131.2Y-68.74
X133.74Y-66.2
X133.74Y-68.74
X136.28Y-66.2
X136.28Y-68.74
X138.82Y-66.2
X138.82Y-68.74
X150.12Y-99.3
X152.66Y-99.3
X155.2Y-99.3
T4
X139.9Y-75.725
M30
