M48
; DRILL file KiCad 10.0.6 date 2026-10-06T23:38:33
; FORMAT={-:-/ absolute / metric / decimal}
; #@! TF.CreationDate,2026-10-06T23:38:33-05:00
; #@! TF.GenerationSoftware,Kicad,Pcbnew,10.0.6
; #@! TF.FileFunction,Plated,1,4,PTH
FMAT,2
METRIC
; #@! TA.AperFunction,Plated,PTH,ViaDrill
T1C0.300
; #@! TA.AperFunction,Plated,PTH,ComponentDrill
T2C0.760
; #@! TA.AperFunction,Plated,PTH,ComponentDrill
T3C1.000
; #@! TA.AperFunction,Plated,PTH,ComponentDrill
T4C1.600
%
G90
G05
T1
X123.11Y-92.81
X123.11Y-101.0
X133.3Y-77.475
X133.9Y-71.8
X137.9Y-83.1
X138.4Y-73.875
X139.0Y-80.775
X141.5Y-83.475
X143.6Y-90.375
X147.9Y-83.0
X148.0Y-95.88
X148.4Y-79.875
X149.1Y-82.275
X151.2Y-82.475
X152.2Y-96.6
X153.2Y-95.9
X153.275Y-71.875
X153.3Y-75.075
X153.56Y-77.34
X153.9Y-71.375
X153.9Y-82.475
X154.2Y-73.475
X154.2Y-74.66
X154.28Y-76.19
X154.6Y-92.075
X154.8Y-70.775
X155.38Y-79.76
X155.466Y-70.175
X158.1Y-72.025
X158.8Y-74.775
X159.303Y-77.775
X159.6Y-73.425
X159.7Y-79.075
X159.85Y-76.625
X160.0Y-68.7
X161.9Y-73.775
X161.9Y-74.675
X161.9Y-75.675
X161.9Y-76.475
X161.9Y-77.175
X161.9Y-77.975
X161.949Y-81.875
X162.755Y-77.928
X162.761Y-77.207
X162.793Y-75.677
X162.797Y-81.875
X162.799Y-74.678
X162.799Y-76.506
X162.8Y-73.775
X163.1Y-83.675
X163.526Y-71.549
X163.715Y-70.042
X163.801Y-73.872
X163.801Y-74.772
X163.801Y-75.772
X163.801Y-76.572
X163.801Y-77.272
X163.801Y-78.072
X164.2Y-82.475
X164.656Y-78.025
X164.662Y-77.304
X164.694Y-75.774
X164.7Y-74.775
X164.7Y-76.602
X164.701Y-73.872
X165.15Y-80.675
X165.5Y-81.475
X165.501Y-73.872
X165.501Y-74.772
X165.501Y-75.772
X165.501Y-76.572
X165.501Y-77.272
X165.501Y-78.072
X165.65Y-62.29
X165.9Y-70.725
X166.2Y-81.875
X166.2Y-106.875
X166.356Y-78.025
X166.362Y-77.304
X166.394Y-75.774
X166.4Y-74.775
X166.4Y-76.602
X166.4Y-108.275
X166.401Y-73.872
X166.6Y-81.025
X166.7Y-109.975
X166.7Y-110.975
X166.8Y-86.47
X167.1Y-112.175
X167.2Y-98.175
X167.382Y-80.857
X167.4Y-71.375
X168.2Y-67.675
X169.772Y-78.896
X169.8Y-64.12
X170.4Y-78.4
X171.149Y-79.774
X171.6Y-79.005
X171.8Y-72.175
X172.0Y-96.075
X172.2Y-83.8
X172.5Y-76.575
X172.7Y-72.175
X173.1Y-95.475
X173.26Y-68.78
X173.7Y-72.175
X173.8Y-77.275
X174.1Y-75.175
X174.2Y-74.075
X175.64Y-85.54
X176.85Y-66.575
X177.1Y-74.675
X177.95Y-68.65
X178.0Y-70.4
X178.6Y-76.275
X178.7Y-73.175
X179.2Y-79.275
X181.5Y-83.475
X182.8Y-111.075
X182.9Y-104.075
X182.9Y-105.075
X182.9Y-105.775
X182.9Y-106.575
X182.9Y-107.275
X182.9Y-108.075
X182.9Y-108.875
X182.9Y-109.675
X182.9Y-112.475
X182.9Y-113.475
X182.9Y-114.375
X182.9Y-115.375
X182.9Y-116.375
X183.36Y-62.875
X183.8Y-104.075
X184.5Y-97.975
X184.5Y-100.075
X184.748Y-104.117
X185.4Y-100.075
X185.5Y-97.975
X185.7Y-104.075
X186.2Y-64.975
X186.2Y-65.775
X186.3Y-66.475
X186.4Y-78.025
X186.5Y-67.275
X186.5Y-97.975
X186.5Y-100.075
X186.682Y-104.089
X186.7Y-68.175
X186.8Y-69.075
X187.4Y-100.075
X187.5Y-97.975
X187.7Y-104.075
X188.5Y-68.975
X188.5Y-97.975
X188.5Y-100.075
X188.6Y-68.175
X188.7Y-67.275
X188.8Y-66.475
X188.802Y-104.103
X188.9Y-65.675
X189.0Y-64.875
X191.0Y-99.875
X191.0Y-101.275
X191.0Y-102.575
X191.5Y-104.175
X191.7Y-72.175
X191.98Y-62.875
X192.35Y-96.75
X192.5Y-104.175
X193.5Y-104.175
X194.4Y-88.375
X194.5Y-104.175
X194.8Y-73.675
X195.5Y-104.175
X196.5Y-104.175
X197.5Y-104.175
X198.5Y-104.175
X199.5Y-104.175
X200.5Y-104.175
X201.5Y-104.175
X202.5Y-104.175
X203.5Y-104.175
X204.5Y-104.175
X205.5Y-104.175
X206.5Y-104.175
X207.5Y-104.175
X208.5Y-104.175
X209.5Y-104.175
X210.4Y-82.3
X210.5Y-104.175
X211.5Y-104.175
X212.5Y-104.175
T2
X133.3Y-103.375
X134.57Y-100.835
X135.84Y-103.375
X137.11Y-100.835
X138.38Y-103.375
X139.65Y-100.835
X140.92Y-103.375
X142.19Y-100.835
T3
X126.6Y-76.075
X126.6Y-78.615
X126.6Y-81.155
X126.6Y-85.675
X126.6Y-88.215
X126.6Y-90.755
X132.76Y-65.475
X132.76Y-68.015
X135.3Y-65.475
X135.3Y-68.015
X137.84Y-65.475
X137.84Y-68.015
X140.38Y-65.475
X140.38Y-68.015
X142.92Y-65.475
X142.92Y-68.015
T4
X144.0Y-75.0
M30
