%TF.GenerationSoftware,KiCad,Pcbnew,10.0.6*%
%TF.CreationDate,2026-10-06T23:38:31-05:00*%
%TF.ProjectId,telemetry_GPS_transmitter,74656c65-6d65-4747-9279-5f4750535f74,rev?*%
%TF.SameCoordinates,Original*%
%TF.FileFunction,Paste,Top*%
%TF.FilePolarity,Positive*%
%FSLAX46Y46*%
G04 Gerber Fmt 4.6, Leading zero omitted, Abs format (unit mm)*
G04 Created by KiCad (PCBNEW 10.0.6) date 2026-10-06 23:38:31*
%MOMM*%
%LPD*%
G01*
G04 APERTURE LIST*
G04 Aperture macros list*
%AMRoundRect*
0 Rectangle with rounded corners*
0 $1 Rounding radius*
0 $2 $3 $4 $5 $6 $7 $8 $9 X,Y pos of 4 corners*
0 Add a 4 corners polygon primitive as box body*
4,1,4,$2,$3,$4,$5,$6,$7,$8,$9,$2,$3,0*
0 Add four circle primitives for the rounded corners*
1,1,$1+$1,$2,$3*
1,1,$1+$1,$4,$5*
1,1,$1+$1,$6,$7*
1,1,$1+$1,$8,$9*
0 Add four rect primitives between the rounded corners*
20,1,$1+$1,$2,$3,$4,$5,0*
20,1,$1+$1,$4,$5,$6,$7,0*
20,1,$1+$1,$6,$7,$8,$9,0*
20,1,$1+$1,$8,$9,$2,$3,0*%
G04 Aperture macros list end*
%ADD10C,0.162560*%
%ADD11RoundRect,0.160000X0.160000X0.220000X-0.160000X0.220000X-0.160000X-0.220000X0.160000X-0.220000X0*%
%ADD12RoundRect,0.080000X0.080000X-0.510000X0.080000X0.510000X-0.080000X0.510000X-0.080000X-0.510000X0*%
%ADD13RoundRect,0.118000X-0.118000X-0.138000X0.118000X-0.138000X0.118000X0.138000X-0.118000X0.138000X0*%
%ADD14R,1.760000X0.960000*%
%ADD15RoundRect,0.200000X-1.040000X-0.200000X1.040000X-0.200000X1.040000X0.200000X-1.040000X0.200000X0*%
%ADD16RoundRect,0.160000X-0.160000X-0.220000X0.160000X-0.220000X0.160000X0.220000X-0.160000X0.220000X0*%
%ADD17RoundRect,0.180000X0.200000X-0.180000X0.200000X0.180000X-0.200000X0.180000X-0.200000X-0.180000X0*%
%ADD18RoundRect,0.180000X0.180000X0.200000X-0.180000X0.200000X-0.180000X-0.200000X0.180000X-0.200000X0*%
%ADD19RoundRect,0.160000X0.220000X-0.160000X0.220000X0.160000X-0.220000X0.160000X-0.220000X-0.160000X0*%
%ADD20RoundRect,0.175000X-0.175000X-0.305000X0.175000X-0.305000X0.175000X0.305000X-0.175000X0.305000X0*%
%ADD21RoundRect,0.160000X-0.220000X0.160000X-0.220000X-0.160000X0.220000X-0.160000X0.220000X0.160000X0*%
%ADD22RoundRect,0.180000X-0.180000X-0.200000X0.180000X-0.200000X0.180000X0.200000X-0.180000X0.200000X0*%
%ADD23RoundRect,0.120000X-0.410000X-0.120000X0.410000X-0.120000X0.410000X0.120000X-0.410000X0.120000X0*%
%ADD24RoundRect,0.200000X0.360000X-0.260000X0.360000X0.260000X-0.360000X0.260000X-0.360000X-0.260000X0*%
%ADD25RoundRect,0.160000X0.560000X0.160000X-0.560000X0.160000X-0.560000X-0.160000X0.560000X-0.160000X0*%
%ADD26RoundRect,0.200000X-0.260000X-0.360000X0.260000X-0.360000X0.260000X0.360000X-0.260000X0.360000X0*%
%ADD27RoundRect,0.160000X0.042426X-0.268701X0.268701X-0.042426X-0.042426X0.268701X-0.268701X0.042426X0*%
%ADD28RoundRect,0.200000X-0.360000X0.210000X-0.360000X-0.210000X0.360000X-0.210000X0.360000X0.210000X0*%
%ADD29R,0.406400X0.772160*%
%ADD30RoundRect,0.180000X-0.200000X0.180000X-0.200000X-0.180000X0.200000X-0.180000X0.200000X0.180000X0*%
%ADD31R,1.563142X0.465706*%
%ADD32RoundRect,0.250000X0.315000X-0.315000X0.315000X0.315000X-0.315000X0.315000X-0.315000X-0.315000X0*%
%ADD33RoundRect,0.050000X0.050000X-0.300000X0.050000X0.300000X-0.050000X0.300000X-0.050000X-0.300000X0*%
%ADD34RoundRect,0.050000X0.300000X-0.050000X0.300000X0.050000X-0.300000X0.050000X-0.300000X-0.050000X0*%
%ADD35RoundRect,0.070000X-0.340000X-0.070000X0.340000X-0.070000X0.340000X0.070000X-0.340000X0.070000X0*%
G04 APERTURE END LIST*
D10*
%TO.C,U4*%
X171570368Y-73922500D03*
X171570368Y-74632500D03*
X171570368Y-75262500D03*
X172395000Y-73582500D03*
X172309988Y-74422500D03*
X173000000Y-73582500D03*
X173000000Y-74422500D03*
X173000000Y-75262500D03*
%TD*%
D11*
%TO.C,R4*%
X184962500Y-89725000D03*
X183312500Y-89725000D03*
%TD*%
D12*
%TO.C,U8*%
X148675000Y-90737500D03*
X149325000Y-90737500D03*
X149975000Y-90737500D03*
X150625000Y-90737500D03*
X151275000Y-90737500D03*
X151925000Y-90737500D03*
X152575000Y-90737500D03*
X153225000Y-90737500D03*
X153875000Y-90737500D03*
X154525000Y-90737500D03*
X154525000Y-85012500D03*
X153875000Y-85012500D03*
X153225000Y-85012500D03*
X152575000Y-85012500D03*
X151925000Y-85012500D03*
X151275000Y-85012500D03*
X150625000Y-85012500D03*
X149975000Y-85012500D03*
X149325000Y-85012500D03*
X148675000Y-85012500D03*
%TD*%
D13*
%TO.C,L2*%
X169830000Y-71175000D03*
X170800000Y-71175000D03*
%TD*%
D14*
%TO.C,ANT1*%
X192000000Y-106300000D03*
X192000000Y-113000000D03*
%TD*%
D15*
%TO.C,SW1*%
X197950000Y-78275000D03*
X206850000Y-78275000D03*
X197950000Y-82275000D03*
X206850000Y-82275000D03*
%TD*%
D16*
%TO.C,R6*%
X187875000Y-72175000D03*
X189525000Y-72175000D03*
%TD*%
D17*
%TO.C,C2*%
X165650000Y-65037500D03*
X165650000Y-63487500D03*
%TD*%
D18*
%TO.C,C22*%
X144562500Y-82575000D03*
X143012500Y-82575000D03*
%TD*%
D17*
%TO.C,C1*%
X169800000Y-66737500D03*
X169800000Y-65187500D03*
%TD*%
D19*
%TO.C,R12*%
X153200000Y-94800000D03*
X153200000Y-93150000D03*
%TD*%
D16*
%TO.C,R8*%
X190175000Y-70175000D03*
X191825000Y-70175000D03*
%TD*%
D20*
%TO.C,L1*%
X150037500Y-78225000D03*
X152162500Y-78225000D03*
%TD*%
D21*
%TO.C,R10*%
X189836227Y-100762500D03*
X189836227Y-102412500D03*
%TD*%
D19*
%TO.C,R15*%
X133100000Y-95600000D03*
X133100000Y-93950000D03*
%TD*%
D22*
%TO.C,C6*%
X150337500Y-75400000D03*
X151887500Y-75400000D03*
%TD*%
D23*
%TO.C,U2*%
X134925000Y-76475000D03*
X134925000Y-77425000D03*
X134925000Y-78375000D03*
X137200000Y-78375000D03*
X137200000Y-76475000D03*
%TD*%
D11*
%TO.C,R11*%
X188072500Y-102815000D03*
X186422500Y-102815000D03*
%TD*%
D18*
%TO.C,C18*%
X177137500Y-73175000D03*
X175587500Y-73175000D03*
%TD*%
D16*
%TO.C,R1*%
X176437500Y-79275000D03*
X178087500Y-79275000D03*
%TD*%
D24*
%TO.C,D1*%
X123100000Y-96400000D03*
X123100000Y-94350000D03*
%TD*%
D16*
%TO.C,R7*%
X185875000Y-70275000D03*
X187525000Y-70275000D03*
%TD*%
D17*
%TO.C,C24*%
X149900000Y-102237500D03*
X149900000Y-100687500D03*
%TD*%
D22*
%TO.C,C19*%
X175587500Y-76175000D03*
X177137500Y-76175000D03*
%TD*%
D18*
%TO.C,C20*%
X185775000Y-73375000D03*
X184225000Y-73375000D03*
%TD*%
D25*
%TO.C,U6*%
X181100000Y-112135000D03*
X181100000Y-111035000D03*
X181100000Y-109935000D03*
X181100000Y-108835000D03*
X181100000Y-107735000D03*
X181100000Y-106635000D03*
X181100000Y-105535000D03*
X181100000Y-102535000D03*
X181100000Y-101435000D03*
X181100000Y-100335000D03*
X181100000Y-99235000D03*
X181100000Y-98135000D03*
X169100000Y-98135000D03*
X169100000Y-99235000D03*
X169100000Y-100335000D03*
X169100000Y-101435000D03*
X169100000Y-102535000D03*
X169100000Y-105535000D03*
X169100000Y-106635000D03*
X169100000Y-107735000D03*
X169100000Y-108835000D03*
X169100000Y-109935000D03*
X169100000Y-111035000D03*
X169100000Y-112135000D03*
%TD*%
D26*
%TO.C,D2*%
X190270000Y-89685000D03*
X192320000Y-89685000D03*
%TD*%
D22*
%TO.C,C17*%
X175212500Y-70375000D03*
X176762500Y-70375000D03*
%TD*%
%TO.C,C23*%
X149387500Y-96625000D03*
X150937500Y-96625000D03*
%TD*%
D11*
%TO.C,R5*%
X184937500Y-87000000D03*
X183287500Y-87000000D03*
%TD*%
D27*
%TO.C,R9*%
X189986637Y-98808363D03*
X191153363Y-97641637D03*
%TD*%
D22*
%TO.C,C13*%
X135002500Y-83115000D03*
X136552500Y-83115000D03*
%TD*%
D21*
%TO.C,R2*%
X123100000Y-98160000D03*
X123100000Y-99810000D03*
%TD*%
D28*
%TO.C,R3*%
X194800000Y-75162500D03*
X194800000Y-76987500D03*
%TD*%
D29*
%TO.C,XTAL1*%
X166850000Y-69377600D03*
X166850000Y-67625000D03*
X165707000Y-67625000D03*
X165707000Y-69377600D03*
%TD*%
D30*
%TO.C,C15*%
X210350000Y-79387500D03*
X210350000Y-80937500D03*
%TD*%
D22*
%TO.C,C16*%
X175212500Y-67865000D03*
X176762500Y-67865000D03*
%TD*%
D31*
%TO.C,U7*%
X146088022Y-95880000D03*
X146088022Y-94610000D03*
X146088022Y-93340000D03*
X146088022Y-92070000D03*
X135586976Y-92070000D03*
X135586976Y-93340000D03*
X135586976Y-94610000D03*
X135586976Y-95880000D03*
%TD*%
D26*
%TO.C,D3*%
X190275000Y-87075000D03*
X192325000Y-87075000D03*
%TD*%
D32*
%TO.C,U1*%
X162200000Y-78225000D03*
X163600000Y-78225000D03*
X165000000Y-78225000D03*
X166400000Y-78225000D03*
X162200000Y-76825000D03*
X163600000Y-76825000D03*
X165000000Y-76825000D03*
X166400000Y-76825000D03*
X162200000Y-75425000D03*
X163600000Y-75425000D03*
X165000000Y-75425000D03*
X166400000Y-75425000D03*
X162200000Y-74025000D03*
X163600000Y-74025000D03*
X165000000Y-74025000D03*
X166400000Y-74025000D03*
D33*
X161550000Y-79562500D03*
X162050000Y-79562500D03*
X162550000Y-79562500D03*
X163050000Y-79562500D03*
X163550000Y-79562500D03*
X164050000Y-79562500D03*
X164550000Y-79562500D03*
X165050000Y-79562500D03*
X165550000Y-79562500D03*
X166050000Y-79562500D03*
X166550000Y-79562500D03*
X167050000Y-79562500D03*
D34*
X167737500Y-78875000D03*
X167737500Y-78375000D03*
X167737500Y-77875000D03*
X167737500Y-77375000D03*
X167737500Y-76875000D03*
X167737500Y-76375000D03*
X167737500Y-75875000D03*
X167737500Y-75375000D03*
X167737500Y-74875000D03*
X167737500Y-74375000D03*
X167737500Y-73875000D03*
X167737500Y-73375000D03*
D33*
X167050000Y-72687500D03*
X166550000Y-72687500D03*
X166050000Y-72687500D03*
X165550000Y-72687500D03*
X165050000Y-72687500D03*
X164550000Y-72687500D03*
X164050000Y-72687500D03*
X163550000Y-72687500D03*
X163050000Y-72687500D03*
X162550000Y-72687500D03*
X162050000Y-72687500D03*
X161550000Y-72687500D03*
D34*
X160862500Y-73375000D03*
X160862500Y-73875000D03*
X160862500Y-74375000D03*
X160862500Y-74875000D03*
X160862500Y-75375000D03*
X160862500Y-75875000D03*
X160862500Y-76375000D03*
X160862500Y-76875000D03*
X160862500Y-77375000D03*
X160862500Y-77875000D03*
X160862500Y-78375000D03*
X160862500Y-78875000D03*
%TD*%
D35*
%TO.C,U5*%
X179650000Y-74075000D03*
X179650000Y-74725000D03*
X179650000Y-75375000D03*
X181325000Y-75375000D03*
X181325000Y-74725000D03*
X181325000Y-74075000D03*
%TD*%
M02*
