%TF.GenerationSoftware,KiCad,Pcbnew,10.0.6*%
%TF.CreationDate,2026-10-06T23:38:31-05:00*%
%TF.ProjectId,telemetry_GPS_transmitter,74656c65-6d65-4747-9279-5f4750535f74,rev?*%
%TF.SameCoordinates,Original*%
%TF.FileFunction,Soldermask,Top*%
%TF.FilePolarity,Negative*%
%FSLAX46Y46*%
G04 Gerber Fmt 4.6, Leading zero omitted, Abs format (unit mm)*
G04 Created by KiCad (PCBNEW 10.0.6) date 2026-10-06 23:38:31*
%MOMM*%
%LPD*%
G01*
G04 APERTURE LIST*
G04 Aperture macros list*
%AMRoundRect*
0 Rectangle with rounded corners*
0 $1 Rounding radius*
0 $2 $3 $4 $5 $6 $7 $8 $9 X,Y pos of 4 corners*
0 Add a 4 corners polygon primitive as box body*
4,1,4,$2,$3,$4,$5,$6,$7,$8,$9,$2,$3,0*
0 Add four circle primitives for the rounded corners*
1,1,$1+$1,$2,$3*
1,1,$1+$1,$4,$5*
1,1,$1+$1,$6,$7*
1,1,$1+$1,$8,$9*
0 Add four rect primitives between the rounded corners*
20,1,$1+$1,$2,$3,$4,$5,0*
20,1,$1+$1,$4,$5,$6,$7,0*
20,1,$1+$1,$6,$7,$8,$9,0*
20,1,$1+$1,$8,$9,$2,$3,0*%
G04 Aperture macros list end*
%ADD10C,0.353200*%
%ADD11RoundRect,0.275000X0.200000X0.275000X-0.200000X0.275000X-0.200000X-0.275000X0.200000X-0.275000X0*%
%ADD12RoundRect,0.175000X0.100000X-0.637500X0.100000X0.637500X-0.100000X0.637500X-0.100000X-0.637500X0*%
%ADD13RoundRect,0.222500X-0.147500X-0.172500X0.147500X-0.172500X0.147500X0.172500X-0.147500X0.172500X0*%
%ADD14RoundRect,0.075000X-0.850000X-0.850000X0.850000X-0.850000X0.850000X0.850000X-0.850000X0.850000X0*%
%ADD15C,1.850000*%
%ADD16RoundRect,0.075000X-1.100000X0.600000X-1.100000X-0.600000X1.100000X-0.600000X1.100000X0.600000X0*%
%ADD17RoundRect,0.325000X-1.300000X-0.250000X1.300000X-0.250000X1.300000X0.250000X-1.300000X0.250000X0*%
%ADD18RoundRect,0.275000X-0.200000X-0.275000X0.200000X-0.275000X0.200000X0.275000X-0.200000X0.275000X0*%
%ADD19RoundRect,0.300000X0.250000X-0.225000X0.250000X0.225000X-0.250000X0.225000X-0.250000X-0.225000X0*%
%ADD20RoundRect,0.300000X0.225000X0.250000X-0.225000X0.250000X-0.225000X-0.250000X0.225000X-0.250000X0*%
%ADD21RoundRect,0.325000X0.385000X1.350000X-0.385000X1.350000X-0.385000X-1.350000X0.385000X-1.350000X0*%
%ADD22RoundRect,0.325000X0.425000X1.600000X-0.425000X1.600000X-0.425000X-1.600000X0.425000X-1.600000X0*%
%ADD23RoundRect,0.275000X0.275000X-0.200000X0.275000X0.200000X-0.275000X0.200000X-0.275000X-0.200000X0*%
%ADD24RoundRect,0.293750X-0.218750X-0.381250X0.218750X-0.381250X0.218750X0.381250X-0.218750X0.381250X0*%
%ADD25RoundRect,0.275000X-0.275000X0.200000X-0.275000X-0.200000X0.275000X-0.200000X0.275000X0.200000X0*%
%ADD26RoundRect,0.300000X-0.225000X-0.250000X0.225000X-0.250000X0.225000X0.250000X-0.225000X0.250000X0*%
%ADD27C,4.450000*%
%ADD28RoundRect,0.225000X-0.512500X-0.150000X0.512500X-0.150000X0.512500X0.150000X-0.512500X0.150000X0*%
%ADD29RoundRect,0.325000X0.450000X-0.325000X0.450000X0.325000X-0.450000X0.325000X-0.450000X-0.325000X0*%
%ADD30RoundRect,0.275000X0.700000X0.200000X-0.700000X0.200000X-0.700000X-0.200000X0.700000X-0.200000X0*%
%ADD31RoundRect,0.325000X-0.325000X-0.450000X0.325000X-0.450000X0.325000X0.450000X-0.325000X0.450000X0*%
%ADD32C,2.950000*%
%ADD33C,3.350000*%
%ADD34RoundRect,0.075000X-0.651500X-0.651500X0.651500X-0.651500X0.651500X0.651500X-0.651500X0.651500X0*%
%ADD35C,1.453000*%
%ADD36RoundRect,0.275000X0.053033X-0.335876X0.335876X-0.053033X-0.053033X0.335876X-0.335876X0.053033X0*%
%ADD37RoundRect,0.325000X-0.450000X0.262500X-0.450000X-0.262500X0.450000X-0.262500X0.450000X0.262500X0*%
%ADD38RoundRect,0.075000X0.254000X0.482600X-0.254000X0.482600X-0.254000X-0.482600X0.254000X-0.482600X0*%
%ADD39RoundRect,0.300000X-0.250000X0.225000X-0.250000X-0.225000X0.250000X-0.225000X0.250000X0.225000X0*%
%ADD40RoundRect,0.075000X0.850000X-0.850000X0.850000X0.850000X-0.850000X0.850000X-0.850000X-0.850000X0*%
%ADD41RoundRect,0.075000X0.976964X0.291066X-0.976964X0.291066X-0.976964X-0.291066X0.976964X-0.291066X0*%
%ADD42RoundRect,0.137500X0.062500X-0.375000X0.062500X0.375000X-0.062500X0.375000X-0.062500X-0.375000X0*%
%ADD43RoundRect,0.137500X0.375000X-0.062500X0.375000X0.062500X-0.375000X0.062500X-0.375000X-0.062500X0*%
%ADD44RoundRect,0.075000X2.800000X-2.800000X2.800000X2.800000X-2.800000X2.800000X-2.800000X-2.800000X0*%
%ADD45RoundRect,0.162500X-0.425000X-0.087500X0.425000X-0.087500X0.425000X0.087500X-0.425000X0.087500X0*%
G04 APERTURE END LIST*
D10*
%TO.C,U4*%
X171570368Y-73922500D03*
X171570368Y-74632500D03*
X171570368Y-75262500D03*
X172395000Y-73582500D03*
X172309988Y-74422500D03*
X173000000Y-73582500D03*
X173000000Y-74422500D03*
X173000000Y-75262500D03*
%TD*%
D11*
%TO.C,R4*%
X184962500Y-89725000D03*
X183312500Y-89725000D03*
%TD*%
D12*
%TO.C,U8*%
X148675000Y-90737500D03*
X149325000Y-90737500D03*
X149975000Y-90737500D03*
X150625000Y-90737500D03*
X151275000Y-90737500D03*
X151925000Y-90737500D03*
X152575000Y-90737500D03*
X153225000Y-90737500D03*
X153875000Y-90737500D03*
X154525000Y-90737500D03*
X154525000Y-85012500D03*
X153875000Y-85012500D03*
X153225000Y-85012500D03*
X152575000Y-85012500D03*
X151925000Y-85012500D03*
X151275000Y-85012500D03*
X150625000Y-85012500D03*
X149975000Y-85012500D03*
X149325000Y-85012500D03*
X148675000Y-85012500D03*
%TD*%
D13*
%TO.C,L2*%
X169830000Y-71175000D03*
X170800000Y-71175000D03*
%TD*%
D14*
%TO.C,J3*%
X126600000Y-76075000D03*
D15*
X126600000Y-78615000D03*
X126600000Y-81155000D03*
%TD*%
D16*
%TO.C,ANT1*%
X192000000Y-106300000D03*
X192000000Y-113000000D03*
%TD*%
D17*
%TO.C,SW1*%
X197950000Y-78275000D03*
X206850000Y-78275000D03*
X197950000Y-82275000D03*
X206850000Y-82275000D03*
%TD*%
D18*
%TO.C,R6*%
X187875000Y-72175000D03*
X189525000Y-72175000D03*
%TD*%
D19*
%TO.C,C2*%
X165650000Y-65037500D03*
X165650000Y-63487500D03*
%TD*%
D20*
%TO.C,C22*%
X144562500Y-82575000D03*
X143012500Y-82575000D03*
%TD*%
D19*
%TO.C,C1*%
X169800000Y-66737500D03*
X169800000Y-65187500D03*
%TD*%
D21*
%TO.C,J4*%
X187600000Y-62625000D03*
D22*
X184775000Y-62875000D03*
X190425000Y-62875000D03*
%TD*%
D23*
%TO.C,R12*%
X153200000Y-94800000D03*
X153200000Y-93150000D03*
%TD*%
D18*
%TO.C,R8*%
X190175000Y-70175000D03*
X191825000Y-70175000D03*
%TD*%
D24*
%TO.C,L1*%
X150037500Y-78225000D03*
X152162500Y-78225000D03*
%TD*%
D25*
%TO.C,R10*%
X189836227Y-100762500D03*
X189836227Y-102412500D03*
%TD*%
D23*
%TO.C,R15*%
X133100000Y-95600000D03*
X133100000Y-93950000D03*
%TD*%
D26*
%TO.C,C6*%
X150337500Y-75400000D03*
X151887500Y-75400000D03*
%TD*%
D27*
%TO.C,H4*%
X121850000Y-66525000D03*
%TD*%
D28*
%TO.C,U2*%
X134925000Y-76475000D03*
X134925000Y-77425000D03*
X134925000Y-78375000D03*
X137200000Y-78375000D03*
X137200000Y-76475000D03*
%TD*%
D11*
%TO.C,R11*%
X188072500Y-102815000D03*
X186422500Y-102815000D03*
%TD*%
D20*
%TO.C,C18*%
X177137500Y-73175000D03*
X175587500Y-73175000D03*
%TD*%
D18*
%TO.C,R1*%
X176437500Y-79275000D03*
X178087500Y-79275000D03*
%TD*%
D29*
%TO.C,D1*%
X123100000Y-96400000D03*
X123100000Y-94350000D03*
%TD*%
D18*
%TO.C,R7*%
X185875000Y-70275000D03*
X187525000Y-70275000D03*
%TD*%
D19*
%TO.C,C24*%
X149900000Y-102237500D03*
X149900000Y-100687500D03*
%TD*%
D26*
%TO.C,C19*%
X175587500Y-76175000D03*
X177137500Y-76175000D03*
%TD*%
D27*
%TO.C,H2*%
X121850000Y-111650000D03*
%TD*%
D20*
%TO.C,C20*%
X185775000Y-73375000D03*
X184225000Y-73375000D03*
%TD*%
D30*
%TO.C,U6*%
X181100000Y-112135000D03*
X181100000Y-111035000D03*
X181100000Y-109935000D03*
X181100000Y-108835000D03*
X181100000Y-107735000D03*
X181100000Y-106635000D03*
X181100000Y-105535000D03*
X181100000Y-102535000D03*
X181100000Y-101435000D03*
X181100000Y-100335000D03*
X181100000Y-99235000D03*
X181100000Y-98135000D03*
X169100000Y-98135000D03*
X169100000Y-99235000D03*
X169100000Y-100335000D03*
X169100000Y-101435000D03*
X169100000Y-102535000D03*
X169100000Y-105535000D03*
X169100000Y-106635000D03*
X169100000Y-107735000D03*
X169100000Y-108835000D03*
X169100000Y-109935000D03*
X169100000Y-111035000D03*
X169100000Y-112135000D03*
%TD*%
D31*
%TO.C,D2*%
X190270000Y-89685000D03*
X192320000Y-89685000D03*
%TD*%
D27*
%TO.C,H1*%
X207850000Y-111625000D03*
%TD*%
D32*
%TO.C,TP1*%
X144000000Y-75000000D03*
%TD*%
D26*
%TO.C,C17*%
X175212500Y-70375000D03*
X176762500Y-70375000D03*
%TD*%
%TO.C,C23*%
X149387500Y-96625000D03*
X150937500Y-96625000D03*
%TD*%
D11*
%TO.C,R5*%
X184937500Y-87000000D03*
X183287500Y-87000000D03*
%TD*%
D33*
%TO.C,J5*%
X132030000Y-109725000D03*
X143460000Y-109725000D03*
D34*
X133300000Y-103375000D03*
D35*
X134570000Y-100835000D03*
X135840000Y-103375000D03*
X137110000Y-100835000D03*
X138380000Y-103375000D03*
X139650000Y-100835000D03*
X140920000Y-103375000D03*
X142190000Y-100835000D03*
%TD*%
D36*
%TO.C,R9*%
X189986637Y-98808363D03*
X191153363Y-97641637D03*
%TD*%
D26*
%TO.C,C13*%
X135002500Y-83115000D03*
X136552500Y-83115000D03*
%TD*%
D14*
%TO.C,J2*%
X126600000Y-85675000D03*
D15*
X126600000Y-88215000D03*
X126600000Y-90755000D03*
%TD*%
D25*
%TO.C,R2*%
X123100000Y-98160000D03*
X123100000Y-99810000D03*
%TD*%
D37*
%TO.C,R3*%
X194800000Y-75162500D03*
X194800000Y-76987500D03*
%TD*%
D38*
%TO.C,XTAL1*%
X166850000Y-69377600D03*
X166850000Y-67625000D03*
X165707000Y-67625000D03*
X165707000Y-69377600D03*
%TD*%
D39*
%TO.C,C15*%
X210350000Y-79387500D03*
X210350000Y-80937500D03*
%TD*%
D40*
%TO.C,J1*%
X132760000Y-68015000D03*
D15*
X132760000Y-65475000D03*
X135300000Y-68015000D03*
X135300000Y-65475000D03*
X137840000Y-68015000D03*
X137840000Y-65475000D03*
X140380000Y-68015000D03*
X140380000Y-65475000D03*
X142920000Y-68015000D03*
X142920000Y-65475000D03*
%TD*%
D26*
%TO.C,C16*%
X175212500Y-67865000D03*
X176762500Y-67865000D03*
%TD*%
D41*
%TO.C,U7*%
X146088022Y-95880000D03*
X146088022Y-94610000D03*
X146088022Y-93340000D03*
X146088022Y-92070000D03*
X135586976Y-92070000D03*
X135586976Y-93340000D03*
X135586976Y-94610000D03*
X135586976Y-95880000D03*
%TD*%
D27*
%TO.C,H3*%
X207850000Y-66525000D03*
%TD*%
D31*
%TO.C,D3*%
X190275000Y-87075000D03*
X192325000Y-87075000D03*
%TD*%
D42*
%TO.C,U1*%
X161550000Y-79562500D03*
X162050000Y-79562500D03*
X162550000Y-79562500D03*
X163050000Y-79562500D03*
X163550000Y-79562500D03*
X164050000Y-79562500D03*
X164550000Y-79562500D03*
X165050000Y-79562500D03*
X165550000Y-79562500D03*
X166050000Y-79562500D03*
X166550000Y-79562500D03*
X167050000Y-79562500D03*
D43*
X167737500Y-78875000D03*
X167737500Y-78375000D03*
X167737500Y-77875000D03*
X167737500Y-77375000D03*
X167737500Y-76875000D03*
X167737500Y-76375000D03*
X167737500Y-75875000D03*
X167737500Y-75375000D03*
X167737500Y-74875000D03*
X167737500Y-74375000D03*
X167737500Y-73875000D03*
X167737500Y-73375000D03*
D42*
X167050000Y-72687500D03*
X166550000Y-72687500D03*
X166050000Y-72687500D03*
X165550000Y-72687500D03*
X165050000Y-72687500D03*
X164550000Y-72687500D03*
X164050000Y-72687500D03*
X163550000Y-72687500D03*
X163050000Y-72687500D03*
X162550000Y-72687500D03*
X162050000Y-72687500D03*
X161550000Y-72687500D03*
D43*
X160862500Y-73375000D03*
X160862500Y-73875000D03*
X160862500Y-74375000D03*
X160862500Y-74875000D03*
X160862500Y-75375000D03*
X160862500Y-75875000D03*
X160862500Y-76375000D03*
X160862500Y-76875000D03*
X160862500Y-77375000D03*
X160862500Y-77875000D03*
X160862500Y-78375000D03*
X160862500Y-78875000D03*
D44*
X164300000Y-76125000D03*
%TD*%
D45*
%TO.C,U5*%
X179650000Y-74075000D03*
X179650000Y-74725000D03*
X179650000Y-75375000D03*
X181325000Y-75375000D03*
X181325000Y-74725000D03*
X181325000Y-74075000D03*
%TD*%
M02*
