%TF.GenerationSoftware,KiCad,Pcbnew,10.0.6*%
%TF.CreationDate,2026-10-06T22:15:40-05:00*%
%TF.ProjectId,telemetry_GPS_transmitter,74656c65-6d65-4747-9279-5f4750535f74,rev?*%
%TF.SameCoordinates,Original*%
%TF.FileFunction,Copper,L1,Top*%
%TF.FilePolarity,Positive*%
%FSLAX46Y46*%
G04 Gerber Fmt 4.6, Leading zero omitted, Abs format (unit mm)*
G04 Created by KiCad (PCBNEW 10.0.6) date 2026-10-06 22:15:40*
%MOMM*%
%LPD*%
G01*
G04 APERTURE LIST*
G04 Aperture macros list*
%AMRoundRect*
0 Rectangle with rounded corners*
0 $1 Rounding radius*
0 $2 $3 $4 $5 $6 $7 $8 $9 X,Y pos of 4 corners*
0 Add a 4 corners polygon primitive as box body*
4,1,4,$2,$3,$4,$5,$6,$7,$8,$9,$2,$3,0*
0 Add four circle primitives for the rounded corners*
1,1,$1+$1,$2,$3*
1,1,$1+$1,$4,$5*
1,1,$1+$1,$6,$7*
1,1,$1+$1,$8,$9*
0 Add four rect primitives between the rounded corners*
20,1,$1+$1,$2,$3,$4,$5,0*
20,1,$1+$1,$4,$5,$6,$7,0*
20,1,$1+$1,$6,$7,$8,$9,0*
20,1,$1+$1,$8,$9,$2,$3,0*%
G04 Aperture macros list end*
%TA.AperFunction,SMDPad,CuDef*%
%ADD10C,0.203200*%
%TD*%
%TA.AperFunction,SMDPad,CuDef*%
%ADD11RoundRect,0.200000X0.200000X0.275000X-0.200000X0.275000X-0.200000X-0.275000X0.200000X-0.275000X0*%
%TD*%
%TA.AperFunction,SMDPad,CuDef*%
%ADD12RoundRect,0.100000X0.100000X-0.637500X0.100000X0.637500X-0.100000X0.637500X-0.100000X-0.637500X0*%
%TD*%
%TA.AperFunction,SMDPad,CuDef*%
%ADD13RoundRect,0.147500X-0.147500X-0.172500X0.147500X-0.172500X0.147500X0.172500X-0.147500X0.172500X0*%
%TD*%
%TA.AperFunction,ComponentPad*%
%ADD14R,1.700000X1.700000*%
%TD*%
%TA.AperFunction,ComponentPad*%
%ADD15C,1.700000*%
%TD*%
%TA.AperFunction,SMDPad,CuDef*%
%ADD16R,2.200000X1.200000*%
%TD*%
%TA.AperFunction,SMDPad,CuDef*%
%ADD17RoundRect,0.250000X-1.300000X-0.250000X1.300000X-0.250000X1.300000X0.250000X-1.300000X0.250000X0*%
%TD*%
%TA.AperFunction,SMDPad,CuDef*%
%ADD18RoundRect,0.200000X-0.200000X-0.275000X0.200000X-0.275000X0.200000X0.275000X-0.200000X0.275000X0*%
%TD*%
%TA.AperFunction,SMDPad,CuDef*%
%ADD19RoundRect,0.225000X0.250000X-0.225000X0.250000X0.225000X-0.250000X0.225000X-0.250000X-0.225000X0*%
%TD*%
%TA.AperFunction,SMDPad,CuDef*%
%ADD20RoundRect,0.225000X0.225000X0.250000X-0.225000X0.250000X-0.225000X-0.250000X0.225000X-0.250000X0*%
%TD*%
%TA.AperFunction,SMDPad,CuDef*%
%ADD21RoundRect,0.250000X0.385000X1.350000X-0.385000X1.350000X-0.385000X-1.350000X0.385000X-1.350000X0*%
%TD*%
%TA.AperFunction,SMDPad,CuDef*%
%ADD22RoundRect,0.250000X0.425000X1.600000X-0.425000X1.600000X-0.425000X-1.600000X0.425000X-1.600000X0*%
%TD*%
%TA.AperFunction,SMDPad,CuDef*%
%ADD23RoundRect,0.200000X0.275000X-0.200000X0.275000X0.200000X-0.275000X0.200000X-0.275000X-0.200000X0*%
%TD*%
%TA.AperFunction,SMDPad,CuDef*%
%ADD24RoundRect,0.218750X-0.218750X-0.381250X0.218750X-0.381250X0.218750X0.381250X-0.218750X0.381250X0*%
%TD*%
%TA.AperFunction,SMDPad,CuDef*%
%ADD25RoundRect,0.200000X-0.275000X0.200000X-0.275000X-0.200000X0.275000X-0.200000X0.275000X0.200000X0*%
%TD*%
%TA.AperFunction,SMDPad,CuDef*%
%ADD26RoundRect,0.225000X-0.225000X-0.250000X0.225000X-0.250000X0.225000X0.250000X-0.225000X0.250000X0*%
%TD*%
%TA.AperFunction,SMDPad,CuDef*%
%ADD27RoundRect,0.150000X-0.512500X-0.150000X0.512500X-0.150000X0.512500X0.150000X-0.512500X0.150000X0*%
%TD*%
%TA.AperFunction,SMDPad,CuDef*%
%ADD28RoundRect,0.250000X0.450000X-0.325000X0.450000X0.325000X-0.450000X0.325000X-0.450000X-0.325000X0*%
%TD*%
%TA.AperFunction,SMDPad,CuDef*%
%ADD29RoundRect,0.200000X0.700000X0.200000X-0.700000X0.200000X-0.700000X-0.200000X0.700000X-0.200000X0*%
%TD*%
%TA.AperFunction,SMDPad,CuDef*%
%ADD30RoundRect,0.250000X-0.325000X-0.450000X0.325000X-0.450000X0.325000X0.450000X-0.325000X0.450000X0*%
%TD*%
%TA.AperFunction,ComponentPad*%
%ADD31C,2.800000*%
%TD*%
%TA.AperFunction,ComponentPad*%
%ADD32R,1.303000X1.303000*%
%TD*%
%TA.AperFunction,ComponentPad*%
%ADD33C,1.303000*%
%TD*%
%TA.AperFunction,SMDPad,CuDef*%
%ADD34RoundRect,0.200000X0.053033X-0.335876X0.335876X-0.053033X-0.053033X0.335876X-0.335876X0.053033X0*%
%TD*%
%TA.AperFunction,SMDPad,CuDef*%
%ADD35RoundRect,0.250000X-0.450000X0.262500X-0.450000X-0.262500X0.450000X-0.262500X0.450000X0.262500X0*%
%TD*%
%TA.AperFunction,SMDPad,CuDef*%
%ADD36R,0.508000X0.965200*%
%TD*%
%TA.AperFunction,SMDPad,CuDef*%
%ADD37RoundRect,0.225000X-0.250000X0.225000X-0.250000X-0.225000X0.250000X-0.225000X0.250000X0.225000X0*%
%TD*%
%TA.AperFunction,SMDPad,CuDef*%
%ADD38R,1.953928X0.582132*%
%TD*%
%TA.AperFunction,SMDPad,CuDef*%
%ADD39RoundRect,0.062500X0.062500X-0.375000X0.062500X0.375000X-0.062500X0.375000X-0.062500X-0.375000X0*%
%TD*%
%TA.AperFunction,SMDPad,CuDef*%
%ADD40RoundRect,0.062500X0.375000X-0.062500X0.375000X0.062500X-0.375000X0.062500X-0.375000X-0.062500X0*%
%TD*%
%TA.AperFunction,HeatsinkPad*%
%ADD41R,5.600000X5.600000*%
%TD*%
%TA.AperFunction,SMDPad,CuDef*%
%ADD42RoundRect,0.087500X-0.425000X-0.087500X0.425000X-0.087500X0.425000X0.087500X-0.425000X0.087500X0*%
%TD*%
%TA.AperFunction,ViaPad*%
%ADD43C,0.600000*%
%TD*%
%TA.AperFunction,Conductor*%
%ADD44C,0.200000*%
%TD*%
%TA.AperFunction,Conductor*%
%ADD45C,0.355546*%
%TD*%
%TA.AperFunction,Conductor*%
%ADD46C,0.355518*%
%TD*%
%TA.AperFunction,Conductor*%
%ADD47C,0.500000*%
%TD*%
G04 APERTURE END LIST*
D10*
%TO.P,U4,A1,RFO_IN_A1*%
%TO.N,/RF/RFO_HP*%
X171570368Y-73922500D03*
%TO.P,U4,A2,RFI_N_OUT_A2*%
%TO.N,/RF/RFI_N*%
X171570368Y-74632500D03*
%TO.P,U4,A3,RFI_P_OUT_A3*%
%TO.N,/RF/RFI_P*%
X171570368Y-75262500D03*
%TO.P,U4,B1,GND2_B1*%
%TO.N,GND*%
X172395000Y-73582500D03*
%TO.P,U4,B2,GND3_B2*%
X172309988Y-74422500D03*
%TO.P,U4,C1,RFO_OUT_C1*%
%TO.N,/RF/RF_O*%
X173000000Y-73582500D03*
%TO.P,U4,C2,GND1_C2*%
%TO.N,GND*%
X173000000Y-74422500D03*
%TO.P,U4,C3,RFI_IN_C3*%
%TO.N,/RF/RF_I*%
X173000000Y-75262500D03*
%TD*%
D11*
%TO.P,R4,1*%
%TO.N,Net-(D2-K)*%
X184962500Y-89725000D03*
%TO.P,R4,2*%
%TO.N,/Debug/DBG_LED_1*%
X183312500Y-89725000D03*
%TD*%
D12*
%TO.P,U8,1,TXCAN_1*%
%TO.N,/CAN/CAN_TX*%
X148675000Y-90737500D03*
%TO.P,U8,2,RXCAN_2*%
%TO.N,/CAN/CAN_RX*%
X149325000Y-90737500D03*
%TO.P,U8,3,CLKOUT/SOF_3*%
%TO.N,unconnected-(U8-CLKOUT{slash}SOF-Pad3)*%
X149975000Y-90737500D03*
%TO.P,U8,4,~{TX0RTS}_4*%
%TO.N,unconnected-(U8-~{TX0RTS}-Pad4)*%
X150625000Y-90737500D03*
%TO.P,U8,5,~{TX1RTS}_5*%
%TO.N,unconnected-(U8-~{TX1RTS}-Pad5)*%
X151275000Y-90737500D03*
%TO.P,U8,6,NC_6*%
%TO.N,unconnected-(U8-NC-Pad6)*%
X151925000Y-90737500D03*
%TO.P,U8,7,~{TX2RTS}_7*%
%TO.N,unconnected-(U8-~{TX2RTS}-Pad7)*%
X152575000Y-90737500D03*
%TO.P,U8,8,OSC2_8*%
%TO.N,Net-(U8-OSC2)*%
X153225000Y-90737500D03*
%TO.P,U8,9,OSC1_9*%
%TO.N,/CAN/EXT_CLK*%
X153875000Y-90737500D03*
%TO.P,U8,10,VSS_10*%
%TO.N,GND*%
X154525000Y-90737500D03*
%TO.P,U8,11,~{RX1BF}_11*%
%TO.N,unconnected-(U8-~{RX1BF}-Pad11)*%
X154525000Y-85012500D03*
%TO.P,U8,12,~{RX0BF}_12*%
%TO.N,unconnected-(U8-~{RX0BF}-Pad12)*%
X153875000Y-85012500D03*
%TO.P,U8,13,~{INT}_13*%
%TO.N,/CAN/INT_N*%
X153225000Y-85012500D03*
%TO.P,U8,14,SCK_14*%
%TO.N,/CAN/SCLK*%
X152575000Y-85012500D03*
%TO.P,U8,15,NC_15*%
%TO.N,unconnected-(U8-NC-Pad15)*%
X151925000Y-85012500D03*
%TO.P,U8,16,SI_16*%
%TO.N,/CAN/SLAVE_I*%
X151275000Y-85012500D03*
%TO.P,U8,17,SO_17*%
%TO.N,/CAN/SLAVE_O*%
X150625000Y-85012500D03*
%TO.P,U8,18,~{CS}_18*%
%TO.N,/CAN/CS_N*%
X149975000Y-85012500D03*
%TO.P,U8,19,~{RESET}_19*%
%TO.N,Net-(U8-~{RESET})*%
X149325000Y-85012500D03*
%TO.P,U8,20,VDD_20*%
%TO.N,+3V3*%
X148675000Y-85012500D03*
%TD*%
D13*
%TO.P,L2,1,1_1*%
%TO.N,/RF/VR_PA*%
X169830000Y-71175000D03*
%TO.P,L2,2,2_2*%
%TO.N,/RF/RFO_HP*%
X170800000Y-71175000D03*
%TD*%
D14*
%TO.P,J3,1,Pin_1_1*%
%TO.N,/Debug/I2C_SCL*%
X126600000Y-76075000D03*
D15*
%TO.P,J3,2,Pin_2_2*%
%TO.N,/Debug/I2C_SDA*%
X126600000Y-78615000D03*
%TO.P,J3,3,Pin_3_3*%
%TO.N,GND*%
X126600000Y-81155000D03*
%TD*%
D16*
%TO.P,ANT1,1,FEED_1*%
%TO.N,Net-(ANT1-FEED)*%
X192000000Y-106300000D03*
%TO.P,ANT1,2,NC_2*%
%TO.N,unconnected-(ANT1-NC-Pad2)*%
X192000000Y-113000000D03*
%TD*%
D17*
%TO.P,SW1,1,1_1*%
%TO.N,/Debug/NRST*%
X197950000Y-78275000D03*
X206850000Y-78275000D03*
%TO.P,SW1,2,2_2*%
%TO.N,GND*%
X197950000Y-82275000D03*
X206850000Y-82275000D03*
%TD*%
D18*
%TO.P,R6,1*%
%TO.N,Net-(C20-Pad1)*%
X187875000Y-72175000D03*
%TO.P,R6,2*%
%TO.N,GND*%
X189525000Y-72175000D03*
%TD*%
D19*
%TO.P,C2,1*%
%TO.N,/STM32/OSC_OUT*%
X165650000Y-65037500D03*
%TO.P,C2,2*%
%TO.N,GND*%
X165650000Y-63487500D03*
%TD*%
D20*
%TO.P,C22,1*%
%TO.N,+3V3*%
X144562500Y-82575000D03*
%TO.P,C22,2*%
%TO.N,GND*%
X143012500Y-82575000D03*
%TD*%
D19*
%TO.P,C1,1*%
%TO.N,/STM32/OSC_IN*%
X169800000Y-66737500D03*
%TO.P,C1,2*%
%TO.N,GND*%
X169800000Y-65187500D03*
%TD*%
D21*
%TO.P,J4,1,In_1*%
%TO.N,Net-(J4-In)*%
X187600000Y-62625000D03*
D22*
%TO.P,J4,2,Ext_2*%
%TO.N,GND*%
X184775000Y-62875000D03*
X190425000Y-62875000D03*
%TD*%
D23*
%TO.P,R12,1*%
%TO.N,GND*%
X153200000Y-94800000D03*
%TO.P,R12,2*%
%TO.N,Net-(U8-OSC2)*%
X153200000Y-93150000D03*
%TD*%
D18*
%TO.P,R8,1*%
%TO.N,Net-(J4-In)*%
X190175000Y-70175000D03*
%TO.P,R8,2*%
%TO.N,GND*%
X191825000Y-70175000D03*
%TD*%
D24*
%TO.P,L1,1,1_1*%
%TO.N,+1V5*%
X150037500Y-78225000D03*
%TO.P,L1,2,2_2*%
%TO.N,Net-(U1-VLXSMPS)*%
X152162500Y-78225000D03*
%TD*%
D25*
%TO.P,R10,1*%
%TO.N,Net-(U6-RF_IN)*%
X189836227Y-100762500D03*
%TO.P,R10,2*%
%TO.N,Net-(ANT1-FEED)*%
X189836227Y-102412500D03*
%TD*%
D23*
%TO.P,R15,1*%
%TO.N,/CAN/CANH*%
X133100000Y-95600000D03*
%TO.P,R15,2*%
%TO.N,/CAN/CANL*%
X133100000Y-93950000D03*
%TD*%
D26*
%TO.P,C6,1*%
%TO.N,+1V5*%
X150337500Y-75400000D03*
%TO.P,C6,2*%
%TO.N,GND*%
X151887500Y-75400000D03*
%TD*%
D27*
%TO.P,U2,1,IN_1*%
%TO.N,+5V*%
X134925000Y-76475000D03*
%TO.P,U2,2,GND_2*%
%TO.N,GND*%
X134925000Y-77425000D03*
%TO.P,U2,3,EN_3*%
%TO.N,+5V*%
X134925000Y-78375000D03*
%TO.P,U2,4,NC_4*%
%TO.N,unconnected-(U2-NC-Pad4)*%
X137200000Y-78375000D03*
%TO.P,U2,5,OUT_5*%
%TO.N,+3V3*%
X137200000Y-76475000D03*
%TD*%
D11*
%TO.P,R11,1*%
%TO.N,Net-(ANT1-FEED)*%
X188072500Y-102815000D03*
%TO.P,R11,2*%
%TO.N,GND*%
X186422500Y-102815000D03*
%TD*%
D20*
%TO.P,C18,1*%
%TO.N,Net-(U5-RF1)*%
X177137500Y-73175000D03*
%TO.P,C18,2*%
%TO.N,/RF/RF_O*%
X175587500Y-73175000D03*
%TD*%
D18*
%TO.P,R1,1*%
%TO.N,Net-(U1-PH3)*%
X176437500Y-79275000D03*
%TO.P,R1,2*%
%TO.N,GND*%
X178087500Y-79275000D03*
%TD*%
D28*
%TO.P,D1,1,K_1*%
%TO.N,Net-(D1-K)*%
X123100000Y-96400000D03*
%TO.P,D1,2,A_2*%
%TO.N,+3V3*%
X123100000Y-94350000D03*
%TD*%
D18*
%TO.P,R7,1*%
%TO.N,Net-(C20-Pad1)*%
X185875000Y-70275000D03*
%TO.P,R7,2*%
%TO.N,Net-(J4-In)*%
X187525000Y-70275000D03*
%TD*%
D19*
%TO.P,C24,1*%
%TO.N,/CAN/5VCAN*%
X149900000Y-102237500D03*
%TO.P,C24,2*%
%TO.N,/CAN/GNDCAN*%
X149900000Y-100687500D03*
%TD*%
D26*
%TO.P,C19,1*%
%TO.N,/RF/RF_I*%
X175587500Y-76175000D03*
%TO.P,C19,2*%
%TO.N,Net-(U5-RF2)*%
X177137500Y-76175000D03*
%TD*%
D20*
%TO.P,C20,1*%
%TO.N,Net-(C20-Pad1)*%
X185775000Y-73375000D03*
%TO.P,C20,2*%
%TO.N,Net-(U5-RFC)*%
X184225000Y-73375000D03*
%TD*%
D29*
%TO.P,U6,1,~{SAFEBOOT}_1*%
%TO.N,unconnected-(U6-~{SAFEBOOT}-Pad1)*%
X181100000Y-112135000D03*
%TO.P,U6,2,D_SEL_2*%
%TO.N,+3V3*%
X181100000Y-111035000D03*
%TO.P,U6,3,TIMEPULSE_3*%
%TO.N,unconnected-(U6-TIMEPULSE-Pad3)*%
X181100000Y-109935000D03*
%TO.P,U6,4,EXTINT_4*%
%TO.N,/GPS/RTC_IN*%
X181100000Y-108835000D03*
%TO.P,U6,5,USB_DM_5*%
%TO.N,unconnected-(U6-USB_DM-Pad5)*%
X181100000Y-107735000D03*
%TO.P,U6,6,USB_DP_6*%
%TO.N,unconnected-(U6-USB_DP-Pad6)*%
X181100000Y-106635000D03*
%TO.P,U6,7,VDD_USB_7*%
%TO.N,GND*%
X181100000Y-105535000D03*
%TO.P,U6,8,~{RESET}_8*%
%TO.N,/GPS/RESET_N*%
X181100000Y-102535000D03*
%TO.P,U6,9,VCC_RF_9*%
%TO.N,unconnected-(U6-VCC_RF-Pad9)*%
X181100000Y-101435000D03*
%TO.P,U6,10,GND_10*%
%TO.N,GND*%
X181100000Y-100335000D03*
%TO.P,U6,11,RF_IN_11*%
%TO.N,Net-(U6-RF_IN)*%
X181100000Y-99235000D03*
%TO.P,U6,12,GND_12*%
%TO.N,GND*%
X181100000Y-98135000D03*
%TO.P,U6,13,GND_13*%
X169100000Y-98135000D03*
%TO.P,U6,14,LNA_EN_14*%
%TO.N,unconnected-(U6-LNA_EN-Pad14)*%
X169100000Y-99235000D03*
%TO.P,U6,15,RESERVED_15*%
%TO.N,unconnected-(U6-RESERVED-Pad15)*%
X169100000Y-100335000D03*
%TO.P,U6,16,RESERVED_16*%
%TO.N,unconnected-(U6-RESERVED-Pad16)*%
X169100000Y-101435000D03*
%TO.P,U6,17,RESERVED_17*%
%TO.N,unconnected-(U6-RESERVED-Pad17)*%
X169100000Y-102535000D03*
%TO.P,U6,18,SDA/~{SPI_CS}_18*%
%TO.N,unconnected-(U6-SDA{slash}~{SPI_CS}-Pad18)*%
X169100000Y-105535000D03*
%TO.P,U6,19,SCL/SPI_CLK_19*%
%TO.N,unconnected-(U6-SCL{slash}SPI_CLK-Pad19)*%
X169100000Y-106635000D03*
%TO.P,U6,20,TXD/SPI_MISO_20*%
%TO.N,/GPS/TXD*%
X169100000Y-107735000D03*
%TO.P,U6,21,RXD/SPI_MOSI_21*%
%TO.N,/GPS/RXD*%
X169100000Y-108835000D03*
%TO.P,U6,22,V_BCKP_22*%
%TO.N,+3V3*%
X169100000Y-109935000D03*
%TO.P,U6,23,VCC_23*%
X169100000Y-111035000D03*
%TO.P,U6,24,GND_24*%
%TO.N,GND*%
X169100000Y-112135000D03*
%TD*%
D30*
%TO.P,D2,1,K_1*%
%TO.N,Net-(D2-K)*%
X190270000Y-89685000D03*
%TO.P,D2,2,A_2*%
%TO.N,+3V3*%
X192320000Y-89685000D03*
%TD*%
D31*
%TO.P,TP1,1,1_1*%
%TO.N,+1V5*%
X144000000Y-75000000D03*
%TD*%
D26*
%TO.P,C17,1*%
%TO.N,/RF/VR_PA*%
X175212500Y-70375000D03*
%TO.P,C17,2*%
%TO.N,GND*%
X176762500Y-70375000D03*
%TD*%
%TO.P,C23,1*%
%TO.N,+3V3*%
X149387500Y-96625000D03*
%TO.P,C23,2*%
%TO.N,GND*%
X150937500Y-96625000D03*
%TD*%
D11*
%TO.P,R5,1*%
%TO.N,Net-(D3-K)*%
X184937500Y-87000000D03*
%TO.P,R5,2*%
%TO.N,/Debug/DBG_LED_2*%
X183287500Y-87000000D03*
%TD*%
D32*
%TO.P,J5,1,1_1*%
%TO.N,/CAN/CANH*%
X133300000Y-103375000D03*
D33*
%TO.P,J5,2,2_2*%
%TO.N,/CAN/CANL*%
X134570000Y-100835000D03*
%TO.P,J5,3,3_3*%
%TO.N,+5V*%
X135840000Y-103375000D03*
%TO.P,J5,4,4_4*%
%TO.N,GND*%
X137110000Y-100835000D03*
%TO.P,J5,5,5_5*%
%TO.N,+5V*%
X138380000Y-103375000D03*
%TO.P,J5,6,6_6*%
%TO.N,GND*%
X139650000Y-100835000D03*
%TO.P,J5,7,7_7*%
%TO.N,/CAN/5VCAN*%
X140920000Y-103375000D03*
%TO.P,J5,8,8_8*%
%TO.N,/CAN/GNDCAN*%
X142190000Y-100835000D03*
%TD*%
D34*
%TO.P,R9,1*%
%TO.N,Net-(U6-RF_IN)*%
X189986637Y-98808363D03*
%TO.P,R9,2*%
%TO.N,GND*%
X191153363Y-97641637D03*
%TD*%
D26*
%TO.P,C13,1*%
%TO.N,+5V*%
X135002500Y-83115000D03*
%TO.P,C13,2*%
%TO.N,GND*%
X136552500Y-83115000D03*
%TD*%
D14*
%TO.P,J2,1,Pin_1_1*%
%TO.N,/Debug/MCU_UART_TX*%
X126600000Y-85675000D03*
D15*
%TO.P,J2,2,Pin_2_2*%
%TO.N,/Debug/MCU_UART_RX*%
X126600000Y-88215000D03*
%TO.P,J2,3,Pin_3_3*%
%TO.N,GND*%
X126600000Y-90755000D03*
%TD*%
D25*
%TO.P,R2,1*%
%TO.N,Net-(D1-K)*%
X123100000Y-98160000D03*
%TO.P,R2,2*%
%TO.N,GND*%
X123100000Y-99810000D03*
%TD*%
D35*
%TO.P,R3,1*%
%TO.N,+3V3*%
X194800000Y-75162500D03*
%TO.P,R3,2*%
%TO.N,/Debug/NRST*%
X194800000Y-76987500D03*
%TD*%
D36*
%TO.P,XTAL1,1,1_1*%
%TO.N,/STM32/OSC_IN*%
X166850000Y-69377600D03*
%TO.P,XTAL1,2,2_2*%
%TO.N,GND*%
X166850000Y-67625000D03*
%TO.P,XTAL1,3,3_3*%
%TO.N,/STM32/OSC_OUT*%
X165707000Y-67625000D03*
%TO.P,XTAL1,4,4_4*%
%TO.N,GND*%
X165707000Y-69377600D03*
%TD*%
D37*
%TO.P,C15,1*%
%TO.N,/Debug/NRST*%
X210350000Y-79387500D03*
%TO.P,C15,2*%
%TO.N,GND*%
X210350000Y-80937500D03*
%TD*%
D14*
%TO.P,J1,1,Pin_1_1*%
%TO.N,+5V*%
X132760000Y-68015000D03*
D15*
%TO.P,J1,2,Pin_2_2*%
X132760000Y-65475000D03*
%TO.P,J1,3,Pin_3_3*%
%TO.N,/Debug/SWCLK*%
X135300000Y-68015000D03*
%TO.P,J1,4,Pin_4_4*%
%TO.N,+3V3*%
X135300000Y-65475000D03*
%TO.P,J1,5,Pin_5_5*%
%TO.N,/Debug/SWO*%
X137840000Y-68015000D03*
%TO.P,J1,6,Pin_6_6*%
%TO.N,+3V3*%
X137840000Y-65475000D03*
%TO.P,J1,7,Pin_7_7*%
%TO.N,/Debug/SWDIO*%
X140380000Y-68015000D03*
%TO.P,J1,8,Pin_8_8*%
%TO.N,unconnected-(J1-Pin_8-Pad8)*%
X140380000Y-65475000D03*
%TO.P,J1,9,Pin_9_9*%
%TO.N,GND*%
X142920000Y-68015000D03*
%TO.P,J1,10,Pin_10_10*%
X142920000Y-65475000D03*
%TD*%
D26*
%TO.P,C16,1*%
%TO.N,/RF/VR_PA*%
X175212500Y-67865000D03*
%TO.P,C16,2*%
%TO.N,GND*%
X176762500Y-67865000D03*
%TD*%
D38*
%TO.P,U7,1,VCC1_1*%
%TO.N,+3V3*%
X146088022Y-95880000D03*
%TO.P,U7,2,TXD_2*%
%TO.N,/CAN/CAN_TX*%
X146088022Y-94610000D03*
%TO.P,U7,3,RXD_3*%
%TO.N,/CAN/CAN_RX*%
X146088022Y-93340000D03*
%TO.P,U7,4,GND1_4*%
%TO.N,GND*%
X146088022Y-92070000D03*
%TO.P,U7,5,GND2_5*%
%TO.N,/CAN/GNDCAN*%
X135586976Y-92070000D03*
%TO.P,U7,6,CANL_6*%
%TO.N,/CAN/CANL*%
X135586976Y-93340000D03*
%TO.P,U7,7,CANH_7*%
%TO.N,/CAN/CANH*%
X135586976Y-94610000D03*
%TO.P,U7,8,VCC2_8*%
%TO.N,/CAN/5VCAN*%
X135586976Y-95880000D03*
%TD*%
D30*
%TO.P,D3,1,K_1*%
%TO.N,Net-(D3-K)*%
X190275000Y-87075000D03*
%TO.P,D3,2,A_2*%
%TO.N,+3V3*%
X192325000Y-87075000D03*
%TD*%
D39*
%TO.P,U1,1,PB3_1*%
%TO.N,/Debug/SWO*%
X161550000Y-79562500D03*
%TO.P,U1,2,PB4_2*%
%TO.N,/CAN/SLAVE_O*%
X162050000Y-79562500D03*
%TO.P,U1,3,PB5_3*%
%TO.N,/CAN/SLAVE_I*%
X162550000Y-79562500D03*
%TO.P,U1,4,PB6_4*%
%TO.N,/GPS/RXD*%
X163050000Y-79562500D03*
%TO.P,U1,5,PB7_5*%
%TO.N,/GPS/TXD*%
X163550000Y-79562500D03*
%TO.P,U1,6,PB8_6*%
%TO.N,/CAN/CS_N*%
X164050000Y-79562500D03*
%TO.P,U1,7,PA0_7*%
%TO.N,/CAN/INT_N*%
X164550000Y-79562500D03*
%TO.P,U1,8,PA1_8*%
%TO.N,unconnected-(U1-PA1-Pad8)*%
X165050000Y-79562500D03*
%TO.P,U1,9,PA2_9*%
%TO.N,/Debug/MCU_UART_TX*%
X165550000Y-79562500D03*
%TO.P,U1,10,PA3_10*%
%TO.N,/Debug/MCU_UART_RX*%
X166050000Y-79562500D03*
%TO.P,U1,11,VDD_11*%
%TO.N,+3V3*%
X166550000Y-79562500D03*
%TO.P,U1,12,PA4_12*%
%TO.N,/GPS/RTC_IN*%
X167050000Y-79562500D03*
D40*
%TO.P,U1,13,PA5_13*%
%TO.N,/CAN/SCLK*%
X167737500Y-78875000D03*
%TO.P,U1,14,PA6_14*%
%TO.N,/Debug/DBG_LED_1*%
X167737500Y-78375000D03*
%TO.P,U1,15,PA7_15*%
%TO.N,/Debug/DBG_LED_2*%
X167737500Y-77875000D03*
%TO.P,U1,16,PA8_16*%
%TO.N,/CAN/EXT_CLK*%
X167737500Y-77375000D03*
%TO.P,U1,17,PA9_17*%
%TO.N,/RF/RF_TX_EN_N*%
X167737500Y-76875000D03*
%TO.P,U1,18,NRST_18*%
%TO.N,/Debug/NRST*%
X167737500Y-76375000D03*
%TO.P,U1,19,PH3_19*%
%TO.N,Net-(U1-PH3)*%
X167737500Y-75875000D03*
%TO.P,U1,20,RFI_P_20*%
%TO.N,/RF/RFI_P*%
X167737500Y-75375000D03*
%TO.P,U1,21,RFI_N_21*%
%TO.N,/RF/RFI_N*%
X167737500Y-74875000D03*
%TO.P,U1,22,RFO_LP_22*%
%TO.N,unconnected-(U1-RFO_LP-Pad22)*%
X167737500Y-74375000D03*
%TO.P,U1,23,RFO_HP_23*%
%TO.N,/RF/RFO_HP*%
X167737500Y-73875000D03*
%TO.P,U1,24,VR_PA_24*%
%TO.N,/RF/VR_PA*%
X167737500Y-73375000D03*
D39*
%TO.P,U1,25,VDDPA_25*%
%TO.N,+3V3*%
X167050000Y-72687500D03*
%TO.P,U1,26,OSC_IN_26*%
%TO.N,/STM32/OSC_IN*%
X166550000Y-72687500D03*
%TO.P,U1,27,OSC_OUT_27*%
%TO.N,/STM32/OSC_OUT*%
X166050000Y-72687500D03*
%TO.P,U1,28,VDDRF_28*%
%TO.N,+3V3*%
X165550000Y-72687500D03*
%TO.P,U1,29,VDDRF1V55_29*%
%TO.N,+1V5*%
X165050000Y-72687500D03*
%TO.P,U1,30,PB0_30*%
%TO.N,unconnected-(U1-PB0-Pad30)*%
X164550000Y-72687500D03*
%TO.P,U1,31,PB2_31*%
%TO.N,unconnected-(U1-PB2-Pad31)*%
X164050000Y-72687500D03*
%TO.P,U1,32,PB12_32*%
%TO.N,/GPS/RESET_N*%
X163550000Y-72687500D03*
%TO.P,U1,33,PA10_33*%
%TO.N,unconnected-(U1-PA10-Pad33)*%
X163050000Y-72687500D03*
%TO.P,U1,34,PA11_34*%
%TO.N,/Debug/I2C_SDA*%
X162550000Y-72687500D03*
%TO.P,U1,35,PA12_35*%
%TO.N,/Debug/I2C_SCL*%
X162050000Y-72687500D03*
%TO.P,U1,36,PA13_36*%
%TO.N,/Debug/SWDIO*%
X161550000Y-72687500D03*
D40*
%TO.P,U1,37,VBAT_37*%
%TO.N,+3V3*%
X160862500Y-73375000D03*
%TO.P,U1,38,PC13_38*%
%TO.N,unconnected-(U1-PC13-Pad38)*%
X160862500Y-73875000D03*
%TO.P,U1,39,PC14_39*%
%TO.N,unconnected-(U1-PC14-Pad39)*%
X160862500Y-74375000D03*
%TO.P,U1,40,PC15_40*%
%TO.N,/RF/RF_TX_EN*%
X160862500Y-74875000D03*
%TO.P,U1,41,VDDA_41*%
%TO.N,+3V3*%
X160862500Y-75375000D03*
%TO.P,U1,42,PA14_42*%
%TO.N,/Debug/SWCLK*%
X160862500Y-75875000D03*
%TO.P,U1,43,PA15_43*%
%TO.N,unconnected-(U1-PA15-Pad43)*%
X160862500Y-76375000D03*
%TO.P,U1,44,VDD_44*%
%TO.N,+3V3*%
X160862500Y-76875000D03*
%TO.P,U1,45,VFBSMPS_45*%
%TO.N,+1V5*%
X160862500Y-77375000D03*
%TO.P,U1,46,VDDSMPS_46*%
%TO.N,+3V3*%
X160862500Y-77875000D03*
%TO.P,U1,47,VLXSMPS_47*%
%TO.N,Net-(U1-VLXSMPS)*%
X160862500Y-78375000D03*
%TO.P,U1,48,VSSSMPS_48*%
%TO.N,GND*%
X160862500Y-78875000D03*
D41*
%TO.P,U1,49,VSS_49*%
X164300000Y-76125000D03*
%TD*%
D42*
%TO.P,U5,1,RF1_1*%
%TO.N,Net-(U5-RF1)*%
X179650000Y-74075000D03*
%TO.P,U5,2,GND_2*%
%TO.N,GND*%
X179650000Y-74725000D03*
%TO.P,U5,3,RF2_3*%
%TO.N,Net-(U5-RF2)*%
X179650000Y-75375000D03*
%TO.P,U5,4,V2_4*%
%TO.N,/RF/RF_TX_EN_N*%
X181325000Y-75375000D03*
%TO.P,U5,5,RFC_5*%
%TO.N,Net-(U5-RFC)*%
X181325000Y-74725000D03*
%TO.P,U5,6,V1_6*%
%TO.N,/RF/RF_TX_EN*%
X181325000Y-74075000D03*
%TD*%
D43*
%TO.N,GND*%
X189000000Y-64875000D03*
X161900000Y-77975000D03*
X187500000Y-97975000D03*
X196500000Y-104175000D03*
X165500612Y-75771601D03*
X165500612Y-77271601D03*
X163800612Y-76571601D03*
X197500000Y-104175000D03*
X165500612Y-73871601D03*
X165500612Y-76571601D03*
X123110000Y-99985000D03*
X161900000Y-73775000D03*
X204500000Y-104175000D03*
X183800000Y-104075000D03*
X184500000Y-97975000D03*
X191000000Y-102575000D03*
X207500000Y-104175000D03*
X169800000Y-65075000D03*
X164700612Y-73871601D03*
X194500000Y-104175000D03*
X193500000Y-104175000D03*
X165900000Y-70725000D03*
X165500612Y-78071601D03*
X162799388Y-74678399D03*
X188801699Y-104103025D03*
X188900000Y-65675000D03*
X173700000Y-72175000D03*
X191500000Y-104175000D03*
X173800000Y-77275000D03*
X186682172Y-104088800D03*
X166355744Y-78024625D03*
X186300000Y-66475000D03*
X182900000Y-104075000D03*
X177100000Y-74675000D03*
X176900000Y-70475000D03*
X163800612Y-73871601D03*
X203500000Y-104175000D03*
X141500000Y-83475000D03*
X164655744Y-78024625D03*
X151000000Y-96675000D03*
X184747571Y-104117250D03*
X161900000Y-77175000D03*
X154600000Y-92075000D03*
X190500000Y-62975000D03*
X188700000Y-67275000D03*
X164662067Y-77303891D03*
X166400612Y-73871601D03*
X166362067Y-77303891D03*
X188500000Y-100075000D03*
X162793066Y-75677311D03*
X174200000Y-74075000D03*
X164700000Y-74775000D03*
X182900000Y-107275000D03*
X133300000Y-77475000D03*
X195500000Y-104175000D03*
X161900000Y-75675000D03*
X185700000Y-104075000D03*
X182900000Y-105075000D03*
X186700000Y-68175000D03*
X153200000Y-94875000D03*
X212500000Y-104175000D03*
X184500000Y-100075000D03*
X178200000Y-79275000D03*
X171800000Y-72175000D03*
X162755132Y-77928024D03*
X165500612Y-74771601D03*
X182900000Y-108875000D03*
X172700000Y-72175000D03*
X166393678Y-75773912D03*
X163800612Y-78071601D03*
X167100000Y-112175000D03*
X182900000Y-105775000D03*
X182900000Y-108075000D03*
X164693678Y-75773912D03*
X186500000Y-100075000D03*
X185400000Y-100075000D03*
X210500000Y-104175000D03*
X186500000Y-67275000D03*
X182900000Y-106575000D03*
X188500000Y-68975000D03*
X176900000Y-67875000D03*
X205500000Y-104175000D03*
X193800000Y-97675000D03*
X182900000Y-112475000D03*
X159700000Y-79075000D03*
X209500000Y-104175000D03*
X185500000Y-97975000D03*
X191000000Y-99875000D03*
X188800000Y-66475000D03*
X192500000Y-104175000D03*
X153300000Y-75075000D03*
X188500000Y-97975000D03*
X167200000Y-98175000D03*
X166400000Y-76602124D03*
X211500000Y-104175000D03*
X200500000Y-104175000D03*
X186800000Y-69075000D03*
X188600000Y-68175000D03*
X174100000Y-75175000D03*
X161900000Y-76475000D03*
X182900000Y-116375000D03*
X136600000Y-83175000D03*
X163800612Y-75771601D03*
X187700000Y-104075000D03*
X201500000Y-104175000D03*
X162761455Y-77207290D03*
X182900000Y-115375000D03*
X163800612Y-74771601D03*
X178700000Y-73175000D03*
X182900000Y-114375000D03*
X191000000Y-101275000D03*
X166400000Y-74775000D03*
X206500000Y-104175000D03*
X161900000Y-74675000D03*
X210400000Y-81075000D03*
X191700000Y-72175000D03*
X162800000Y-73775000D03*
X184800000Y-62875000D03*
X199500000Y-104175000D03*
X208500000Y-104175000D03*
X165700000Y-63375000D03*
X198500000Y-104175000D03*
X162799388Y-76505523D03*
X202500000Y-104175000D03*
X182900000Y-113475000D03*
X186500000Y-97975000D03*
X187400000Y-100075000D03*
X178600000Y-76275000D03*
X186200000Y-65775000D03*
X168200000Y-67675000D03*
X143600000Y-90375000D03*
X163800612Y-77271601D03*
X186200000Y-64975000D03*
X182900000Y-109675000D03*
X172500000Y-76575000D03*
X164700000Y-76602124D03*
%TO.N,/Debug/DBG_LED_1*%
X171149265Y-79774265D03*
X169771992Y-78895591D03*
%TO.N,/CAN/INT_N*%
X163100000Y-83675000D03*
X164199994Y-82475000D03*
%TO.N,/CAN/CS_N*%
X151200000Y-82475000D03*
X153900000Y-82475000D03*
%TO.N,Net-(U8-~{RESET})*%
X149100000Y-82275000D03*
%TO.N,+3V3*%
X163715403Y-70041874D03*
X159302943Y-77775000D03*
X194400000Y-88375000D03*
X148000000Y-95880000D03*
X159850000Y-76625000D03*
X166700000Y-109975000D03*
X182800000Y-111075000D03*
X194800000Y-73675000D03*
X166700000Y-110975000D03*
X159600000Y-73425000D03*
X166200000Y-81875000D03*
X158800000Y-74775000D03*
X138400000Y-73875000D03*
X123110000Y-92810000D03*
X147100000Y-83575000D03*
X167400000Y-71375000D03*
X166600000Y-81025000D03*
%TO.N,/Debug/I2C_SCL*%
X154800000Y-70775000D03*
%TO.N,/Debug/I2C_SDA*%
X155465642Y-70175000D03*
%TO.N,/GPS/RTC_IN*%
X172000000Y-96075000D03*
X167382244Y-80857376D03*
%TO.N,/GPS/RESET_N*%
X163525735Y-71549265D03*
X173100000Y-95475000D03*
%TO.N,/GPS/TXD*%
X166200000Y-106875000D03*
X162797054Y-81875000D03*
%TO.N,/GPS/RXD*%
X166400000Y-108275000D03*
X161948527Y-81875000D03*
%TO.N,/Debug/DBG_LED_2*%
X170400000Y-78400000D03*
X171600049Y-79004951D03*
%TO.N,/Debug/MCU_UART_TX*%
X165150000Y-80675000D03*
%TO.N,/Debug/MCU_UART_RX*%
X165500000Y-81475000D03*
%TO.N,/Debug/SWCLK*%
X153275499Y-71875000D03*
%TO.N,/Debug/SWDIO*%
X153900000Y-71375000D03*
%TO.N,/RF/RF_TX_EN_N*%
X181500000Y-83475000D03*
X186400000Y-78025000D03*
%TO.N,/RF/RF_TX_EN*%
X158100000Y-72025000D03*
X176850000Y-66575000D03*
%TD*%
%TO.N,/RF/RFO_HP*%
D44*
X171570368Y-73922500D02*
X169000000Y-73922500D01*
X170800000Y-71175000D02*
X170800000Y-72122500D01*
X167785000Y-73922500D02*
X167737500Y-73875000D01*
X169000000Y-73922500D02*
X167785000Y-73922500D01*
X170800000Y-72122500D02*
X169000000Y-73922500D01*
X168250000Y-73875000D02*
X167737500Y-73875000D01*
%TO.N,/RF/RFI_N*%
X167737500Y-74875000D02*
X171327868Y-74875000D01*
X171327868Y-74875000D02*
X171570368Y-74632500D01*
%TO.N,/RF/RFI_P*%
X171570368Y-75262500D02*
X171457868Y-75375000D01*
X171457868Y-75375000D02*
X167737500Y-75375000D01*
%TO.N,GND*%
X167140000Y-112135000D02*
X167100000Y-112175000D01*
X172309988Y-76384988D02*
X172500000Y-76575000D01*
X186335000Y-103440000D02*
X185700000Y-104075000D01*
X146088022Y-92070000D02*
X145295000Y-92070000D01*
X142925000Y-82575000D02*
X142400000Y-82575000D01*
X189612500Y-72175000D02*
X191700000Y-72175000D01*
X191215235Y-97579765D02*
X193704765Y-97579765D01*
X133350000Y-77425000D02*
X133300000Y-77475000D01*
X208100000Y-81025000D02*
X206850000Y-82275000D01*
X165707000Y-70532000D02*
X165900000Y-70725000D01*
X159900000Y-78875000D02*
X159700000Y-79075000D01*
X167240000Y-98135000D02*
X167200000Y-98175000D01*
X210350000Y-81025000D02*
X208100000Y-81025000D01*
X145295000Y-92070000D02*
X143600000Y-90375000D01*
X186335000Y-102815000D02*
X186335000Y-103440000D01*
X134925000Y-77425000D02*
X133350000Y-77425000D01*
X169100000Y-98135000D02*
X167240000Y-98135000D01*
X165707000Y-69377600D02*
X165707000Y-70532000D01*
X137110000Y-100835000D02*
X139650000Y-100835000D01*
X183800000Y-97275000D02*
X184500000Y-97975000D01*
X181100000Y-98135000D02*
X181960000Y-97275000D01*
X154525000Y-92000000D02*
X154600000Y-92075000D01*
X181960000Y-97275000D02*
X183800000Y-97275000D01*
X177150000Y-74725000D02*
X177100000Y-74675000D01*
X182440000Y-105535000D02*
X182900000Y-105075000D01*
X172395000Y-73582500D02*
X172395000Y-72770000D01*
X193704765Y-97579765D02*
X193800000Y-97675000D01*
X151975000Y-75400000D02*
X152975000Y-75400000D01*
X191912500Y-70175000D02*
X191912500Y-71962500D01*
X169100000Y-112135000D02*
X167140000Y-112135000D01*
X206850000Y-82275000D02*
X197950000Y-82275000D01*
X191912500Y-71962500D02*
X191700000Y-72175000D01*
X142400000Y-82575000D02*
X141500000Y-83475000D01*
X172309988Y-74422500D02*
X172309988Y-76384988D01*
X173000000Y-74422500D02*
X173852500Y-74422500D01*
X179650000Y-74725000D02*
X177150000Y-74725000D01*
X173852500Y-74422500D02*
X174200000Y-74075000D01*
X168150000Y-67625000D02*
X168200000Y-67675000D01*
X160862500Y-78875000D02*
X159900000Y-78875000D01*
X181100000Y-105535000D02*
X182440000Y-105535000D01*
X181100000Y-100335000D02*
X184240000Y-100335000D01*
X172395000Y-72770000D02*
X171800000Y-72175000D01*
X154525000Y-90737500D02*
X154525000Y-92000000D01*
X152975000Y-75400000D02*
X153300000Y-75075000D01*
X184240000Y-100335000D02*
X184500000Y-100075000D01*
X166850000Y-67625000D02*
X168150000Y-67625000D01*
%TO.N,/RF/RF_O*%
D45*
X175500000Y-73175000D02*
X173407500Y-73175000D01*
X173407500Y-73175000D02*
X173000000Y-73582500D01*
%TO.N,/RF/RF_I*%
X173912500Y-76175000D02*
X173000000Y-75262500D01*
X175500000Y-76175000D02*
X173912500Y-76175000D01*
%TO.N,Net-(D2-K)*%
D44*
X190270000Y-89685000D02*
X185090000Y-89685000D01*
X185090000Y-89685000D02*
X185050000Y-89725000D01*
%TO.N,/Debug/DBG_LED_1*%
X171149265Y-79774265D02*
X181100000Y-89725000D01*
X167737500Y-78375000D02*
X169251401Y-78375000D01*
X181100000Y-89725000D02*
X183225000Y-89725000D01*
X169251401Y-78375000D02*
X169771992Y-78895591D01*
%TO.N,/CAN/CAN_TX*%
X148675000Y-90737500D02*
X148675000Y-92708920D01*
X148675000Y-92708920D02*
X146773920Y-94610000D01*
X146773920Y-94610000D02*
X146088022Y-94610000D01*
%TO.N,/CAN/CAN_RX*%
X146088022Y-93340000D02*
X146686052Y-93340000D01*
X148175000Y-89794044D02*
X148406544Y-89562500D01*
X148406544Y-89562500D02*
X149024999Y-89562500D01*
X148175000Y-91851052D02*
X148175000Y-89794044D01*
X149325000Y-89862501D02*
X149325000Y-90737500D01*
X149024999Y-89562500D02*
X149325000Y-89862501D01*
X146686052Y-93340000D02*
X148175000Y-91851052D01*
%TO.N,Net-(U8-OSC2)*%
X153150000Y-90812500D02*
X153225000Y-90737500D01*
X153150000Y-93012500D02*
X153150000Y-90812500D01*
X153200000Y-93062500D02*
X153150000Y-93012500D01*
%TO.N,/CAN/EXT_CLK*%
X171000000Y-79075000D02*
X160512500Y-89562500D01*
X167737500Y-77375000D02*
X170223529Y-77375000D01*
X170223529Y-77375000D02*
X171000000Y-78151471D01*
X171000000Y-78151471D02*
X171000000Y-79075000D01*
X153875000Y-89862501D02*
X153875000Y-90737500D01*
X160512500Y-89562500D02*
X154175001Y-89562500D01*
X154175001Y-89562500D02*
X153875000Y-89862501D01*
%TO.N,/CAN/INT_N*%
X153225000Y-83950000D02*
X153225000Y-85012500D01*
X164550000Y-79562500D02*
X164550000Y-82025000D01*
X153500000Y-83675000D02*
X153225000Y-83950000D01*
X163100000Y-83675000D02*
X153500000Y-83675000D01*
X164550000Y-82025000D02*
X164199994Y-82375006D01*
X164199994Y-82375006D02*
X164199994Y-82475000D01*
%TO.N,/CAN/SCLK*%
X152575000Y-83400000D02*
X152575000Y-85012500D01*
X152900000Y-83075000D02*
X152575000Y-83400000D01*
X169400000Y-79375000D02*
X169400000Y-80109314D01*
X166434314Y-83075000D02*
X152900000Y-83075000D01*
X169400000Y-80109314D02*
X166434314Y-83075000D01*
X168900000Y-78875000D02*
X169400000Y-79375000D01*
X167737500Y-78875000D02*
X168900000Y-78875000D01*
%TO.N,/CAN/SLAVE_I*%
X162550000Y-79562500D02*
X162550000Y-80425000D01*
X153534315Y-81875000D02*
X151275000Y-83775000D01*
X162550000Y-80425000D02*
X161100000Y-81875000D01*
X161100000Y-81875000D02*
X153534315Y-81875000D01*
X151275000Y-83775000D02*
X151275000Y-85012500D01*
%TO.N,/CAN/SLAVE_O*%
X150625000Y-83775000D02*
X150625000Y-85012500D01*
X162050000Y-79562500D02*
X162050000Y-80359314D01*
X160934314Y-81475000D02*
X153368629Y-81475000D01*
X162050000Y-80359314D02*
X160934314Y-81475000D01*
X153368629Y-81475000D02*
X150625000Y-83775000D01*
%TO.N,/CAN/CS_N*%
X150800000Y-82475000D02*
X149975000Y-83300000D01*
X164050000Y-79562500D02*
X164050000Y-81776465D01*
X149975000Y-83300000D02*
X149975000Y-85012500D01*
X151200000Y-82475000D02*
X150800000Y-82475000D01*
X164050000Y-81776465D02*
X163351465Y-82475000D01*
X163351465Y-82475000D02*
X153900000Y-82475000D01*
%TO.N,Net-(U8-~{RESET})*%
X149325000Y-82500000D02*
X149100000Y-82275000D01*
X149325000Y-85012500D02*
X149325000Y-82500000D01*
%TO.N,+3V3*%
X169100000Y-109935000D02*
X166740000Y-109935000D01*
X193100000Y-87075000D02*
X194400000Y-88375000D01*
X148000000Y-95880000D02*
X148555000Y-95880000D01*
X193090000Y-89685000D02*
X194400000Y-88375000D01*
X192320000Y-89685000D02*
X193090000Y-89685000D01*
X138400000Y-73875000D02*
X139500000Y-74975000D01*
X160862500Y-76875000D02*
X160100000Y-76875000D01*
X146088022Y-95880000D02*
X148495000Y-95880000D01*
X148555000Y-95880000D02*
X149300000Y-96625000D01*
X146100000Y-82575000D02*
X147100000Y-83575000D01*
X182760000Y-111035000D02*
X182800000Y-111075000D01*
X160862500Y-73375000D02*
X159650000Y-73375000D01*
X123100000Y-92820000D02*
X123110000Y-92810000D01*
X159402943Y-77875000D02*
X159302943Y-77775000D01*
X165550000Y-71876471D02*
X163715403Y-70041874D01*
X135300000Y-65475000D02*
X137840000Y-65475000D01*
X167050000Y-72687500D02*
X167050000Y-71725000D01*
X166600000Y-81025000D02*
X166600000Y-81475000D01*
X166550000Y-79562500D02*
X166550000Y-80975000D01*
X148675000Y-85012500D02*
X148675000Y-83450000D01*
X139500000Y-74975000D02*
X139500000Y-75875000D01*
X166740000Y-109935000D02*
X166700000Y-109975000D01*
X139500000Y-75875000D02*
X138900000Y-76475000D01*
X144650000Y-82575000D02*
X146100000Y-82575000D01*
X166600000Y-81475000D02*
X166200000Y-81875000D01*
X192325000Y-87075000D02*
X193100000Y-87075000D01*
X147800000Y-82575000D02*
X144650000Y-82575000D01*
X160862500Y-77875000D02*
X159402943Y-77875000D01*
X194800000Y-75162500D02*
X194800000Y-73675000D01*
X146088022Y-95880000D02*
X148000000Y-95880000D01*
X160862500Y-75375000D02*
X159400000Y-75375000D01*
X167050000Y-71725000D02*
X167400000Y-71375000D01*
X159650000Y-73375000D02*
X159600000Y-73425000D01*
X181100000Y-111035000D02*
X182760000Y-111035000D01*
X166550000Y-80975000D02*
X166600000Y-81025000D01*
X138900000Y-76475000D02*
X137200000Y-76475000D01*
X159400000Y-75375000D02*
X158800000Y-74775000D01*
X123100000Y-94350000D02*
X123100000Y-92820000D01*
X166760000Y-111035000D02*
X166700000Y-110975000D01*
X148675000Y-83450000D02*
X147800000Y-82575000D01*
X169100000Y-111035000D02*
X166760000Y-111035000D01*
X165550000Y-72687500D02*
X165550000Y-71876471D01*
X160100000Y-76875000D02*
X159850000Y-76625000D01*
%TO.N,/RF/VR_PA*%
X169830000Y-72245000D02*
X169830000Y-71175000D01*
X168700000Y-73375000D02*
X169830000Y-72245000D01*
X169830000Y-71175000D02*
X170630000Y-70375000D01*
X175212500Y-70375000D02*
X175212500Y-67865000D01*
X167737500Y-73375000D02*
X168700000Y-73375000D01*
X170630000Y-70375000D02*
X175212500Y-70375000D01*
%TO.N,/Debug/I2C_SCL*%
X162050000Y-71859315D02*
X160965685Y-70775000D01*
X160965685Y-70775000D02*
X154800000Y-70775000D01*
X162050000Y-72687500D02*
X162050000Y-71859315D01*
%TO.N,/Debug/I2C_SDA*%
X162550000Y-72687500D02*
X162550000Y-71793630D01*
X162550000Y-71793630D02*
X160931370Y-70175000D01*
X159400000Y-70175000D02*
X155465642Y-70175000D01*
X160931370Y-70175000D02*
X159400000Y-70175000D01*
%TO.N,Net-(ANT1-FEED)*%
D46*
X189836227Y-102500000D02*
X188475000Y-102500000D01*
X189836227Y-104136227D02*
X192000000Y-106300000D01*
X189836227Y-102500000D02*
X189836227Y-104136227D01*
%TO.N,/Debug/NRST*%
D44*
X197950000Y-78275000D02*
X206850000Y-78275000D01*
X209325000Y-78275000D02*
X210350000Y-79300000D01*
X170384314Y-76375000D02*
X174284314Y-80275000D01*
X196950000Y-77275000D02*
X197950000Y-78275000D01*
X194800000Y-76987500D02*
X195087500Y-77275000D01*
X195087500Y-77275000D02*
X196950000Y-77275000D01*
X206850000Y-78275000D02*
X209325000Y-78275000D01*
X197500000Y-78075000D02*
X198500000Y-78075000D01*
X167737500Y-76375000D02*
X170384314Y-76375000D01*
X195950000Y-80275000D02*
X197950000Y-78275000D01*
X174284314Y-80275000D02*
X195950000Y-80275000D01*
%TO.N,Net-(C20-Pad1)*%
D45*
X185825000Y-73337500D02*
X185862500Y-73375000D01*
X187025000Y-73375000D02*
X185862500Y-73375000D01*
X187725000Y-72237500D02*
X187725000Y-72675000D01*
X185787500Y-70275000D02*
X185825000Y-70312500D01*
X185825000Y-70312500D02*
X185825000Y-73337500D01*
X187725000Y-72675000D02*
X187025000Y-73375000D01*
X187787500Y-72175000D02*
X187725000Y-72237500D01*
%TO.N,/STM32/OSC_OUT*%
D44*
X166050000Y-71775000D02*
X166050000Y-72687500D01*
X164350000Y-68982000D02*
X164350000Y-70075000D01*
X165650000Y-67568000D02*
X165707000Y-67625000D01*
X165707000Y-67625000D02*
X164350000Y-68982000D01*
X164350000Y-70075000D02*
X166050000Y-71775000D01*
X165650000Y-65125000D02*
X165650000Y-67568000D01*
%TO.N,/STM32/OSC_IN*%
X166850000Y-69377600D02*
X166550000Y-69677600D01*
X167784900Y-69377600D02*
X166850000Y-69377600D01*
X169800000Y-67362500D02*
X167784900Y-69377600D01*
X169800000Y-66825000D02*
X169800000Y-67362500D01*
X166550000Y-69677600D02*
X166550000Y-72687500D01*
%TO.N,Net-(J4-In)*%
X187650000Y-62675000D02*
X187600000Y-62625000D01*
D45*
X189987500Y-70275000D02*
X190087500Y-70175000D01*
X187650000Y-70237500D02*
X187650000Y-62675000D01*
X187612500Y-70275000D02*
X187650000Y-70237500D01*
X187612500Y-70275000D02*
X189987500Y-70275000D01*
%TO.N,+1V5*%
D44*
X150250000Y-75400000D02*
X150250000Y-78200000D01*
X150250000Y-78200000D02*
X150225000Y-78225000D01*
X146025000Y-72975000D02*
X144000000Y-75000000D01*
X165050000Y-72687500D02*
X165050000Y-72225001D01*
X162399999Y-69575000D02*
X154500000Y-69575000D01*
X153800000Y-72975000D02*
X151400000Y-72975000D01*
X150225000Y-78225000D02*
X147225000Y-78225000D01*
X159751471Y-77375000D02*
X155351471Y-72975000D01*
X155351471Y-72975000D02*
X153800000Y-72975000D01*
X147225000Y-78225000D02*
X144000000Y-75000000D01*
X154500000Y-69575000D02*
X151100000Y-72975000D01*
X165050000Y-72225001D02*
X162399999Y-69575000D01*
X151100000Y-72975000D02*
X146025000Y-72975000D01*
X151400000Y-72975000D02*
X151100000Y-72975000D01*
X160862500Y-77375000D02*
X159751471Y-77375000D01*
%TO.N,Net-(U1-VLXSMPS)*%
X152125000Y-78075000D02*
X151975000Y-78225000D01*
X151975000Y-78225000D02*
X152125000Y-78375000D01*
X152125000Y-78375000D02*
X160862500Y-78375000D01*
%TO.N,Net-(U6-RF_IN)*%
D46*
X188883727Y-99235000D02*
X181100000Y-99235000D01*
X189836227Y-100675000D02*
X189836227Y-98958773D01*
X189836227Y-100187500D02*
X188883727Y-99235000D01*
X189836227Y-100675000D02*
X189836227Y-100187500D01*
X189836227Y-98958773D02*
X189924765Y-98870235D01*
%TO.N,/CAN/CANH*%
D44*
X133100000Y-97575000D02*
X133100000Y-95687500D01*
X135800000Y-100275000D02*
X133100000Y-97575000D01*
X134012625Y-103375000D02*
X135800000Y-101587625D01*
X133100000Y-95500000D02*
X133990000Y-94610000D01*
X135800000Y-101587625D02*
X135800000Y-100275000D01*
X133300000Y-103375000D02*
X134012625Y-103375000D01*
X133990000Y-94610000D02*
X135586976Y-94610000D01*
X133100000Y-95687500D02*
X133100000Y-95500000D01*
%TO.N,/CAN/CANL*%
X132325000Y-98590000D02*
X132325000Y-94450000D01*
X135586976Y-93340000D02*
X133622500Y-93340000D01*
X133622500Y-93340000D02*
X133100000Y-93862500D01*
X132325000Y-94450000D02*
X132912500Y-93862500D01*
X134570000Y-100835000D02*
X132325000Y-98590000D01*
X132912500Y-93862500D02*
X133100000Y-93862500D01*
%TO.N,+5V*%
D47*
X130700000Y-103175000D02*
X132001500Y-104476500D01*
X133300000Y-78375000D02*
X134925000Y-78375000D01*
X130700000Y-80975000D02*
X130700000Y-76370000D01*
X130700000Y-103175000D02*
X130700000Y-85085000D01*
X132670000Y-83115000D02*
X130700000Y-85085000D01*
X132760000Y-68015000D02*
X132760000Y-74310000D01*
X132760000Y-74310000D02*
X134925000Y-76475000D01*
X138380000Y-103375000D02*
X135840000Y-103375000D01*
X130700000Y-76370000D02*
X132760000Y-74310000D01*
X132001500Y-104476500D02*
X134738500Y-104476500D01*
X132760000Y-68015000D02*
X132760000Y-65475000D01*
X130700000Y-80975000D02*
X133300000Y-78375000D01*
X130700000Y-85085000D02*
X130700000Y-80975000D01*
X134738500Y-104476500D02*
X135840000Y-103375000D01*
X134915000Y-83115000D02*
X132670000Y-83115000D01*
%TO.N,Net-(U5-RF1)*%
D45*
X178125000Y-74075000D02*
X177225000Y-73175000D01*
X179650000Y-74075000D02*
X178125000Y-74075000D01*
%TO.N,Net-(U1-PH3)*%
D44*
X167737500Y-75875000D02*
X170450000Y-75875000D01*
X170450000Y-75875000D02*
X173850000Y-79275000D01*
X173850000Y-79275000D02*
X176350000Y-79275000D01*
%TO.N,Net-(D1-K)*%
X123100000Y-96400000D02*
X123100000Y-98160000D01*
%TO.N,/CAN/5VCAN*%
D47*
X140920000Y-103375000D02*
X148850000Y-103375000D01*
X137200000Y-95875000D02*
X140920000Y-99595000D01*
X137195000Y-95880000D02*
X137200000Y-95875000D01*
X135586976Y-95880000D02*
X137195000Y-95880000D01*
X148850000Y-103375000D02*
X149900000Y-102325000D01*
X140920000Y-99595000D02*
X140920000Y-103375000D01*
%TO.N,/CAN/GNDCAN*%
D44*
X142190000Y-100835000D02*
X149665000Y-100835000D01*
X137195000Y-92070000D02*
X142190000Y-97065000D01*
X142190000Y-97065000D02*
X142190000Y-100835000D01*
X135586976Y-92070000D02*
X137195000Y-92070000D01*
X149665000Y-100835000D02*
X149900000Y-100600000D01*
%TO.N,Net-(U5-RF2)*%
D45*
X179650000Y-75375000D02*
X178025000Y-75375000D01*
X178025000Y-75375000D02*
X177225000Y-76175000D01*
%TO.N,Net-(U5-RFC)*%
X182787500Y-74725000D02*
X181325000Y-74725000D01*
X184137500Y-73375000D02*
X182787500Y-74725000D01*
%TO.N,/GPS/RTC_IN*%
D44*
X181450000Y-109050000D02*
X181235000Y-108835000D01*
X179660000Y-108835000D02*
X181100000Y-108835000D01*
X167050000Y-80525132D02*
X167382244Y-80857376D01*
X181235000Y-108835000D02*
X181100000Y-108835000D01*
X172000000Y-96075000D02*
X172000000Y-100545000D01*
X172000000Y-100545000D02*
X179660000Y-108835000D01*
X167050000Y-79562500D02*
X167050000Y-80525132D01*
%TO.N,/GPS/RESET_N*%
X181470000Y-102535000D02*
X181100000Y-102535000D01*
X163550000Y-71573530D02*
X163525735Y-71549265D01*
X181685000Y-102750000D02*
X181470000Y-102535000D01*
X180160000Y-102535000D02*
X181100000Y-102535000D01*
X173100000Y-95475000D02*
X180160000Y-102535000D01*
X163550000Y-72687500D02*
X163550000Y-71573530D01*
%TO.N,/GPS/TXD*%
X169000000Y-107925000D02*
X169000000Y-107835000D01*
X163550000Y-79562500D02*
X163550000Y-81122054D01*
X166200000Y-106875000D02*
X167275000Y-107950000D01*
X163550000Y-81122054D02*
X162797054Y-81875000D01*
X168975000Y-107950000D02*
X169000000Y-107925000D01*
X169000000Y-107835000D02*
X169100000Y-107735000D01*
X167275000Y-107950000D02*
X168975000Y-107950000D01*
%TO.N,/GPS/RXD*%
X169000000Y-108935000D02*
X169100000Y-108835000D01*
X167175000Y-109050000D02*
X168975000Y-109050000D01*
X168975000Y-109050000D02*
X169000000Y-109025000D01*
X163050000Y-80773527D02*
X161948527Y-81875000D01*
X169000000Y-109025000D02*
X169000000Y-108935000D01*
X166400000Y-108275000D02*
X167175000Y-109050000D01*
X163050000Y-79562500D02*
X163050000Y-80773527D01*
%TO.N,Net-(D3-K)*%
X185100000Y-87075000D02*
X185025000Y-87000000D01*
X184865000Y-87135000D02*
X184850000Y-87150000D01*
X190275000Y-87075000D02*
X185100000Y-87075000D01*
%TO.N,/Debug/DBG_LED_2*%
X169875000Y-77875000D02*
X170400000Y-78400000D01*
X167737500Y-77875000D02*
X169875000Y-77875000D01*
X171600049Y-79004951D02*
X179595098Y-87000000D01*
X179595098Y-87000000D02*
X183200000Y-87000000D01*
%TO.N,/Debug/MCU_UART_TX*%
X165550000Y-79562500D02*
X165550000Y-80275000D01*
X165550000Y-80275000D02*
X165150000Y-80675000D01*
%TO.N,/Debug/MCU_UART_RX*%
X166000000Y-80975000D02*
X165500000Y-81475000D01*
X166000000Y-79612500D02*
X166000000Y-80975000D01*
X166050000Y-79562500D02*
X166000000Y-79612500D01*
%TO.N,/Debug/SWCLK*%
X160862500Y-75875000D02*
X158817157Y-75875000D01*
X158817157Y-75875000D02*
X155517156Y-72575000D01*
X155517156Y-72575000D02*
X153975499Y-72575000D01*
X153975499Y-72575000D02*
X153275499Y-71875000D01*
%TO.N,/Debug/SWO*%
X161550000Y-80293628D02*
X160768628Y-81075000D01*
X146600000Y-81075000D02*
X137840000Y-72315000D01*
X137840000Y-72315000D02*
X137840000Y-68015000D01*
X160768628Y-81075000D02*
X146600000Y-81075000D01*
X161550000Y-79562500D02*
X161550000Y-80293628D01*
%TO.N,/Debug/SWDIO*%
X161550000Y-71925000D02*
X161000000Y-71375000D01*
X161550000Y-72687500D02*
X161550000Y-71925000D01*
X161000000Y-71375000D02*
X153900000Y-71375000D01*
%TO.N,/RF/RF_TX_EN_N*%
X182075000Y-76125000D02*
X181325000Y-75375000D01*
X179023447Y-84235000D02*
X179023447Y-83475000D01*
X180583447Y-83475000D02*
X180893133Y-83475000D01*
X179623447Y-83475000D02*
X179623447Y-83715000D01*
X180893133Y-83475000D02*
X181500000Y-83475000D01*
X179623447Y-82715000D02*
X179623447Y-83475000D01*
X178063447Y-82475000D02*
X178183447Y-82475000D01*
X180463447Y-83475000D02*
X180583447Y-83475000D01*
X179263447Y-82475000D02*
X179383447Y-82475000D01*
X167737500Y-76875000D02*
X170318628Y-76875000D01*
X179623447Y-83715000D02*
X179623447Y-84235000D01*
X186400000Y-77925000D02*
X184600000Y-76125000D01*
X178423447Y-83475000D02*
X178423447Y-84235000D01*
X184600000Y-76125000D02*
X182075000Y-76125000D01*
X178663447Y-84475000D02*
X178783447Y-84475000D01*
X176918628Y-83475000D02*
X177583447Y-83475000D01*
X179023447Y-83475000D02*
X179023447Y-82715000D01*
X186400000Y-78025000D02*
X186400000Y-77925000D01*
X180223447Y-84235000D02*
X180223447Y-83715000D01*
X178423447Y-82715000D02*
X178423447Y-83235000D01*
X179863447Y-84475000D02*
X179983447Y-84475000D01*
X170318628Y-76875000D02*
X176918628Y-83475000D01*
X177823447Y-83235000D02*
X177823447Y-82715000D01*
X178423447Y-83235000D02*
X178423447Y-83475000D01*
X179023447Y-82715000D02*
G75*
G02*
X179263447Y-82475047I239953J0D01*
G01*
X177583447Y-83475000D02*
G75*
G03*
X177823400Y-83235000I-47J240000D01*
G01*
X179983447Y-84475000D02*
G75*
G03*
X180223400Y-84235000I-47J240000D01*
G01*
X179383447Y-82475000D02*
G75*
G02*
X179623400Y-82715000I-47J-240000D01*
G01*
X178783447Y-84475000D02*
G75*
G03*
X179023400Y-84235000I-47J240000D01*
G01*
X180223447Y-83715000D02*
G75*
G02*
X180463447Y-83475047I239953J0D01*
G01*
X179623447Y-84235000D02*
G75*
G03*
X179863447Y-84474953I239953J0D01*
G01*
X177823447Y-82715000D02*
G75*
G02*
X178063447Y-82475047I239953J0D01*
G01*
X178423447Y-84235000D02*
G75*
G03*
X178663447Y-84474953I239953J0D01*
G01*
X178183447Y-82475000D02*
G75*
G02*
X178423400Y-82715000I-47J-240000D01*
G01*
%TO.N,/RF/RF_TX_EN*%
X160862500Y-74875000D02*
X160298529Y-74875000D01*
X158100000Y-72773529D02*
X158100000Y-72025000D01*
X160298529Y-74875000D02*
X159448529Y-74025000D01*
X159448529Y-74025000D02*
X159351471Y-74025000D01*
X181500000Y-73900000D02*
X181325000Y-74075000D01*
X176950000Y-66575000D02*
X181500000Y-71125000D01*
X181500000Y-71125000D02*
X181500000Y-73900000D01*
X159351471Y-74025000D02*
X158100000Y-72773529D01*
X176850000Y-66575000D02*
X176950000Y-66575000D01*
%TD*%
M02*
