%TF.GenerationSoftware,KiCad,Pcbnew,10.0.6*%
%TF.CreationDate,2026-10-03T10:19:07-05:00*%
%TF.ProjectId,telemetry_GPS_transmitter,74656c65-6d65-4747-9279-5f4750535f74,rev?*%
%TF.SameCoordinates,Original*%
%TF.FileFunction,Copper,L2,Inr*%
%TF.FilePolarity,Positive*%
%FSLAX46Y46*%
G04 Gerber Fmt 4.6, Leading zero omitted, Abs format (unit mm)*
G04 Created by KiCad (PCBNEW 10.0.6) date 2026-10-03 10:19:07*
%MOMM*%
%LPD*%
G01*
G04 APERTURE LIST*
%TA.AperFunction,ComponentPad*%
%ADD10R,1.700000X1.700000*%
%TD*%
%TA.AperFunction,ComponentPad*%
%ADD11C,1.700000*%
%TD*%
%TA.AperFunction,ComponentPad*%
%ADD12C,2.800000*%
%TD*%
%TA.AperFunction,ComponentPad*%
%ADD13R,1.303000X1.303000*%
%TD*%
%TA.AperFunction,ComponentPad*%
%ADD14C,1.303000*%
%TD*%
%TA.AperFunction,ViaPad*%
%ADD15C,0.600000*%
%TD*%
G04 APERTURE END LIST*
D10*
%TO.N,/Debug/I2C_SCL*%
%TO.C,J3*%
X122500000Y-76800000D03*
D11*
%TO.N,/Debug/I2C_SDA*%
X122500000Y-79340000D03*
%TO.N,GND*%
X122500000Y-81880000D03*
%TD*%
D12*
%TO.N,+1V5*%
%TO.C,TP1*%
X139900000Y-75725000D03*
%TD*%
D13*
%TO.N,/CAN/CANH*%
%TO.C,J5*%
X129200000Y-104100000D03*
D14*
%TO.N,/CAN/CANL*%
X130470000Y-101560000D03*
%TO.N,+5V*%
X131740000Y-104100000D03*
%TO.N,GND*%
X133010000Y-101560000D03*
%TO.N,+5V*%
X134280000Y-104100000D03*
%TO.N,GND*%
X135550000Y-101560000D03*
%TO.N,/CAN/5VCAN*%
X136820000Y-104100000D03*
%TO.N,/CAN/GNDCAN*%
X138090000Y-101560000D03*
%TD*%
D10*
%TO.N,/Debug/MCU_UART_RX*%
%TO.C,J2*%
X155200000Y-99300000D03*
D11*
%TO.N,/Debug/MCU_UART_TX*%
X152660000Y-99300000D03*
%TO.N,GND*%
X150120000Y-99300000D03*
%TD*%
D10*
%TO.N,+5V*%
%TO.C,J1*%
X128660000Y-68740000D03*
D11*
X128660000Y-66200000D03*
%TO.N,/Debug/SWCLK*%
X131200000Y-68740000D03*
%TO.N,+3V3*%
X131200000Y-66200000D03*
%TO.N,/Debug/SWO*%
X133740000Y-68740000D03*
%TO.N,+3V3*%
X133740000Y-66200000D03*
%TO.N,/Debug/SWDIO*%
X136280000Y-68740000D03*
%TO.N,unconnected-(J1-Pin_8-Pad8)*%
X136280000Y-66200000D03*
%TO.N,GND*%
X138820000Y-68740000D03*
X138820000Y-66200000D03*
%TD*%
D15*
%TO.N,GND*%
X182100000Y-67200000D03*
X184900000Y-67200000D03*
X174500000Y-77000000D03*
X174600000Y-73900000D03*
X186900000Y-103300000D03*
X186900000Y-102000000D03*
X186900000Y-100600000D03*
%TO.N,+3V3*%
X144900000Y-96100000D03*
X178700000Y-111800000D03*
X162600000Y-111700000D03*
X162600000Y-110700000D03*
%TO.N,GND*%
X149900000Y-74400000D03*
X149900000Y-75500000D03*
X149400000Y-79700000D03*
%TO.N,+3V3*%
X154400000Y-77800000D03*
X154700000Y-75500000D03*
X154300000Y-74700000D03*
%TO.N,GND*%
X155400000Y-70700000D03*
X193400000Y-104900000D03*
X119800000Y-96900000D03*
X179700000Y-104800000D03*
X180400000Y-98700000D03*
X203400000Y-104900000D03*
X165800000Y-64400000D03*
X189400000Y-104900000D03*
X161800000Y-71450000D03*
X206000000Y-83200000D03*
X185000000Y-66300000D03*
X169600000Y-72900000D03*
X187400000Y-104900000D03*
X169700000Y-78000000D03*
X178800000Y-104800000D03*
X173000000Y-75400000D03*
X174400000Y-72300000D03*
X199400000Y-104900000D03*
X137400000Y-84200000D03*
X149100000Y-96800000D03*
X150500000Y-92800000D03*
X184700000Y-68000000D03*
X184400000Y-100800000D03*
X170100000Y-74800000D03*
X129200000Y-78200000D03*
X191400000Y-104900000D03*
X181600000Y-104800000D03*
X178800000Y-105800000D03*
X182400000Y-68900000D03*
X180400000Y-100800000D03*
X175700000Y-79900000D03*
X167700000Y-72900000D03*
X168600000Y-72900000D03*
X163000000Y-112900000D03*
X178800000Y-108800000D03*
X182400000Y-100800000D03*
X182300000Y-68000000D03*
X178800000Y-107300000D03*
X184400000Y-69700000D03*
X174100000Y-69700000D03*
X201400000Y-104900000D03*
X189700000Y-98400000D03*
X178800000Y-113200000D03*
X155600000Y-79800000D03*
X205400000Y-104900000D03*
X149200000Y-75800000D03*
X184400000Y-98700000D03*
X163100000Y-98900000D03*
X207400000Y-104900000D03*
X182600000Y-69700000D03*
X184600000Y-68900000D03*
X170000000Y-75900000D03*
X178800000Y-117000000D03*
X134000000Y-83900000D03*
X183600000Y-104800000D03*
X197400000Y-104900000D03*
X178800000Y-115000000D03*
X187600000Y-72900000D03*
X195400000Y-104900000D03*
X161700000Y-62800000D03*
X182400000Y-98700000D03*
X181900000Y-66400000D03*
X164100000Y-68400000D03*
X139500000Y-91100000D03*
X178800000Y-110400000D03*
X168400000Y-77300000D03*
X162700000Y-87600000D03*
X150700000Y-80500000D03*
X169500000Y-68800000D03*
X144200000Y-80500000D03*
X188200000Y-66500000D03*
X167200000Y-85100000D03*
X129500000Y-72800000D03*
X179000000Y-66500000D03*
%TO.N,/Debug/DBG_LED_1*%
X167049265Y-80499265D03*
X165671992Y-79620591D03*
%TO.N,/CAN/INT_N*%
X159000000Y-84400000D03*
X160099994Y-83200000D03*
%TO.N,/CAN/CS_N*%
X147100000Y-83200000D03*
X149800000Y-83200000D03*
%TO.N,Net-(U8-~{RESET})*%
X145000000Y-83000000D03*
%TO.N,+3V3*%
X155500000Y-73300000D03*
X155202943Y-78500000D03*
X190300000Y-89100000D03*
X155750000Y-77350000D03*
X159024265Y-70175735D03*
X191100000Y-75100000D03*
X155500000Y-74150000D03*
X162100000Y-82600000D03*
X134300000Y-74600000D03*
X119400000Y-87500000D03*
X159600000Y-69700000D03*
X163050000Y-71400000D03*
X143000000Y-84300000D03*
X163300000Y-72100000D03*
X162500000Y-81750000D03*
%TO.N,/Debug/I2C_SCL*%
X150700000Y-71500000D03*
%TO.N,/Debug/I2C_SDA*%
X151365642Y-70900000D03*
%TO.N,/GPS/RTC_IN*%
X167900000Y-96800000D03*
X163282244Y-81582376D03*
%TO.N,/GPS/RESET_N*%
X159425735Y-72274265D03*
X169000000Y-96200000D03*
%TO.N,/GPS/TXD*%
X162100000Y-107600000D03*
X158697054Y-82600000D03*
%TO.N,/GPS/RXD*%
X162300000Y-109000000D03*
X157848527Y-82600000D03*
%TO.N,/Debug/DBG_LED_2*%
X166300000Y-79125000D03*
X167500049Y-79729951D03*
%TO.N,/Debug/MCU_UART_RX*%
X161400000Y-82200000D03*
%TO.N,/Debug/MCU_UART_TX*%
X161050000Y-81400000D03*
%TO.N,/Debug/SWCLK*%
X149175499Y-72600000D03*
%TO.N,/Debug/SWDIO*%
X149800000Y-72100000D03*
%TO.N,/RF/RF_TX_EN_N*%
X182300000Y-78750000D03*
X179600000Y-81600000D03*
%TO.N,/RF/RF_TX_EN*%
X154000000Y-72750000D03*
X172750000Y-67300000D03*
%TD*%
%TA.AperFunction,Conductor*%
%TO.N,GND*%
G36*
X182444688Y-61770185D02*
G01*
X182490443Y-61822989D01*
X182501638Y-61872847D01*
X182550000Y-65500000D01*
X182550000Y-65500005D01*
X183207534Y-70300000D01*
X183842466Y-70300000D01*
X184278742Y-67115186D01*
X201349500Y-67115186D01*
X201349500Y-67384813D01*
X201379686Y-67652719D01*
X201379688Y-67652731D01*
X201439684Y-67915594D01*
X201439687Y-67915602D01*
X201528734Y-68170082D01*
X201645714Y-68412994D01*
X201645716Y-68412997D01*
X201789162Y-68641289D01*
X201914573Y-68798549D01*
X201952609Y-68846246D01*
X201957266Y-68852085D01*
X202147915Y-69042734D01*
X202358711Y-69210838D01*
X202587003Y-69354284D01*
X202829921Y-69471267D01*
X203021049Y-69538145D01*
X203084397Y-69560312D01*
X203084405Y-69560315D01*
X203084408Y-69560315D01*
X203084409Y-69560316D01*
X203347268Y-69620312D01*
X203615187Y-69650499D01*
X203615188Y-69650500D01*
X203615191Y-69650500D01*
X203884812Y-69650500D01*
X203884812Y-69650499D01*
X204152732Y-69620312D01*
X204415591Y-69560316D01*
X204670079Y-69471267D01*
X204912997Y-69354284D01*
X205141289Y-69210838D01*
X205352085Y-69042734D01*
X205542734Y-68852085D01*
X205710838Y-68641289D01*
X205854284Y-68412997D01*
X205971267Y-68170079D01*
X206060316Y-67915591D01*
X206120312Y-67652732D01*
X206150500Y-67384809D01*
X206150500Y-67115191D01*
X206120312Y-66847268D01*
X206060316Y-66584409D01*
X206042289Y-66532892D01*
X206033232Y-66507007D01*
X205971267Y-66329921D01*
X205854284Y-66087003D01*
X205710838Y-65858711D01*
X205542734Y-65647915D01*
X205352085Y-65457266D01*
X205141289Y-65289162D01*
X204912997Y-65145716D01*
X204912994Y-65145714D01*
X204670082Y-65028734D01*
X204415602Y-64939687D01*
X204415594Y-64939684D01*
X204218446Y-64894687D01*
X204152732Y-64879688D01*
X204152728Y-64879687D01*
X204152719Y-64879686D01*
X203884813Y-64849500D01*
X203884809Y-64849500D01*
X203615191Y-64849500D01*
X203615186Y-64849500D01*
X203347280Y-64879686D01*
X203347268Y-64879688D01*
X203084405Y-64939684D01*
X203084397Y-64939687D01*
X202829917Y-65028734D01*
X202587005Y-65145714D01*
X202358712Y-65289161D01*
X202147915Y-65457265D01*
X201957265Y-65647915D01*
X201789161Y-65858712D01*
X201645714Y-66087005D01*
X201528734Y-66329917D01*
X201439687Y-66584397D01*
X201439684Y-66584405D01*
X201379688Y-66847268D01*
X201379686Y-66847280D01*
X201349500Y-67115186D01*
X184278742Y-67115186D01*
X184500000Y-65500000D01*
X184596768Y-61871192D01*
X184618233Y-61804704D01*
X184672238Y-61760373D01*
X184720724Y-61750500D01*
X209125500Y-61750500D01*
X209192539Y-61770185D01*
X209238294Y-61822989D01*
X209249500Y-61874500D01*
X209249500Y-105362717D01*
X209229815Y-105429756D01*
X209177011Y-105475511D01*
X209124371Y-105486712D01*
X179276103Y-105215000D01*
X179276103Y-111368927D01*
X179256418Y-111435966D01*
X179203614Y-111481721D01*
X179134456Y-111491665D01*
X179070900Y-111462640D01*
X179064422Y-111456608D01*
X179007316Y-111399502D01*
X179007314Y-111399500D01*
X178916846Y-111347268D01*
X178893187Y-111333608D01*
X178829539Y-111316554D01*
X178765892Y-111299500D01*
X178634108Y-111299500D01*
X178506812Y-111333608D01*
X178392686Y-111399500D01*
X178392683Y-111399502D01*
X178299502Y-111492683D01*
X178299500Y-111492686D01*
X178233608Y-111606812D01*
X178199500Y-111734108D01*
X178199500Y-111865891D01*
X178233608Y-111993187D01*
X178241766Y-112007316D01*
X178299500Y-112107314D01*
X178392686Y-112200500D01*
X178506814Y-112266392D01*
X178634108Y-112300500D01*
X178634110Y-112300500D01*
X178765890Y-112300500D01*
X178765892Y-112300500D01*
X178893186Y-112266392D01*
X179007314Y-112200500D01*
X179064422Y-112143392D01*
X179125745Y-112109907D01*
X179195437Y-112114891D01*
X179251370Y-112156763D01*
X179275787Y-112222227D01*
X179276103Y-112231073D01*
X179276103Y-117750500D01*
X179256418Y-117817539D01*
X179203614Y-117863294D01*
X179152103Y-117874500D01*
X112374500Y-117874500D01*
X112307461Y-117854815D01*
X112261706Y-117802011D01*
X112250500Y-117750500D01*
X112250500Y-111615186D01*
X115299500Y-111615186D01*
X115299500Y-111884813D01*
X115329686Y-112152719D01*
X115329688Y-112152731D01*
X115389684Y-112415594D01*
X115389687Y-112415602D01*
X115478734Y-112670082D01*
X115595714Y-112912994D01*
X115595716Y-112912997D01*
X115739162Y-113141289D01*
X115907266Y-113352085D01*
X116097915Y-113542734D01*
X116308711Y-113710838D01*
X116537003Y-113854284D01*
X116779921Y-113971267D01*
X116971049Y-114038145D01*
X117034397Y-114060312D01*
X117034405Y-114060315D01*
X117034408Y-114060315D01*
X117034409Y-114060316D01*
X117297268Y-114120312D01*
X117565187Y-114150499D01*
X117565188Y-114150500D01*
X117565191Y-114150500D01*
X117834812Y-114150500D01*
X117834812Y-114150499D01*
X118102732Y-114120312D01*
X118365591Y-114060316D01*
X118620079Y-113971267D01*
X118862997Y-113854284D01*
X119091289Y-113710838D01*
X119302085Y-113542734D01*
X119492734Y-113352085D01*
X119660838Y-113141289D01*
X119804284Y-112912997D01*
X119921267Y-112670079D01*
X120010316Y-112415591D01*
X120070312Y-112152732D01*
X120100500Y-111884809D01*
X120100500Y-111615191D01*
X120070312Y-111347268D01*
X120010316Y-111084409D01*
X119921267Y-110829921D01*
X119804284Y-110587003D01*
X119660838Y-110358711D01*
X119636914Y-110328711D01*
X126079500Y-110328711D01*
X126079500Y-110571288D01*
X126105119Y-110765892D01*
X126111162Y-110811789D01*
X126132972Y-110893186D01*
X126173947Y-111046104D01*
X126237693Y-111200000D01*
X126266776Y-111270212D01*
X126388064Y-111480289D01*
X126388066Y-111480292D01*
X126388067Y-111480293D01*
X126535733Y-111672736D01*
X126535739Y-111672743D01*
X126707256Y-111844260D01*
X126707263Y-111844266D01*
X126820321Y-111931018D01*
X126899711Y-111991936D01*
X127109788Y-112113224D01*
X127333900Y-112206054D01*
X127568211Y-112268838D01*
X127748586Y-112292584D01*
X127808711Y-112300500D01*
X127808712Y-112300500D01*
X128051289Y-112300500D01*
X128099388Y-112294167D01*
X128291789Y-112268838D01*
X128526100Y-112206054D01*
X128750212Y-112113224D01*
X128960289Y-111991936D01*
X129152738Y-111844265D01*
X129324265Y-111672738D01*
X129471936Y-111480289D01*
X129593224Y-111270212D01*
X129686054Y-111046100D01*
X129748838Y-110811789D01*
X129780500Y-110571288D01*
X129780500Y-110328712D01*
X129780500Y-110328711D01*
X137509500Y-110328711D01*
X137509500Y-110571288D01*
X137535119Y-110765892D01*
X137541162Y-110811789D01*
X137562972Y-110893186D01*
X137603947Y-111046104D01*
X137667693Y-111200000D01*
X137696776Y-111270212D01*
X137818064Y-111480289D01*
X137818066Y-111480292D01*
X137818067Y-111480293D01*
X137965733Y-111672736D01*
X137965739Y-111672743D01*
X138137256Y-111844260D01*
X138137263Y-111844266D01*
X138250321Y-111931018D01*
X138329711Y-111991936D01*
X138539788Y-112113224D01*
X138763900Y-112206054D01*
X138998211Y-112268838D01*
X139178586Y-112292584D01*
X139238711Y-112300500D01*
X139238712Y-112300500D01*
X139481289Y-112300500D01*
X139529388Y-112294167D01*
X139721789Y-112268838D01*
X139956100Y-112206054D01*
X140180212Y-112113224D01*
X140390289Y-111991936D01*
X140582738Y-111844265D01*
X140754265Y-111672738D01*
X140901936Y-111480289D01*
X141023224Y-111270212D01*
X141116054Y-111046100D01*
X141178838Y-110811789D01*
X141202230Y-110634108D01*
X162099500Y-110634108D01*
X162099500Y-110765891D01*
X162133608Y-110893187D01*
X162166554Y-110950250D01*
X162199500Y-111007314D01*
X162199502Y-111007316D01*
X162292687Y-111100501D01*
X162294158Y-111101630D01*
X162295083Y-111102897D01*
X162298433Y-111106247D01*
X162297910Y-111106769D01*
X162335356Y-111158060D01*
X162339506Y-111227807D01*
X162305289Y-111288725D01*
X162294158Y-111298370D01*
X162292687Y-111299498D01*
X162199502Y-111392683D01*
X162199500Y-111392686D01*
X162133608Y-111506812D01*
X162099500Y-111634108D01*
X162099500Y-111765891D01*
X162133608Y-111893187D01*
X162166554Y-111950250D01*
X162199500Y-112007314D01*
X162292686Y-112100500D01*
X162406814Y-112166392D01*
X162534108Y-112200500D01*
X162534110Y-112200500D01*
X162665890Y-112200500D01*
X162665892Y-112200500D01*
X162793186Y-112166392D01*
X162907314Y-112100500D01*
X163000500Y-112007314D01*
X163066392Y-111893186D01*
X163100500Y-111765892D01*
X163100500Y-111634108D01*
X163066392Y-111506814D01*
X163000500Y-111392686D01*
X162907314Y-111299500D01*
X162907311Y-111299498D01*
X162905847Y-111298375D01*
X162904921Y-111297107D01*
X162901567Y-111293753D01*
X162902090Y-111293229D01*
X162864645Y-111241947D01*
X162860491Y-111172201D01*
X162894704Y-111111281D01*
X162905847Y-111101625D01*
X162907306Y-111100504D01*
X162907314Y-111100500D01*
X163000500Y-111007314D01*
X163066392Y-110893186D01*
X163100500Y-110765892D01*
X163100500Y-110634108D01*
X163066392Y-110506814D01*
X163000500Y-110392686D01*
X162907314Y-110299500D01*
X162850250Y-110266554D01*
X162793187Y-110233608D01*
X162729539Y-110216554D01*
X162665892Y-110199500D01*
X162534108Y-110199500D01*
X162406812Y-110233608D01*
X162292686Y-110299500D01*
X162292683Y-110299502D01*
X162199502Y-110392683D01*
X162199500Y-110392686D01*
X162133608Y-110506812D01*
X162099500Y-110634108D01*
X141202230Y-110634108D01*
X141210500Y-110571288D01*
X141210500Y-110328712D01*
X141206654Y-110299502D01*
X141202584Y-110268586D01*
X141178838Y-110088211D01*
X141116054Y-109853900D01*
X141023224Y-109629788D01*
X140901936Y-109419711D01*
X140841018Y-109340321D01*
X140754266Y-109227263D01*
X140754260Y-109227256D01*
X140582743Y-109055739D01*
X140582736Y-109055733D01*
X140541846Y-109024357D01*
X140424230Y-108934108D01*
X161799500Y-108934108D01*
X161799500Y-109065891D01*
X161833608Y-109193187D01*
X161853278Y-109227256D01*
X161899500Y-109307314D01*
X161992686Y-109400500D01*
X162106814Y-109466392D01*
X162234108Y-109500500D01*
X162234110Y-109500500D01*
X162365890Y-109500500D01*
X162365892Y-109500500D01*
X162493186Y-109466392D01*
X162607314Y-109400500D01*
X162700500Y-109307314D01*
X162766392Y-109193186D01*
X162800500Y-109065892D01*
X162800500Y-108934108D01*
X162766392Y-108806814D01*
X162700500Y-108692686D01*
X162607314Y-108599500D01*
X162550250Y-108566554D01*
X162493187Y-108533608D01*
X162429539Y-108516554D01*
X162365892Y-108499500D01*
X162234108Y-108499500D01*
X162106812Y-108533608D01*
X161992686Y-108599500D01*
X161992683Y-108599502D01*
X161899502Y-108692683D01*
X161899500Y-108692686D01*
X161833608Y-108806812D01*
X161799500Y-108934108D01*
X140424230Y-108934108D01*
X140390293Y-108908067D01*
X140390292Y-108908066D01*
X140390289Y-108908064D01*
X140180212Y-108786776D01*
X140180205Y-108786773D01*
X139956104Y-108693947D01*
X139721785Y-108631161D01*
X139481289Y-108599500D01*
X139481288Y-108599500D01*
X139238712Y-108599500D01*
X139238711Y-108599500D01*
X138998214Y-108631161D01*
X138763895Y-108693947D01*
X138539794Y-108786773D01*
X138539785Y-108786777D01*
X138329706Y-108908067D01*
X138137263Y-109055733D01*
X138137256Y-109055739D01*
X137965739Y-109227256D01*
X137965733Y-109227263D01*
X137818067Y-109419706D01*
X137696777Y-109629785D01*
X137696773Y-109629794D01*
X137603947Y-109853895D01*
X137541161Y-110088214D01*
X137509500Y-110328711D01*
X129780500Y-110328711D01*
X129776654Y-110299502D01*
X129772584Y-110268586D01*
X129748838Y-110088211D01*
X129686054Y-109853900D01*
X129593224Y-109629788D01*
X129471936Y-109419711D01*
X129411018Y-109340321D01*
X129324266Y-109227263D01*
X129324260Y-109227256D01*
X129152743Y-109055739D01*
X129152736Y-109055733D01*
X128960293Y-108908067D01*
X128960292Y-108908066D01*
X128960289Y-108908064D01*
X128750212Y-108786776D01*
X128750205Y-108786773D01*
X128526104Y-108693947D01*
X128291785Y-108631161D01*
X128051289Y-108599500D01*
X128051288Y-108599500D01*
X127808712Y-108599500D01*
X127808711Y-108599500D01*
X127568214Y-108631161D01*
X127333895Y-108693947D01*
X127109794Y-108786773D01*
X127109785Y-108786777D01*
X126899706Y-108908067D01*
X126707263Y-109055733D01*
X126707256Y-109055739D01*
X126535739Y-109227256D01*
X126535733Y-109227263D01*
X126388067Y-109419706D01*
X126266777Y-109629785D01*
X126266773Y-109629794D01*
X126173947Y-109853895D01*
X126111161Y-110088214D01*
X126079500Y-110328711D01*
X119636914Y-110328711D01*
X119492734Y-110147915D01*
X119302085Y-109957266D01*
X119091289Y-109789162D01*
X118862997Y-109645716D01*
X118862994Y-109645714D01*
X118620082Y-109528734D01*
X118365602Y-109439687D01*
X118365594Y-109439684D01*
X118168446Y-109394687D01*
X118102732Y-109379688D01*
X118102728Y-109379687D01*
X118102719Y-109379686D01*
X117834813Y-109349500D01*
X117834809Y-109349500D01*
X117565191Y-109349500D01*
X117565186Y-109349500D01*
X117297280Y-109379686D01*
X117297268Y-109379688D01*
X117034405Y-109439684D01*
X117034397Y-109439687D01*
X116779917Y-109528734D01*
X116537005Y-109645714D01*
X116308712Y-109789161D01*
X116097915Y-109957265D01*
X115907265Y-110147915D01*
X115739161Y-110358712D01*
X115595714Y-110587005D01*
X115478734Y-110829917D01*
X115389687Y-111084397D01*
X115389684Y-111084405D01*
X115329688Y-111347268D01*
X115329686Y-111347280D01*
X115299500Y-111615186D01*
X112250500Y-111615186D01*
X112250500Y-107534108D01*
X161599500Y-107534108D01*
X161599500Y-107665891D01*
X161633608Y-107793187D01*
X161666554Y-107850250D01*
X161699500Y-107907314D01*
X161792686Y-108000500D01*
X161906814Y-108066392D01*
X162034108Y-108100500D01*
X162034110Y-108100500D01*
X162165890Y-108100500D01*
X162165892Y-108100500D01*
X162293186Y-108066392D01*
X162407314Y-108000500D01*
X162500500Y-107907314D01*
X162566392Y-107793186D01*
X162600500Y-107665892D01*
X162600500Y-107534108D01*
X162566392Y-107406814D01*
X162500500Y-107292686D01*
X162407314Y-107199500D01*
X162350250Y-107166554D01*
X162293187Y-107133608D01*
X162229539Y-107116554D01*
X162165892Y-107099500D01*
X162034108Y-107099500D01*
X161906812Y-107133608D01*
X161792686Y-107199500D01*
X161792683Y-107199502D01*
X161699502Y-107292683D01*
X161699500Y-107292686D01*
X161633608Y-107406812D01*
X161599500Y-107534108D01*
X112250500Y-107534108D01*
X112250500Y-103428747D01*
X128348000Y-103428747D01*
X128348000Y-104771252D01*
X128359631Y-104829729D01*
X128359632Y-104829730D01*
X128403947Y-104896052D01*
X128470269Y-104940367D01*
X128470270Y-104940368D01*
X128528747Y-104951999D01*
X128528750Y-104952000D01*
X128528752Y-104952000D01*
X129871250Y-104952000D01*
X129871251Y-104951999D01*
X129886068Y-104949052D01*
X129929729Y-104940368D01*
X129929729Y-104940367D01*
X129929731Y-104940367D01*
X129996052Y-104896052D01*
X130040367Y-104829731D01*
X130040367Y-104829729D01*
X130040368Y-104829729D01*
X130051999Y-104771252D01*
X130052000Y-104771250D01*
X130052000Y-104016080D01*
X130888000Y-104016080D01*
X130888000Y-104183919D01*
X130920740Y-104348511D01*
X130920742Y-104348519D01*
X130984966Y-104503569D01*
X130984971Y-104503579D01*
X131078208Y-104643117D01*
X131078211Y-104643121D01*
X131196878Y-104761788D01*
X131196882Y-104761791D01*
X131336420Y-104855028D01*
X131336424Y-104855030D01*
X131336427Y-104855032D01*
X131491481Y-104919258D01*
X131656080Y-104951999D01*
X131656083Y-104952000D01*
X131656085Y-104952000D01*
X131823917Y-104952000D01*
X131823918Y-104951999D01*
X131988519Y-104919258D01*
X132143573Y-104855032D01*
X132283118Y-104761791D01*
X132401791Y-104643118D01*
X132495032Y-104503573D01*
X132559258Y-104348519D01*
X132592000Y-104183915D01*
X132592000Y-104016085D01*
X132592000Y-104016082D01*
X132591999Y-104016080D01*
X133428000Y-104016080D01*
X133428000Y-104183919D01*
X133460740Y-104348511D01*
X133460742Y-104348519D01*
X133524966Y-104503569D01*
X133524971Y-104503579D01*
X133618208Y-104643117D01*
X133618211Y-104643121D01*
X133736878Y-104761788D01*
X133736882Y-104761791D01*
X133876420Y-104855028D01*
X133876424Y-104855030D01*
X133876427Y-104855032D01*
X134031481Y-104919258D01*
X134196080Y-104951999D01*
X134196083Y-104952000D01*
X134196085Y-104952000D01*
X134363917Y-104952000D01*
X134363918Y-104951999D01*
X134528519Y-104919258D01*
X134683573Y-104855032D01*
X134823118Y-104761791D01*
X134941791Y-104643118D01*
X135035032Y-104503573D01*
X135099258Y-104348519D01*
X135132000Y-104183915D01*
X135132000Y-104016085D01*
X135132000Y-104016082D01*
X135131999Y-104016080D01*
X135968000Y-104016080D01*
X135968000Y-104183919D01*
X136000740Y-104348511D01*
X136000742Y-104348519D01*
X136064966Y-104503569D01*
X136064971Y-104503579D01*
X136158208Y-104643117D01*
X136158211Y-104643121D01*
X136276878Y-104761788D01*
X136276882Y-104761791D01*
X136416420Y-104855028D01*
X136416424Y-104855030D01*
X136416427Y-104855032D01*
X136571481Y-104919258D01*
X136736080Y-104951999D01*
X136736083Y-104952000D01*
X136736085Y-104952000D01*
X136903917Y-104952000D01*
X136903918Y-104951999D01*
X137068519Y-104919258D01*
X137223573Y-104855032D01*
X137363118Y-104761791D01*
X137481791Y-104643118D01*
X137575032Y-104503573D01*
X137639258Y-104348519D01*
X137672000Y-104183915D01*
X137672000Y-104016085D01*
X137672000Y-104016082D01*
X137671999Y-104016080D01*
X137639259Y-103851488D01*
X137639258Y-103851481D01*
X137575032Y-103696427D01*
X137575030Y-103696424D01*
X137575028Y-103696420D01*
X137481791Y-103556882D01*
X137481788Y-103556878D01*
X137363121Y-103438211D01*
X137363117Y-103438208D01*
X137223579Y-103344971D01*
X137223569Y-103344966D01*
X137068519Y-103280742D01*
X137068511Y-103280740D01*
X136903918Y-103248000D01*
X136903915Y-103248000D01*
X136736085Y-103248000D01*
X136736082Y-103248000D01*
X136571488Y-103280740D01*
X136571480Y-103280742D01*
X136416430Y-103344966D01*
X136416420Y-103344971D01*
X136276882Y-103438208D01*
X136276878Y-103438211D01*
X136158211Y-103556878D01*
X136158208Y-103556882D01*
X136064971Y-103696420D01*
X136064966Y-103696430D01*
X136000742Y-103851480D01*
X136000740Y-103851488D01*
X135968000Y-104016080D01*
X135131999Y-104016080D01*
X135099259Y-103851488D01*
X135099258Y-103851481D01*
X135035032Y-103696427D01*
X135035030Y-103696424D01*
X135035028Y-103696420D01*
X134941791Y-103556882D01*
X134941788Y-103556878D01*
X134823121Y-103438211D01*
X134823117Y-103438208D01*
X134683579Y-103344971D01*
X134683569Y-103344966D01*
X134528519Y-103280742D01*
X134528511Y-103280740D01*
X134363918Y-103248000D01*
X134363915Y-103248000D01*
X134196085Y-103248000D01*
X134196082Y-103248000D01*
X134031488Y-103280740D01*
X134031480Y-103280742D01*
X133876430Y-103344966D01*
X133876420Y-103344971D01*
X133736882Y-103438208D01*
X133736878Y-103438211D01*
X133618211Y-103556878D01*
X133618208Y-103556882D01*
X133524971Y-103696420D01*
X133524966Y-103696430D01*
X133460742Y-103851480D01*
X133460740Y-103851488D01*
X133428000Y-104016080D01*
X132591999Y-104016080D01*
X132559259Y-103851488D01*
X132559258Y-103851481D01*
X132495032Y-103696427D01*
X132495030Y-103696424D01*
X132495028Y-103696420D01*
X132401791Y-103556882D01*
X132401788Y-103556878D01*
X132283121Y-103438211D01*
X132283117Y-103438208D01*
X132143579Y-103344971D01*
X132143569Y-103344966D01*
X131988519Y-103280742D01*
X131988511Y-103280740D01*
X131823918Y-103248000D01*
X131823915Y-103248000D01*
X131656085Y-103248000D01*
X131656082Y-103248000D01*
X131491488Y-103280740D01*
X131491480Y-103280742D01*
X131336430Y-103344966D01*
X131336420Y-103344971D01*
X131196882Y-103438208D01*
X131196878Y-103438211D01*
X131078211Y-103556878D01*
X131078208Y-103556882D01*
X130984971Y-103696420D01*
X130984966Y-103696430D01*
X130920742Y-103851480D01*
X130920740Y-103851488D01*
X130888000Y-104016080D01*
X130052000Y-104016080D01*
X130052000Y-103428749D01*
X130051999Y-103428747D01*
X130040368Y-103370270D01*
X130040367Y-103370269D01*
X129996052Y-103303947D01*
X129929730Y-103259632D01*
X129929729Y-103259631D01*
X129871252Y-103248000D01*
X129871248Y-103248000D01*
X128528752Y-103248000D01*
X128528747Y-103248000D01*
X128470270Y-103259631D01*
X128470269Y-103259632D01*
X128403947Y-103303947D01*
X128359632Y-103370269D01*
X128359631Y-103370270D01*
X128348000Y-103428747D01*
X112250500Y-103428747D01*
X112250500Y-101476080D01*
X129618000Y-101476080D01*
X129618000Y-101643919D01*
X129650740Y-101808511D01*
X129650742Y-101808519D01*
X129714966Y-101963569D01*
X129714971Y-101963579D01*
X129808208Y-102103117D01*
X129808211Y-102103121D01*
X129926878Y-102221788D01*
X129926882Y-102221791D01*
X130066420Y-102315028D01*
X130066424Y-102315030D01*
X130066427Y-102315032D01*
X130221481Y-102379258D01*
X130386080Y-102411999D01*
X130386083Y-102412000D01*
X130386085Y-102412000D01*
X130553917Y-102412000D01*
X130553918Y-102411999D01*
X130718519Y-102379258D01*
X130873573Y-102315032D01*
X131013118Y-102221791D01*
X131131791Y-102103118D01*
X131225032Y-101963573D01*
X131289258Y-101808519D01*
X131322000Y-101643915D01*
X131322000Y-101476085D01*
X131320664Y-101469370D01*
X131858500Y-101469370D01*
X131858500Y-101650629D01*
X131886852Y-101829640D01*
X131942864Y-102002025D01*
X132025150Y-102163520D01*
X132036837Y-102179606D01*
X132036838Y-102179606D01*
X132630000Y-101586445D01*
X132630000Y-101610028D01*
X132655896Y-101706675D01*
X132705924Y-101793325D01*
X132776675Y-101864076D01*
X132863325Y-101914104D01*
X132959972Y-101940000D01*
X132983553Y-101940000D01*
X132390391Y-102533160D01*
X132390392Y-102533161D01*
X132406478Y-102544848D01*
X132567974Y-102627135D01*
X132740359Y-102683147D01*
X132740358Y-102683147D01*
X132919371Y-102711500D01*
X133100629Y-102711500D01*
X133279640Y-102683147D01*
X133452025Y-102627135D01*
X133613514Y-102544853D01*
X133629607Y-102533160D01*
X133036448Y-101940000D01*
X133060028Y-101940000D01*
X133156675Y-101914104D01*
X133243325Y-101864076D01*
X133314076Y-101793325D01*
X133364104Y-101706675D01*
X133390000Y-101610028D01*
X133390000Y-101586446D01*
X133983160Y-102179606D01*
X133994853Y-102163514D01*
X134077135Y-102002025D01*
X134133147Y-101829640D01*
X134157527Y-101675714D01*
X134187456Y-101612580D01*
X134246767Y-101575648D01*
X134316630Y-101576646D01*
X134374863Y-101615256D01*
X134402473Y-101675714D01*
X134426852Y-101829640D01*
X134482864Y-102002025D01*
X134565150Y-102163520D01*
X134576837Y-102179606D01*
X134576838Y-102179606D01*
X135170000Y-101586445D01*
X135170000Y-101610028D01*
X135195896Y-101706675D01*
X135245924Y-101793325D01*
X135316675Y-101864076D01*
X135403325Y-101914104D01*
X135499972Y-101940000D01*
X135523553Y-101940000D01*
X134930391Y-102533160D01*
X134930392Y-102533161D01*
X134946478Y-102544848D01*
X135107974Y-102627135D01*
X135280359Y-102683147D01*
X135280358Y-102683147D01*
X135459371Y-102711500D01*
X135640629Y-102711500D01*
X135819640Y-102683147D01*
X135992025Y-102627135D01*
X136153514Y-102544853D01*
X136169607Y-102533160D01*
X135576448Y-101940000D01*
X135600028Y-101940000D01*
X135696675Y-101914104D01*
X135783325Y-101864076D01*
X135854076Y-101793325D01*
X135904104Y-101706675D01*
X135930000Y-101610028D01*
X135930000Y-101586446D01*
X136523160Y-102179606D01*
X136534853Y-102163514D01*
X136617135Y-102002025D01*
X136673147Y-101829640D01*
X136701500Y-101650629D01*
X136701500Y-101476080D01*
X137238000Y-101476080D01*
X137238000Y-101643919D01*
X137270740Y-101808511D01*
X137270742Y-101808519D01*
X137334966Y-101963569D01*
X137334971Y-101963579D01*
X137428208Y-102103117D01*
X137428211Y-102103121D01*
X137546878Y-102221788D01*
X137546882Y-102221791D01*
X137686420Y-102315028D01*
X137686424Y-102315030D01*
X137686427Y-102315032D01*
X137841481Y-102379258D01*
X138006080Y-102411999D01*
X138006083Y-102412000D01*
X138006085Y-102412000D01*
X138173917Y-102412000D01*
X138173918Y-102411999D01*
X138338519Y-102379258D01*
X138493573Y-102315032D01*
X138633118Y-102221791D01*
X138751791Y-102103118D01*
X138845032Y-101963573D01*
X138909258Y-101808519D01*
X138942000Y-101643915D01*
X138942000Y-101476085D01*
X138942000Y-101476082D01*
X138941999Y-101476080D01*
X138940664Y-101469370D01*
X138909258Y-101311481D01*
X138845032Y-101156427D01*
X138845030Y-101156424D01*
X138845028Y-101156420D01*
X138751791Y-101016882D01*
X138751788Y-101016878D01*
X138633121Y-100898211D01*
X138633117Y-100898208D01*
X138493579Y-100804971D01*
X138493569Y-100804966D01*
X138338519Y-100740742D01*
X138338511Y-100740740D01*
X138173918Y-100708000D01*
X138173915Y-100708000D01*
X138006085Y-100708000D01*
X138006082Y-100708000D01*
X137841488Y-100740740D01*
X137841480Y-100740742D01*
X137686430Y-100804966D01*
X137686420Y-100804971D01*
X137546882Y-100898208D01*
X137546878Y-100898211D01*
X137428211Y-101016878D01*
X137428208Y-101016882D01*
X137334971Y-101156420D01*
X137334966Y-101156430D01*
X137270742Y-101311480D01*
X137270740Y-101311488D01*
X137238000Y-101476080D01*
X136701500Y-101476080D01*
X136701500Y-101469370D01*
X136673147Y-101290359D01*
X136617135Y-101117974D01*
X136534848Y-100956478D01*
X136523161Y-100940392D01*
X136523160Y-100940391D01*
X135930000Y-101533551D01*
X135930000Y-101509972D01*
X135904104Y-101413325D01*
X135854076Y-101326675D01*
X135783325Y-101255924D01*
X135696675Y-101205896D01*
X135600028Y-101180000D01*
X135576447Y-101180000D01*
X136169606Y-100586838D01*
X136169606Y-100586837D01*
X136153520Y-100575150D01*
X135992026Y-100492864D01*
X135970721Y-100485942D01*
X135970720Y-100485941D01*
X135819640Y-100436852D01*
X135819641Y-100436852D01*
X135640629Y-100408500D01*
X135459371Y-100408500D01*
X135280359Y-100436852D01*
X135107974Y-100492864D01*
X134946484Y-100575147D01*
X134930392Y-100586837D01*
X134930392Y-100586838D01*
X135523554Y-101180000D01*
X135499972Y-101180000D01*
X135403325Y-101205896D01*
X135316675Y-101255924D01*
X135245924Y-101326675D01*
X135195896Y-101413325D01*
X135170000Y-101509972D01*
X135170000Y-101533554D01*
X134576838Y-100940392D01*
X134576837Y-100940392D01*
X134565147Y-100956484D01*
X134482864Y-101117974D01*
X134426852Y-101290359D01*
X134402473Y-101444285D01*
X134372544Y-101507420D01*
X134313232Y-101544351D01*
X134243370Y-101543353D01*
X134185137Y-101504743D01*
X134157527Y-101444285D01*
X134133147Y-101290359D01*
X134077135Y-101117974D01*
X133994848Y-100956478D01*
X133983161Y-100940392D01*
X133983160Y-100940391D01*
X133390000Y-101533551D01*
X133390000Y-101509972D01*
X133364104Y-101413325D01*
X133314076Y-101326675D01*
X133243325Y-101255924D01*
X133156675Y-101205896D01*
X133060028Y-101180000D01*
X133036447Y-101180000D01*
X133629606Y-100586838D01*
X133629606Y-100586837D01*
X133613520Y-100575150D01*
X133452025Y-100492864D01*
X133279640Y-100436852D01*
X133279641Y-100436852D01*
X133100629Y-100408500D01*
X132919371Y-100408500D01*
X132740359Y-100436852D01*
X132567974Y-100492864D01*
X132406484Y-100575147D01*
X132390392Y-100586837D01*
X132390392Y-100586838D01*
X132983554Y-101180000D01*
X132959972Y-101180000D01*
X132863325Y-101205896D01*
X132776675Y-101255924D01*
X132705924Y-101326675D01*
X132655896Y-101413325D01*
X132630000Y-101509972D01*
X132630000Y-101533554D01*
X132036838Y-100940392D01*
X132036837Y-100940392D01*
X132025147Y-100956484D01*
X131942864Y-101117974D01*
X131886852Y-101290359D01*
X131858500Y-101469370D01*
X131320664Y-101469370D01*
X131289258Y-101311481D01*
X131225032Y-101156427D01*
X131225030Y-101156424D01*
X131225028Y-101156420D01*
X131131791Y-101016882D01*
X131131788Y-101016878D01*
X131013121Y-100898211D01*
X131013117Y-100898208D01*
X130873579Y-100804971D01*
X130873569Y-100804966D01*
X130737627Y-100748657D01*
X130718519Y-100740742D01*
X130718511Y-100740740D01*
X130553918Y-100708000D01*
X130553915Y-100708000D01*
X130386085Y-100708000D01*
X130386082Y-100708000D01*
X130221488Y-100740740D01*
X130221480Y-100740742D01*
X130066430Y-100804966D01*
X130066420Y-100804971D01*
X129926882Y-100898208D01*
X129926878Y-100898211D01*
X129808211Y-101016878D01*
X129808208Y-101016882D01*
X129714971Y-101156420D01*
X129714966Y-101156430D01*
X129650742Y-101311480D01*
X129650740Y-101311488D01*
X129618000Y-101476080D01*
X112250500Y-101476080D01*
X112250500Y-99193753D01*
X148770000Y-99193753D01*
X148770000Y-99406246D01*
X148803242Y-99616127D01*
X148803242Y-99616130D01*
X148868904Y-99818217D01*
X148965375Y-100007550D01*
X149004728Y-100061716D01*
X149637037Y-99429408D01*
X149654075Y-99492993D01*
X149719901Y-99607007D01*
X149812993Y-99700099D01*
X149927007Y-99765925D01*
X149990590Y-99782962D01*
X149358282Y-100415269D01*
X149358282Y-100415270D01*
X149412449Y-100454624D01*
X149601782Y-100551095D01*
X149803870Y-100616757D01*
X150013754Y-100650000D01*
X150226246Y-100650000D01*
X150436127Y-100616757D01*
X150436130Y-100616757D01*
X150638217Y-100551095D01*
X150827554Y-100454622D01*
X150881716Y-100415270D01*
X150881717Y-100415270D01*
X150249408Y-99782962D01*
X150312993Y-99765925D01*
X150427007Y-99700099D01*
X150520099Y-99607007D01*
X150585925Y-99492993D01*
X150602962Y-99429408D01*
X151235270Y-100061717D01*
X151235270Y-100061716D01*
X151274622Y-100007554D01*
X151371095Y-99818217D01*
X151428343Y-99642026D01*
X151467780Y-99584351D01*
X151532139Y-99557152D01*
X151600985Y-99569066D01*
X151652461Y-99616310D01*
X151660835Y-99632891D01*
X151729058Y-99797596D01*
X151844024Y-99969657D01*
X151990342Y-100115975D01*
X151990345Y-100115977D01*
X152162402Y-100230941D01*
X152353580Y-100310130D01*
X152498052Y-100338867D01*
X152556530Y-100350499D01*
X152556534Y-100350500D01*
X152556535Y-100350500D01*
X152763466Y-100350500D01*
X152763467Y-100350499D01*
X152966420Y-100310130D01*
X153157598Y-100230941D01*
X153329655Y-100115977D01*
X153475977Y-99969655D01*
X153590941Y-99797598D01*
X153670130Y-99606420D01*
X153710500Y-99403465D01*
X153710500Y-99196535D01*
X153670130Y-98993580D01*
X153590941Y-98802402D01*
X153475977Y-98630345D01*
X153475975Y-98630342D01*
X153329657Y-98484024D01*
X153249173Y-98430247D01*
X154149500Y-98430247D01*
X154149500Y-100169752D01*
X154161131Y-100228229D01*
X154161132Y-100228230D01*
X154205447Y-100294552D01*
X154271769Y-100338867D01*
X154271770Y-100338868D01*
X154330247Y-100350499D01*
X154330250Y-100350500D01*
X154330252Y-100350500D01*
X156069750Y-100350500D01*
X156069751Y-100350499D01*
X156084568Y-100347552D01*
X156128229Y-100338868D01*
X156128229Y-100338867D01*
X156128231Y-100338867D01*
X156194552Y-100294552D01*
X156238867Y-100228231D01*
X156238867Y-100228229D01*
X156238868Y-100228229D01*
X156250499Y-100169752D01*
X156250500Y-100169750D01*
X156250500Y-98430249D01*
X156250499Y-98430247D01*
X156238868Y-98371770D01*
X156238867Y-98371769D01*
X156194552Y-98305447D01*
X156128230Y-98261132D01*
X156128229Y-98261131D01*
X156069752Y-98249500D01*
X156069748Y-98249500D01*
X154330252Y-98249500D01*
X154330247Y-98249500D01*
X154271770Y-98261131D01*
X154271769Y-98261132D01*
X154205447Y-98305447D01*
X154161132Y-98371769D01*
X154161131Y-98371770D01*
X154149500Y-98430247D01*
X153249173Y-98430247D01*
X153161655Y-98371770D01*
X153157598Y-98369059D01*
X152966420Y-98289870D01*
X152966412Y-98289868D01*
X152763469Y-98249500D01*
X152763465Y-98249500D01*
X152556535Y-98249500D01*
X152556530Y-98249500D01*
X152353587Y-98289868D01*
X152353579Y-98289870D01*
X152162403Y-98369058D01*
X151990342Y-98484024D01*
X151844024Y-98630342D01*
X151729057Y-98802403D01*
X151660835Y-98967108D01*
X151616994Y-99021511D01*
X151550700Y-99043576D01*
X151483000Y-99026297D01*
X151435390Y-98975159D01*
X151428343Y-98957973D01*
X151371095Y-98781782D01*
X151274624Y-98592449D01*
X151235270Y-98538282D01*
X151235269Y-98538282D01*
X150602962Y-99170590D01*
X150585925Y-99107007D01*
X150520099Y-98992993D01*
X150427007Y-98899901D01*
X150312993Y-98834075D01*
X150249409Y-98817037D01*
X150881716Y-98184728D01*
X150827550Y-98145375D01*
X150638217Y-98048904D01*
X150436129Y-97983242D01*
X150226246Y-97950000D01*
X150013754Y-97950000D01*
X149803872Y-97983242D01*
X149803869Y-97983242D01*
X149601782Y-98048904D01*
X149412439Y-98145380D01*
X149358282Y-98184727D01*
X149358282Y-98184728D01*
X149990591Y-98817037D01*
X149927007Y-98834075D01*
X149812993Y-98899901D01*
X149719901Y-98992993D01*
X149654075Y-99107007D01*
X149637037Y-99170591D01*
X149004728Y-98538282D01*
X149004727Y-98538282D01*
X148965380Y-98592439D01*
X148868904Y-98781782D01*
X148803242Y-98983869D01*
X148803242Y-98983872D01*
X148770000Y-99193753D01*
X112250500Y-99193753D01*
X112250500Y-96734108D01*
X167399500Y-96734108D01*
X167399500Y-96865891D01*
X167433608Y-96993187D01*
X167466554Y-97050250D01*
X167499500Y-97107314D01*
X167592686Y-97200500D01*
X167706814Y-97266392D01*
X167834108Y-97300500D01*
X167834110Y-97300500D01*
X167965890Y-97300500D01*
X167965892Y-97300500D01*
X168093186Y-97266392D01*
X168207314Y-97200500D01*
X168300500Y-97107314D01*
X168366392Y-96993186D01*
X168400500Y-96865892D01*
X168400500Y-96734108D01*
X168366392Y-96606814D01*
X168300500Y-96492686D01*
X168207314Y-96399500D01*
X168150250Y-96366554D01*
X168093187Y-96333608D01*
X168029539Y-96316554D01*
X167965892Y-96299500D01*
X167834108Y-96299500D01*
X167706812Y-96333608D01*
X167592686Y-96399500D01*
X167592683Y-96399502D01*
X167499502Y-96492683D01*
X167499500Y-96492686D01*
X167433608Y-96606812D01*
X167399500Y-96734108D01*
X112250500Y-96734108D01*
X112250500Y-96034108D01*
X144399500Y-96034108D01*
X144399500Y-96165891D01*
X144433608Y-96293187D01*
X144437253Y-96299500D01*
X144499500Y-96407314D01*
X144592686Y-96500500D01*
X144706814Y-96566392D01*
X144834108Y-96600500D01*
X144834110Y-96600500D01*
X144965890Y-96600500D01*
X144965892Y-96600500D01*
X145093186Y-96566392D01*
X145207314Y-96500500D01*
X145300500Y-96407314D01*
X145366392Y-96293186D01*
X145400500Y-96165892D01*
X145400500Y-96134108D01*
X168499500Y-96134108D01*
X168499500Y-96265891D01*
X168533608Y-96393187D01*
X168541766Y-96407316D01*
X168599500Y-96507314D01*
X168692686Y-96600500D01*
X168806814Y-96666392D01*
X168934108Y-96700500D01*
X168934110Y-96700500D01*
X169065890Y-96700500D01*
X169065892Y-96700500D01*
X169193186Y-96666392D01*
X169307314Y-96600500D01*
X169400500Y-96507314D01*
X169466392Y-96393186D01*
X169500500Y-96265892D01*
X169500500Y-96134108D01*
X169466392Y-96006814D01*
X169400500Y-95892686D01*
X169307314Y-95799500D01*
X169250250Y-95766554D01*
X169193187Y-95733608D01*
X169129539Y-95716554D01*
X169065892Y-95699500D01*
X168934108Y-95699500D01*
X168806812Y-95733608D01*
X168692686Y-95799500D01*
X168692683Y-95799502D01*
X168599502Y-95892683D01*
X168599500Y-95892686D01*
X168533608Y-96006812D01*
X168499500Y-96134108D01*
X145400500Y-96134108D01*
X145400500Y-96034108D01*
X145366392Y-95906814D01*
X145300500Y-95792686D01*
X145207314Y-95699500D01*
X145150250Y-95666554D01*
X145093187Y-95633608D01*
X145029539Y-95616554D01*
X144965892Y-95599500D01*
X144834108Y-95599500D01*
X144706812Y-95633608D01*
X144592686Y-95699500D01*
X144592683Y-95699502D01*
X144499502Y-95792683D01*
X144499500Y-95792686D01*
X144433608Y-95906812D01*
X144399500Y-96034108D01*
X112250500Y-96034108D01*
X112250500Y-89034108D01*
X189799500Y-89034108D01*
X189799500Y-89165891D01*
X189833608Y-89293187D01*
X189866554Y-89350250D01*
X189899500Y-89407314D01*
X189992686Y-89500500D01*
X190106814Y-89566392D01*
X190234108Y-89600500D01*
X190234110Y-89600500D01*
X190365890Y-89600500D01*
X190365892Y-89600500D01*
X190493186Y-89566392D01*
X190607314Y-89500500D01*
X190700500Y-89407314D01*
X190766392Y-89293186D01*
X190800500Y-89165892D01*
X190800500Y-89034108D01*
X190766392Y-88906814D01*
X190700500Y-88792686D01*
X190607314Y-88699500D01*
X190550250Y-88666554D01*
X190493187Y-88633608D01*
X190429539Y-88616554D01*
X190365892Y-88599500D01*
X190234108Y-88599500D01*
X190106812Y-88633608D01*
X189992686Y-88699500D01*
X189992683Y-88699502D01*
X189899502Y-88792683D01*
X189899500Y-88792686D01*
X189833608Y-88906812D01*
X189799500Y-89034108D01*
X112250500Y-89034108D01*
X112250500Y-87434108D01*
X118899500Y-87434108D01*
X118899500Y-87565891D01*
X118933608Y-87693187D01*
X118966554Y-87750250D01*
X118999500Y-87807314D01*
X119092686Y-87900500D01*
X119206814Y-87966392D01*
X119334108Y-88000500D01*
X119334110Y-88000500D01*
X119465890Y-88000500D01*
X119465892Y-88000500D01*
X119593186Y-87966392D01*
X119707314Y-87900500D01*
X119800500Y-87807314D01*
X119866392Y-87693186D01*
X119900500Y-87565892D01*
X119900500Y-87434108D01*
X119866392Y-87306814D01*
X119800500Y-87192686D01*
X119707314Y-87099500D01*
X119650250Y-87066554D01*
X119593187Y-87033608D01*
X119529539Y-87016554D01*
X119465892Y-86999500D01*
X119334108Y-86999500D01*
X119206812Y-87033608D01*
X119092686Y-87099500D01*
X119092683Y-87099502D01*
X118999502Y-87192683D01*
X118999500Y-87192686D01*
X118933608Y-87306812D01*
X118899500Y-87434108D01*
X112250500Y-87434108D01*
X112250500Y-84234108D01*
X142499500Y-84234108D01*
X142499500Y-84365891D01*
X142533608Y-84493187D01*
X142566554Y-84550250D01*
X142599500Y-84607314D01*
X142692686Y-84700500D01*
X142806814Y-84766392D01*
X142934108Y-84800500D01*
X142934110Y-84800500D01*
X143065890Y-84800500D01*
X143065892Y-84800500D01*
X143193186Y-84766392D01*
X143307314Y-84700500D01*
X143400500Y-84607314D01*
X143466392Y-84493186D01*
X143500500Y-84365892D01*
X143500500Y-84334108D01*
X158499500Y-84334108D01*
X158499500Y-84465891D01*
X158533608Y-84593187D01*
X158541766Y-84607316D01*
X158599500Y-84707314D01*
X158692686Y-84800500D01*
X158806814Y-84866392D01*
X158934108Y-84900500D01*
X158934110Y-84900500D01*
X159065890Y-84900500D01*
X159065892Y-84900500D01*
X159193186Y-84866392D01*
X159307314Y-84800500D01*
X159400500Y-84707314D01*
X159466392Y-84593186D01*
X159500500Y-84465892D01*
X159500500Y-84334108D01*
X159466392Y-84206814D01*
X159400500Y-84092686D01*
X159307314Y-83999500D01*
X159250250Y-83966554D01*
X159193187Y-83933608D01*
X159129539Y-83916554D01*
X159065892Y-83899500D01*
X158934108Y-83899500D01*
X158806812Y-83933608D01*
X158692686Y-83999500D01*
X158692683Y-83999502D01*
X158599502Y-84092683D01*
X158599500Y-84092686D01*
X158533608Y-84206812D01*
X158499500Y-84334108D01*
X143500500Y-84334108D01*
X143500500Y-84234108D01*
X143466392Y-84106814D01*
X143400500Y-83992686D01*
X143307314Y-83899500D01*
X143250250Y-83866554D01*
X143193187Y-83833608D01*
X143129539Y-83816554D01*
X143065892Y-83799500D01*
X142934108Y-83799500D01*
X142806812Y-83833608D01*
X142692686Y-83899500D01*
X142692683Y-83899502D01*
X142599502Y-83992683D01*
X142599500Y-83992686D01*
X142533608Y-84106812D01*
X142499500Y-84234108D01*
X112250500Y-84234108D01*
X112250500Y-81773753D01*
X121150000Y-81773753D01*
X121150000Y-81986246D01*
X121183242Y-82196127D01*
X121183242Y-82196130D01*
X121248904Y-82398217D01*
X121345375Y-82587550D01*
X121384728Y-82641716D01*
X122017037Y-82009408D01*
X122034075Y-82072993D01*
X122099901Y-82187007D01*
X122192993Y-82280099D01*
X122307007Y-82345925D01*
X122370590Y-82362962D01*
X121738282Y-82995269D01*
X121738282Y-82995270D01*
X121792449Y-83034624D01*
X121981782Y-83131095D01*
X122183870Y-83196757D01*
X122393754Y-83230000D01*
X122606246Y-83230000D01*
X122816127Y-83196757D01*
X122816130Y-83196757D01*
X123018217Y-83131095D01*
X123207554Y-83034622D01*
X123261716Y-82995270D01*
X123261717Y-82995270D01*
X123200555Y-82934108D01*
X144499500Y-82934108D01*
X144499500Y-83065892D01*
X144508773Y-83100499D01*
X144533608Y-83193187D01*
X144566554Y-83250250D01*
X144599500Y-83307314D01*
X144692686Y-83400500D01*
X144806814Y-83466392D01*
X144934108Y-83500500D01*
X144934110Y-83500500D01*
X145065890Y-83500500D01*
X145065892Y-83500500D01*
X145193186Y-83466392D01*
X145307314Y-83400500D01*
X145400500Y-83307314D01*
X145466392Y-83193186D01*
X145482222Y-83134108D01*
X146599500Y-83134108D01*
X146599500Y-83265892D01*
X146616554Y-83329539D01*
X146633608Y-83393187D01*
X146666554Y-83450250D01*
X146699500Y-83507314D01*
X146792686Y-83600500D01*
X146906814Y-83666392D01*
X147034108Y-83700500D01*
X147034110Y-83700500D01*
X147165890Y-83700500D01*
X147165892Y-83700500D01*
X147293186Y-83666392D01*
X147407314Y-83600500D01*
X147500500Y-83507314D01*
X147566392Y-83393186D01*
X147600500Y-83265892D01*
X147600500Y-83134108D01*
X149299500Y-83134108D01*
X149299500Y-83265892D01*
X149316554Y-83329539D01*
X149333608Y-83393187D01*
X149366554Y-83450250D01*
X149399500Y-83507314D01*
X149492686Y-83600500D01*
X149606814Y-83666392D01*
X149734108Y-83700500D01*
X149734110Y-83700500D01*
X149865890Y-83700500D01*
X149865892Y-83700500D01*
X149993186Y-83666392D01*
X150107314Y-83600500D01*
X150200500Y-83507314D01*
X150266392Y-83393186D01*
X150300500Y-83265892D01*
X150300500Y-83134108D01*
X159599494Y-83134108D01*
X159599494Y-83265892D01*
X159616548Y-83329539D01*
X159633602Y-83393187D01*
X159666548Y-83450250D01*
X159699494Y-83507314D01*
X159792680Y-83600500D01*
X159906808Y-83666392D01*
X160034102Y-83700500D01*
X160034104Y-83700500D01*
X160165884Y-83700500D01*
X160165886Y-83700500D01*
X160293180Y-83666392D01*
X160407308Y-83600500D01*
X160500494Y-83507314D01*
X160566386Y-83393186D01*
X160600494Y-83265892D01*
X160600494Y-83134108D01*
X160566386Y-83006814D01*
X160559720Y-82995269D01*
X160557557Y-82991521D01*
X160500494Y-82892686D01*
X160407308Y-82799500D01*
X160350244Y-82766554D01*
X160293181Y-82733608D01*
X160229533Y-82716554D01*
X160165886Y-82699500D01*
X160034102Y-82699500D01*
X159906806Y-82733608D01*
X159792680Y-82799500D01*
X159792677Y-82799502D01*
X159699496Y-82892683D01*
X159699494Y-82892686D01*
X159633602Y-83006812D01*
X159617638Y-83066392D01*
X159599494Y-83134108D01*
X150300500Y-83134108D01*
X150266392Y-83006814D01*
X150259726Y-82995269D01*
X150257563Y-82991521D01*
X150200500Y-82892686D01*
X150107314Y-82799500D01*
X150050250Y-82766554D01*
X149993187Y-82733608D01*
X149929539Y-82716554D01*
X149865892Y-82699500D01*
X149734108Y-82699500D01*
X149606812Y-82733608D01*
X149492686Y-82799500D01*
X149492683Y-82799502D01*
X149399502Y-82892683D01*
X149399500Y-82892686D01*
X149333608Y-83006812D01*
X149317644Y-83066392D01*
X149299500Y-83134108D01*
X147600500Y-83134108D01*
X147566392Y-83006814D01*
X147559726Y-82995269D01*
X147557563Y-82991521D01*
X147500500Y-82892686D01*
X147407314Y-82799500D01*
X147350250Y-82766554D01*
X147293187Y-82733608D01*
X147229539Y-82716554D01*
X147165892Y-82699500D01*
X147034108Y-82699500D01*
X146906812Y-82733608D01*
X146792686Y-82799500D01*
X146792683Y-82799502D01*
X146699502Y-82892683D01*
X146699500Y-82892686D01*
X146633608Y-83006812D01*
X146617644Y-83066392D01*
X146599500Y-83134108D01*
X145482222Y-83134108D01*
X145500500Y-83065892D01*
X145500500Y-82934108D01*
X145466392Y-82806814D01*
X145400500Y-82692686D01*
X145307314Y-82599500D01*
X145250250Y-82566554D01*
X145194053Y-82534108D01*
X157348027Y-82534108D01*
X157348027Y-82665892D01*
X157356328Y-82696873D01*
X157382135Y-82793187D01*
X157390002Y-82806812D01*
X157448027Y-82907314D01*
X157541213Y-83000500D01*
X157640048Y-83057563D01*
X157655337Y-83066390D01*
X157655341Y-83066392D01*
X157782635Y-83100500D01*
X157782637Y-83100500D01*
X157914417Y-83100500D01*
X157914419Y-83100500D01*
X158041713Y-83066392D01*
X158155841Y-83000500D01*
X158185110Y-82971230D01*
X158246430Y-82937746D01*
X158316122Y-82942730D01*
X158360471Y-82971231D01*
X158389740Y-83000500D01*
X158488575Y-83057563D01*
X158503864Y-83066390D01*
X158503868Y-83066392D01*
X158631162Y-83100500D01*
X158631164Y-83100500D01*
X158762944Y-83100500D01*
X158762946Y-83100500D01*
X158890240Y-83066392D01*
X159004368Y-83000500D01*
X159097554Y-82907314D01*
X159163446Y-82793186D01*
X159197554Y-82665892D01*
X159197554Y-82534108D01*
X159163446Y-82406814D01*
X159097554Y-82292686D01*
X159004368Y-82199500D01*
X158919493Y-82150497D01*
X158890241Y-82133608D01*
X158826593Y-82116554D01*
X158762946Y-82099500D01*
X158631162Y-82099500D01*
X158503866Y-82133608D01*
X158389740Y-82199500D01*
X158389736Y-82199503D01*
X158360470Y-82228769D01*
X158299146Y-82262254D01*
X158229455Y-82257268D01*
X158185109Y-82228768D01*
X158155843Y-82199502D01*
X158155841Y-82199500D01*
X158070966Y-82150497D01*
X158041714Y-82133608D01*
X157978066Y-82116554D01*
X157914419Y-82099500D01*
X157782635Y-82099500D01*
X157655339Y-82133608D01*
X157541213Y-82199500D01*
X157541210Y-82199502D01*
X157448029Y-82292683D01*
X157448027Y-82292686D01*
X157382135Y-82406812D01*
X157357300Y-82499500D01*
X157348027Y-82534108D01*
X145194053Y-82534108D01*
X145193187Y-82533608D01*
X145129539Y-82516554D01*
X145065892Y-82499500D01*
X144934108Y-82499500D01*
X144806812Y-82533608D01*
X144692686Y-82599500D01*
X144692683Y-82599502D01*
X144599502Y-82692683D01*
X144599500Y-82692686D01*
X144533608Y-82806812D01*
X144517708Y-82866154D01*
X144499500Y-82934108D01*
X123200555Y-82934108D01*
X122629408Y-82362962D01*
X122692993Y-82345925D01*
X122807007Y-82280099D01*
X122900099Y-82187007D01*
X122965925Y-82072993D01*
X122982962Y-82009408D01*
X123615270Y-82641717D01*
X123615270Y-82641716D01*
X123654622Y-82587554D01*
X123751095Y-82398217D01*
X123816757Y-82196130D01*
X123816757Y-82196127D01*
X123850000Y-81986246D01*
X123850000Y-81773753D01*
X123816757Y-81563872D01*
X123816757Y-81563869D01*
X123751913Y-81364299D01*
X123751912Y-81364297D01*
X123751094Y-81361780D01*
X123736994Y-81334108D01*
X160549500Y-81334108D01*
X160549500Y-81465892D01*
X160565725Y-81526446D01*
X160583608Y-81593187D01*
X160600493Y-81622432D01*
X160649500Y-81707314D01*
X160742686Y-81800500D01*
X160841521Y-81857563D01*
X160856812Y-81866391D01*
X160859326Y-81867432D01*
X160861122Y-81868879D01*
X160863853Y-81870456D01*
X160863607Y-81870881D01*
X160913733Y-81911269D01*
X160935804Y-81977561D01*
X160931658Y-82014090D01*
X160913228Y-82082875D01*
X160899500Y-82134108D01*
X160899500Y-82265892D01*
X160916554Y-82329539D01*
X160933608Y-82393187D01*
X160941474Y-82406811D01*
X160999500Y-82507314D01*
X161092686Y-82600500D01*
X161164076Y-82641717D01*
X161205944Y-82665890D01*
X161206814Y-82666392D01*
X161334108Y-82700500D01*
X161334110Y-82700500D01*
X161465888Y-82700500D01*
X161465892Y-82700500D01*
X161479427Y-82696873D01*
X161549272Y-82698533D01*
X161607136Y-82737694D01*
X161631294Y-82784551D01*
X161633607Y-82793185D01*
X161641475Y-82806812D01*
X161699500Y-82907314D01*
X161792686Y-83000500D01*
X161891521Y-83057563D01*
X161906810Y-83066390D01*
X161906814Y-83066392D01*
X162034108Y-83100500D01*
X162034110Y-83100500D01*
X162165890Y-83100500D01*
X162165892Y-83100500D01*
X162293186Y-83066392D01*
X162407314Y-83000500D01*
X162500500Y-82907314D01*
X162566392Y-82793186D01*
X162600500Y-82665892D01*
X162600500Y-82534108D01*
X162566392Y-82406814D01*
X162566389Y-82406809D01*
X162563280Y-82399300D01*
X162565809Y-82398252D01*
X162552495Y-82343381D01*
X162575344Y-82277353D01*
X162630263Y-82234160D01*
X162644251Y-82229503D01*
X162693186Y-82216392D01*
X162807314Y-82150500D01*
X162900500Y-82057314D01*
X162900500Y-82057313D01*
X162906247Y-82051567D01*
X162908395Y-82053715D01*
X162953116Y-82021036D01*
X163022861Y-82016855D01*
X163057107Y-82030321D01*
X163089058Y-82048768D01*
X163216352Y-82082876D01*
X163216354Y-82082876D01*
X163348134Y-82082876D01*
X163348136Y-82082876D01*
X163475430Y-82048768D01*
X163589558Y-81982876D01*
X163682744Y-81889690D01*
X163748636Y-81775562D01*
X163782744Y-81648268D01*
X163782744Y-81534108D01*
X179099500Y-81534108D01*
X179099500Y-81665892D01*
X179116442Y-81729120D01*
X179133608Y-81793187D01*
X179145725Y-81814174D01*
X179199500Y-81907314D01*
X179292686Y-82000500D01*
X179406814Y-82066392D01*
X179534108Y-82100500D01*
X179534110Y-82100500D01*
X179665890Y-82100500D01*
X179665892Y-82100500D01*
X179793186Y-82066392D01*
X179907314Y-82000500D01*
X180000500Y-81907314D01*
X180066392Y-81793186D01*
X180100500Y-81665892D01*
X180100500Y-81534108D01*
X180066392Y-81406814D01*
X180000500Y-81292686D01*
X179907314Y-81199500D01*
X179850250Y-81166554D01*
X179793187Y-81133608D01*
X179727412Y-81115984D01*
X179665892Y-81099500D01*
X179534108Y-81099500D01*
X179406812Y-81133608D01*
X179292686Y-81199500D01*
X179292683Y-81199502D01*
X179199502Y-81292683D01*
X179199500Y-81292686D01*
X179133608Y-81406812D01*
X179104222Y-81516484D01*
X179099500Y-81534108D01*
X163782744Y-81534108D01*
X163782744Y-81516484D01*
X163748636Y-81389190D01*
X163682744Y-81275062D01*
X163589558Y-81181876D01*
X163505956Y-81133608D01*
X163475431Y-81115984D01*
X163411783Y-81098930D01*
X163348136Y-81081876D01*
X163216352Y-81081876D01*
X163089056Y-81115984D01*
X162974930Y-81181876D01*
X162974927Y-81181878D01*
X162875997Y-81280809D01*
X162873858Y-81278670D01*
X162829042Y-81311370D01*
X162759295Y-81315500D01*
X162725135Y-81302053D01*
X162693189Y-81283609D01*
X162693186Y-81283608D01*
X162565892Y-81249500D01*
X162434108Y-81249500D01*
X162306812Y-81283608D01*
X162192686Y-81349500D01*
X162192683Y-81349502D01*
X162099502Y-81442683D01*
X162099500Y-81442686D01*
X162033608Y-81556812D01*
X161999500Y-81684108D01*
X161999500Y-81792324D01*
X161979815Y-81859363D01*
X161927011Y-81905118D01*
X161857853Y-81915062D01*
X161794297Y-81886037D01*
X161787819Y-81880005D01*
X161707316Y-81799502D01*
X161707314Y-81799500D01*
X161593186Y-81733608D01*
X161593181Y-81733606D01*
X161590667Y-81732565D01*
X161588866Y-81731114D01*
X161586147Y-81729544D01*
X161586391Y-81729120D01*
X161536262Y-81688725D01*
X161514195Y-81622432D01*
X161518340Y-81585915D01*
X161550500Y-81465892D01*
X161550500Y-81334108D01*
X161516392Y-81206814D01*
X161450500Y-81092686D01*
X161357314Y-80999500D01*
X161298695Y-80965656D01*
X161243187Y-80933608D01*
X161179539Y-80916554D01*
X161115892Y-80899500D01*
X160984108Y-80899500D01*
X160856812Y-80933608D01*
X160742686Y-80999500D01*
X160742683Y-80999502D01*
X160649502Y-81092683D01*
X160649500Y-81092686D01*
X160583608Y-81206812D01*
X160554486Y-81315500D01*
X160549500Y-81334108D01*
X123736994Y-81334108D01*
X123654624Y-81172449D01*
X123615270Y-81118282D01*
X123615269Y-81118282D01*
X122982962Y-81750590D01*
X122965925Y-81687007D01*
X122900099Y-81572993D01*
X122807007Y-81479901D01*
X122692993Y-81414075D01*
X122629409Y-81397037D01*
X123261716Y-80764728D01*
X123207550Y-80725375D01*
X123018216Y-80628904D01*
X122842026Y-80571656D01*
X122819862Y-80556500D01*
X122795848Y-80544480D01*
X122791455Y-80537076D01*
X122784350Y-80532218D01*
X122773896Y-80507482D01*
X122760196Y-80484391D01*
X122760503Y-80475789D01*
X122757152Y-80467860D01*
X122761731Y-80441398D01*
X122762018Y-80433373D01*
X166548765Y-80433373D01*
X166548765Y-80565157D01*
X166565819Y-80628804D01*
X166582873Y-80692452D01*
X166615819Y-80749515D01*
X166648765Y-80806579D01*
X166741951Y-80899765D01*
X166856079Y-80965657D01*
X166983373Y-80999765D01*
X166983375Y-80999765D01*
X167115155Y-80999765D01*
X167115157Y-80999765D01*
X167242451Y-80965657D01*
X167356579Y-80899765D01*
X167449765Y-80806579D01*
X167515657Y-80692451D01*
X167549765Y-80565157D01*
X167549765Y-80433373D01*
X167532211Y-80367860D01*
X167533874Y-80298013D01*
X167573036Y-80240150D01*
X167619890Y-80215995D01*
X167693235Y-80196343D01*
X167807363Y-80130451D01*
X167900549Y-80037265D01*
X167966441Y-79923137D01*
X168000549Y-79795843D01*
X168000549Y-79664059D01*
X167966441Y-79536765D01*
X167900549Y-79422637D01*
X167807363Y-79329451D01*
X167750299Y-79296505D01*
X167693236Y-79263559D01*
X167592360Y-79236530D01*
X167565941Y-79229451D01*
X167434157Y-79229451D01*
X167306861Y-79263559D01*
X167192735Y-79329451D01*
X167192732Y-79329453D01*
X167099551Y-79422634D01*
X167099549Y-79422637D01*
X167033657Y-79536763D01*
X166999549Y-79664059D01*
X166999549Y-79795844D01*
X167017102Y-79861354D01*
X167015439Y-79931203D01*
X166976276Y-79989066D01*
X166929421Y-80013221D01*
X166856077Y-80032873D01*
X166741951Y-80098765D01*
X166741948Y-80098767D01*
X166648767Y-80191948D01*
X166648765Y-80191951D01*
X166582873Y-80306077D01*
X166548765Y-80433373D01*
X122762018Y-80433373D01*
X122762690Y-80414565D01*
X122767599Y-80407494D01*
X122769067Y-80399013D01*
X122787222Y-80379231D01*
X122802538Y-80357173D01*
X122813361Y-80350751D01*
X122816311Y-80347538D01*
X122832882Y-80339168D01*
X122997598Y-80270941D01*
X123169655Y-80155977D01*
X123315977Y-80009655D01*
X123430941Y-79837598D01*
X123510130Y-79646420D01*
X123528374Y-79554699D01*
X165171492Y-79554699D01*
X165171492Y-79686482D01*
X165205600Y-79813778D01*
X165219352Y-79837596D01*
X165271492Y-79927905D01*
X165364678Y-80021091D01*
X165478806Y-80086983D01*
X165606100Y-80121091D01*
X165606102Y-80121091D01*
X165737882Y-80121091D01*
X165737884Y-80121091D01*
X165865178Y-80086983D01*
X165979306Y-80021091D01*
X166072492Y-79927905D01*
X166138384Y-79813777D01*
X166164206Y-79717405D01*
X166200571Y-79657746D01*
X166263418Y-79627217D01*
X166283981Y-79625500D01*
X166365890Y-79625500D01*
X166365892Y-79625500D01*
X166493186Y-79591392D01*
X166607314Y-79525500D01*
X166700500Y-79432314D01*
X166766392Y-79318186D01*
X166800500Y-79190892D01*
X166800500Y-79059108D01*
X166766392Y-78931814D01*
X166700500Y-78817686D01*
X166607314Y-78724500D01*
X166537353Y-78684108D01*
X181799500Y-78684108D01*
X181799500Y-78815891D01*
X181833608Y-78943187D01*
X181847005Y-78966391D01*
X181899500Y-79057314D01*
X181992686Y-79150500D01*
X182106814Y-79216392D01*
X182234108Y-79250500D01*
X182234110Y-79250500D01*
X182365890Y-79250500D01*
X182365892Y-79250500D01*
X182493186Y-79216392D01*
X182607314Y-79150500D01*
X182700500Y-79057314D01*
X182766392Y-78943186D01*
X182800500Y-78815892D01*
X182800500Y-78684108D01*
X182766392Y-78556814D01*
X182700500Y-78442686D01*
X182607314Y-78349500D01*
X182533380Y-78306814D01*
X182493187Y-78283608D01*
X182428931Y-78266391D01*
X182365892Y-78249500D01*
X182234108Y-78249500D01*
X182106812Y-78283608D01*
X181992686Y-78349500D01*
X181992683Y-78349502D01*
X181899502Y-78442683D01*
X181899500Y-78442686D01*
X181833608Y-78556812D01*
X181799500Y-78684108D01*
X166537353Y-78684108D01*
X166493187Y-78658608D01*
X166429539Y-78641554D01*
X166365892Y-78624500D01*
X166234108Y-78624500D01*
X166106812Y-78658608D01*
X165992686Y-78724500D01*
X165992683Y-78724502D01*
X165899502Y-78817683D01*
X165899500Y-78817686D01*
X165833608Y-78931814D01*
X165824343Y-78966392D01*
X165807786Y-79028185D01*
X165771421Y-79087845D01*
X165708574Y-79118374D01*
X165688011Y-79120091D01*
X165606100Y-79120091D01*
X165478804Y-79154199D01*
X165364678Y-79220091D01*
X165364675Y-79220093D01*
X165271494Y-79313274D01*
X165271492Y-79313277D01*
X165205600Y-79427403D01*
X165171492Y-79554699D01*
X123528374Y-79554699D01*
X123531942Y-79536763D01*
X123534803Y-79522381D01*
X123550499Y-79443468D01*
X123550500Y-79443466D01*
X123550500Y-79236534D01*
X123550499Y-79236530D01*
X123549091Y-79229451D01*
X123510130Y-79033580D01*
X123430941Y-78842402D01*
X123315977Y-78670345D01*
X123315975Y-78670342D01*
X123169657Y-78524024D01*
X123047920Y-78442683D01*
X122997598Y-78409059D01*
X122806420Y-78329870D01*
X122806412Y-78329868D01*
X122603469Y-78289500D01*
X122603465Y-78289500D01*
X122396535Y-78289500D01*
X122396530Y-78289500D01*
X122193587Y-78329868D01*
X122193579Y-78329870D01*
X122002403Y-78409058D01*
X121830342Y-78524024D01*
X121684024Y-78670342D01*
X121569058Y-78842403D01*
X121489870Y-79033579D01*
X121489868Y-79033587D01*
X121449500Y-79236530D01*
X121449500Y-79443469D01*
X121489868Y-79646412D01*
X121489870Y-79646420D01*
X121569058Y-79837596D01*
X121684024Y-80009657D01*
X121830342Y-80155975D01*
X122002405Y-80270943D01*
X122067759Y-80298013D01*
X122167108Y-80339164D01*
X122221511Y-80383005D01*
X122243576Y-80449299D01*
X122226297Y-80516998D01*
X122175160Y-80564609D01*
X122157974Y-80571656D01*
X121981781Y-80628905D01*
X121792439Y-80725380D01*
X121738282Y-80764727D01*
X121738282Y-80764728D01*
X122370591Y-81397037D01*
X122307007Y-81414075D01*
X122192993Y-81479901D01*
X122099901Y-81572993D01*
X122034075Y-81687007D01*
X122017037Y-81750591D01*
X121384728Y-81118282D01*
X121384727Y-81118282D01*
X121345380Y-81172439D01*
X121248904Y-81361782D01*
X121183242Y-81563869D01*
X121183242Y-81563872D01*
X121150000Y-81773753D01*
X112250500Y-81773753D01*
X112250500Y-75930247D01*
X121449500Y-75930247D01*
X121449500Y-77669752D01*
X121461131Y-77728229D01*
X121461132Y-77728230D01*
X121505447Y-77794552D01*
X121571769Y-77838867D01*
X121571770Y-77838868D01*
X121630247Y-77850499D01*
X121630250Y-77850500D01*
X121630252Y-77850500D01*
X123369750Y-77850500D01*
X123369751Y-77850499D01*
X123384568Y-77847552D01*
X123428229Y-77838868D01*
X123428229Y-77838867D01*
X123428231Y-77838867D01*
X123494552Y-77794552D01*
X123534940Y-77734108D01*
X153899500Y-77734108D01*
X153899500Y-77865891D01*
X153933608Y-77993187D01*
X153956946Y-78033608D01*
X153999500Y-78107314D01*
X154092686Y-78200500D01*
X154206814Y-78266392D01*
X154334108Y-78300500D01*
X154334110Y-78300500D01*
X154465889Y-78300500D01*
X154465892Y-78300500D01*
X154551856Y-78277466D01*
X154621703Y-78279129D01*
X154679566Y-78318291D01*
X154707070Y-78382520D01*
X154703723Y-78429329D01*
X154702443Y-78434103D01*
X154702443Y-78565891D01*
X154736551Y-78693187D01*
X154754630Y-78724500D01*
X154802443Y-78807314D01*
X154895629Y-78900500D01*
X155009757Y-78966392D01*
X155137051Y-79000500D01*
X155137053Y-79000500D01*
X155268833Y-79000500D01*
X155268835Y-79000500D01*
X155396129Y-78966392D01*
X155510257Y-78900500D01*
X155603443Y-78807314D01*
X155669335Y-78693186D01*
X155703443Y-78565892D01*
X155703443Y-78434108D01*
X155669335Y-78306814D01*
X155603443Y-78192686D01*
X155510257Y-78099500D01*
X155453193Y-78066554D01*
X155396130Y-78033608D01*
X155332482Y-78016554D01*
X155268835Y-77999500D01*
X155137051Y-77999500D01*
X155137049Y-77999500D01*
X155051087Y-78022533D01*
X154981237Y-78020870D01*
X154923375Y-77981707D01*
X154895872Y-77917478D01*
X154899221Y-77870662D01*
X154900500Y-77865892D01*
X154900500Y-77734108D01*
X154866392Y-77606814D01*
X154800500Y-77492686D01*
X154707314Y-77399500D01*
X154679371Y-77383367D01*
X154679370Y-77383366D01*
X154593188Y-77333609D01*
X154593187Y-77333608D01*
X154593186Y-77333608D01*
X154465892Y-77299500D01*
X154334108Y-77299500D01*
X154206812Y-77333608D01*
X154092686Y-77399500D01*
X154092683Y-77399502D01*
X153999502Y-77492683D01*
X153999500Y-77492686D01*
X153933608Y-77606812D01*
X153899500Y-77734108D01*
X123534940Y-77734108D01*
X123538867Y-77728231D01*
X123544739Y-77698710D01*
X123550500Y-77669750D01*
X123550500Y-75930249D01*
X123550499Y-75930247D01*
X123538868Y-75871770D01*
X123538867Y-75871769D01*
X123494552Y-75805447D01*
X123428230Y-75761132D01*
X123428229Y-75761131D01*
X123369752Y-75749500D01*
X123369748Y-75749500D01*
X121630252Y-75749500D01*
X121630247Y-75749500D01*
X121571770Y-75761131D01*
X121571769Y-75761132D01*
X121505447Y-75805447D01*
X121461132Y-75871769D01*
X121461131Y-75871770D01*
X121449500Y-75930247D01*
X112250500Y-75930247D01*
X112250500Y-75599038D01*
X138299500Y-75599038D01*
X138299500Y-75850962D01*
X138323185Y-76000499D01*
X138338910Y-76099785D01*
X138416760Y-76339383D01*
X138531132Y-76563848D01*
X138679201Y-76767649D01*
X138679205Y-76767654D01*
X138857345Y-76945794D01*
X138857350Y-76945798D01*
X138990702Y-77042683D01*
X139061155Y-77093870D01*
X139184686Y-77156812D01*
X139285616Y-77208239D01*
X139285618Y-77208239D01*
X139285621Y-77208241D01*
X139525215Y-77286090D01*
X139774038Y-77325500D01*
X139774039Y-77325500D01*
X140025961Y-77325500D01*
X140025962Y-77325500D01*
X140274785Y-77286090D01*
X140280885Y-77284108D01*
X155249500Y-77284108D01*
X155249500Y-77415891D01*
X155283608Y-77543187D01*
X155316554Y-77600250D01*
X155349500Y-77657314D01*
X155442686Y-77750500D01*
X155556814Y-77816392D01*
X155684108Y-77850500D01*
X155684110Y-77850500D01*
X155815890Y-77850500D01*
X155815892Y-77850500D01*
X155943186Y-77816392D01*
X156057314Y-77750500D01*
X156150500Y-77657314D01*
X156216392Y-77543186D01*
X156250500Y-77415892D01*
X156250500Y-77284108D01*
X156216392Y-77156814D01*
X156150500Y-77042686D01*
X156057314Y-76949500D01*
X156000250Y-76916554D01*
X155943187Y-76883608D01*
X155879539Y-76866554D01*
X155815892Y-76849500D01*
X155684108Y-76849500D01*
X155556812Y-76883608D01*
X155442686Y-76949500D01*
X155442683Y-76949502D01*
X155349502Y-77042683D01*
X155349500Y-77042686D01*
X155283608Y-77156812D01*
X155249500Y-77284108D01*
X140280885Y-77284108D01*
X140514379Y-77208241D01*
X140738845Y-77093870D01*
X140942656Y-76945793D01*
X141120793Y-76767656D01*
X141268870Y-76563845D01*
X141383241Y-76339379D01*
X141461090Y-76099785D01*
X141500500Y-75850962D01*
X141500500Y-75599038D01*
X141461090Y-75350215D01*
X141383241Y-75110621D01*
X141383239Y-75110618D01*
X141383239Y-75110616D01*
X141333577Y-75013150D01*
X141268870Y-74886155D01*
X141201325Y-74793187D01*
X141132798Y-74698866D01*
X141120798Y-74682350D01*
X141120794Y-74682345D01*
X141072557Y-74634108D01*
X153799500Y-74634108D01*
X153799500Y-74765892D01*
X153806813Y-74793186D01*
X153833608Y-74893187D01*
X153841766Y-74907316D01*
X153899500Y-75007314D01*
X153992686Y-75100500D01*
X154106814Y-75166392D01*
X154106813Y-75166392D01*
X154118399Y-75169496D01*
X154140443Y-75175402D01*
X154200103Y-75211765D01*
X154230634Y-75274612D01*
X154228126Y-75327269D01*
X154199500Y-75434106D01*
X154199500Y-75565891D01*
X154233608Y-75693187D01*
X154266121Y-75749500D01*
X154299500Y-75807314D01*
X154392686Y-75900500D01*
X154506814Y-75966392D01*
X154634108Y-76000500D01*
X154634110Y-76000500D01*
X154765890Y-76000500D01*
X154765892Y-76000500D01*
X154893186Y-75966392D01*
X155007314Y-75900500D01*
X155100500Y-75807314D01*
X155166392Y-75693186D01*
X155200500Y-75565892D01*
X155200500Y-75434108D01*
X155166392Y-75306814D01*
X155100500Y-75192686D01*
X155007314Y-75099500D01*
X154894052Y-75034108D01*
X190599500Y-75034108D01*
X190599500Y-75165892D01*
X190608773Y-75200500D01*
X190633608Y-75293187D01*
X190641475Y-75306812D01*
X190699500Y-75407314D01*
X190792686Y-75500500D01*
X190891521Y-75557563D01*
X190905944Y-75565890D01*
X190906814Y-75566392D01*
X191034108Y-75600500D01*
X191034110Y-75600500D01*
X191165890Y-75600500D01*
X191165892Y-75600500D01*
X191293186Y-75566392D01*
X191407314Y-75500500D01*
X191500500Y-75407314D01*
X191566392Y-75293186D01*
X191600500Y-75165892D01*
X191600500Y-75034108D01*
X191566392Y-74906814D01*
X191500500Y-74792686D01*
X191407314Y-74699500D01*
X191322442Y-74650499D01*
X191293187Y-74633608D01*
X191228931Y-74616391D01*
X191165892Y-74599500D01*
X191034108Y-74599500D01*
X190906812Y-74633608D01*
X190792686Y-74699500D01*
X190792683Y-74699502D01*
X190699502Y-74792683D01*
X190699500Y-74792686D01*
X190633608Y-74906812D01*
X190615514Y-74974341D01*
X190599500Y-75034108D01*
X154894052Y-75034108D01*
X154893186Y-75033608D01*
X154844719Y-75020621D01*
X154831306Y-75013150D01*
X154817141Y-74998745D01*
X154799894Y-74988232D01*
X154793146Y-74974341D01*
X154782319Y-74963330D01*
X154778191Y-74943555D01*
X154769365Y-74925385D01*
X154770300Y-74905748D01*
X154768043Y-74894934D01*
X154771209Y-74886657D01*
X154771873Y-74872729D01*
X154800500Y-74765892D01*
X154800500Y-74634108D01*
X154766392Y-74506814D01*
X154764883Y-74504201D01*
X154737813Y-74457314D01*
X154700500Y-74392686D01*
X154607314Y-74299500D01*
X154507306Y-74241760D01*
X154493187Y-74233608D01*
X154427061Y-74215890D01*
X154365892Y-74199500D01*
X154234108Y-74199500D01*
X154106812Y-74233608D01*
X153992686Y-74299500D01*
X153992683Y-74299502D01*
X153899502Y-74392683D01*
X153899500Y-74392686D01*
X153833608Y-74506812D01*
X153821902Y-74550500D01*
X153799500Y-74634108D01*
X141072557Y-74634108D01*
X140942654Y-74504205D01*
X140942649Y-74504201D01*
X140738848Y-74356132D01*
X140738847Y-74356131D01*
X140738845Y-74356130D01*
X140668747Y-74320413D01*
X140514383Y-74241760D01*
X140274785Y-74163910D01*
X140025962Y-74124500D01*
X139774038Y-74124500D01*
X139716533Y-74133608D01*
X139525214Y-74163910D01*
X139285616Y-74241760D01*
X139061151Y-74356132D01*
X138857350Y-74504201D01*
X138857345Y-74504205D01*
X138679205Y-74682345D01*
X138679201Y-74682350D01*
X138531132Y-74886151D01*
X138416760Y-75110616D01*
X138338910Y-75350214D01*
X138325622Y-75434110D01*
X138299500Y-75599038D01*
X112250500Y-75599038D01*
X112250500Y-74534108D01*
X133799500Y-74534108D01*
X133799500Y-74665891D01*
X133833608Y-74793187D01*
X133866554Y-74850250D01*
X133899500Y-74907314D01*
X133992686Y-75000500D01*
X134106814Y-75066392D01*
X134234108Y-75100500D01*
X134234110Y-75100500D01*
X134365890Y-75100500D01*
X134365892Y-75100500D01*
X134493186Y-75066392D01*
X134607314Y-75000500D01*
X134700500Y-74907314D01*
X134766392Y-74793186D01*
X134800500Y-74665892D01*
X134800500Y-74534108D01*
X134766392Y-74406814D01*
X134700500Y-74292686D01*
X134607314Y-74199500D01*
X134550250Y-74166554D01*
X134493187Y-74133608D01*
X134429539Y-74116554D01*
X134365892Y-74099500D01*
X134234108Y-74099500D01*
X134106812Y-74133608D01*
X133992686Y-74199500D01*
X133992683Y-74199502D01*
X133899502Y-74292683D01*
X133899500Y-74292686D01*
X133833608Y-74406812D01*
X133799500Y-74534108D01*
X112250500Y-74534108D01*
X112250500Y-72534108D01*
X148674999Y-72534108D01*
X148674999Y-72665892D01*
X148682104Y-72692407D01*
X148709107Y-72793187D01*
X148722216Y-72815892D01*
X148774999Y-72907314D01*
X148868185Y-73000500D01*
X148982313Y-73066392D01*
X149109607Y-73100500D01*
X149109609Y-73100500D01*
X149241389Y-73100500D01*
X149241391Y-73100500D01*
X149368685Y-73066392D01*
X149482813Y-73000500D01*
X149575999Y-72907314D01*
X149641891Y-72793186D01*
X149668894Y-72692405D01*
X149673951Y-72684108D01*
X153499500Y-72684108D01*
X153499500Y-72815891D01*
X153533608Y-72943187D01*
X153562185Y-72992683D01*
X153599500Y-73057314D01*
X153692686Y-73150500D01*
X153806814Y-73216392D01*
X153934108Y-73250500D01*
X153934110Y-73250500D01*
X154065890Y-73250500D01*
X154065892Y-73250500D01*
X154127068Y-73234108D01*
X154999500Y-73234108D01*
X154999500Y-73365891D01*
X155033608Y-73493187D01*
X155066554Y-73550250D01*
X155099500Y-73607314D01*
X155099502Y-73607316D01*
X155129505Y-73637319D01*
X155162990Y-73698642D01*
X155158006Y-73768334D01*
X155129505Y-73812681D01*
X155099502Y-73842683D01*
X155099500Y-73842686D01*
X155033608Y-73956812D01*
X154999500Y-74084108D01*
X154999500Y-74215891D01*
X155033608Y-74343187D01*
X155041081Y-74356130D01*
X155099500Y-74457314D01*
X155192686Y-74550500D01*
X155306814Y-74616392D01*
X155434108Y-74650500D01*
X155434110Y-74650500D01*
X155565890Y-74650500D01*
X155565892Y-74650500D01*
X155693186Y-74616392D01*
X155807314Y-74550500D01*
X155900500Y-74457314D01*
X155966392Y-74343186D01*
X156000500Y-74215892D01*
X156000500Y-74084108D01*
X155966392Y-73956814D01*
X155900500Y-73842686D01*
X155870495Y-73812681D01*
X155837010Y-73751358D01*
X155841994Y-73681666D01*
X155870495Y-73637319D01*
X155900500Y-73607314D01*
X155966392Y-73493186D01*
X156000500Y-73365892D01*
X156000500Y-73234108D01*
X155966392Y-73106814D01*
X155900500Y-72992686D01*
X155807314Y-72899500D01*
X155750250Y-72866554D01*
X155693187Y-72833608D01*
X155627061Y-72815890D01*
X155565892Y-72799500D01*
X155434108Y-72799500D01*
X155306812Y-72833608D01*
X155192686Y-72899500D01*
X155192683Y-72899502D01*
X155099502Y-72992683D01*
X155099500Y-72992686D01*
X155033608Y-73106812D01*
X154999500Y-73234108D01*
X154127068Y-73234108D01*
X154193186Y-73216392D01*
X154307314Y-73150500D01*
X154400500Y-73057314D01*
X154466392Y-72943186D01*
X154500500Y-72815892D01*
X154500500Y-72684108D01*
X154466392Y-72556814D01*
X154400500Y-72442686D01*
X154307314Y-72349500D01*
X154307312Y-72349499D01*
X154307310Y-72349497D01*
X154234799Y-72307633D01*
X154234798Y-72307633D01*
X154193187Y-72283608D01*
X154129539Y-72266554D01*
X154065892Y-72249500D01*
X153934108Y-72249500D01*
X153806812Y-72283608D01*
X153692686Y-72349500D01*
X153692683Y-72349502D01*
X153599502Y-72442683D01*
X153599500Y-72442686D01*
X153533608Y-72556812D01*
X153499500Y-72684108D01*
X149673951Y-72684108D01*
X149705259Y-72632746D01*
X149768106Y-72602217D01*
X149788669Y-72600500D01*
X149865890Y-72600500D01*
X149865892Y-72600500D01*
X149993186Y-72566392D01*
X150107314Y-72500500D01*
X150200500Y-72407314D01*
X150266392Y-72293186D01*
X150289117Y-72208373D01*
X158925235Y-72208373D01*
X158925235Y-72340157D01*
X158927739Y-72349502D01*
X158959343Y-72467452D01*
X158978422Y-72500497D01*
X159025235Y-72581579D01*
X159118421Y-72674765D01*
X159232549Y-72740657D01*
X159359843Y-72774765D01*
X159359845Y-72774765D01*
X159491625Y-72774765D01*
X159491627Y-72774765D01*
X159618921Y-72740657D01*
X159733049Y-72674765D01*
X159826235Y-72581579D01*
X159892127Y-72467451D01*
X159926235Y-72340157D01*
X159926235Y-72208373D01*
X159892127Y-72081079D01*
X159826235Y-71966951D01*
X159733049Y-71873765D01*
X159675985Y-71840819D01*
X159618922Y-71807873D01*
X159555274Y-71790819D01*
X159491627Y-71773765D01*
X159359843Y-71773765D01*
X159232547Y-71807873D01*
X159118421Y-71873765D01*
X159118418Y-71873767D01*
X159025237Y-71966948D01*
X159025235Y-71966951D01*
X158959343Y-72081077D01*
X158927612Y-72199500D01*
X158925235Y-72208373D01*
X150289117Y-72208373D01*
X150300500Y-72165892D01*
X150300500Y-72062051D01*
X150320185Y-71995012D01*
X150372989Y-71949257D01*
X150442147Y-71939313D01*
X150486499Y-71954663D01*
X150506814Y-71966392D01*
X150634108Y-72000500D01*
X150634110Y-72000500D01*
X150765890Y-72000500D01*
X150765892Y-72000500D01*
X150893186Y-71966392D01*
X151007314Y-71900500D01*
X151100500Y-71807314D01*
X151166392Y-71693186D01*
X151200500Y-71565892D01*
X151200500Y-71524500D01*
X151220185Y-71457461D01*
X151272989Y-71411706D01*
X151324500Y-71400500D01*
X151431532Y-71400500D01*
X151431534Y-71400500D01*
X151558828Y-71366392D01*
X151614745Y-71334108D01*
X162549500Y-71334108D01*
X162549500Y-71465891D01*
X162583608Y-71593187D01*
X162587253Y-71599500D01*
X162649500Y-71707314D01*
X162742686Y-71800500D01*
X162763696Y-71812630D01*
X162811911Y-71863197D01*
X162825135Y-71931804D01*
X162821471Y-71952110D01*
X162799500Y-72034108D01*
X162799500Y-72165891D01*
X162833608Y-72293187D01*
X162841949Y-72307633D01*
X162899500Y-72407314D01*
X162992686Y-72500500D01*
X163050897Y-72534108D01*
X163106810Y-72566390D01*
X163106814Y-72566392D01*
X163234108Y-72600500D01*
X163234110Y-72600500D01*
X163365890Y-72600500D01*
X163365892Y-72600500D01*
X163493186Y-72566392D01*
X163607314Y-72500500D01*
X163700500Y-72407314D01*
X163766392Y-72293186D01*
X163800500Y-72165892D01*
X163800500Y-72034108D01*
X163766392Y-71906814D01*
X163700500Y-71792686D01*
X163607314Y-71699500D01*
X163586301Y-71687368D01*
X163538087Y-71636801D01*
X163524865Y-71568194D01*
X163528525Y-71547904D01*
X163550500Y-71465892D01*
X163550500Y-71334108D01*
X163516392Y-71206814D01*
X163450500Y-71092686D01*
X163357314Y-70999500D01*
X163299100Y-70965890D01*
X163243187Y-70933608D01*
X163179539Y-70916554D01*
X163115892Y-70899500D01*
X162984108Y-70899500D01*
X162856812Y-70933608D01*
X162742686Y-70999500D01*
X162742683Y-70999502D01*
X162649502Y-71092683D01*
X162649500Y-71092686D01*
X162583608Y-71206812D01*
X162549500Y-71334108D01*
X151614745Y-71334108D01*
X151672956Y-71300500D01*
X151766142Y-71207314D01*
X151832034Y-71093186D01*
X151866142Y-70965892D01*
X151866142Y-70834108D01*
X151832034Y-70706814D01*
X151766142Y-70592686D01*
X151672956Y-70499500D01*
X151615892Y-70466554D01*
X151558829Y-70433608D01*
X151495181Y-70416554D01*
X151431534Y-70399500D01*
X151299750Y-70399500D01*
X151172454Y-70433608D01*
X151058328Y-70499500D01*
X151058325Y-70499502D01*
X150965144Y-70592683D01*
X150965142Y-70592686D01*
X150899250Y-70706812D01*
X150865142Y-70834108D01*
X150865142Y-70875500D01*
X150845457Y-70942539D01*
X150792653Y-70988294D01*
X150741142Y-70999500D01*
X150634108Y-70999500D01*
X150506812Y-71033608D01*
X150392686Y-71099500D01*
X150392683Y-71099502D01*
X150299502Y-71192683D01*
X150299500Y-71192686D01*
X150233608Y-71306812D01*
X150199500Y-71434108D01*
X150199500Y-71537948D01*
X150179815Y-71604987D01*
X150127011Y-71650742D01*
X150057853Y-71660686D01*
X150013502Y-71645336D01*
X149993191Y-71633610D01*
X149993188Y-71633609D01*
X149993187Y-71633608D01*
X149993186Y-71633608D01*
X149865892Y-71599500D01*
X149734108Y-71599500D01*
X149606812Y-71633608D01*
X149492686Y-71699500D01*
X149492683Y-71699502D01*
X149399502Y-71792683D01*
X149399500Y-71792686D01*
X149333608Y-71906812D01*
X149321471Y-71952110D01*
X149308506Y-72000499D01*
X149306605Y-72007593D01*
X149270240Y-72067254D01*
X149207393Y-72097783D01*
X149186830Y-72099500D01*
X149109607Y-72099500D01*
X148982311Y-72133608D01*
X148868185Y-72199500D01*
X148868182Y-72199502D01*
X148775001Y-72292683D01*
X148774999Y-72292686D01*
X148709107Y-72406812D01*
X148674999Y-72534108D01*
X112250500Y-72534108D01*
X112250500Y-70109843D01*
X158523765Y-70109843D01*
X158523765Y-70241626D01*
X158557873Y-70368922D01*
X158575528Y-70399500D01*
X158623765Y-70483049D01*
X158716951Y-70576235D01*
X158831079Y-70642127D01*
X158958373Y-70676235D01*
X158958375Y-70676235D01*
X159090155Y-70676235D01*
X159090157Y-70676235D01*
X159217451Y-70642127D01*
X159331579Y-70576235D01*
X159424765Y-70483049D01*
X159490657Y-70368921D01*
X159511159Y-70292405D01*
X159547523Y-70232747D01*
X159610369Y-70202217D01*
X159630933Y-70200500D01*
X159665890Y-70200500D01*
X159665892Y-70200500D01*
X159793186Y-70166392D01*
X159907314Y-70100500D01*
X160000500Y-70007314D01*
X160066392Y-69893186D01*
X160100500Y-69765892D01*
X160100500Y-69634108D01*
X160066392Y-69506814D01*
X160000500Y-69392686D01*
X159907314Y-69299500D01*
X159835808Y-69258216D01*
X159793187Y-69233608D01*
X159708206Y-69210838D01*
X159665892Y-69199500D01*
X159534108Y-69199500D01*
X159406812Y-69233608D01*
X159292686Y-69299500D01*
X159292683Y-69299502D01*
X159199502Y-69392683D01*
X159199500Y-69392686D01*
X159133608Y-69506812D01*
X159124493Y-69540830D01*
X159113105Y-69583329D01*
X159076742Y-69642988D01*
X159013896Y-69673518D01*
X158993332Y-69675235D01*
X158958373Y-69675235D01*
X158831077Y-69709343D01*
X158716951Y-69775235D01*
X158716948Y-69775237D01*
X158623767Y-69868418D01*
X158623765Y-69868421D01*
X158557873Y-69982547D01*
X158523765Y-70109843D01*
X112250500Y-70109843D01*
X112250500Y-67115186D01*
X115349500Y-67115186D01*
X115349500Y-67384813D01*
X115379686Y-67652719D01*
X115379688Y-67652731D01*
X115439684Y-67915594D01*
X115439687Y-67915602D01*
X115528734Y-68170082D01*
X115645714Y-68412994D01*
X115645716Y-68412997D01*
X115789162Y-68641289D01*
X115914573Y-68798549D01*
X115952609Y-68846246D01*
X115957266Y-68852085D01*
X116147915Y-69042734D01*
X116358711Y-69210838D01*
X116587003Y-69354284D01*
X116829921Y-69471267D01*
X117021049Y-69538145D01*
X117084397Y-69560312D01*
X117084405Y-69560315D01*
X117084408Y-69560315D01*
X117084409Y-69560316D01*
X117347268Y-69620312D01*
X117615187Y-69650499D01*
X117615188Y-69650500D01*
X117615191Y-69650500D01*
X117884812Y-69650500D01*
X117884812Y-69650499D01*
X118152732Y-69620312D01*
X118415591Y-69560316D01*
X118670079Y-69471267D01*
X118912997Y-69354284D01*
X119141289Y-69210838D01*
X119352085Y-69042734D01*
X119542734Y-68852085D01*
X119710838Y-68641289D01*
X119854284Y-68412997D01*
X119971267Y-68170079D01*
X120060316Y-67915591D01*
X120070665Y-67870247D01*
X127609500Y-67870247D01*
X127609500Y-69609752D01*
X127621131Y-69668229D01*
X127621132Y-69668230D01*
X127665447Y-69734552D01*
X127731769Y-69778867D01*
X127731770Y-69778868D01*
X127790247Y-69790499D01*
X127790250Y-69790500D01*
X127790252Y-69790500D01*
X129529750Y-69790500D01*
X129529751Y-69790499D01*
X129544568Y-69787552D01*
X129588229Y-69778868D01*
X129588229Y-69778867D01*
X129588231Y-69778867D01*
X129654552Y-69734552D01*
X129698867Y-69668231D01*
X129698867Y-69668229D01*
X129698868Y-69668229D01*
X129710499Y-69609752D01*
X129710500Y-69609750D01*
X129710500Y-68636530D01*
X130149500Y-68636530D01*
X130149500Y-68843469D01*
X130189868Y-69046412D01*
X130189870Y-69046420D01*
X130257974Y-69210838D01*
X130269059Y-69237598D01*
X130282836Y-69258217D01*
X130384024Y-69409657D01*
X130530342Y-69555975D01*
X130530345Y-69555977D01*
X130702402Y-69670941D01*
X130893580Y-69750130D01*
X131038052Y-69778867D01*
X131096530Y-69790499D01*
X131096534Y-69790500D01*
X131096535Y-69790500D01*
X131303466Y-69790500D01*
X131303467Y-69790499D01*
X131506420Y-69750130D01*
X131697598Y-69670941D01*
X131869655Y-69555977D01*
X132015977Y-69409655D01*
X132130941Y-69237598D01*
X132210130Y-69046420D01*
X132250500Y-68843465D01*
X132250500Y-68636535D01*
X132250499Y-68636530D01*
X132689500Y-68636530D01*
X132689500Y-68843469D01*
X132729868Y-69046412D01*
X132729870Y-69046420D01*
X132797974Y-69210838D01*
X132809059Y-69237598D01*
X132822836Y-69258217D01*
X132924024Y-69409657D01*
X133070342Y-69555975D01*
X133070345Y-69555977D01*
X133242402Y-69670941D01*
X133433580Y-69750130D01*
X133578052Y-69778867D01*
X133636530Y-69790499D01*
X133636534Y-69790500D01*
X133636535Y-69790500D01*
X133843466Y-69790500D01*
X133843467Y-69790499D01*
X134046420Y-69750130D01*
X134237598Y-69670941D01*
X134409655Y-69555977D01*
X134555977Y-69409655D01*
X134670941Y-69237598D01*
X134750130Y-69046420D01*
X134790500Y-68843465D01*
X134790500Y-68636535D01*
X134750130Y-68433580D01*
X134670941Y-68242402D01*
X134555977Y-68070345D01*
X134555975Y-68070342D01*
X134409657Y-67924024D01*
X134241655Y-67811770D01*
X134237598Y-67809059D01*
X134216932Y-67800499D01*
X134046420Y-67729870D01*
X134046412Y-67729868D01*
X133843469Y-67689500D01*
X133843465Y-67689500D01*
X133636535Y-67689500D01*
X133636530Y-67689500D01*
X133433587Y-67729868D01*
X133433579Y-67729870D01*
X133242403Y-67809058D01*
X133070342Y-67924024D01*
X132924024Y-68070342D01*
X132809058Y-68242403D01*
X132729870Y-68433579D01*
X132729868Y-68433587D01*
X132689500Y-68636530D01*
X132250499Y-68636530D01*
X132210130Y-68433580D01*
X132130941Y-68242402D01*
X132015977Y-68070345D01*
X132015975Y-68070342D01*
X131869657Y-67924024D01*
X131701655Y-67811770D01*
X131697598Y-67809059D01*
X131676932Y-67800499D01*
X131506420Y-67729870D01*
X131506412Y-67729868D01*
X131303469Y-67689500D01*
X131303465Y-67689500D01*
X131096535Y-67689500D01*
X131096530Y-67689500D01*
X130893587Y-67729868D01*
X130893579Y-67729870D01*
X130702403Y-67809058D01*
X130530342Y-67924024D01*
X130384024Y-68070342D01*
X130269058Y-68242403D01*
X130189870Y-68433579D01*
X130189868Y-68433587D01*
X130149500Y-68636530D01*
X129710500Y-68636530D01*
X129710500Y-67870249D01*
X129710499Y-67870247D01*
X129698868Y-67811770D01*
X129698867Y-67811769D01*
X129654552Y-67745447D01*
X129588230Y-67701132D01*
X129588229Y-67701131D01*
X129529752Y-67689500D01*
X129529748Y-67689500D01*
X127790252Y-67689500D01*
X127790247Y-67689500D01*
X127731770Y-67701131D01*
X127731769Y-67701132D01*
X127665447Y-67745447D01*
X127621132Y-67811769D01*
X127621131Y-67811770D01*
X127609500Y-67870247D01*
X120070665Y-67870247D01*
X120120312Y-67652732D01*
X120150500Y-67384809D01*
X120150500Y-67115191D01*
X120120312Y-66847268D01*
X120060316Y-66584409D01*
X120042289Y-66532892D01*
X120033232Y-66507007D01*
X119971267Y-66329921D01*
X119971264Y-66329916D01*
X119971262Y-66329909D01*
X119881851Y-66144244D01*
X119858872Y-66096530D01*
X127609500Y-66096530D01*
X127609500Y-66303469D01*
X127649868Y-66506412D01*
X127649870Y-66506420D01*
X127715939Y-66665925D01*
X127729059Y-66697598D01*
X127742836Y-66718217D01*
X127844024Y-66869657D01*
X127990342Y-67015975D01*
X127990345Y-67015977D01*
X128162402Y-67130941D01*
X128353580Y-67210130D01*
X128556530Y-67250499D01*
X128556534Y-67250500D01*
X128556535Y-67250500D01*
X128763466Y-67250500D01*
X128763467Y-67250499D01*
X128966420Y-67210130D01*
X129157598Y-67130941D01*
X129329655Y-67015977D01*
X129475977Y-66869655D01*
X129590941Y-66697598D01*
X129670130Y-66506420D01*
X129710500Y-66303465D01*
X129710500Y-66096535D01*
X129710499Y-66096530D01*
X130149500Y-66096530D01*
X130149500Y-66303469D01*
X130189868Y-66506412D01*
X130189870Y-66506420D01*
X130255939Y-66665925D01*
X130269059Y-66697598D01*
X130282836Y-66718217D01*
X130384024Y-66869657D01*
X130530342Y-67015975D01*
X130530345Y-67015977D01*
X130702402Y-67130941D01*
X130893580Y-67210130D01*
X131096530Y-67250499D01*
X131096534Y-67250500D01*
X131096535Y-67250500D01*
X131303466Y-67250500D01*
X131303467Y-67250499D01*
X131506420Y-67210130D01*
X131697598Y-67130941D01*
X131869655Y-67015977D01*
X132015977Y-66869655D01*
X132130941Y-66697598D01*
X132210130Y-66506420D01*
X132250500Y-66303465D01*
X132250500Y-66096535D01*
X132250499Y-66096530D01*
X132689500Y-66096530D01*
X132689500Y-66303469D01*
X132729868Y-66506412D01*
X132729870Y-66506420D01*
X132795939Y-66665925D01*
X132809059Y-66697598D01*
X132822836Y-66718217D01*
X132924024Y-66869657D01*
X133070342Y-67015975D01*
X133070345Y-67015977D01*
X133242402Y-67130941D01*
X133433580Y-67210130D01*
X133636530Y-67250499D01*
X133636534Y-67250500D01*
X133636535Y-67250500D01*
X133843466Y-67250500D01*
X133843467Y-67250499D01*
X134046420Y-67210130D01*
X134237598Y-67130941D01*
X134409655Y-67015977D01*
X134555977Y-66869655D01*
X134670941Y-66697598D01*
X134750130Y-66506420D01*
X134790500Y-66303465D01*
X134790500Y-66096535D01*
X134790499Y-66096530D01*
X135229500Y-66096530D01*
X135229500Y-66303469D01*
X135269868Y-66506412D01*
X135269870Y-66506420D01*
X135335939Y-66665925D01*
X135349059Y-66697598D01*
X135362836Y-66718217D01*
X135464024Y-66869657D01*
X135610342Y-67015975D01*
X135610345Y-67015977D01*
X135782402Y-67130941D01*
X135973580Y-67210130D01*
X136176530Y-67250499D01*
X136176534Y-67250500D01*
X136176535Y-67250500D01*
X136383466Y-67250500D01*
X136383467Y-67250499D01*
X136586420Y-67210130D01*
X136777598Y-67130941D01*
X136949655Y-67015977D01*
X137095977Y-66869655D01*
X137210941Y-66697598D01*
X137279165Y-66532889D01*
X137323004Y-66478488D01*
X137389298Y-66456423D01*
X137456998Y-66473702D01*
X137504609Y-66524839D01*
X137511656Y-66542026D01*
X137568904Y-66718216D01*
X137665375Y-66907550D01*
X137704728Y-66961716D01*
X138337037Y-66329408D01*
X138354075Y-66392993D01*
X138419901Y-66507007D01*
X138512993Y-66600099D01*
X138627007Y-66665925D01*
X138690591Y-66682962D01*
X138089971Y-67283581D01*
X138168711Y-67400895D01*
X138169920Y-67404729D01*
X138172844Y-67407491D01*
X138180343Y-67437778D01*
X138189727Y-67467529D01*
X138188671Y-67471408D01*
X138189638Y-67475312D01*
X138179573Y-67504844D01*
X138171383Y-67534947D01*
X138168397Y-67537640D01*
X138167100Y-67541447D01*
X138122051Y-67580483D01*
X138112440Y-67585380D01*
X138058282Y-67624727D01*
X138058282Y-67624728D01*
X138690591Y-68257037D01*
X138627007Y-68274075D01*
X138512993Y-68339901D01*
X138419901Y-68432993D01*
X138354075Y-68547007D01*
X138337037Y-68610591D01*
X137704728Y-67978282D01*
X137704727Y-67978282D01*
X137665380Y-68032439D01*
X137568905Y-68221781D01*
X137511656Y-68397974D01*
X137472218Y-68455649D01*
X137407859Y-68482847D01*
X137339013Y-68470932D01*
X137287537Y-68423688D01*
X137279164Y-68407107D01*
X137210943Y-68242405D01*
X137095975Y-68070342D01*
X136949657Y-67924024D01*
X136781655Y-67811770D01*
X136777598Y-67809059D01*
X136756932Y-67800499D01*
X136586420Y-67729870D01*
X136586412Y-67729868D01*
X136383469Y-67689500D01*
X136383465Y-67689500D01*
X136176535Y-67689500D01*
X136176530Y-67689500D01*
X135973587Y-67729868D01*
X135973579Y-67729870D01*
X135782403Y-67809058D01*
X135610342Y-67924024D01*
X135464024Y-68070342D01*
X135349058Y-68242403D01*
X135269870Y-68433579D01*
X135269868Y-68433587D01*
X135229500Y-68636530D01*
X135229500Y-68843469D01*
X135269868Y-69046412D01*
X135269870Y-69046420D01*
X135337974Y-69210838D01*
X135349059Y-69237598D01*
X135362836Y-69258217D01*
X135464024Y-69409657D01*
X135610342Y-69555975D01*
X135610345Y-69555977D01*
X135782402Y-69670941D01*
X135973580Y-69750130D01*
X136118052Y-69778867D01*
X136176530Y-69790499D01*
X136176534Y-69790500D01*
X136176535Y-69790500D01*
X136383466Y-69790500D01*
X136383467Y-69790499D01*
X136586420Y-69750130D01*
X136777598Y-69670941D01*
X136949655Y-69555977D01*
X137095977Y-69409655D01*
X137210941Y-69237598D01*
X137279165Y-69072889D01*
X137323004Y-69018488D01*
X137389298Y-68996423D01*
X137456998Y-69013702D01*
X137504609Y-69064839D01*
X137511656Y-69082026D01*
X137568904Y-69258216D01*
X137665375Y-69447550D01*
X137704728Y-69501716D01*
X138337037Y-68869408D01*
X138354075Y-68932993D01*
X138419901Y-69047007D01*
X138512993Y-69140099D01*
X138627007Y-69205925D01*
X138690590Y-69222962D01*
X138058282Y-69855269D01*
X138058282Y-69855270D01*
X138112449Y-69894624D01*
X138301782Y-69991095D01*
X138503870Y-70056757D01*
X138713754Y-70090000D01*
X138926246Y-70090000D01*
X139136127Y-70056757D01*
X139136130Y-70056757D01*
X139338216Y-69991095D01*
X139527554Y-69894622D01*
X139581716Y-69855270D01*
X139581717Y-69855270D01*
X138949408Y-69222962D01*
X139012993Y-69205925D01*
X139127007Y-69140099D01*
X139220099Y-69047007D01*
X139285925Y-68932993D01*
X139302962Y-68869408D01*
X139935270Y-69501717D01*
X139935270Y-69501716D01*
X139974622Y-69447554D01*
X140071095Y-69258217D01*
X140136757Y-69056130D01*
X140136757Y-69056127D01*
X140170000Y-68846246D01*
X140170000Y-68633753D01*
X140136757Y-68423872D01*
X140136757Y-68423869D01*
X140071095Y-68221782D01*
X139974624Y-68032449D01*
X139935270Y-67978282D01*
X139935269Y-67978282D01*
X139302962Y-68610590D01*
X139285925Y-68547007D01*
X139220099Y-68432993D01*
X139127007Y-68339901D01*
X139012993Y-68274075D01*
X138949409Y-68257037D01*
X139581716Y-67624728D01*
X139527550Y-67585375D01*
X139517954Y-67580486D01*
X139467157Y-67532512D01*
X139450361Y-67464692D01*
X139472897Y-67398556D01*
X139517954Y-67359514D01*
X139527554Y-67354622D01*
X139581716Y-67315270D01*
X139581717Y-67315270D01*
X139580109Y-67313662D01*
X139500555Y-67234108D01*
X172249500Y-67234108D01*
X172249500Y-67365891D01*
X172283608Y-67493187D01*
X172316554Y-67550250D01*
X172349500Y-67607314D01*
X172442686Y-67700500D01*
X172556814Y-67766392D01*
X172684108Y-67800500D01*
X172684110Y-67800500D01*
X172815890Y-67800500D01*
X172815892Y-67800500D01*
X172943186Y-67766392D01*
X173057314Y-67700500D01*
X173150500Y-67607314D01*
X173216392Y-67493186D01*
X173250500Y-67365892D01*
X173250500Y-67234108D01*
X173216392Y-67106814D01*
X173150500Y-66992686D01*
X173057314Y-66899500D01*
X172966846Y-66847268D01*
X172943187Y-66833608D01*
X172879539Y-66816554D01*
X172815892Y-66799500D01*
X172684108Y-66799500D01*
X172556812Y-66833608D01*
X172442686Y-66899500D01*
X172442683Y-66899502D01*
X172349502Y-66992683D01*
X172349500Y-66992686D01*
X172283608Y-67106812D01*
X172249500Y-67234108D01*
X139500555Y-67234108D01*
X138949408Y-66682962D01*
X139012993Y-66665925D01*
X139127007Y-66600099D01*
X139220099Y-66507007D01*
X139285925Y-66392993D01*
X139302962Y-66329408D01*
X139935270Y-66961717D01*
X139935270Y-66961716D01*
X139974622Y-66907554D01*
X140071095Y-66718217D01*
X140136757Y-66516130D01*
X140136757Y-66516127D01*
X140170000Y-66306246D01*
X140170000Y-66093753D01*
X140136757Y-65883872D01*
X140136757Y-65883869D01*
X140071095Y-65681782D01*
X139974624Y-65492449D01*
X139935270Y-65438282D01*
X139935269Y-65438282D01*
X139302962Y-66070590D01*
X139285925Y-66007007D01*
X139220099Y-65892993D01*
X139127007Y-65799901D01*
X139012993Y-65734075D01*
X138949409Y-65717037D01*
X139581716Y-65084728D01*
X139527550Y-65045375D01*
X139338217Y-64948904D01*
X139136129Y-64883242D01*
X138926246Y-64850000D01*
X138713754Y-64850000D01*
X138503872Y-64883242D01*
X138503869Y-64883242D01*
X138301782Y-64948904D01*
X138112439Y-65045380D01*
X138058282Y-65084727D01*
X138058282Y-65084728D01*
X138690591Y-65717037D01*
X138627007Y-65734075D01*
X138512993Y-65799901D01*
X138419901Y-65892993D01*
X138354075Y-66007007D01*
X138337037Y-66070591D01*
X137704728Y-65438282D01*
X137704727Y-65438282D01*
X137665380Y-65492439D01*
X137568905Y-65681781D01*
X137511656Y-65857974D01*
X137472218Y-65915649D01*
X137407859Y-65942847D01*
X137339013Y-65930932D01*
X137287537Y-65883688D01*
X137279164Y-65867107D01*
X137275686Y-65858711D01*
X137251327Y-65799901D01*
X137210943Y-65702405D01*
X137095975Y-65530342D01*
X136949657Y-65384024D01*
X136807683Y-65289161D01*
X136777598Y-65269059D01*
X136586420Y-65189870D01*
X136586412Y-65189868D01*
X136383469Y-65149500D01*
X136383465Y-65149500D01*
X136176535Y-65149500D01*
X136176530Y-65149500D01*
X135973587Y-65189868D01*
X135973579Y-65189870D01*
X135782403Y-65269058D01*
X135610342Y-65384024D01*
X135464024Y-65530342D01*
X135349058Y-65702403D01*
X135269870Y-65893579D01*
X135269868Y-65893587D01*
X135229500Y-66096530D01*
X134790499Y-66096530D01*
X134750130Y-65893580D01*
X134670941Y-65702402D01*
X134555977Y-65530345D01*
X134555975Y-65530342D01*
X134409657Y-65384024D01*
X134267683Y-65289161D01*
X134237598Y-65269059D01*
X134046420Y-65189870D01*
X134046412Y-65189868D01*
X133843469Y-65149500D01*
X133843465Y-65149500D01*
X133636535Y-65149500D01*
X133636530Y-65149500D01*
X133433587Y-65189868D01*
X133433579Y-65189870D01*
X133242403Y-65269058D01*
X133070342Y-65384024D01*
X132924024Y-65530342D01*
X132809058Y-65702403D01*
X132729870Y-65893579D01*
X132729868Y-65893587D01*
X132689500Y-66096530D01*
X132250499Y-66096530D01*
X132210130Y-65893580D01*
X132130941Y-65702402D01*
X132015977Y-65530345D01*
X132015975Y-65530342D01*
X131869657Y-65384024D01*
X131727683Y-65289161D01*
X131697598Y-65269059D01*
X131506420Y-65189870D01*
X131506412Y-65189868D01*
X131303469Y-65149500D01*
X131303465Y-65149500D01*
X131096535Y-65149500D01*
X131096530Y-65149500D01*
X130893587Y-65189868D01*
X130893579Y-65189870D01*
X130702403Y-65269058D01*
X130530342Y-65384024D01*
X130384024Y-65530342D01*
X130269058Y-65702403D01*
X130189870Y-65893579D01*
X130189868Y-65893587D01*
X130149500Y-66096530D01*
X129710499Y-66096530D01*
X129670130Y-65893580D01*
X129590941Y-65702402D01*
X129475977Y-65530345D01*
X129475975Y-65530342D01*
X129329657Y-65384024D01*
X129187683Y-65289161D01*
X129157598Y-65269059D01*
X128966420Y-65189870D01*
X128966412Y-65189868D01*
X128763469Y-65149500D01*
X128763465Y-65149500D01*
X128556535Y-65149500D01*
X128556530Y-65149500D01*
X128353587Y-65189868D01*
X128353579Y-65189870D01*
X128162403Y-65269058D01*
X127990342Y-65384024D01*
X127844024Y-65530342D01*
X127729058Y-65702403D01*
X127649870Y-65893579D01*
X127649868Y-65893587D01*
X127609500Y-66096530D01*
X119858872Y-66096530D01*
X119854285Y-66087005D01*
X119763704Y-65942847D01*
X119710838Y-65858711D01*
X119542734Y-65647915D01*
X119352085Y-65457266D01*
X119141289Y-65289162D01*
X118912997Y-65145716D01*
X118912994Y-65145714D01*
X118670082Y-65028734D01*
X118415602Y-64939687D01*
X118415594Y-64939684D01*
X118218446Y-64894687D01*
X118152732Y-64879688D01*
X118152728Y-64879687D01*
X118152719Y-64879686D01*
X117884813Y-64849500D01*
X117884809Y-64849500D01*
X117615191Y-64849500D01*
X117615186Y-64849500D01*
X117347280Y-64879686D01*
X117347268Y-64879688D01*
X117084405Y-64939684D01*
X117084397Y-64939687D01*
X116829917Y-65028734D01*
X116587005Y-65145714D01*
X116358712Y-65289161D01*
X116147915Y-65457265D01*
X115957265Y-65647915D01*
X115789161Y-65858712D01*
X115645714Y-66087005D01*
X115528734Y-66329917D01*
X115439687Y-66584397D01*
X115439684Y-66584405D01*
X115379688Y-66847268D01*
X115379686Y-66847280D01*
X115349500Y-67115186D01*
X112250500Y-67115186D01*
X112250500Y-61874500D01*
X112270185Y-61807461D01*
X112322989Y-61761706D01*
X112374500Y-61750500D01*
X182377649Y-61750500D01*
X182444688Y-61770185D01*
G37*
%TD.AperFunction*%
%TD*%
M02*
